%TF.GenerationSoftware,KiCad,Pcbnew,(6.0.2)*%
%TF.CreationDate,2022-03-05T17:59:28+01:00*%
%TF.ProjectId,Carte_Alim_V6_2022,43617274-655f-4416-9c69-6d5f56365f32,rev?*%
%TF.SameCoordinates,Original*%
%TF.FileFunction,Paste,Top*%
%TF.FilePolarity,Positive*%
%FSLAX46Y46*%
G04 Gerber Fmt 4.6, Leading zero omitted, Abs format (unit mm)*
G04 Created by KiCad (PCBNEW (6.0.2)) date 2022-03-05 17:59:28*
%MOMM*%
%LPD*%
G01*
G04 APERTURE LIST*
G04 Aperture macros list*
%AMRoundRect*
0 Rectangle with rounded corners*
0 $1 Rounding radius*
0 $2 $3 $4 $5 $6 $7 $8 $9 X,Y pos of 4 corners*
0 Add a 4 corners polygon primitive as box body*
4,1,4,$2,$3,$4,$5,$6,$7,$8,$9,$2,$3,0*
0 Add four circle primitives for the rounded corners*
1,1,$1+$1,$2,$3*
1,1,$1+$1,$4,$5*
1,1,$1+$1,$6,$7*
1,1,$1+$1,$8,$9*
0 Add four rect primitives between the rounded corners*
20,1,$1+$1,$2,$3,$4,$5,0*
20,1,$1+$1,$4,$5,$6,$7,0*
20,1,$1+$1,$6,$7,$8,$9,0*
20,1,$1+$1,$8,$9,$2,$3,0*%
G04 Aperture macros list end*
%ADD10R,3.000000X1.500000*%
%ADD11RoundRect,0.250000X0.325000X0.450000X-0.325000X0.450000X-0.325000X-0.450000X0.325000X-0.450000X0*%
%ADD12RoundRect,0.250000X-0.337500X-0.475000X0.337500X-0.475000X0.337500X0.475000X-0.337500X0.475000X0*%
%ADD13RoundRect,0.250000X1.100000X-0.412500X1.100000X0.412500X-1.100000X0.412500X-1.100000X-0.412500X0*%
%ADD14RoundRect,0.250000X-0.350000X-0.450000X0.350000X-0.450000X0.350000X0.450000X-0.350000X0.450000X0*%
%ADD15RoundRect,0.250000X-0.475000X0.337500X-0.475000X-0.337500X0.475000X-0.337500X0.475000X0.337500X0*%
%ADD16RoundRect,0.237500X-0.237500X0.250000X-0.237500X-0.250000X0.237500X-0.250000X0.237500X0.250000X0*%
%ADD17RoundRect,0.250000X-1.100000X0.412500X-1.100000X-0.412500X1.100000X-0.412500X1.100000X0.412500X0*%
%ADD18RoundRect,0.250000X0.475000X-0.337500X0.475000X0.337500X-0.475000X0.337500X-0.475000X-0.337500X0*%
%ADD19RoundRect,0.237500X0.237500X-0.250000X0.237500X0.250000X-0.237500X0.250000X-0.237500X-0.250000X0*%
%ADD20RoundRect,0.250000X-0.325000X-0.450000X0.325000X-0.450000X0.325000X0.450000X-0.325000X0.450000X0*%
%ADD21RoundRect,0.250000X0.337500X0.475000X-0.337500X0.475000X-0.337500X-0.475000X0.337500X-0.475000X0*%
%ADD22R,0.350000X0.950000*%
%ADD23R,0.650000X0.350000*%
%ADD24R,0.950000X0.350000*%
%ADD25R,1.100000X3.400000*%
%ADD26R,2.700000X1.100000*%
%ADD27R,2.700000X1.520000*%
%ADD28R,1.350000X0.300000*%
%ADD29R,1.730000X0.580000*%
%ADD30RoundRect,0.237500X-0.250000X-0.237500X0.250000X-0.237500X0.250000X0.237500X-0.250000X0.237500X0*%
%ADD31RoundRect,0.250000X0.350000X0.450000X-0.350000X0.450000X-0.350000X-0.450000X0.350000X-0.450000X0*%
%ADD32R,3.825000X12.320000*%
G04 APERTURE END LIST*
D10*
%TO.C,J22*%
X134250000Y-50705000D03*
X138750000Y-49435000D03*
X134250000Y-48165000D03*
X138750000Y-46895000D03*
%TD*%
D11*
%TO.C,D5*%
X134875000Y-30750000D03*
X132825000Y-30750000D03*
%TD*%
D12*
%TO.C,C41*%
X90962500Y-108100000D03*
X93037500Y-108100000D03*
%TD*%
D13*
%TO.C,C46*%
X103000000Y-107562500D03*
X103000000Y-104437500D03*
%TD*%
D14*
%TO.C,R13*%
X128950000Y-30750000D03*
X130950000Y-30750000D03*
%TD*%
D15*
%TO.C,C8*%
X84000000Y-62062500D03*
X84000000Y-64137500D03*
%TD*%
D16*
%TO.C,R6*%
X90600000Y-62387500D03*
X90600000Y-64212500D03*
%TD*%
D13*
%TO.C,C51*%
X109600000Y-107562500D03*
X109600000Y-104437500D03*
%TD*%
D17*
%TO.C,C47*%
X103000000Y-109537500D03*
X103000000Y-112662500D03*
%TD*%
D18*
%TO.C,C2*%
X92400000Y-64137500D03*
X92400000Y-62062500D03*
%TD*%
D14*
%TO.C,R14*%
X115950000Y-28400000D03*
X117950000Y-28400000D03*
%TD*%
D19*
%TO.C,R22*%
X91800000Y-98412500D03*
X91800000Y-96587500D03*
%TD*%
D17*
%TO.C,C39*%
X75300000Y-102237500D03*
X75300000Y-105362500D03*
%TD*%
%TO.C,C49*%
X106300000Y-109537500D03*
X106300000Y-112662500D03*
%TD*%
D11*
%TO.C,D7*%
X121755000Y-28405000D03*
X119705000Y-28405000D03*
%TD*%
%TO.C,D6*%
X120912500Y-129500000D03*
X118862500Y-129500000D03*
%TD*%
D13*
%TO.C,C17*%
X112000000Y-73362500D03*
X112000000Y-70237500D03*
%TD*%
D17*
%TO.C,C3*%
X81000000Y-68037500D03*
X81000000Y-71162500D03*
%TD*%
D20*
%TO.C,D4*%
X94975000Y-28600000D03*
X97025000Y-28600000D03*
%TD*%
D18*
%TO.C,C11*%
X99100000Y-72837500D03*
X99100000Y-70762500D03*
%TD*%
D10*
%TO.C,J24*%
X125450000Y-39305000D03*
X129950000Y-38035000D03*
X125450000Y-36765000D03*
X129950000Y-35495000D03*
%TD*%
D21*
%TO.C,C44*%
X93137500Y-101600000D03*
X91062500Y-101600000D03*
%TD*%
D16*
%TO.C,R9*%
X102700000Y-68987500D03*
X102700000Y-70812500D03*
%TD*%
D17*
%TO.C,C37*%
X78600000Y-102237500D03*
X78600000Y-105362500D03*
%TD*%
%TO.C,C13*%
X105400000Y-75337500D03*
X105400000Y-78462500D03*
%TD*%
%TO.C,C50*%
X109600000Y-109537500D03*
X109600000Y-112662500D03*
%TD*%
%TO.C,C16*%
X112000000Y-75337500D03*
X112000000Y-78462500D03*
%TD*%
%TO.C,C5*%
X77700000Y-68037500D03*
X77700000Y-71162500D03*
%TD*%
D16*
%TO.C,R3*%
X87400000Y-62387500D03*
X87400000Y-64212500D03*
%TD*%
D22*
%TO.C,U1*%
X90775000Y-66720000D03*
X90125000Y-66720000D03*
X89475000Y-66720000D03*
X88825000Y-66720000D03*
X87825000Y-66720000D03*
X87325000Y-66720000D03*
D23*
X86400000Y-67725000D03*
X86400000Y-68375000D03*
X86400000Y-69505000D03*
X86400000Y-70005000D03*
X86400000Y-70505000D03*
D22*
X87175000Y-71770000D03*
X87675000Y-71770000D03*
X88175000Y-71770000D03*
X88825000Y-71770000D03*
X89325000Y-71770000D03*
X89825000Y-71770000D03*
X90325000Y-71770000D03*
X90825000Y-71770000D03*
D24*
X91600000Y-70995000D03*
X91600000Y-70495000D03*
X91600000Y-69995000D03*
X91600000Y-69495000D03*
X91600000Y-68995000D03*
X91600000Y-68495000D03*
X91600000Y-67995000D03*
X91600000Y-67495000D03*
D25*
X90275000Y-69245000D03*
D26*
X88075000Y-68045000D03*
D27*
X88075000Y-69655000D03*
D28*
X87675000Y-71445000D03*
D29*
X87590000Y-70705000D03*
%TD*%
D30*
%TO.C,R10*%
X115587500Y-70300000D03*
X117412500Y-70300000D03*
%TD*%
D16*
%TO.C,R26*%
X88200000Y-96587500D03*
X88200000Y-98412500D03*
%TD*%
D31*
%TO.C,R1*%
X56250000Y-97800000D03*
X54250000Y-97800000D03*
%TD*%
D15*
%TO.C,C42*%
X81600000Y-96262500D03*
X81600000Y-98337500D03*
%TD*%
D21*
%TO.C,C43*%
X89037500Y-108100000D03*
X86962500Y-108100000D03*
%TD*%
D13*
%TO.C,C4*%
X77700000Y-66062500D03*
X77700000Y-62937500D03*
%TD*%
D30*
%TO.C,R25*%
X91187500Y-103400000D03*
X93012500Y-103400000D03*
%TD*%
D10*
%TO.C,J26*%
X125450000Y-50705000D03*
X129950000Y-49435000D03*
X125450000Y-48165000D03*
X129950000Y-46895000D03*
%TD*%
D30*
%TO.C,R5*%
X93587500Y-69200000D03*
X95412500Y-69200000D03*
%TD*%
D31*
%TO.C,R12*%
X100800000Y-28600000D03*
X98800000Y-28600000D03*
%TD*%
D21*
%TO.C,C10*%
X95537500Y-67400000D03*
X93462500Y-67400000D03*
%TD*%
D19*
%TO.C,R7*%
X85800000Y-64212500D03*
X85800000Y-62387500D03*
%TD*%
D16*
%TO.C,R29*%
X100300000Y-103187500D03*
X100300000Y-105012500D03*
%TD*%
D13*
%TO.C,C40*%
X78600000Y-100262500D03*
X78600000Y-97137500D03*
%TD*%
D20*
%TO.C,D3*%
X51000000Y-62000000D03*
X53050000Y-62000000D03*
%TD*%
D12*
%TO.C,C7*%
X93362500Y-73900000D03*
X95437500Y-73900000D03*
%TD*%
D20*
%TO.C,D1*%
X50425000Y-97800000D03*
X52475000Y-97800000D03*
%TD*%
D18*
%TO.C,C36*%
X90000000Y-98337500D03*
X90000000Y-96262500D03*
%TD*%
D21*
%TO.C,C9*%
X91437500Y-73900000D03*
X89362500Y-73900000D03*
%TD*%
D31*
%TO.C,R11*%
X56900000Y-62000000D03*
X54900000Y-62000000D03*
%TD*%
D16*
%TO.C,R23*%
X85000000Y-96587500D03*
X85000000Y-98412500D03*
%TD*%
D18*
%TO.C,C45*%
X96700000Y-107037500D03*
X96700000Y-104962500D03*
%TD*%
D15*
%TO.C,C1*%
X83900000Y-68062500D03*
X83900000Y-70137500D03*
%TD*%
%TO.C,C35*%
X81500000Y-102262500D03*
X81500000Y-104337500D03*
%TD*%
D13*
%TO.C,C12*%
X105400000Y-73362500D03*
X105400000Y-70237500D03*
%TD*%
D16*
%TO.C,R28*%
X98700000Y-105187500D03*
X98700000Y-107012500D03*
%TD*%
D19*
%TO.C,R27*%
X83400000Y-98412500D03*
X83400000Y-96587500D03*
%TD*%
%TO.C,R2*%
X94200000Y-64212500D03*
X94200000Y-62387500D03*
%TD*%
D13*
%TO.C,C14*%
X108700000Y-73362500D03*
X108700000Y-70237500D03*
%TD*%
D17*
%TO.C,C15*%
X108700000Y-75337500D03*
X108700000Y-78462500D03*
%TD*%
D13*
%TO.C,C48*%
X106300000Y-107562500D03*
X106300000Y-104437500D03*
%TD*%
D10*
%TO.C,J20*%
X134350000Y-39505000D03*
X138850000Y-38235000D03*
X134350000Y-36965000D03*
X138850000Y-35695000D03*
%TD*%
D30*
%TO.C,R30*%
X115375000Y-129700000D03*
X117200000Y-129700000D03*
%TD*%
D13*
%TO.C,C38*%
X75300000Y-100262500D03*
X75300000Y-97137500D03*
%TD*%
%TO.C,C6*%
X81000000Y-66062500D03*
X81000000Y-62937500D03*
%TD*%
D11*
%TO.C,D2*%
X121225000Y-70100000D03*
X119175000Y-70100000D03*
%TD*%
D22*
%TO.C,U3*%
X88375000Y-100920000D03*
X87725000Y-100920000D03*
X87075000Y-100920000D03*
X86425000Y-100920000D03*
X85425000Y-100920000D03*
X84925000Y-100920000D03*
D23*
X84000000Y-101925000D03*
X84000000Y-102575000D03*
X84000000Y-103705000D03*
X84000000Y-104205000D03*
X84000000Y-104705000D03*
D22*
X84775000Y-105970000D03*
X85275000Y-105970000D03*
X85775000Y-105970000D03*
X86425000Y-105970000D03*
X86925000Y-105970000D03*
X87425000Y-105970000D03*
X87925000Y-105970000D03*
X88425000Y-105970000D03*
D24*
X89200000Y-105195000D03*
X89200000Y-104695000D03*
X89200000Y-104195000D03*
X89200000Y-103695000D03*
X89200000Y-103195000D03*
X89200000Y-102695000D03*
X89200000Y-102195000D03*
X89200000Y-101695000D03*
D25*
X87875000Y-103445000D03*
D26*
X85675000Y-102245000D03*
D27*
X85675000Y-103855000D03*
D28*
X85275000Y-105645000D03*
D29*
X85190000Y-104905000D03*
%TD*%
D16*
%TO.C,R8*%
X101100000Y-70987500D03*
X101100000Y-72812500D03*
%TD*%
D19*
%TO.C,R4*%
X89000000Y-64212500D03*
X89000000Y-62387500D03*
%TD*%
D32*
%TO.C,L1*%
X83677500Y-85000000D03*
X99922500Y-85000000D03*
%TD*%
D19*
%TO.C,R24*%
X86600000Y-98412500D03*
X86600000Y-96587500D03*
%TD*%
D32*
%TO.C,L3*%
X81277500Y-119200000D03*
X97522500Y-119200000D03*
%TD*%
M02*
