M48
; DRILL file {KiCad (6.0.2)} date Sat Mar  5 17:59:21 2022
; FORMAT={-:-/ absolute / metric / decimal}
; #@! TF.CreationDate,2022-03-05T17:59:21+01:00
; #@! TF.GenerationSoftware,Kicad,Pcbnew,(6.0.2)
; #@! TF.FileFunction,Plated,1,4,PTH
FMAT,2
METRIC
; #@! TA.AperFunction,Plated,PTH,ViaDrill
T1C0.300
; #@! TA.AperFunction,Plated,PTH,ComponentDrill
T2C0.500
; #@! TA.AperFunction,Plated,PTH,ComponentDrill
T3C0.600
; #@! TA.AperFunction,Plated,PTH,ComponentDrill
T4C0.940
; #@! TA.AperFunction,Plated,PTH,ComponentDrill
T5C1.000
; #@! TA.AperFunction,Plated,PTH,ComponentDrill
T6C1.600
; #@! TA.AperFunction,Plated,PTH,ComponentDrill
T7C1.800
; #@! TA.AperFunction,Plated,PTH,ComponentDrill
T8C3.200
%
G90
G05
T1
X49.125Y-97.8
X49.15Y-101.6
X49.15Y-106.225
X49.15Y-110.925
X49.15Y-115.55
X49.15Y-120.125
X49.15Y-124.75
X49.725Y-62.0
X55.45Y-101.625
X55.45Y-106.25
X55.45Y-110.95
X55.45Y-115.575
X55.45Y-120.15
X55.45Y-124.775
X60.4Y-101.6
X60.425Y-106.25
X60.5Y-120.125
X60.5Y-124.75
X60.5Y-128.175
X60.5Y-132.8
X60.55Y-111.075
X60.55Y-115.7
X66.8Y-120.15
X66.8Y-124.775
X66.8Y-128.2
X66.8Y-132.825
X66.825Y-106.25
X66.85Y-111.1
X66.85Y-115.725
X72.95Y-106.175
X72.95Y-111.0
X73.0Y-100.4
X73.0Y-101.2
X73.0Y-102.0
X73.0Y-115.8
X73.05Y-120.325
X73.175Y-124.9
X73.275Y-128.25
X73.325Y-132.825
X74.15Y-106.7
X74.75Y-96.0
X75.225Y-106.7
X75.4Y-66.2
X75.4Y-67.0
X75.4Y-67.8
X76.2Y-96.0
X76.325Y-106.7
X76.7Y-61.6
X76.7Y-72.4
X77.525Y-106.725
X77.6Y-72.4
X77.625Y-95.975
X77.7Y-61.6
X78.6Y-72.4
X78.7Y-61.6
X78.7Y-106.725
X78.7Y-113.7
X78.7Y-116.6
X78.7Y-119.5
X78.7Y-122.2
X78.7Y-125.1
X79.425Y-95.975
X79.5Y-110.9
X79.5Y-112.2
X79.7Y-106.725
X79.9Y-72.4
X80.1Y-61.6
X80.15Y-129.825
X80.15Y-132.825
X80.55Y-101.1
X80.9Y-72.4
X81.1Y-61.6
X81.1Y-79.5
X81.1Y-82.4
X81.1Y-85.3
X81.1Y-88.0
X81.1Y-90.9
X81.45Y-105.65
X81.55Y-101.1
X81.9Y-72.4
X81.9Y-76.7
X81.9Y-78.0
X82.2Y-61.6
X82.95Y-101.8
X82.95Y-102.55
X83.3Y-66.0
X83.5Y-108.8
X83.5Y-110.9
X83.5Y-112.2
X83.9Y-66.5
X83.9Y-71.4
X84.4Y-106.9
X84.4Y-115.4
X84.4Y-118.4
X84.4Y-121.3
X84.4Y-125.0
X84.5Y-67.0
X84.8Y-103.4
X84.8Y-104.6
X84.9Y-76.7
X84.9Y-78.0
X85.0Y-67.6
X85.0Y-68.3
X85.3Y-106.9
X85.3Y-108.8
X85.3Y-112.2
X85.3Y-115.4
X85.3Y-118.4
X85.3Y-121.3
X85.3Y-125.0
X85.65Y-130.1
X85.7Y-67.6
X85.7Y-68.3
X85.7Y-132.825
X85.9Y-75.6
X86.5Y-103.4
X86.5Y-104.6
X86.55Y-95.525
X86.8Y-72.7
X86.8Y-79.2
X86.8Y-82.2
X86.8Y-85.2
X86.8Y-87.9
X86.8Y-90.8
X87.3Y-69.35
X87.3Y-70.5
X87.7Y-72.7
X87.7Y-75.6
X87.7Y-79.2
X87.7Y-82.2
X87.7Y-85.2
X87.7Y-87.9
X87.7Y-90.8
X87.9Y-102.2
X87.9Y-103.4
X87.9Y-104.6
X88.775Y-99.525
X88.8Y-69.35
X88.8Y-70.6
X89.0Y-61.3
X89.55Y-109.5
X90.0Y-95.1
X90.3Y-68.0
X90.3Y-69.35
X90.3Y-70.5
X90.875Y-130.05
X90.875Y-132.825
X91.219Y-65.319
X91.5Y-75.1
X91.9Y-95.5
X92.4Y-61.0
X93.55Y-109.55
X94.125Y-103.425
X94.15Y-101.55
X94.3Y-61.2
X95.0Y-108.9
X95.0Y-110.1
X95.0Y-111.3
X95.0Y-112.5
X95.0Y-113.5
X95.0Y-114.6
X95.0Y-115.6
X95.0Y-116.7
X95.0Y-117.9
X95.0Y-119.0
X95.0Y-120.0
X95.0Y-121.1
X95.0Y-122.1
X95.0Y-123.2
X95.0Y-124.4
X95.0Y-125.5
X95.4Y-75.2
X95.675Y-98.6
X96.075Y-129.95
X96.075Y-132.875
X96.1Y-108.9
X96.1Y-110.1
X96.1Y-111.3
X96.1Y-112.5
X96.5Y-69.2
X96.7Y-67.4
X97.1Y-108.9
X97.1Y-110.1
X97.1Y-111.3
X97.1Y-112.5
X97.4Y-74.7
X97.4Y-75.9
X97.4Y-77.1
X97.4Y-78.3
X97.4Y-79.3
X97.4Y-80.4
X97.4Y-81.4
X97.4Y-82.5
X97.4Y-83.7
X97.4Y-84.8
X97.4Y-85.8
X97.4Y-86.9
X97.4Y-87.9
X97.4Y-89.0
X97.4Y-90.2
X97.4Y-91.3
X97.8Y-104.2
X98.2Y-108.9
X98.2Y-110.1
X98.2Y-111.3
X98.2Y-112.5
X98.5Y-74.7
X98.5Y-75.9
X98.5Y-77.1
X98.5Y-78.3
X99.1Y-111.3
X99.1Y-112.5
X99.5Y-74.7
X99.5Y-75.9
X99.5Y-77.1
X99.5Y-78.3
X99.525Y-93.975
X99.675Y-98.6
X99.9Y-107.4
X99.9Y-108.6
X99.9Y-109.7
X100.2Y-69.9
X100.2Y-111.3
X100.2Y-112.5
X100.2Y-113.5
X100.2Y-114.6
X100.2Y-115.6
X100.2Y-116.7
X100.2Y-117.9
X100.2Y-119.0
X100.2Y-120.0
X100.2Y-121.1
X100.2Y-122.1
X100.2Y-123.2
X100.2Y-124.4
X100.2Y-125.5
X100.325Y-102.15
X100.6Y-74.7
X100.6Y-75.9
X100.6Y-77.1
X100.6Y-78.3
X100.675Y-132.925
X100.725Y-129.95
X101.1Y-107.4
X101.1Y-108.6
X101.1Y-109.7
X101.5Y-77.1
X101.5Y-78.3
X101.7Y-103.2
X101.7Y-114.0
X102.075Y-28.625
X102.3Y-73.2
X102.3Y-74.4
X102.3Y-75.5
X102.6Y-77.1
X102.6Y-78.3
X102.6Y-79.3
X102.6Y-80.4
X102.6Y-81.4
X102.6Y-82.5
X102.6Y-83.7
X102.6Y-84.8
X102.6Y-85.8
X102.6Y-86.9
X102.6Y-87.9
X102.6Y-89.0
X102.6Y-90.2
X102.6Y-91.3
X102.6Y-103.2
X102.6Y-114.0
X102.7Y-67.9
X103.4Y-103.2
X103.4Y-114.0
X103.5Y-73.2
X103.5Y-74.4
X103.5Y-75.5
X103.85Y-116.525
X103.975Y-119.925
X103.975Y-122.85
X103.975Y-126.325
X103.975Y-132.975
X104.0Y-68.9
X104.0Y-79.7
X104.025Y-129.95
X104.3Y-103.2
X104.3Y-114.0
X104.9Y-68.9
X104.9Y-79.7
X105.0Y-85.3
X105.0Y-89.925
X105.0Y-93.975
X105.0Y-98.6
X105.1Y-103.2
X105.1Y-114.0
X105.7Y-68.9
X105.7Y-79.7
X106.0Y-103.2
X106.0Y-114.0
X106.6Y-68.9
X106.6Y-79.7
X106.8Y-103.2
X106.8Y-114.0
X107.4Y-68.9
X107.4Y-79.7
X107.7Y-103.2
X107.7Y-114.0
X108.3Y-68.9
X108.3Y-79.7
X108.4Y-116.525
X108.5Y-103.2
X108.5Y-114.0
X108.5Y-119.925
X108.5Y-123.075
X108.5Y-126.325
X108.5Y-130.0
X108.55Y-133.075
X109.1Y-68.9
X109.1Y-79.7
X109.4Y-103.2
X109.4Y-114.0
X110.0Y-68.9
X110.0Y-79.7
X110.2Y-103.2
X110.2Y-114.0
X110.8Y-68.9
X110.8Y-79.7
X111.1Y-103.2
X111.1Y-114.0
X111.3Y-85.325
X111.3Y-89.95
X111.3Y-94.0
X111.3Y-98.625
X111.7Y-68.9
X111.7Y-79.7
X112.475Y-130.0
X112.5Y-68.9
X112.5Y-79.7
X112.5Y-133.05
X113.4Y-68.9
X113.4Y-79.7
X120.9Y-130.825
X123.0Y-28.4
X129.925Y-45.6
X129.95Y-34.125
X132.0Y-35.55
X132.025Y-46.95
X136.0Y-30.8
X138.875Y-34.4
X138.875Y-45.675
X140.8Y-46.95
X140.95Y-35.8
T2
X48.0Y-28.0
X48.0Y-131.3
X48.703Y-26.303
X48.703Y-29.697
X48.703Y-129.603
X48.703Y-132.997
X50.4Y-25.6
X50.4Y-30.4
X50.4Y-128.9
X50.4Y-133.7
X52.097Y-26.303
X52.097Y-29.697
X52.097Y-129.603
X52.097Y-132.997
X52.8Y-28.0
X52.8Y-131.3
X138.1Y-28.0
X138.1Y-131.3
X138.803Y-26.303
X138.803Y-29.697
X138.803Y-129.603
X138.803Y-132.997
X140.5Y-25.6
X140.5Y-30.4
X140.5Y-128.9
X140.5Y-133.7
X142.197Y-26.303
X142.197Y-29.697
X142.197Y-129.603
X142.197Y-132.997
X142.9Y-28.0
X142.9Y-131.3
T3
X92.027Y-55.5
X94.027Y-55.5
X99.373Y-55.5
X101.373Y-55.5
X110.227Y-55.64
X112.227Y-55.64
X117.273Y-55.7
X119.273Y-55.7
X127.573Y-66.447
X129.573Y-66.447
X134.673Y-66.447
X136.673Y-66.447
T4
X94.56Y-48.6
X97.1Y-48.6
X99.64Y-48.6
X112.76Y-48.7
X115.3Y-48.7
X117.84Y-48.7
X129.96Y-59.347
X132.5Y-59.347
X135.04Y-59.347
T5
X89.13Y-33.26
X89.13Y-40.36
X91.67Y-33.26
X91.67Y-40.36
X95.63Y-33.3
X95.73Y-40.4
X98.17Y-33.3
X98.27Y-40.4
X102.23Y-33.3
X102.23Y-40.5
X104.77Y-33.3
X104.77Y-40.5
X110.23Y-33.4
X110.33Y-40.84
X112.77Y-33.4
X112.87Y-40.84
X117.93Y-33.54
X117.93Y-40.84
X120.47Y-33.54
X120.47Y-40.84
T6
X58.0Y-71.9
X58.0Y-76.9
X58.0Y-84.8
X58.0Y-89.8
X58.1Y-39.4
X58.1Y-44.4
X58.1Y-52.3
X58.1Y-57.3
X63.3Y-71.665
X63.3Y-85.135
X64.4Y-40.6
X66.7Y-71.665
X66.7Y-85.135
X69.4Y-40.6
X77.3Y-40.6
X82.3Y-40.6
T7
X119.9Y-91.82
X119.9Y-95.78
X119.95Y-73.82
X119.95Y-77.78
X119.95Y-82.7
X119.95Y-86.66
X120.0Y-102.86
X120.0Y-106.82
X120.0Y-112.48
X120.0Y-116.44
X120.1Y-122.02
X120.1Y-125.98
X131.9Y-102.92
X131.9Y-106.88
X131.9Y-112.42
X131.9Y-116.38
X131.9Y-122.02
X131.9Y-125.98
X132.0Y-73.82
X132.0Y-77.78
X132.05Y-82.82
X132.05Y-86.78
X132.15Y-91.82
X132.15Y-95.78
T8
X50.4Y-28.0
X50.4Y-131.3
X140.5Y-28.0
X140.5Y-131.3
T0
M30
