%TF.GenerationSoftware,KiCad,Pcbnew,(6.0.2)*%
%TF.CreationDate,2022-03-05T17:59:28+01:00*%
%TF.ProjectId,Carte_Alim_V6_2022,43617274-655f-4416-9c69-6d5f56365f32,rev?*%
%TF.SameCoordinates,Original*%
%TF.FileFunction,Legend,Top*%
%TF.FilePolarity,Positive*%
%FSLAX46Y46*%
G04 Gerber Fmt 4.6, Leading zero omitted, Abs format (unit mm)*
G04 Created by KiCad (PCBNEW (6.0.2)) date 2022-03-05 17:59:28*
%MOMM*%
%LPD*%
G01*
G04 APERTURE LIST*
%ADD10C,0.152400*%
%ADD11C,0.304800*%
%ADD12C,0.300000*%
%ADD13C,0.200000*%
%ADD14C,0.400000*%
%ADD15C,0.120000*%
%ADD16C,0.127000*%
%ADD17C,0.100000*%
%ADD18C,0.150000*%
G04 APERTURE END LIST*
D10*
X86900000Y-29800000D02*
X107000000Y-29800000D01*
X107000000Y-29800000D02*
X107000000Y-44600000D01*
X107000000Y-44600000D02*
X86900000Y-44600000D01*
X86900000Y-44600000D02*
X86900000Y-29800000D01*
X123200000Y-32000000D02*
X141200000Y-32000000D01*
X141200000Y-32000000D02*
X141200000Y-54400000D01*
X141200000Y-54400000D02*
X123200000Y-54400000D01*
X123200000Y-54400000D02*
X123200000Y-32000000D01*
X108200000Y-29600000D02*
X122600000Y-29600000D01*
X122600000Y-29600000D02*
X122600000Y-44700000D01*
X122600000Y-44700000D02*
X108200000Y-44700000D01*
X108200000Y-44700000D02*
X108200000Y-29600000D01*
D11*
X143134571Y-42809714D02*
X143134571Y-42084000D01*
X142408857Y-42011428D01*
X142481428Y-42084000D01*
X142554000Y-42229142D01*
X142554000Y-42592000D01*
X142481428Y-42737142D01*
X142408857Y-42809714D01*
X142263714Y-42882285D01*
X141900857Y-42882285D01*
X141755714Y-42809714D01*
X141683142Y-42737142D01*
X141610571Y-42592000D01*
X141610571Y-42229142D01*
X141683142Y-42084000D01*
X141755714Y-42011428D01*
X143134571Y-43317714D02*
X141610571Y-43825714D01*
X143134571Y-44333714D01*
X117709714Y-130765428D02*
X116984000Y-130765428D01*
X116911428Y-131491142D01*
X116984000Y-131418571D01*
X117129142Y-131346000D01*
X117492000Y-131346000D01*
X117637142Y-131418571D01*
X117709714Y-131491142D01*
X117782285Y-131636285D01*
X117782285Y-131999142D01*
X117709714Y-132144285D01*
X117637142Y-132216857D01*
X117492000Y-132289428D01*
X117129142Y-132289428D01*
X116984000Y-132216857D01*
X116911428Y-132144285D01*
X118217714Y-130765428D02*
X118725714Y-132289428D01*
X119233714Y-130765428D01*
D12*
X68828571Y-44307142D02*
X69971428Y-44307142D01*
X69400000Y-44878571D02*
X69400000Y-43735714D01*
X61128571Y-52407142D02*
X62271428Y-52407142D01*
X61700000Y-52978571D02*
X61700000Y-51835714D01*
X89471428Y-28892857D02*
X88328571Y-28892857D01*
D11*
X117456571Y-67689428D02*
X116585714Y-67689428D01*
X117021142Y-67689428D02*
X117021142Y-66165428D01*
X116876000Y-66383142D01*
X116730857Y-66528285D01*
X116585714Y-66600857D01*
X118037142Y-66310571D02*
X118109714Y-66238000D01*
X118254857Y-66165428D01*
X118617714Y-66165428D01*
X118762857Y-66238000D01*
X118835428Y-66310571D01*
X118908000Y-66455714D01*
X118908000Y-66600857D01*
X118835428Y-66818571D01*
X117964571Y-67689428D01*
X118908000Y-67689428D01*
X119343428Y-66165428D02*
X119851428Y-67689428D01*
X120359428Y-66165428D01*
D12*
X138807142Y-103571428D02*
X138807142Y-102428571D01*
X139378571Y-103000000D02*
X138235714Y-103000000D01*
X138792857Y-106128571D02*
X138792857Y-107271428D01*
X77871428Y-44492857D02*
X76728571Y-44492857D01*
X61707142Y-58071428D02*
X61707142Y-56928571D01*
D11*
X118609714Y-25615428D02*
X117884000Y-25615428D01*
X117811428Y-26341142D01*
X117884000Y-26268571D01*
X118029142Y-26196000D01*
X118392000Y-26196000D01*
X118537142Y-26268571D01*
X118609714Y-26341142D01*
X118682285Y-26486285D01*
X118682285Y-26849142D01*
X118609714Y-26994285D01*
X118537142Y-27066857D01*
X118392000Y-27139428D01*
X118029142Y-27139428D01*
X117884000Y-27066857D01*
X117811428Y-26994285D01*
X119117714Y-25615428D02*
X119625714Y-27139428D01*
X120133714Y-25615428D01*
D12*
X110671428Y-28692857D02*
X109528571Y-28692857D01*
D10*
X55170780Y-35245104D02*
X54899847Y-34432304D01*
X54628914Y-35245104D01*
X54357980Y-34432304D02*
X54357980Y-35245104D01*
X54087047Y-34664533D01*
X53816114Y-35245104D01*
X53816114Y-34432304D01*
X53274247Y-35245104D02*
X53119428Y-35245104D01*
X53042019Y-35206400D01*
X52964609Y-35128990D01*
X52925904Y-34974171D01*
X52925904Y-34703238D01*
X52964609Y-34548419D01*
X53042019Y-34471009D01*
X53119428Y-34432304D01*
X53274247Y-34432304D01*
X53351657Y-34471009D01*
X53429066Y-34548419D01*
X53467771Y-34703238D01*
X53467771Y-34974171D01*
X53429066Y-35128990D01*
X53351657Y-35206400D01*
X53274247Y-35245104D01*
X52693676Y-35245104D02*
X52229219Y-35245104D01*
X52461447Y-34432304D02*
X52461447Y-35245104D01*
D12*
X81828571Y-44407142D02*
X82971428Y-44407142D01*
X82400000Y-44978571D02*
X82400000Y-43835714D01*
X138907142Y-74471428D02*
X138907142Y-73328571D01*
X139478571Y-73900000D02*
X138335714Y-73900000D01*
X138892857Y-76728571D02*
X138892857Y-77871428D01*
D11*
X96656571Y-27289428D02*
X95785714Y-27289428D01*
X96221142Y-27289428D02*
X96221142Y-25765428D01*
X96076000Y-25983142D01*
X95930857Y-26128285D01*
X95785714Y-26200857D01*
X97237142Y-25910571D02*
X97309714Y-25838000D01*
X97454857Y-25765428D01*
X97817714Y-25765428D01*
X97962857Y-25838000D01*
X98035428Y-25910571D01*
X98108000Y-26055714D01*
X98108000Y-26200857D01*
X98035428Y-26418571D01*
X97164571Y-27289428D01*
X98108000Y-27289428D01*
X98543428Y-25765428D02*
X99051428Y-27289428D01*
X99559428Y-25765428D01*
D12*
X140871428Y-34292857D02*
X139728571Y-34292857D01*
D10*
X51158361Y-94741942D02*
X51274476Y-94780647D01*
X51313180Y-94819352D01*
X51351885Y-94896761D01*
X51351885Y-95012876D01*
X51313180Y-95090285D01*
X51274476Y-95128990D01*
X51197066Y-95167695D01*
X50887428Y-95167695D01*
X50887428Y-94354895D01*
X51158361Y-94354895D01*
X51235771Y-94393600D01*
X51274476Y-94432304D01*
X51313180Y-94509714D01*
X51313180Y-94587123D01*
X51274476Y-94664533D01*
X51235771Y-94703238D01*
X51158361Y-94741942D01*
X50887428Y-94741942D01*
X51661523Y-94935466D02*
X52048571Y-94935466D01*
X51584114Y-95167695D02*
X51855047Y-94354895D01*
X52125980Y-95167695D01*
X52280800Y-94354895D02*
X52745257Y-94354895D01*
X52513028Y-95167695D02*
X52513028Y-94354895D01*
X52900076Y-94354895D02*
X53364533Y-94354895D01*
X53132304Y-95167695D02*
X53132304Y-94354895D01*
X54216038Y-94432304D02*
X54254742Y-94393600D01*
X54332152Y-94354895D01*
X54525676Y-94354895D01*
X54603085Y-94393600D01*
X54641790Y-94432304D01*
X54680495Y-94509714D01*
X54680495Y-94587123D01*
X54641790Y-94703238D01*
X54177333Y-95167695D01*
X54680495Y-95167695D01*
X55377180Y-94625828D02*
X55377180Y-95167695D01*
X55183657Y-94316190D02*
X54990133Y-94896761D01*
X55493295Y-94896761D01*
X55686819Y-94354895D02*
X55957752Y-95167695D01*
X56228685Y-94354895D01*
X65829219Y-28854895D02*
X66100152Y-29667695D01*
X66371085Y-28854895D01*
X66642019Y-29667695D02*
X66642019Y-28854895D01*
X66912952Y-29435466D01*
X67183885Y-28854895D01*
X67183885Y-29667695D01*
X67725752Y-28854895D02*
X67880571Y-28854895D01*
X67957980Y-28893600D01*
X68035390Y-28971009D01*
X68074095Y-29125828D01*
X68074095Y-29396761D01*
X68035390Y-29551580D01*
X67957980Y-29628990D01*
X67880571Y-29667695D01*
X67725752Y-29667695D01*
X67648342Y-29628990D01*
X67570933Y-29551580D01*
X67532228Y-29396761D01*
X67532228Y-29125828D01*
X67570933Y-28971009D01*
X67648342Y-28893600D01*
X67725752Y-28854895D01*
X68306323Y-28854895D02*
X68770780Y-28854895D01*
X68538552Y-29667695D02*
X68538552Y-28854895D01*
X60854895Y-56070780D02*
X61667695Y-55799847D01*
X60854895Y-55528914D01*
X61667695Y-55257980D02*
X60854895Y-55257980D01*
X61435466Y-54987047D01*
X60854895Y-54716114D01*
X61667695Y-54716114D01*
X60854895Y-54174247D02*
X60854895Y-54019428D01*
X60893600Y-53942019D01*
X60971009Y-53864609D01*
X61125828Y-53825904D01*
X61396761Y-53825904D01*
X61551580Y-53864609D01*
X61628990Y-53942019D01*
X61667695Y-54019428D01*
X61667695Y-54174247D01*
X61628990Y-54251657D01*
X61551580Y-54329066D01*
X61396761Y-54367771D01*
X61125828Y-54367771D01*
X60971009Y-54329066D01*
X60893600Y-54251657D01*
X60854895Y-54174247D01*
X60854895Y-53593676D02*
X60854895Y-53129219D01*
X61667695Y-53361447D02*
X60854895Y-53361447D01*
D12*
X132128571Y-41607142D02*
X133271428Y-41607142D01*
X132700000Y-42178571D02*
X132700000Y-41035714D01*
X91128571Y-28907142D02*
X92271428Y-28907142D01*
X91700000Y-29478571D02*
X91700000Y-28335714D01*
X64971428Y-44292857D02*
X63828571Y-44292857D01*
D10*
X77329219Y-28854895D02*
X77600152Y-29667695D01*
X77871085Y-28854895D01*
X78142019Y-29667695D02*
X78142019Y-28854895D01*
X78412952Y-29435466D01*
X78683885Y-28854895D01*
X78683885Y-29667695D01*
X79225752Y-28854895D02*
X79380571Y-28854895D01*
X79457980Y-28893600D01*
X79535390Y-28971009D01*
X79574095Y-29125828D01*
X79574095Y-29396761D01*
X79535390Y-29551580D01*
X79457980Y-29628990D01*
X79380571Y-29667695D01*
X79225752Y-29667695D01*
X79148342Y-29628990D01*
X79070933Y-29551580D01*
X79032228Y-29396761D01*
X79032228Y-29125828D01*
X79070933Y-28971009D01*
X79148342Y-28893600D01*
X79225752Y-28854895D01*
X79806323Y-28854895D02*
X80270780Y-28854895D01*
X80038552Y-29667695D02*
X80038552Y-28854895D01*
D12*
X112328571Y-28707142D02*
X113471428Y-28707142D01*
X112900000Y-29278571D02*
X112900000Y-28135714D01*
D10*
%TO.C,J22*%
X138845104Y-51842019D02*
X138264533Y-51842019D01*
X138148419Y-51803314D01*
X138071009Y-51725904D01*
X138032304Y-51609790D01*
X138032304Y-51532380D01*
X138767695Y-52190361D02*
X138806400Y-52229066D01*
X138845104Y-52306476D01*
X138845104Y-52500000D01*
X138806400Y-52577409D01*
X138767695Y-52616114D01*
X138690285Y-52654819D01*
X138612876Y-52654819D01*
X138496761Y-52616114D01*
X138032304Y-52151657D01*
X138032304Y-52654819D01*
X138767695Y-52964457D02*
X138806400Y-53003161D01*
X138845104Y-53080571D01*
X138845104Y-53274095D01*
X138806400Y-53351504D01*
X138767695Y-53390209D01*
X138690285Y-53428914D01*
X138612876Y-53428914D01*
X138496761Y-53390209D01*
X138032304Y-52925752D01*
X138032304Y-53428914D01*
%TO.C,J32*%
X117054895Y-105557980D02*
X117635466Y-105557980D01*
X117751580Y-105596685D01*
X117828990Y-105674095D01*
X117867695Y-105790209D01*
X117867695Y-105867619D01*
X117054895Y-105248342D02*
X117054895Y-104745180D01*
X117364533Y-105016114D01*
X117364533Y-104900000D01*
X117403238Y-104822590D01*
X117441942Y-104783885D01*
X117519352Y-104745180D01*
X117712876Y-104745180D01*
X117790285Y-104783885D01*
X117828990Y-104822590D01*
X117867695Y-104900000D01*
X117867695Y-105132228D01*
X117828990Y-105209638D01*
X117790285Y-105248342D01*
X117132304Y-104435542D02*
X117093600Y-104396838D01*
X117054895Y-104319428D01*
X117054895Y-104125904D01*
X117093600Y-104048495D01*
X117132304Y-104009790D01*
X117209714Y-103971085D01*
X117287123Y-103971085D01*
X117403238Y-104009790D01*
X117867695Y-104474247D01*
X117867695Y-103971085D01*
%TO.C,J13*%
X115054895Y-73657980D02*
X115635466Y-73657980D01*
X115751580Y-73696685D01*
X115828990Y-73774095D01*
X115867695Y-73890209D01*
X115867695Y-73967619D01*
X115867695Y-72845180D02*
X115867695Y-73309638D01*
X115867695Y-73077409D02*
X115054895Y-73077409D01*
X115171009Y-73154819D01*
X115248419Y-73232228D01*
X115287123Y-73309638D01*
X115054895Y-72574247D02*
X115054895Y-72071085D01*
X115364533Y-72342019D01*
X115364533Y-72225904D01*
X115403238Y-72148495D01*
X115441942Y-72109790D01*
X115519352Y-72071085D01*
X115712876Y-72071085D01*
X115790285Y-72109790D01*
X115828990Y-72148495D01*
X115867695Y-72225904D01*
X115867695Y-72458133D01*
X115828990Y-72535542D01*
X115790285Y-72574247D01*
%TO.C,J5*%
X58545104Y-41429066D02*
X57964533Y-41429066D01*
X57848419Y-41390361D01*
X57771009Y-41312952D01*
X57732304Y-41196838D01*
X57732304Y-41119428D01*
X58545104Y-42203161D02*
X58545104Y-41816114D01*
X58158057Y-41777409D01*
X58196761Y-41816114D01*
X58235466Y-41893523D01*
X58235466Y-42087047D01*
X58196761Y-42164457D01*
X58158057Y-42203161D01*
X58080647Y-42241866D01*
X57887123Y-42241866D01*
X57809714Y-42203161D01*
X57771009Y-42164457D01*
X57732304Y-42087047D01*
X57732304Y-41893523D01*
X57771009Y-41816114D01*
X57809714Y-41777409D01*
%TO.C,D5*%
X134450076Y-29617695D02*
X134450076Y-28804895D01*
X134643600Y-28804895D01*
X134759714Y-28843600D01*
X134837123Y-28921009D01*
X134875828Y-28998419D01*
X134914533Y-29153238D01*
X134914533Y-29269352D01*
X134875828Y-29424171D01*
X134837123Y-29501580D01*
X134759714Y-29578990D01*
X134643600Y-29617695D01*
X134450076Y-29617695D01*
X135649923Y-28804895D02*
X135262876Y-28804895D01*
X135224171Y-29191942D01*
X135262876Y-29153238D01*
X135340285Y-29114533D01*
X135533809Y-29114533D01*
X135611219Y-29153238D01*
X135649923Y-29191942D01*
X135688628Y-29269352D01*
X135688628Y-29462876D01*
X135649923Y-29540285D01*
X135611219Y-29578990D01*
X135533809Y-29617695D01*
X135340285Y-29617695D01*
X135262876Y-29578990D01*
X135224171Y-29540285D01*
%TO.C,C53*%
X110704886Y-59030285D02*
X110666181Y-59068990D01*
X110550067Y-59107695D01*
X110472658Y-59107695D01*
X110356543Y-59068990D01*
X110279134Y-58991580D01*
X110240429Y-58914171D01*
X110201724Y-58759352D01*
X110201724Y-58643238D01*
X110240429Y-58488419D01*
X110279134Y-58411009D01*
X110356543Y-58333600D01*
X110472658Y-58294895D01*
X110550067Y-58294895D01*
X110666181Y-58333600D01*
X110704886Y-58372304D01*
X111440277Y-58294895D02*
X111053229Y-58294895D01*
X111014524Y-58681942D01*
X111053229Y-58643238D01*
X111130639Y-58604533D01*
X111324162Y-58604533D01*
X111401572Y-58643238D01*
X111440277Y-58681942D01*
X111478981Y-58759352D01*
X111478981Y-58952876D01*
X111440277Y-59030285D01*
X111401572Y-59068990D01*
X111324162Y-59107695D01*
X111130639Y-59107695D01*
X111053229Y-59068990D01*
X111014524Y-59030285D01*
X111749915Y-58294895D02*
X112253077Y-58294895D01*
X111982143Y-58604533D01*
X112098258Y-58604533D01*
X112175667Y-58643238D01*
X112214372Y-58681942D01*
X112253077Y-58759352D01*
X112253077Y-58952876D01*
X112214372Y-59030285D01*
X112175667Y-59068990D01*
X112098258Y-59107695D01*
X111866029Y-59107695D01*
X111788620Y-59068990D01*
X111749915Y-59030285D01*
%TO.C,C41*%
X91477485Y-110090285D02*
X91438780Y-110128990D01*
X91322666Y-110167695D01*
X91245257Y-110167695D01*
X91129142Y-110128990D01*
X91051733Y-110051580D01*
X91013028Y-109974171D01*
X90974323Y-109819352D01*
X90974323Y-109703238D01*
X91013028Y-109548419D01*
X91051733Y-109471009D01*
X91129142Y-109393600D01*
X91245257Y-109354895D01*
X91322666Y-109354895D01*
X91438780Y-109393600D01*
X91477485Y-109432304D01*
X92174171Y-109625828D02*
X92174171Y-110167695D01*
X91980647Y-109316190D02*
X91787123Y-109896761D01*
X92290285Y-109896761D01*
X93025676Y-110167695D02*
X92561219Y-110167695D01*
X92793447Y-110167695D02*
X92793447Y-109354895D01*
X92716038Y-109471009D01*
X92638628Y-109548419D01*
X92561219Y-109587123D01*
%TO.C,C46*%
X103522514Y-102609714D02*
X103561219Y-102571009D01*
X103677333Y-102532304D01*
X103754742Y-102532304D01*
X103870857Y-102571009D01*
X103948266Y-102648419D01*
X103986971Y-102725828D01*
X104025676Y-102880647D01*
X104025676Y-102996761D01*
X103986971Y-103151580D01*
X103948266Y-103228990D01*
X103870857Y-103306400D01*
X103754742Y-103345104D01*
X103677333Y-103345104D01*
X103561219Y-103306400D01*
X103522514Y-103267695D01*
X102825828Y-103074171D02*
X102825828Y-102532304D01*
X103019352Y-103383809D02*
X103212876Y-102803238D01*
X102709714Y-102803238D01*
X102051733Y-103345104D02*
X102206552Y-103345104D01*
X102283961Y-103306400D01*
X102322666Y-103267695D01*
X102400076Y-103151580D01*
X102438780Y-102996761D01*
X102438780Y-102687123D01*
X102400076Y-102609714D01*
X102361371Y-102571009D01*
X102283961Y-102532304D01*
X102129142Y-102532304D01*
X102051733Y-102571009D01*
X102013028Y-102609714D01*
X101974323Y-102687123D01*
X101974323Y-102880647D01*
X102013028Y-102958057D01*
X102051733Y-102996761D01*
X102129142Y-103035466D01*
X102283961Y-103035466D01*
X102361371Y-102996761D01*
X102400076Y-102958057D01*
X102438780Y-102880647D01*
%TO.C,J10*%
X102842019Y-38354895D02*
X102842019Y-38935466D01*
X102803314Y-39051580D01*
X102725904Y-39128990D01*
X102609790Y-39167695D01*
X102532380Y-39167695D01*
X103654819Y-39167695D02*
X103190361Y-39167695D01*
X103422590Y-39167695D02*
X103422590Y-38354895D01*
X103345180Y-38471009D01*
X103267771Y-38548419D01*
X103190361Y-38587123D01*
X104157980Y-38354895D02*
X104235390Y-38354895D01*
X104312800Y-38393600D01*
X104351504Y-38432304D01*
X104390209Y-38509714D01*
X104428914Y-38664533D01*
X104428914Y-38858057D01*
X104390209Y-39012876D01*
X104351504Y-39090285D01*
X104312800Y-39128990D01*
X104235390Y-39167695D01*
X104157980Y-39167695D01*
X104080571Y-39128990D01*
X104041866Y-39090285D01*
X104003161Y-39012876D01*
X103964457Y-38858057D01*
X103964457Y-38664533D01*
X104003161Y-38509714D01*
X104041866Y-38432304D01*
X104080571Y-38393600D01*
X104157980Y-38354895D01*
%TO.C,R13*%
X128627485Y-29617695D02*
X128356552Y-29230647D01*
X128163028Y-29617695D02*
X128163028Y-28804895D01*
X128472666Y-28804895D01*
X128550076Y-28843600D01*
X128588780Y-28882304D01*
X128627485Y-28959714D01*
X128627485Y-29075828D01*
X128588780Y-29153238D01*
X128550076Y-29191942D01*
X128472666Y-29230647D01*
X128163028Y-29230647D01*
X129401580Y-29617695D02*
X128937123Y-29617695D01*
X129169352Y-29617695D02*
X129169352Y-28804895D01*
X129091942Y-28921009D01*
X129014533Y-28998419D01*
X128937123Y-29037123D01*
X129672514Y-28804895D02*
X130175676Y-28804895D01*
X129904742Y-29114533D01*
X130020857Y-29114533D01*
X130098266Y-29153238D01*
X130136971Y-29191942D01*
X130175676Y-29269352D01*
X130175676Y-29462876D01*
X130136971Y-29540285D01*
X130098266Y-29578990D01*
X130020857Y-29617695D01*
X129788628Y-29617695D01*
X129711219Y-29578990D01*
X129672514Y-29540285D01*
%TO.C,J8*%
X96729066Y-38554895D02*
X96729066Y-39135466D01*
X96690361Y-39251580D01*
X96612952Y-39328990D01*
X96496838Y-39367695D01*
X96419428Y-39367695D01*
X97232228Y-38903238D02*
X97154819Y-38864533D01*
X97116114Y-38825828D01*
X97077409Y-38748419D01*
X97077409Y-38709714D01*
X97116114Y-38632304D01*
X97154819Y-38593600D01*
X97232228Y-38554895D01*
X97387047Y-38554895D01*
X97464457Y-38593600D01*
X97503161Y-38632304D01*
X97541866Y-38709714D01*
X97541866Y-38748419D01*
X97503161Y-38825828D01*
X97464457Y-38864533D01*
X97387047Y-38903238D01*
X97232228Y-38903238D01*
X97154819Y-38941942D01*
X97116114Y-38980647D01*
X97077409Y-39058057D01*
X97077409Y-39212876D01*
X97116114Y-39290285D01*
X97154819Y-39328990D01*
X97232228Y-39367695D01*
X97387047Y-39367695D01*
X97464457Y-39328990D01*
X97503161Y-39290285D01*
X97541866Y-39212876D01*
X97541866Y-39058057D01*
X97503161Y-38980647D01*
X97464457Y-38941942D01*
X97387047Y-38903238D01*
%TO.C,J19*%
X113420104Y-34917019D02*
X112839533Y-34917019D01*
X112723419Y-34878314D01*
X112646009Y-34800904D01*
X112607304Y-34684790D01*
X112607304Y-34607380D01*
X112607304Y-35729819D02*
X112607304Y-35265361D01*
X112607304Y-35497590D02*
X113420104Y-35497590D01*
X113303990Y-35420180D01*
X113226580Y-35342771D01*
X113187876Y-35265361D01*
X112607304Y-36116866D02*
X112607304Y-36271685D01*
X112646009Y-36349095D01*
X112684714Y-36387800D01*
X112800828Y-36465209D01*
X112955647Y-36503914D01*
X113265285Y-36503914D01*
X113342695Y-36465209D01*
X113381400Y-36426504D01*
X113420104Y-36349095D01*
X113420104Y-36194276D01*
X113381400Y-36116866D01*
X113342695Y-36078161D01*
X113265285Y-36039457D01*
X113071761Y-36039457D01*
X112994352Y-36078161D01*
X112955647Y-36116866D01*
X112916942Y-36194276D01*
X112916942Y-36349095D01*
X112955647Y-36426504D01*
X112994352Y-36465209D01*
X113071761Y-36503914D01*
%TO.C,C8*%
X83864533Y-60990285D02*
X83825828Y-61028990D01*
X83709714Y-61067695D01*
X83632304Y-61067695D01*
X83516190Y-61028990D01*
X83438780Y-60951580D01*
X83400076Y-60874171D01*
X83361371Y-60719352D01*
X83361371Y-60603238D01*
X83400076Y-60448419D01*
X83438780Y-60371009D01*
X83516190Y-60293600D01*
X83632304Y-60254895D01*
X83709714Y-60254895D01*
X83825828Y-60293600D01*
X83864533Y-60332304D01*
X84328990Y-60603238D02*
X84251580Y-60564533D01*
X84212876Y-60525828D01*
X84174171Y-60448419D01*
X84174171Y-60409714D01*
X84212876Y-60332304D01*
X84251580Y-60293600D01*
X84328990Y-60254895D01*
X84483809Y-60254895D01*
X84561219Y-60293600D01*
X84599923Y-60332304D01*
X84638628Y-60409714D01*
X84638628Y-60448419D01*
X84599923Y-60525828D01*
X84561219Y-60564533D01*
X84483809Y-60603238D01*
X84328990Y-60603238D01*
X84251580Y-60641942D01*
X84212876Y-60680647D01*
X84174171Y-60758057D01*
X84174171Y-60912876D01*
X84212876Y-60990285D01*
X84251580Y-61028990D01*
X84328990Y-61067695D01*
X84483809Y-61067695D01*
X84561219Y-61028990D01*
X84599923Y-60990285D01*
X84638628Y-60912876D01*
X84638628Y-60758057D01*
X84599923Y-60680647D01*
X84561219Y-60641942D01*
X84483809Y-60603238D01*
%TO.C,J2*%
X58445104Y-74129066D02*
X57864533Y-74129066D01*
X57748419Y-74090361D01*
X57671009Y-74012952D01*
X57632304Y-73896838D01*
X57632304Y-73819428D01*
X58367695Y-74477409D02*
X58406400Y-74516114D01*
X58445104Y-74593523D01*
X58445104Y-74787047D01*
X58406400Y-74864457D01*
X58367695Y-74903161D01*
X58290285Y-74941866D01*
X58212876Y-74941866D01*
X58096761Y-74903161D01*
X57632304Y-74438704D01*
X57632304Y-74941866D01*
%TO.C,J30*%
X127504895Y-124577980D02*
X128085466Y-124577980D01*
X128201580Y-124616685D01*
X128278990Y-124694095D01*
X128317695Y-124810209D01*
X128317695Y-124887619D01*
X127504895Y-124268342D02*
X127504895Y-123765180D01*
X127814533Y-124036114D01*
X127814533Y-123920000D01*
X127853238Y-123842590D01*
X127891942Y-123803885D01*
X127969352Y-123765180D01*
X128162876Y-123765180D01*
X128240285Y-123803885D01*
X128278990Y-123842590D01*
X128317695Y-123920000D01*
X128317695Y-124152228D01*
X128278990Y-124229638D01*
X128240285Y-124268342D01*
X127504895Y-123262019D02*
X127504895Y-123184609D01*
X127543600Y-123107200D01*
X127582304Y-123068495D01*
X127659714Y-123029790D01*
X127814533Y-122991085D01*
X128008057Y-122991085D01*
X128162876Y-123029790D01*
X128240285Y-123068495D01*
X128278990Y-123107200D01*
X128317695Y-123184609D01*
X128317695Y-123262019D01*
X128278990Y-123339428D01*
X128240285Y-123378133D01*
X128162876Y-123416838D01*
X128008057Y-123455542D01*
X127814533Y-123455542D01*
X127659714Y-123416838D01*
X127582304Y-123378133D01*
X127543600Y-123339428D01*
X127504895Y-123262019D01*
%TO.C,C56*%
X117750085Y-59240285D02*
X117711380Y-59278990D01*
X117595266Y-59317695D01*
X117517857Y-59317695D01*
X117401742Y-59278990D01*
X117324333Y-59201580D01*
X117285628Y-59124171D01*
X117246923Y-58969352D01*
X117246923Y-58853238D01*
X117285628Y-58698419D01*
X117324333Y-58621009D01*
X117401742Y-58543600D01*
X117517857Y-58504895D01*
X117595266Y-58504895D01*
X117711380Y-58543600D01*
X117750085Y-58582304D01*
X118485476Y-58504895D02*
X118098428Y-58504895D01*
X118059723Y-58891942D01*
X118098428Y-58853238D01*
X118175838Y-58814533D01*
X118369361Y-58814533D01*
X118446771Y-58853238D01*
X118485476Y-58891942D01*
X118524180Y-58969352D01*
X118524180Y-59162876D01*
X118485476Y-59240285D01*
X118446771Y-59278990D01*
X118369361Y-59317695D01*
X118175838Y-59317695D01*
X118098428Y-59278990D01*
X118059723Y-59240285D01*
X119220866Y-58504895D02*
X119066047Y-58504895D01*
X118988638Y-58543600D01*
X118949933Y-58582304D01*
X118872523Y-58698419D01*
X118833819Y-58853238D01*
X118833819Y-59162876D01*
X118872523Y-59240285D01*
X118911228Y-59278990D01*
X118988638Y-59317695D01*
X119143457Y-59317695D01*
X119220866Y-59278990D01*
X119259571Y-59240285D01*
X119298276Y-59162876D01*
X119298276Y-58969352D01*
X119259571Y-58891942D01*
X119220866Y-58853238D01*
X119143457Y-58814533D01*
X118988638Y-58814533D01*
X118911228Y-58853238D01*
X118872523Y-58891942D01*
X118833819Y-58969352D01*
%TO.C,J18*%
X115554895Y-82277980D02*
X116135466Y-82277980D01*
X116251580Y-82316685D01*
X116328990Y-82394095D01*
X116367695Y-82510209D01*
X116367695Y-82587619D01*
X116367695Y-81465180D02*
X116367695Y-81929638D01*
X116367695Y-81697409D02*
X115554895Y-81697409D01*
X115671009Y-81774819D01*
X115748419Y-81852228D01*
X115787123Y-81929638D01*
X115903238Y-81000723D02*
X115864533Y-81078133D01*
X115825828Y-81116838D01*
X115748419Y-81155542D01*
X115709714Y-81155542D01*
X115632304Y-81116838D01*
X115593600Y-81078133D01*
X115554895Y-81000723D01*
X115554895Y-80845904D01*
X115593600Y-80768495D01*
X115632304Y-80729790D01*
X115709714Y-80691085D01*
X115748419Y-80691085D01*
X115825828Y-80729790D01*
X115864533Y-80768495D01*
X115903238Y-80845904D01*
X115903238Y-81000723D01*
X115941942Y-81078133D01*
X115980647Y-81116838D01*
X116058057Y-81155542D01*
X116212876Y-81155542D01*
X116290285Y-81116838D01*
X116328990Y-81078133D01*
X116367695Y-81000723D01*
X116367695Y-80845904D01*
X116328990Y-80768495D01*
X116290285Y-80729790D01*
X116212876Y-80691085D01*
X116058057Y-80691085D01*
X115980647Y-80729790D01*
X115941942Y-80768495D01*
X115903238Y-80845904D01*
%TO.C,R6*%
X90564533Y-61555195D02*
X90293600Y-61168147D01*
X90100076Y-61555195D02*
X90100076Y-60742395D01*
X90409714Y-60742395D01*
X90487123Y-60781100D01*
X90525828Y-60819804D01*
X90564533Y-60897214D01*
X90564533Y-61013328D01*
X90525828Y-61090738D01*
X90487123Y-61129442D01*
X90409714Y-61168147D01*
X90100076Y-61168147D01*
X91261219Y-60742395D02*
X91106400Y-60742395D01*
X91028990Y-60781100D01*
X90990285Y-60819804D01*
X90912876Y-60935919D01*
X90874171Y-61090738D01*
X90874171Y-61400376D01*
X90912876Y-61477785D01*
X90951580Y-61516490D01*
X91028990Y-61555195D01*
X91183809Y-61555195D01*
X91261219Y-61516490D01*
X91299923Y-61477785D01*
X91338628Y-61400376D01*
X91338628Y-61206852D01*
X91299923Y-61129442D01*
X91261219Y-61090738D01*
X91183809Y-61052033D01*
X91028990Y-61052033D01*
X90951580Y-61090738D01*
X90912876Y-61129442D01*
X90874171Y-61206852D01*
%TO.C,C51*%
X110172514Y-102609714D02*
X110211219Y-102571009D01*
X110327333Y-102532304D01*
X110404742Y-102532304D01*
X110520857Y-102571009D01*
X110598266Y-102648419D01*
X110636971Y-102725828D01*
X110675676Y-102880647D01*
X110675676Y-102996761D01*
X110636971Y-103151580D01*
X110598266Y-103228990D01*
X110520857Y-103306400D01*
X110404742Y-103345104D01*
X110327333Y-103345104D01*
X110211219Y-103306400D01*
X110172514Y-103267695D01*
X109437123Y-103345104D02*
X109824171Y-103345104D01*
X109862876Y-102958057D01*
X109824171Y-102996761D01*
X109746761Y-103035466D01*
X109553238Y-103035466D01*
X109475828Y-102996761D01*
X109437123Y-102958057D01*
X109398419Y-102880647D01*
X109398419Y-102687123D01*
X109437123Y-102609714D01*
X109475828Y-102571009D01*
X109553238Y-102532304D01*
X109746761Y-102532304D01*
X109824171Y-102571009D01*
X109862876Y-102609714D01*
X108624323Y-102532304D02*
X109088780Y-102532304D01*
X108856552Y-102532304D02*
X108856552Y-103345104D01*
X108933961Y-103228990D01*
X109011371Y-103151580D01*
X109088780Y-103112876D01*
%TO.C,C47*%
X102577484Y-114590285D02*
X102538779Y-114628990D01*
X102422665Y-114667695D01*
X102345256Y-114667695D01*
X102229141Y-114628990D01*
X102151732Y-114551580D01*
X102113027Y-114474171D01*
X102074322Y-114319352D01*
X102074322Y-114203238D01*
X102113027Y-114048419D01*
X102151732Y-113971009D01*
X102229141Y-113893600D01*
X102345256Y-113854895D01*
X102422665Y-113854895D01*
X102538779Y-113893600D01*
X102577484Y-113932304D01*
X103274170Y-114125828D02*
X103274170Y-114667695D01*
X103080646Y-113816190D02*
X102887122Y-114396761D01*
X103390284Y-114396761D01*
X103622513Y-113854895D02*
X104164379Y-113854895D01*
X103816037Y-114667695D01*
%TO.C,C2*%
X92264533Y-60990285D02*
X92225828Y-61028990D01*
X92109714Y-61067695D01*
X92032304Y-61067695D01*
X91916190Y-61028990D01*
X91838780Y-60951580D01*
X91800076Y-60874171D01*
X91761371Y-60719352D01*
X91761371Y-60603238D01*
X91800076Y-60448419D01*
X91838780Y-60371009D01*
X91916190Y-60293600D01*
X92032304Y-60254895D01*
X92109714Y-60254895D01*
X92225828Y-60293600D01*
X92264533Y-60332304D01*
X92574171Y-60332304D02*
X92612876Y-60293600D01*
X92690285Y-60254895D01*
X92883809Y-60254895D01*
X92961219Y-60293600D01*
X92999923Y-60332304D01*
X93038628Y-60409714D01*
X93038628Y-60487123D01*
X92999923Y-60603238D01*
X92535466Y-61067695D01*
X93038628Y-61067695D01*
%TO.C,R14*%
X114917695Y-28822514D02*
X114530647Y-29093447D01*
X114917695Y-29286971D02*
X114104895Y-29286971D01*
X114104895Y-28977333D01*
X114143600Y-28899923D01*
X114182304Y-28861219D01*
X114259714Y-28822514D01*
X114375828Y-28822514D01*
X114453238Y-28861219D01*
X114491942Y-28899923D01*
X114530647Y-28977333D01*
X114530647Y-29286971D01*
X114917695Y-28048419D02*
X114917695Y-28512876D01*
X114917695Y-28280647D02*
X114104895Y-28280647D01*
X114221009Y-28358057D01*
X114298419Y-28435466D01*
X114337123Y-28512876D01*
X114375828Y-27351733D02*
X114917695Y-27351733D01*
X114066190Y-27545257D02*
X114646761Y-27738780D01*
X114646761Y-27235619D01*
%TO.C,R22*%
X91577485Y-95667695D02*
X91306552Y-95280647D01*
X91113028Y-95667695D02*
X91113028Y-94854895D01*
X91422666Y-94854895D01*
X91500076Y-94893600D01*
X91538780Y-94932304D01*
X91577485Y-95009714D01*
X91577485Y-95125828D01*
X91538780Y-95203238D01*
X91500076Y-95241942D01*
X91422666Y-95280647D01*
X91113028Y-95280647D01*
X91887123Y-94932304D02*
X91925828Y-94893600D01*
X92003238Y-94854895D01*
X92196761Y-94854895D01*
X92274171Y-94893600D01*
X92312876Y-94932304D01*
X92351580Y-95009714D01*
X92351580Y-95087123D01*
X92312876Y-95203238D01*
X91848419Y-95667695D01*
X92351580Y-95667695D01*
X92661219Y-94932304D02*
X92699923Y-94893600D01*
X92777333Y-94854895D01*
X92970857Y-94854895D01*
X93048266Y-94893600D01*
X93086971Y-94932304D01*
X93125676Y-95009714D01*
X93125676Y-95087123D01*
X93086971Y-95203238D01*
X92622514Y-95667695D01*
X93125676Y-95667695D01*
%TO.C,C39*%
X74777485Y-107290285D02*
X74738780Y-107328990D01*
X74622666Y-107367695D01*
X74545257Y-107367695D01*
X74429142Y-107328990D01*
X74351733Y-107251580D01*
X74313028Y-107174171D01*
X74274323Y-107019352D01*
X74274323Y-106903238D01*
X74313028Y-106748419D01*
X74351733Y-106671009D01*
X74429142Y-106593600D01*
X74545257Y-106554895D01*
X74622666Y-106554895D01*
X74738780Y-106593600D01*
X74777485Y-106632304D01*
X75048419Y-106554895D02*
X75551580Y-106554895D01*
X75280647Y-106864533D01*
X75396761Y-106864533D01*
X75474171Y-106903238D01*
X75512876Y-106941942D01*
X75551580Y-107019352D01*
X75551580Y-107212876D01*
X75512876Y-107290285D01*
X75474171Y-107328990D01*
X75396761Y-107367695D01*
X75164533Y-107367695D01*
X75087123Y-107328990D01*
X75048419Y-107290285D01*
X75938628Y-107367695D02*
X76093447Y-107367695D01*
X76170857Y-107328990D01*
X76209561Y-107290285D01*
X76286971Y-107174171D01*
X76325676Y-107019352D01*
X76325676Y-106709714D01*
X76286971Y-106632304D01*
X76248266Y-106593600D01*
X76170857Y-106554895D01*
X76016038Y-106554895D01*
X75938628Y-106593600D01*
X75899923Y-106632304D01*
X75861219Y-106709714D01*
X75861219Y-106903238D01*
X75899923Y-106980647D01*
X75938628Y-107019352D01*
X76016038Y-107058057D01*
X76170857Y-107058057D01*
X76248266Y-107019352D01*
X76286971Y-106980647D01*
X76325676Y-106903238D01*
%TO.C,C49*%
X105727485Y-114590285D02*
X105688780Y-114628990D01*
X105572666Y-114667695D01*
X105495257Y-114667695D01*
X105379142Y-114628990D01*
X105301733Y-114551580D01*
X105263028Y-114474171D01*
X105224323Y-114319352D01*
X105224323Y-114203238D01*
X105263028Y-114048419D01*
X105301733Y-113971009D01*
X105379142Y-113893600D01*
X105495257Y-113854895D01*
X105572666Y-113854895D01*
X105688780Y-113893600D01*
X105727485Y-113932304D01*
X106424171Y-114125828D02*
X106424171Y-114667695D01*
X106230647Y-113816190D02*
X106037123Y-114396761D01*
X106540285Y-114396761D01*
X106888628Y-114667695D02*
X107043447Y-114667695D01*
X107120857Y-114628990D01*
X107159561Y-114590285D01*
X107236971Y-114474171D01*
X107275676Y-114319352D01*
X107275676Y-114009714D01*
X107236971Y-113932304D01*
X107198266Y-113893600D01*
X107120857Y-113854895D01*
X106966038Y-113854895D01*
X106888628Y-113893600D01*
X106849923Y-113932304D01*
X106811219Y-114009714D01*
X106811219Y-114203238D01*
X106849923Y-114280647D01*
X106888628Y-114319352D01*
X106966038Y-114358057D01*
X107120857Y-114358057D01*
X107198266Y-114319352D01*
X107236971Y-114280647D01*
X107275676Y-114203238D01*
%TO.C,J12*%
X89742019Y-38114895D02*
X89742019Y-38695466D01*
X89703314Y-38811580D01*
X89625904Y-38888990D01*
X89509790Y-38927695D01*
X89432380Y-38927695D01*
X90554819Y-38927695D02*
X90090361Y-38927695D01*
X90322590Y-38927695D02*
X90322590Y-38114895D01*
X90245180Y-38231009D01*
X90167771Y-38308419D01*
X90090361Y-38347123D01*
X90864457Y-38192304D02*
X90903161Y-38153600D01*
X90980571Y-38114895D01*
X91174095Y-38114895D01*
X91251504Y-38153600D01*
X91290209Y-38192304D01*
X91328914Y-38269714D01*
X91328914Y-38347123D01*
X91290209Y-38463238D01*
X90825752Y-38927695D01*
X91328914Y-38927695D01*
%TO.C,D7*%
X123617695Y-29049923D02*
X122804895Y-29049923D01*
X122804895Y-28856400D01*
X122843600Y-28740285D01*
X122921009Y-28662876D01*
X122998419Y-28624171D01*
X123153238Y-28585466D01*
X123269352Y-28585466D01*
X123424171Y-28624171D01*
X123501580Y-28662876D01*
X123578990Y-28740285D01*
X123617695Y-28856400D01*
X123617695Y-29049923D01*
X122804895Y-28314533D02*
X122804895Y-27772666D01*
X123617695Y-28121009D01*
%TO.C,D6*%
X121900076Y-129967695D02*
X121900076Y-129154895D01*
X122093600Y-129154895D01*
X122209714Y-129193600D01*
X122287123Y-129271009D01*
X122325828Y-129348419D01*
X122364533Y-129503238D01*
X122364533Y-129619352D01*
X122325828Y-129774171D01*
X122287123Y-129851580D01*
X122209714Y-129928990D01*
X122093600Y-129967695D01*
X121900076Y-129967695D01*
X123061219Y-129154895D02*
X122906400Y-129154895D01*
X122828990Y-129193600D01*
X122790285Y-129232304D01*
X122712876Y-129348419D01*
X122674171Y-129503238D01*
X122674171Y-129812876D01*
X122712876Y-129890285D01*
X122751580Y-129928990D01*
X122828990Y-129967695D01*
X122983809Y-129967695D01*
X123061219Y-129928990D01*
X123099923Y-129890285D01*
X123138628Y-129812876D01*
X123138628Y-129619352D01*
X123099923Y-129541942D01*
X123061219Y-129503238D01*
X122983809Y-129464533D01*
X122828990Y-129464533D01*
X122751580Y-129503238D01*
X122712876Y-129541942D01*
X122674171Y-129619352D01*
%TO.C,C17*%
X112572514Y-68409714D02*
X112611219Y-68371009D01*
X112727333Y-68332304D01*
X112804742Y-68332304D01*
X112920857Y-68371009D01*
X112998266Y-68448419D01*
X113036971Y-68525828D01*
X113075676Y-68680647D01*
X113075676Y-68796761D01*
X113036971Y-68951580D01*
X112998266Y-69028990D01*
X112920857Y-69106400D01*
X112804742Y-69145104D01*
X112727333Y-69145104D01*
X112611219Y-69106400D01*
X112572514Y-69067695D01*
X111798419Y-68332304D02*
X112262876Y-68332304D01*
X112030647Y-68332304D02*
X112030647Y-69145104D01*
X112108057Y-69028990D01*
X112185466Y-68951580D01*
X112262876Y-68912876D01*
X111527485Y-69145104D02*
X110985619Y-69145104D01*
X111333961Y-68332304D01*
%TO.C,C3*%
X80864533Y-72990285D02*
X80825828Y-73028990D01*
X80709714Y-73067695D01*
X80632304Y-73067695D01*
X80516190Y-73028990D01*
X80438780Y-72951580D01*
X80400076Y-72874171D01*
X80361371Y-72719352D01*
X80361371Y-72603238D01*
X80400076Y-72448419D01*
X80438780Y-72371009D01*
X80516190Y-72293600D01*
X80632304Y-72254895D01*
X80709714Y-72254895D01*
X80825828Y-72293600D01*
X80864533Y-72332304D01*
X81135466Y-72254895D02*
X81638628Y-72254895D01*
X81367695Y-72564533D01*
X81483809Y-72564533D01*
X81561219Y-72603238D01*
X81599923Y-72641942D01*
X81638628Y-72719352D01*
X81638628Y-72912876D01*
X81599923Y-72990285D01*
X81561219Y-73028990D01*
X81483809Y-73067695D01*
X81251580Y-73067695D01*
X81174171Y-73028990D01*
X81135466Y-72990285D01*
%TO.C,J15*%
X127404895Y-82657980D02*
X127985466Y-82657980D01*
X128101580Y-82696685D01*
X128178990Y-82774095D01*
X128217695Y-82890209D01*
X128217695Y-82967619D01*
X128217695Y-81845180D02*
X128217695Y-82309638D01*
X128217695Y-82077409D02*
X127404895Y-82077409D01*
X127521009Y-82154819D01*
X127598419Y-82232228D01*
X127637123Y-82309638D01*
X127404895Y-81109790D02*
X127404895Y-81496838D01*
X127791942Y-81535542D01*
X127753238Y-81496838D01*
X127714533Y-81419428D01*
X127714533Y-81225904D01*
X127753238Y-81148495D01*
X127791942Y-81109790D01*
X127869352Y-81071085D01*
X128062876Y-81071085D01*
X128140285Y-81109790D01*
X128178990Y-81148495D01*
X128217695Y-81225904D01*
X128217695Y-81419428D01*
X128178990Y-81496838D01*
X128140285Y-81535542D01*
%TO.C,J29*%
X129174895Y-105677980D02*
X129755466Y-105677980D01*
X129871580Y-105716685D01*
X129948990Y-105794095D01*
X129987695Y-105910209D01*
X129987695Y-105987619D01*
X129252304Y-105329638D02*
X129213600Y-105290933D01*
X129174895Y-105213523D01*
X129174895Y-105020000D01*
X129213600Y-104942590D01*
X129252304Y-104903885D01*
X129329714Y-104865180D01*
X129407123Y-104865180D01*
X129523238Y-104903885D01*
X129987695Y-105368342D01*
X129987695Y-104865180D01*
X129987695Y-104478133D02*
X129987695Y-104323314D01*
X129948990Y-104245904D01*
X129910285Y-104207200D01*
X129794171Y-104129790D01*
X129639352Y-104091085D01*
X129329714Y-104091085D01*
X129252304Y-104129790D01*
X129213600Y-104168495D01*
X129174895Y-104245904D01*
X129174895Y-104400723D01*
X129213600Y-104478133D01*
X129252304Y-104516838D01*
X129329714Y-104555542D01*
X129523238Y-104555542D01*
X129600647Y-104516838D01*
X129639352Y-104478133D01*
X129678057Y-104400723D01*
X129678057Y-104245904D01*
X129639352Y-104168495D01*
X129600647Y-104129790D01*
X129523238Y-104091085D01*
%TO.C,PS3*%
X125813028Y-56855195D02*
X125813028Y-56042395D01*
X126122666Y-56042395D01*
X126200076Y-56081100D01*
X126238780Y-56119804D01*
X126277485Y-56197214D01*
X126277485Y-56313328D01*
X126238780Y-56390738D01*
X126200076Y-56429442D01*
X126122666Y-56468147D01*
X125813028Y-56468147D01*
X126587123Y-56816490D02*
X126703238Y-56855195D01*
X126896761Y-56855195D01*
X126974171Y-56816490D01*
X127012876Y-56777785D01*
X127051580Y-56700376D01*
X127051580Y-56622966D01*
X127012876Y-56545557D01*
X126974171Y-56506852D01*
X126896761Y-56468147D01*
X126741942Y-56429442D01*
X126664533Y-56390738D01*
X126625828Y-56352033D01*
X126587123Y-56274623D01*
X126587123Y-56197214D01*
X126625828Y-56119804D01*
X126664533Y-56081100D01*
X126741942Y-56042395D01*
X126935466Y-56042395D01*
X127051580Y-56081100D01*
X127322514Y-56042395D02*
X127825676Y-56042395D01*
X127554742Y-56352033D01*
X127670857Y-56352033D01*
X127748266Y-56390738D01*
X127786971Y-56429442D01*
X127825676Y-56506852D01*
X127825676Y-56700376D01*
X127786971Y-56777785D01*
X127748266Y-56816490D01*
X127670857Y-56855195D01*
X127438628Y-56855195D01*
X127361219Y-56816490D01*
X127322514Y-56777785D01*
%TO.C,J11*%
X102842019Y-31154895D02*
X102842019Y-31735466D01*
X102803314Y-31851580D01*
X102725904Y-31928990D01*
X102609790Y-31967695D01*
X102532380Y-31967695D01*
X103654819Y-31967695D02*
X103190361Y-31967695D01*
X103422590Y-31967695D02*
X103422590Y-31154895D01*
X103345180Y-31271009D01*
X103267771Y-31348419D01*
X103190361Y-31387123D01*
X104428914Y-31967695D02*
X103964457Y-31967695D01*
X104196685Y-31967695D02*
X104196685Y-31154895D01*
X104119276Y-31271009D01*
X104041866Y-31348419D01*
X103964457Y-31387123D01*
%TO.C,J16*%
X115054895Y-91657980D02*
X115635466Y-91657980D01*
X115751580Y-91696685D01*
X115828990Y-91774095D01*
X115867695Y-91890209D01*
X115867695Y-91967619D01*
X115867695Y-90845180D02*
X115867695Y-91309638D01*
X115867695Y-91077409D02*
X115054895Y-91077409D01*
X115171009Y-91154819D01*
X115248419Y-91232228D01*
X115287123Y-91309638D01*
X115054895Y-90148495D02*
X115054895Y-90303314D01*
X115093600Y-90380723D01*
X115132304Y-90419428D01*
X115248419Y-90496838D01*
X115403238Y-90535542D01*
X115712876Y-90535542D01*
X115790285Y-90496838D01*
X115828990Y-90458133D01*
X115867695Y-90380723D01*
X115867695Y-90225904D01*
X115828990Y-90148495D01*
X115790285Y-90109790D01*
X115712876Y-90071085D01*
X115519352Y-90071085D01*
X115441942Y-90109790D01*
X115403238Y-90148495D01*
X115364533Y-90225904D01*
X115364533Y-90380723D01*
X115403238Y-90458133D01*
X115441942Y-90496838D01*
X115519352Y-90535542D01*
%TO.C,C57*%
X135150085Y-69987785D02*
X135111380Y-70026490D01*
X134995266Y-70065195D01*
X134917857Y-70065195D01*
X134801742Y-70026490D01*
X134724333Y-69949080D01*
X134685628Y-69871671D01*
X134646923Y-69716852D01*
X134646923Y-69600738D01*
X134685628Y-69445919D01*
X134724333Y-69368509D01*
X134801742Y-69291100D01*
X134917857Y-69252395D01*
X134995266Y-69252395D01*
X135111380Y-69291100D01*
X135150085Y-69329804D01*
X135885476Y-69252395D02*
X135498428Y-69252395D01*
X135459723Y-69639442D01*
X135498428Y-69600738D01*
X135575838Y-69562033D01*
X135769361Y-69562033D01*
X135846771Y-69600738D01*
X135885476Y-69639442D01*
X135924180Y-69716852D01*
X135924180Y-69910376D01*
X135885476Y-69987785D01*
X135846771Y-70026490D01*
X135769361Y-70065195D01*
X135575838Y-70065195D01*
X135498428Y-70026490D01*
X135459723Y-69987785D01*
X136195114Y-69252395D02*
X136736980Y-69252395D01*
X136388638Y-70065195D01*
%TO.C,D4*%
X93967695Y-29099923D02*
X93154895Y-29099923D01*
X93154895Y-28906400D01*
X93193600Y-28790285D01*
X93271009Y-28712876D01*
X93348419Y-28674171D01*
X93503238Y-28635466D01*
X93619352Y-28635466D01*
X93774171Y-28674171D01*
X93851580Y-28712876D01*
X93928990Y-28790285D01*
X93967695Y-28906400D01*
X93967695Y-29099923D01*
X93425828Y-27938780D02*
X93967695Y-27938780D01*
X93116190Y-28132304D02*
X93696761Y-28325828D01*
X93696761Y-27822666D01*
%TO.C,C11*%
X98577485Y-69690285D02*
X98538780Y-69728990D01*
X98422666Y-69767695D01*
X98345257Y-69767695D01*
X98229142Y-69728990D01*
X98151733Y-69651580D01*
X98113028Y-69574171D01*
X98074323Y-69419352D01*
X98074323Y-69303238D01*
X98113028Y-69148419D01*
X98151733Y-69071009D01*
X98229142Y-68993600D01*
X98345257Y-68954895D01*
X98422666Y-68954895D01*
X98538780Y-68993600D01*
X98577485Y-69032304D01*
X99351580Y-69767695D02*
X98887123Y-69767695D01*
X99119352Y-69767695D02*
X99119352Y-68954895D01*
X99041942Y-69071009D01*
X98964533Y-69148419D01*
X98887123Y-69187123D01*
X100125676Y-69767695D02*
X99661219Y-69767695D01*
X99893447Y-69767695D02*
X99893447Y-68954895D01*
X99816038Y-69071009D01*
X99738628Y-69148419D01*
X99661219Y-69187123D01*
%TO.C,J24*%
X129845104Y-40442019D02*
X129264533Y-40442019D01*
X129148419Y-40403314D01*
X129071009Y-40325904D01*
X129032304Y-40209790D01*
X129032304Y-40132380D01*
X129767695Y-40790361D02*
X129806400Y-40829066D01*
X129845104Y-40906476D01*
X129845104Y-41100000D01*
X129806400Y-41177409D01*
X129767695Y-41216114D01*
X129690285Y-41254819D01*
X129612876Y-41254819D01*
X129496761Y-41216114D01*
X129032304Y-40751657D01*
X129032304Y-41254819D01*
X129574171Y-41951504D02*
X129032304Y-41951504D01*
X129883809Y-41757980D02*
X129303238Y-41564457D01*
X129303238Y-42067619D01*
%TO.C,C44*%
X94577485Y-101790285D02*
X94538780Y-101828990D01*
X94422666Y-101867695D01*
X94345257Y-101867695D01*
X94229142Y-101828990D01*
X94151733Y-101751580D01*
X94113028Y-101674171D01*
X94074323Y-101519352D01*
X94074323Y-101403238D01*
X94113028Y-101248419D01*
X94151733Y-101171009D01*
X94229142Y-101093600D01*
X94345257Y-101054895D01*
X94422666Y-101054895D01*
X94538780Y-101093600D01*
X94577485Y-101132304D01*
X95274171Y-101325828D02*
X95274171Y-101867695D01*
X95080647Y-101016190D02*
X94887123Y-101596761D01*
X95390285Y-101596761D01*
X96048266Y-101325828D02*
X96048266Y-101867695D01*
X95854742Y-101016190D02*
X95661219Y-101596761D01*
X96164380Y-101596761D01*
%TO.C,J23*%
X118542019Y-31394895D02*
X118542019Y-31975466D01*
X118503314Y-32091580D01*
X118425904Y-32168990D01*
X118309790Y-32207695D01*
X118232380Y-32207695D01*
X118890361Y-31472304D02*
X118929066Y-31433600D01*
X119006476Y-31394895D01*
X119200000Y-31394895D01*
X119277409Y-31433600D01*
X119316114Y-31472304D01*
X119354819Y-31549714D01*
X119354819Y-31627123D01*
X119316114Y-31743238D01*
X118851657Y-32207695D01*
X119354819Y-32207695D01*
X119625752Y-31394895D02*
X120128914Y-31394895D01*
X119857980Y-31704533D01*
X119974095Y-31704533D01*
X120051504Y-31743238D01*
X120090209Y-31781942D01*
X120128914Y-31859352D01*
X120128914Y-32052876D01*
X120090209Y-32130285D01*
X120051504Y-32168990D01*
X119974095Y-32207695D01*
X119741866Y-32207695D01*
X119664457Y-32168990D01*
X119625752Y-32130285D01*
%TO.C,R9*%
X102564533Y-68167695D02*
X102293600Y-67780647D01*
X102100076Y-68167695D02*
X102100076Y-67354895D01*
X102409714Y-67354895D01*
X102487123Y-67393600D01*
X102525828Y-67432304D01*
X102564533Y-67509714D01*
X102564533Y-67625828D01*
X102525828Y-67703238D01*
X102487123Y-67741942D01*
X102409714Y-67780647D01*
X102100076Y-67780647D01*
X102951580Y-68167695D02*
X103106400Y-68167695D01*
X103183809Y-68128990D01*
X103222514Y-68090285D01*
X103299923Y-67974171D01*
X103338628Y-67819352D01*
X103338628Y-67509714D01*
X103299923Y-67432304D01*
X103261219Y-67393600D01*
X103183809Y-67354895D01*
X103028990Y-67354895D01*
X102951580Y-67393600D01*
X102912876Y-67432304D01*
X102874171Y-67509714D01*
X102874171Y-67703238D01*
X102912876Y-67780647D01*
X102951580Y-67819352D01*
X103028990Y-67858057D01*
X103183809Y-67858057D01*
X103261219Y-67819352D01*
X103299923Y-67780647D01*
X103338628Y-67703238D01*
%TO.C,C37*%
X78077485Y-107190285D02*
X78038780Y-107228990D01*
X77922666Y-107267695D01*
X77845257Y-107267695D01*
X77729142Y-107228990D01*
X77651733Y-107151580D01*
X77613028Y-107074171D01*
X77574323Y-106919352D01*
X77574323Y-106803238D01*
X77613028Y-106648419D01*
X77651733Y-106571009D01*
X77729142Y-106493600D01*
X77845257Y-106454895D01*
X77922666Y-106454895D01*
X78038780Y-106493600D01*
X78077485Y-106532304D01*
X78348419Y-106454895D02*
X78851580Y-106454895D01*
X78580647Y-106764533D01*
X78696761Y-106764533D01*
X78774171Y-106803238D01*
X78812876Y-106841942D01*
X78851580Y-106919352D01*
X78851580Y-107112876D01*
X78812876Y-107190285D01*
X78774171Y-107228990D01*
X78696761Y-107267695D01*
X78464533Y-107267695D01*
X78387123Y-107228990D01*
X78348419Y-107190285D01*
X79122514Y-106454895D02*
X79664380Y-106454895D01*
X79316038Y-107267695D01*
%TO.C,J27*%
X128804895Y-115057980D02*
X129385466Y-115057980D01*
X129501580Y-115096685D01*
X129578990Y-115174095D01*
X129617695Y-115290209D01*
X129617695Y-115367619D01*
X128882304Y-114709638D02*
X128843600Y-114670933D01*
X128804895Y-114593523D01*
X128804895Y-114400000D01*
X128843600Y-114322590D01*
X128882304Y-114283885D01*
X128959714Y-114245180D01*
X129037123Y-114245180D01*
X129153238Y-114283885D01*
X129617695Y-114748342D01*
X129617695Y-114245180D01*
X128804895Y-113974247D02*
X128804895Y-113432380D01*
X129617695Y-113780723D01*
%TO.C,C13*%
X104977485Y-80390285D02*
X104938780Y-80428990D01*
X104822666Y-80467695D01*
X104745257Y-80467695D01*
X104629142Y-80428990D01*
X104551733Y-80351580D01*
X104513028Y-80274171D01*
X104474323Y-80119352D01*
X104474323Y-80003238D01*
X104513028Y-79848419D01*
X104551733Y-79771009D01*
X104629142Y-79693600D01*
X104745257Y-79654895D01*
X104822666Y-79654895D01*
X104938780Y-79693600D01*
X104977485Y-79732304D01*
X105751580Y-80467695D02*
X105287123Y-80467695D01*
X105519352Y-80467695D02*
X105519352Y-79654895D01*
X105441942Y-79771009D01*
X105364533Y-79848419D01*
X105287123Y-79887123D01*
X106022514Y-79654895D02*
X106525676Y-79654895D01*
X106254742Y-79964533D01*
X106370857Y-79964533D01*
X106448266Y-80003238D01*
X106486971Y-80041942D01*
X106525676Y-80119352D01*
X106525676Y-80312876D01*
X106486971Y-80390285D01*
X106448266Y-80428990D01*
X106370857Y-80467695D01*
X106138628Y-80467695D01*
X106061219Y-80428990D01*
X106022514Y-80390285D01*
%TO.C,C50*%
X109077485Y-114490285D02*
X109038780Y-114528990D01*
X108922666Y-114567695D01*
X108845257Y-114567695D01*
X108729142Y-114528990D01*
X108651733Y-114451580D01*
X108613028Y-114374171D01*
X108574323Y-114219352D01*
X108574323Y-114103238D01*
X108613028Y-113948419D01*
X108651733Y-113871009D01*
X108729142Y-113793600D01*
X108845257Y-113754895D01*
X108922666Y-113754895D01*
X109038780Y-113793600D01*
X109077485Y-113832304D01*
X109812876Y-113754895D02*
X109425828Y-113754895D01*
X109387123Y-114141942D01*
X109425828Y-114103238D01*
X109503238Y-114064533D01*
X109696761Y-114064533D01*
X109774171Y-114103238D01*
X109812876Y-114141942D01*
X109851580Y-114219352D01*
X109851580Y-114412876D01*
X109812876Y-114490285D01*
X109774171Y-114528990D01*
X109696761Y-114567695D01*
X109503238Y-114567695D01*
X109425828Y-114528990D01*
X109387123Y-114490285D01*
X110354742Y-113754895D02*
X110432152Y-113754895D01*
X110509561Y-113793600D01*
X110548266Y-113832304D01*
X110586971Y-113909714D01*
X110625676Y-114064533D01*
X110625676Y-114258057D01*
X110586971Y-114412876D01*
X110548266Y-114490285D01*
X110509561Y-114528990D01*
X110432152Y-114567695D01*
X110354742Y-114567695D01*
X110277333Y-114528990D01*
X110238628Y-114490285D01*
X110199923Y-114412876D01*
X110161219Y-114258057D01*
X110161219Y-114064533D01*
X110199923Y-113909714D01*
X110238628Y-113832304D01*
X110277333Y-113793600D01*
X110354742Y-113754895D01*
%TO.C,C16*%
X111477485Y-80290285D02*
X111438780Y-80328990D01*
X111322666Y-80367695D01*
X111245257Y-80367695D01*
X111129142Y-80328990D01*
X111051733Y-80251580D01*
X111013028Y-80174171D01*
X110974323Y-80019352D01*
X110974323Y-79903238D01*
X111013028Y-79748419D01*
X111051733Y-79671009D01*
X111129142Y-79593600D01*
X111245257Y-79554895D01*
X111322666Y-79554895D01*
X111438780Y-79593600D01*
X111477485Y-79632304D01*
X112251580Y-80367695D02*
X111787123Y-80367695D01*
X112019352Y-80367695D02*
X112019352Y-79554895D01*
X111941942Y-79671009D01*
X111864533Y-79748419D01*
X111787123Y-79787123D01*
X112948266Y-79554895D02*
X112793447Y-79554895D01*
X112716038Y-79593600D01*
X112677333Y-79632304D01*
X112599923Y-79748419D01*
X112561219Y-79903238D01*
X112561219Y-80212876D01*
X112599923Y-80290285D01*
X112638628Y-80328990D01*
X112716038Y-80367695D01*
X112870857Y-80367695D01*
X112948266Y-80328990D01*
X112986971Y-80290285D01*
X113025676Y-80212876D01*
X113025676Y-80019352D01*
X112986971Y-79941942D01*
X112948266Y-79903238D01*
X112870857Y-79864533D01*
X112716038Y-79864533D01*
X112638628Y-79903238D01*
X112599923Y-79941942D01*
X112561219Y-80019352D01*
%TO.C,C5*%
X77564533Y-73090285D02*
X77525828Y-73128990D01*
X77409714Y-73167695D01*
X77332304Y-73167695D01*
X77216190Y-73128990D01*
X77138780Y-73051580D01*
X77100076Y-72974171D01*
X77061371Y-72819352D01*
X77061371Y-72703238D01*
X77100076Y-72548419D01*
X77138780Y-72471009D01*
X77216190Y-72393600D01*
X77332304Y-72354895D01*
X77409714Y-72354895D01*
X77525828Y-72393600D01*
X77564533Y-72432304D01*
X78299923Y-72354895D02*
X77912876Y-72354895D01*
X77874171Y-72741942D01*
X77912876Y-72703238D01*
X77990285Y-72664533D01*
X78183809Y-72664533D01*
X78261219Y-72703238D01*
X78299923Y-72741942D01*
X78338628Y-72819352D01*
X78338628Y-73012876D01*
X78299923Y-73090285D01*
X78261219Y-73128990D01*
X78183809Y-73167695D01*
X77990285Y-73167695D01*
X77912876Y-73128990D01*
X77874171Y-73090285D01*
%TO.C,R3*%
X87264533Y-61467695D02*
X86993600Y-61080647D01*
X86800076Y-61467695D02*
X86800076Y-60654895D01*
X87109714Y-60654895D01*
X87187123Y-60693600D01*
X87225828Y-60732304D01*
X87264533Y-60809714D01*
X87264533Y-60925828D01*
X87225828Y-61003238D01*
X87187123Y-61041942D01*
X87109714Y-61080647D01*
X86800076Y-61080647D01*
X87535466Y-60654895D02*
X88038628Y-60654895D01*
X87767695Y-60964533D01*
X87883809Y-60964533D01*
X87961219Y-61003238D01*
X87999923Y-61041942D01*
X88038628Y-61119352D01*
X88038628Y-61312876D01*
X87999923Y-61390285D01*
X87961219Y-61428990D01*
X87883809Y-61467695D01*
X87651580Y-61467695D01*
X87574171Y-61428990D01*
X87535466Y-61390285D01*
%TO.C,J25*%
X118542019Y-38694895D02*
X118542019Y-39275466D01*
X118503314Y-39391580D01*
X118425904Y-39468990D01*
X118309790Y-39507695D01*
X118232380Y-39507695D01*
X118890361Y-38772304D02*
X118929066Y-38733600D01*
X119006476Y-38694895D01*
X119200000Y-38694895D01*
X119277409Y-38733600D01*
X119316114Y-38772304D01*
X119354819Y-38849714D01*
X119354819Y-38927123D01*
X119316114Y-39043238D01*
X118851657Y-39507695D01*
X119354819Y-39507695D01*
X120090209Y-38694895D02*
X119703161Y-38694895D01*
X119664457Y-39081942D01*
X119703161Y-39043238D01*
X119780571Y-39004533D01*
X119974095Y-39004533D01*
X120051504Y-39043238D01*
X120090209Y-39081942D01*
X120128914Y-39159352D01*
X120128914Y-39352876D01*
X120090209Y-39430285D01*
X120051504Y-39468990D01*
X119974095Y-39507695D01*
X119780571Y-39507695D01*
X119703161Y-39468990D01*
X119664457Y-39430285D01*
%TO.C,J14*%
X127354895Y-73557980D02*
X127935466Y-73557980D01*
X128051580Y-73596685D01*
X128128990Y-73674095D01*
X128167695Y-73790209D01*
X128167695Y-73867619D01*
X128167695Y-72745180D02*
X128167695Y-73209638D01*
X128167695Y-72977409D02*
X127354895Y-72977409D01*
X127471009Y-73054819D01*
X127548419Y-73132228D01*
X127587123Y-73209638D01*
X127625828Y-72048495D02*
X128167695Y-72048495D01*
X127316190Y-72242019D02*
X127896761Y-72435542D01*
X127896761Y-71932380D01*
%TO.C,U1*%
X89520104Y-68325723D02*
X88862123Y-68325723D01*
X88784714Y-68364428D01*
X88746009Y-68403133D01*
X88707304Y-68480542D01*
X88707304Y-68635361D01*
X88746009Y-68712771D01*
X88784714Y-68751476D01*
X88862123Y-68790180D01*
X89520104Y-68790180D01*
X88707304Y-69602980D02*
X88707304Y-69138523D01*
X88707304Y-69370752D02*
X89520104Y-69370752D01*
X89403990Y-69293342D01*
X89326580Y-69215933D01*
X89287876Y-69138523D01*
%TO.C,R10*%
X115977485Y-69467695D02*
X115706552Y-69080647D01*
X115513028Y-69467695D02*
X115513028Y-68654895D01*
X115822666Y-68654895D01*
X115900076Y-68693600D01*
X115938780Y-68732304D01*
X115977485Y-68809714D01*
X115977485Y-68925828D01*
X115938780Y-69003238D01*
X115900076Y-69041942D01*
X115822666Y-69080647D01*
X115513028Y-69080647D01*
X116751580Y-69467695D02*
X116287123Y-69467695D01*
X116519352Y-69467695D02*
X116519352Y-68654895D01*
X116441942Y-68771009D01*
X116364533Y-68848419D01*
X116287123Y-68887123D01*
X117254742Y-68654895D02*
X117332152Y-68654895D01*
X117409561Y-68693600D01*
X117448266Y-68732304D01*
X117486971Y-68809714D01*
X117525676Y-68964533D01*
X117525676Y-69158057D01*
X117486971Y-69312876D01*
X117448266Y-69390285D01*
X117409561Y-69428990D01*
X117332152Y-69467695D01*
X117254742Y-69467695D01*
X117177333Y-69428990D01*
X117138628Y-69390285D01*
X117099923Y-69312876D01*
X117061219Y-69158057D01*
X117061219Y-68964533D01*
X117099923Y-68809714D01*
X117138628Y-68732304D01*
X117177333Y-68693600D01*
X117254742Y-68654895D01*
%TO.C,R26*%
X87377485Y-94767695D02*
X87106552Y-94380647D01*
X86913028Y-94767695D02*
X86913028Y-93954895D01*
X87222666Y-93954895D01*
X87300076Y-93993600D01*
X87338780Y-94032304D01*
X87377485Y-94109714D01*
X87377485Y-94225828D01*
X87338780Y-94303238D01*
X87300076Y-94341942D01*
X87222666Y-94380647D01*
X86913028Y-94380647D01*
X87687123Y-94032304D02*
X87725828Y-93993600D01*
X87803238Y-93954895D01*
X87996761Y-93954895D01*
X88074171Y-93993600D01*
X88112876Y-94032304D01*
X88151580Y-94109714D01*
X88151580Y-94187123D01*
X88112876Y-94303238D01*
X87648419Y-94767695D01*
X88151580Y-94767695D01*
X88848266Y-93954895D02*
X88693447Y-93954895D01*
X88616038Y-93993600D01*
X88577333Y-94032304D01*
X88499923Y-94148419D01*
X88461219Y-94303238D01*
X88461219Y-94612876D01*
X88499923Y-94690285D01*
X88538628Y-94728990D01*
X88616038Y-94767695D01*
X88770857Y-94767695D01*
X88848266Y-94728990D01*
X88886971Y-94690285D01*
X88925676Y-94612876D01*
X88925676Y-94419352D01*
X88886971Y-94341942D01*
X88848266Y-94303238D01*
X88770857Y-94264533D01*
X88616038Y-94264533D01*
X88538628Y-94303238D01*
X88499923Y-94341942D01*
X88461219Y-94419352D01*
%TO.C,C54*%
X128050084Y-69987785D02*
X128011379Y-70026490D01*
X127895265Y-70065195D01*
X127817856Y-70065195D01*
X127701741Y-70026490D01*
X127624332Y-69949080D01*
X127585627Y-69871671D01*
X127546922Y-69716852D01*
X127546922Y-69600738D01*
X127585627Y-69445919D01*
X127624332Y-69368509D01*
X127701741Y-69291100D01*
X127817856Y-69252395D01*
X127895265Y-69252395D01*
X128011379Y-69291100D01*
X128050084Y-69329804D01*
X128785475Y-69252395D02*
X128398427Y-69252395D01*
X128359722Y-69639442D01*
X128398427Y-69600738D01*
X128475837Y-69562033D01*
X128669360Y-69562033D01*
X128746770Y-69600738D01*
X128785475Y-69639442D01*
X128824179Y-69716852D01*
X128824179Y-69910376D01*
X128785475Y-69987785D01*
X128746770Y-70026490D01*
X128669360Y-70065195D01*
X128475837Y-70065195D01*
X128398427Y-70026490D01*
X128359722Y-69987785D01*
X129520865Y-69523328D02*
X129520865Y-70065195D01*
X129327341Y-69213690D02*
X129133818Y-69794261D01*
X129636979Y-69794261D01*
%TO.C,R1*%
X56414533Y-96667695D02*
X56143600Y-96280647D01*
X55950076Y-96667695D02*
X55950076Y-95854895D01*
X56259714Y-95854895D01*
X56337123Y-95893600D01*
X56375828Y-95932304D01*
X56414533Y-96009714D01*
X56414533Y-96125828D01*
X56375828Y-96203238D01*
X56337123Y-96241942D01*
X56259714Y-96280647D01*
X55950076Y-96280647D01*
X57188628Y-96667695D02*
X56724171Y-96667695D01*
X56956400Y-96667695D02*
X56956400Y-95854895D01*
X56878990Y-95971009D01*
X56801580Y-96048419D01*
X56724171Y-96087123D01*
%TO.C,C42*%
X80677485Y-95190285D02*
X80638780Y-95228990D01*
X80522666Y-95267695D01*
X80445257Y-95267695D01*
X80329142Y-95228990D01*
X80251733Y-95151580D01*
X80213028Y-95074171D01*
X80174323Y-94919352D01*
X80174323Y-94803238D01*
X80213028Y-94648419D01*
X80251733Y-94571009D01*
X80329142Y-94493600D01*
X80445257Y-94454895D01*
X80522666Y-94454895D01*
X80638780Y-94493600D01*
X80677485Y-94532304D01*
X81374171Y-94725828D02*
X81374171Y-95267695D01*
X81180647Y-94416190D02*
X80987123Y-94996761D01*
X81490285Y-94996761D01*
X81761219Y-94532304D02*
X81799923Y-94493600D01*
X81877333Y-94454895D01*
X82070857Y-94454895D01*
X82148266Y-94493600D01*
X82186971Y-94532304D01*
X82225676Y-94609714D01*
X82225676Y-94687123D01*
X82186971Y-94803238D01*
X81722514Y-95267695D01*
X82225676Y-95267695D01*
%TO.C,C43*%
X87477485Y-109990285D02*
X87438780Y-110028990D01*
X87322666Y-110067695D01*
X87245257Y-110067695D01*
X87129142Y-110028990D01*
X87051733Y-109951580D01*
X87013028Y-109874171D01*
X86974323Y-109719352D01*
X86974323Y-109603238D01*
X87013028Y-109448419D01*
X87051733Y-109371009D01*
X87129142Y-109293600D01*
X87245257Y-109254895D01*
X87322666Y-109254895D01*
X87438780Y-109293600D01*
X87477485Y-109332304D01*
X88174171Y-109525828D02*
X88174171Y-110067695D01*
X87980647Y-109216190D02*
X87787123Y-109796761D01*
X88290285Y-109796761D01*
X88522514Y-109254895D02*
X89025676Y-109254895D01*
X88754742Y-109564533D01*
X88870857Y-109564533D01*
X88948266Y-109603238D01*
X88986971Y-109641942D01*
X89025676Y-109719352D01*
X89025676Y-109912876D01*
X88986971Y-109990285D01*
X88948266Y-110028990D01*
X88870857Y-110067695D01*
X88638628Y-110067695D01*
X88561219Y-110028990D01*
X88522514Y-109990285D01*
%TO.C,C4*%
X77564533Y-61790285D02*
X77525828Y-61828990D01*
X77409714Y-61867695D01*
X77332304Y-61867695D01*
X77216190Y-61828990D01*
X77138780Y-61751580D01*
X77100076Y-61674171D01*
X77061371Y-61519352D01*
X77061371Y-61403238D01*
X77100076Y-61248419D01*
X77138780Y-61171009D01*
X77216190Y-61093600D01*
X77332304Y-61054895D01*
X77409714Y-61054895D01*
X77525828Y-61093600D01*
X77564533Y-61132304D01*
X78261219Y-61325828D02*
X78261219Y-61867695D01*
X78067695Y-61016190D02*
X77874171Y-61596761D01*
X78377333Y-61596761D01*
%TO.C,R25*%
X93977485Y-103867695D02*
X93706552Y-103480647D01*
X93513028Y-103867695D02*
X93513028Y-103054895D01*
X93822666Y-103054895D01*
X93900076Y-103093600D01*
X93938780Y-103132304D01*
X93977485Y-103209714D01*
X93977485Y-103325828D01*
X93938780Y-103403238D01*
X93900076Y-103441942D01*
X93822666Y-103480647D01*
X93513028Y-103480647D01*
X94287123Y-103132304D02*
X94325828Y-103093600D01*
X94403238Y-103054895D01*
X94596761Y-103054895D01*
X94674171Y-103093600D01*
X94712876Y-103132304D01*
X94751580Y-103209714D01*
X94751580Y-103287123D01*
X94712876Y-103403238D01*
X94248419Y-103867695D01*
X94751580Y-103867695D01*
X95486971Y-103054895D02*
X95099923Y-103054895D01*
X95061219Y-103441942D01*
X95099923Y-103403238D01*
X95177333Y-103364533D01*
X95370857Y-103364533D01*
X95448266Y-103403238D01*
X95486971Y-103441942D01*
X95525676Y-103519352D01*
X95525676Y-103712876D01*
X95486971Y-103790285D01*
X95448266Y-103828990D01*
X95370857Y-103867695D01*
X95177333Y-103867695D01*
X95099923Y-103828990D01*
X95061219Y-103790285D01*
%TO.C,J26*%
X129945104Y-51942019D02*
X129364533Y-51942019D01*
X129248419Y-51903314D01*
X129171009Y-51825904D01*
X129132304Y-51709790D01*
X129132304Y-51632380D01*
X129867695Y-52290361D02*
X129906400Y-52329066D01*
X129945104Y-52406476D01*
X129945104Y-52600000D01*
X129906400Y-52677409D01*
X129867695Y-52716114D01*
X129790285Y-52754819D01*
X129712876Y-52754819D01*
X129596761Y-52716114D01*
X129132304Y-52251657D01*
X129132304Y-52754819D01*
X129945104Y-53451504D02*
X129945104Y-53296685D01*
X129906400Y-53219276D01*
X129867695Y-53180571D01*
X129751580Y-53103161D01*
X129596761Y-53064457D01*
X129287123Y-53064457D01*
X129209714Y-53103161D01*
X129171009Y-53141866D01*
X129132304Y-53219276D01*
X129132304Y-53374095D01*
X129171009Y-53451504D01*
X129209714Y-53490209D01*
X129287123Y-53528914D01*
X129480647Y-53528914D01*
X129558057Y-53490209D01*
X129596761Y-53451504D01*
X129635466Y-53374095D01*
X129635466Y-53219276D01*
X129596761Y-53141866D01*
X129558057Y-53103161D01*
X129480647Y-53064457D01*
%TO.C,R5*%
X96764533Y-69667695D02*
X96493600Y-69280647D01*
X96300076Y-69667695D02*
X96300076Y-68854895D01*
X96609714Y-68854895D01*
X96687123Y-68893600D01*
X96725828Y-68932304D01*
X96764533Y-69009714D01*
X96764533Y-69125828D01*
X96725828Y-69203238D01*
X96687123Y-69241942D01*
X96609714Y-69280647D01*
X96300076Y-69280647D01*
X97499923Y-68854895D02*
X97112876Y-68854895D01*
X97074171Y-69241942D01*
X97112876Y-69203238D01*
X97190285Y-69164533D01*
X97383809Y-69164533D01*
X97461219Y-69203238D01*
X97499923Y-69241942D01*
X97538628Y-69319352D01*
X97538628Y-69512876D01*
X97499923Y-69590285D01*
X97461219Y-69628990D01*
X97383809Y-69667695D01*
X97190285Y-69667695D01*
X97112876Y-69628990D01*
X97074171Y-69590285D01*
%TO.C,R12*%
X102277485Y-28967695D02*
X102006552Y-28580647D01*
X101813028Y-28967695D02*
X101813028Y-28154895D01*
X102122666Y-28154895D01*
X102200076Y-28193600D01*
X102238780Y-28232304D01*
X102277485Y-28309714D01*
X102277485Y-28425828D01*
X102238780Y-28503238D01*
X102200076Y-28541942D01*
X102122666Y-28580647D01*
X101813028Y-28580647D01*
X103051580Y-28967695D02*
X102587123Y-28967695D01*
X102819352Y-28967695D02*
X102819352Y-28154895D01*
X102741942Y-28271009D01*
X102664533Y-28348419D01*
X102587123Y-28387123D01*
X103361219Y-28232304D02*
X103399923Y-28193600D01*
X103477333Y-28154895D01*
X103670857Y-28154895D01*
X103748266Y-28193600D01*
X103786971Y-28232304D01*
X103825676Y-28309714D01*
X103825676Y-28387123D01*
X103786971Y-28503238D01*
X103322514Y-28967695D01*
X103825676Y-28967695D01*
%TO.C,PS2*%
X108713028Y-46307695D02*
X108713028Y-45494895D01*
X109022666Y-45494895D01*
X109100076Y-45533600D01*
X109138780Y-45572304D01*
X109177485Y-45649714D01*
X109177485Y-45765828D01*
X109138780Y-45843238D01*
X109100076Y-45881942D01*
X109022666Y-45920647D01*
X108713028Y-45920647D01*
X109487123Y-46268990D02*
X109603238Y-46307695D01*
X109796761Y-46307695D01*
X109874171Y-46268990D01*
X109912876Y-46230285D01*
X109951580Y-46152876D01*
X109951580Y-46075466D01*
X109912876Y-45998057D01*
X109874171Y-45959352D01*
X109796761Y-45920647D01*
X109641942Y-45881942D01*
X109564533Y-45843238D01*
X109525828Y-45804533D01*
X109487123Y-45727123D01*
X109487123Y-45649714D01*
X109525828Y-45572304D01*
X109564533Y-45533600D01*
X109641942Y-45494895D01*
X109835466Y-45494895D01*
X109951580Y-45533600D01*
X110261219Y-45572304D02*
X110299923Y-45533600D01*
X110377333Y-45494895D01*
X110570857Y-45494895D01*
X110648266Y-45533600D01*
X110686971Y-45572304D01*
X110725676Y-45649714D01*
X110725676Y-45727123D01*
X110686971Y-45843238D01*
X110222514Y-46307695D01*
X110725676Y-46307695D01*
%TO.C,C10*%
X96977485Y-67590285D02*
X96938780Y-67628990D01*
X96822666Y-67667695D01*
X96745257Y-67667695D01*
X96629142Y-67628990D01*
X96551733Y-67551580D01*
X96513028Y-67474171D01*
X96474323Y-67319352D01*
X96474323Y-67203238D01*
X96513028Y-67048419D01*
X96551733Y-66971009D01*
X96629142Y-66893600D01*
X96745257Y-66854895D01*
X96822666Y-66854895D01*
X96938780Y-66893600D01*
X96977485Y-66932304D01*
X97751580Y-67667695D02*
X97287123Y-67667695D01*
X97519352Y-67667695D02*
X97519352Y-66854895D01*
X97441942Y-66971009D01*
X97364533Y-67048419D01*
X97287123Y-67087123D01*
X98254742Y-66854895D02*
X98332152Y-66854895D01*
X98409561Y-66893600D01*
X98448266Y-66932304D01*
X98486971Y-67009714D01*
X98525676Y-67164533D01*
X98525676Y-67358057D01*
X98486971Y-67512876D01*
X98448266Y-67590285D01*
X98409561Y-67628990D01*
X98332152Y-67667695D01*
X98254742Y-67667695D01*
X98177333Y-67628990D01*
X98138628Y-67590285D01*
X98099923Y-67512876D01*
X98061219Y-67358057D01*
X98061219Y-67164533D01*
X98099923Y-67009714D01*
X98138628Y-66932304D01*
X98177333Y-66893600D01*
X98254742Y-66854895D01*
%TO.C,R7*%
X85664533Y-61467695D02*
X85393600Y-61080647D01*
X85200076Y-61467695D02*
X85200076Y-60654895D01*
X85509714Y-60654895D01*
X85587123Y-60693600D01*
X85625828Y-60732304D01*
X85664533Y-60809714D01*
X85664533Y-60925828D01*
X85625828Y-61003238D01*
X85587123Y-61041942D01*
X85509714Y-61080647D01*
X85200076Y-61080647D01*
X85935466Y-60654895D02*
X86477333Y-60654895D01*
X86128990Y-61467695D01*
%TO.C,J17*%
X127604895Y-91857980D02*
X128185466Y-91857980D01*
X128301580Y-91896685D01*
X128378990Y-91974095D01*
X128417695Y-92090209D01*
X128417695Y-92167619D01*
X128417695Y-91045180D02*
X128417695Y-91509638D01*
X128417695Y-91277409D02*
X127604895Y-91277409D01*
X127721009Y-91354819D01*
X127798419Y-91432228D01*
X127837123Y-91509638D01*
X127604895Y-90774247D02*
X127604895Y-90232380D01*
X128417695Y-90580723D01*
%TO.C,R29*%
X99777485Y-102367695D02*
X99506552Y-101980647D01*
X99313028Y-102367695D02*
X99313028Y-101554895D01*
X99622666Y-101554895D01*
X99700076Y-101593600D01*
X99738780Y-101632304D01*
X99777485Y-101709714D01*
X99777485Y-101825828D01*
X99738780Y-101903238D01*
X99700076Y-101941942D01*
X99622666Y-101980647D01*
X99313028Y-101980647D01*
X100087123Y-101632304D02*
X100125828Y-101593600D01*
X100203238Y-101554895D01*
X100396761Y-101554895D01*
X100474171Y-101593600D01*
X100512876Y-101632304D01*
X100551580Y-101709714D01*
X100551580Y-101787123D01*
X100512876Y-101903238D01*
X100048419Y-102367695D01*
X100551580Y-102367695D01*
X100938628Y-102367695D02*
X101093447Y-102367695D01*
X101170857Y-102328990D01*
X101209561Y-102290285D01*
X101286971Y-102174171D01*
X101325676Y-102019352D01*
X101325676Y-101709714D01*
X101286971Y-101632304D01*
X101248266Y-101593600D01*
X101170857Y-101554895D01*
X101016038Y-101554895D01*
X100938628Y-101593600D01*
X100899923Y-101632304D01*
X100861219Y-101709714D01*
X100861219Y-101903238D01*
X100899923Y-101980647D01*
X100938628Y-102019352D01*
X101016038Y-102058057D01*
X101170857Y-102058057D01*
X101248266Y-102019352D01*
X101286971Y-101980647D01*
X101325676Y-101903238D01*
%TO.C,C40*%
X78077485Y-95990285D02*
X78038780Y-96028990D01*
X77922666Y-96067695D01*
X77845257Y-96067695D01*
X77729142Y-96028990D01*
X77651733Y-95951580D01*
X77613028Y-95874171D01*
X77574323Y-95719352D01*
X77574323Y-95603238D01*
X77613028Y-95448419D01*
X77651733Y-95371009D01*
X77729142Y-95293600D01*
X77845257Y-95254895D01*
X77922666Y-95254895D01*
X78038780Y-95293600D01*
X78077485Y-95332304D01*
X78774171Y-95525828D02*
X78774171Y-96067695D01*
X78580647Y-95216190D02*
X78387123Y-95796761D01*
X78890285Y-95796761D01*
X79354742Y-95254895D02*
X79432152Y-95254895D01*
X79509561Y-95293600D01*
X79548266Y-95332304D01*
X79586971Y-95409714D01*
X79625676Y-95564533D01*
X79625676Y-95758057D01*
X79586971Y-95912876D01*
X79548266Y-95990285D01*
X79509561Y-96028990D01*
X79432152Y-96067695D01*
X79354742Y-96067695D01*
X79277333Y-96028990D01*
X79238628Y-95990285D01*
X79199923Y-95912876D01*
X79161219Y-95758057D01*
X79161219Y-95564533D01*
X79199923Y-95409714D01*
X79238628Y-95332304D01*
X79277333Y-95293600D01*
X79354742Y-95254895D01*
%TO.C,J3*%
X58545104Y-54529066D02*
X57964533Y-54529066D01*
X57848419Y-54490361D01*
X57771009Y-54412952D01*
X57732304Y-54296838D01*
X57732304Y-54219428D01*
X58545104Y-54838704D02*
X58545104Y-55341866D01*
X58235466Y-55070933D01*
X58235466Y-55187047D01*
X58196761Y-55264457D01*
X58158057Y-55303161D01*
X58080647Y-55341866D01*
X57887123Y-55341866D01*
X57809714Y-55303161D01*
X57771009Y-55264457D01*
X57732304Y-55187047D01*
X57732304Y-54954819D01*
X57771009Y-54877409D01*
X57809714Y-54838704D01*
%TO.C,D3*%
X50200076Y-63967695D02*
X50200076Y-63154895D01*
X50393600Y-63154895D01*
X50509714Y-63193600D01*
X50587123Y-63271009D01*
X50625828Y-63348419D01*
X50664533Y-63503238D01*
X50664533Y-63619352D01*
X50625828Y-63774171D01*
X50587123Y-63851580D01*
X50509714Y-63928990D01*
X50393600Y-63967695D01*
X50200076Y-63967695D01*
X50935466Y-63154895D02*
X51438628Y-63154895D01*
X51167695Y-63464533D01*
X51283809Y-63464533D01*
X51361219Y-63503238D01*
X51399923Y-63541942D01*
X51438628Y-63619352D01*
X51438628Y-63812876D01*
X51399923Y-63890285D01*
X51361219Y-63928990D01*
X51283809Y-63967695D01*
X51051580Y-63967695D01*
X50974171Y-63928990D01*
X50935466Y-63890285D01*
%TO.C,C7*%
X94264533Y-75890285D02*
X94225828Y-75928990D01*
X94109714Y-75967695D01*
X94032304Y-75967695D01*
X93916190Y-75928990D01*
X93838780Y-75851580D01*
X93800076Y-75774171D01*
X93761371Y-75619352D01*
X93761371Y-75503238D01*
X93800076Y-75348419D01*
X93838780Y-75271009D01*
X93916190Y-75193600D01*
X94032304Y-75154895D01*
X94109714Y-75154895D01*
X94225828Y-75193600D01*
X94264533Y-75232304D01*
X94535466Y-75154895D02*
X95077333Y-75154895D01*
X94728990Y-75967695D01*
%TO.C,D1*%
X49650076Y-96517695D02*
X49650076Y-95704895D01*
X49843600Y-95704895D01*
X49959714Y-95743600D01*
X50037123Y-95821009D01*
X50075828Y-95898419D01*
X50114533Y-96053238D01*
X50114533Y-96169352D01*
X50075828Y-96324171D01*
X50037123Y-96401580D01*
X49959714Y-96478990D01*
X49843600Y-96517695D01*
X49650076Y-96517695D01*
X50888628Y-96517695D02*
X50424171Y-96517695D01*
X50656400Y-96517695D02*
X50656400Y-95704895D01*
X50578990Y-95821009D01*
X50501580Y-95898419D01*
X50424171Y-95937123D01*
%TO.C,J1*%
X58445104Y-87029066D02*
X57864533Y-87029066D01*
X57748419Y-86990361D01*
X57671009Y-86912952D01*
X57632304Y-86796838D01*
X57632304Y-86719428D01*
X57632304Y-87841866D02*
X57632304Y-87377409D01*
X57632304Y-87609638D02*
X58445104Y-87609638D01*
X58328990Y-87532228D01*
X58251580Y-87454819D01*
X58212876Y-87377409D01*
%TO.C,C36*%
X89477485Y-94690285D02*
X89438780Y-94728990D01*
X89322666Y-94767695D01*
X89245257Y-94767695D01*
X89129142Y-94728990D01*
X89051733Y-94651580D01*
X89013028Y-94574171D01*
X88974323Y-94419352D01*
X88974323Y-94303238D01*
X89013028Y-94148419D01*
X89051733Y-94071009D01*
X89129142Y-93993600D01*
X89245257Y-93954895D01*
X89322666Y-93954895D01*
X89438780Y-93993600D01*
X89477485Y-94032304D01*
X89748419Y-93954895D02*
X90251580Y-93954895D01*
X89980647Y-94264533D01*
X90096761Y-94264533D01*
X90174171Y-94303238D01*
X90212876Y-94341942D01*
X90251580Y-94419352D01*
X90251580Y-94612876D01*
X90212876Y-94690285D01*
X90174171Y-94728990D01*
X90096761Y-94767695D01*
X89864533Y-94767695D01*
X89787123Y-94728990D01*
X89748419Y-94690285D01*
X90948266Y-93954895D02*
X90793447Y-93954895D01*
X90716038Y-93993600D01*
X90677333Y-94032304D01*
X90599923Y-94148419D01*
X90561219Y-94303238D01*
X90561219Y-94612876D01*
X90599923Y-94690285D01*
X90638628Y-94728990D01*
X90716038Y-94767695D01*
X90870857Y-94767695D01*
X90948266Y-94728990D01*
X90986971Y-94690285D01*
X91025676Y-94612876D01*
X91025676Y-94419352D01*
X90986971Y-94341942D01*
X90948266Y-94303238D01*
X90870857Y-94264533D01*
X90716038Y-94264533D01*
X90638628Y-94303238D01*
X90599923Y-94341942D01*
X90561219Y-94419352D01*
%TO.C,C9*%
X90264533Y-75790285D02*
X90225828Y-75828990D01*
X90109714Y-75867695D01*
X90032304Y-75867695D01*
X89916190Y-75828990D01*
X89838780Y-75751580D01*
X89800076Y-75674171D01*
X89761371Y-75519352D01*
X89761371Y-75403238D01*
X89800076Y-75248419D01*
X89838780Y-75171009D01*
X89916190Y-75093600D01*
X90032304Y-75054895D01*
X90109714Y-75054895D01*
X90225828Y-75093600D01*
X90264533Y-75132304D01*
X90651580Y-75867695D02*
X90806400Y-75867695D01*
X90883809Y-75828990D01*
X90922514Y-75790285D01*
X90999923Y-75674171D01*
X91038628Y-75519352D01*
X91038628Y-75209714D01*
X90999923Y-75132304D01*
X90961219Y-75093600D01*
X90883809Y-75054895D01*
X90728990Y-75054895D01*
X90651580Y-75093600D01*
X90612876Y-75132304D01*
X90574171Y-75209714D01*
X90574171Y-75403238D01*
X90612876Y-75480647D01*
X90651580Y-75519352D01*
X90728990Y-75558057D01*
X90883809Y-75558057D01*
X90961219Y-75519352D01*
X90999923Y-75480647D01*
X91038628Y-75403238D01*
%TO.C,R11*%
X56177485Y-63867695D02*
X55906552Y-63480647D01*
X55713028Y-63867695D02*
X55713028Y-63054895D01*
X56022666Y-63054895D01*
X56100076Y-63093600D01*
X56138780Y-63132304D01*
X56177485Y-63209714D01*
X56177485Y-63325828D01*
X56138780Y-63403238D01*
X56100076Y-63441942D01*
X56022666Y-63480647D01*
X55713028Y-63480647D01*
X56951580Y-63867695D02*
X56487123Y-63867695D01*
X56719352Y-63867695D02*
X56719352Y-63054895D01*
X56641942Y-63171009D01*
X56564533Y-63248419D01*
X56487123Y-63287123D01*
X57725676Y-63867695D02*
X57261219Y-63867695D01*
X57493447Y-63867695D02*
X57493447Y-63054895D01*
X57416038Y-63171009D01*
X57338628Y-63248419D01*
X57261219Y-63287123D01*
%TO.C,J9*%
X90129066Y-31414895D02*
X90129066Y-31995466D01*
X90090361Y-32111580D01*
X90012952Y-32188990D01*
X89896838Y-32227695D01*
X89819428Y-32227695D01*
X90554819Y-32227695D02*
X90709638Y-32227695D01*
X90787047Y-32188990D01*
X90825752Y-32150285D01*
X90903161Y-32034171D01*
X90941866Y-31879352D01*
X90941866Y-31569714D01*
X90903161Y-31492304D01*
X90864457Y-31453600D01*
X90787047Y-31414895D01*
X90632228Y-31414895D01*
X90554819Y-31453600D01*
X90516114Y-31492304D01*
X90477409Y-31569714D01*
X90477409Y-31763238D01*
X90516114Y-31840647D01*
X90554819Y-31879352D01*
X90632228Y-31918057D01*
X90787047Y-31918057D01*
X90864457Y-31879352D01*
X90903161Y-31840647D01*
X90941866Y-31763238D01*
%TO.C,R23*%
X84477485Y-95767695D02*
X84206552Y-95380647D01*
X84013028Y-95767695D02*
X84013028Y-94954895D01*
X84322666Y-94954895D01*
X84400076Y-94993600D01*
X84438780Y-95032304D01*
X84477485Y-95109714D01*
X84477485Y-95225828D01*
X84438780Y-95303238D01*
X84400076Y-95341942D01*
X84322666Y-95380647D01*
X84013028Y-95380647D01*
X84787123Y-95032304D02*
X84825828Y-94993600D01*
X84903238Y-94954895D01*
X85096761Y-94954895D01*
X85174171Y-94993600D01*
X85212876Y-95032304D01*
X85251580Y-95109714D01*
X85251580Y-95187123D01*
X85212876Y-95303238D01*
X84748419Y-95767695D01*
X85251580Y-95767695D01*
X85522514Y-94954895D02*
X86025676Y-94954895D01*
X85754742Y-95264533D01*
X85870857Y-95264533D01*
X85948266Y-95303238D01*
X85986971Y-95341942D01*
X86025676Y-95419352D01*
X86025676Y-95612876D01*
X85986971Y-95690285D01*
X85948266Y-95728990D01*
X85870857Y-95767695D01*
X85638628Y-95767695D01*
X85561219Y-95728990D01*
X85522514Y-95690285D01*
%TO.C,C45*%
X96177485Y-103890285D02*
X96138780Y-103928990D01*
X96022666Y-103967695D01*
X95945257Y-103967695D01*
X95829142Y-103928990D01*
X95751733Y-103851580D01*
X95713028Y-103774171D01*
X95674323Y-103619352D01*
X95674323Y-103503238D01*
X95713028Y-103348419D01*
X95751733Y-103271009D01*
X95829142Y-103193600D01*
X95945257Y-103154895D01*
X96022666Y-103154895D01*
X96138780Y-103193600D01*
X96177485Y-103232304D01*
X96874171Y-103425828D02*
X96874171Y-103967695D01*
X96680647Y-103116190D02*
X96487123Y-103696761D01*
X96990285Y-103696761D01*
X97686971Y-103154895D02*
X97299923Y-103154895D01*
X97261219Y-103541942D01*
X97299923Y-103503238D01*
X97377333Y-103464533D01*
X97570857Y-103464533D01*
X97648266Y-103503238D01*
X97686971Y-103541942D01*
X97725676Y-103619352D01*
X97725676Y-103812876D01*
X97686971Y-103890285D01*
X97648266Y-103928990D01*
X97570857Y-103967695D01*
X97377333Y-103967695D01*
X97299923Y-103928990D01*
X97261219Y-103890285D01*
%TO.C,J21*%
X110942019Y-38494895D02*
X110942019Y-39075466D01*
X110903314Y-39191580D01*
X110825904Y-39268990D01*
X110709790Y-39307695D01*
X110632380Y-39307695D01*
X111290361Y-38572304D02*
X111329066Y-38533600D01*
X111406476Y-38494895D01*
X111600000Y-38494895D01*
X111677409Y-38533600D01*
X111716114Y-38572304D01*
X111754819Y-38649714D01*
X111754819Y-38727123D01*
X111716114Y-38843238D01*
X111251657Y-39307695D01*
X111754819Y-39307695D01*
X112528914Y-39307695D02*
X112064457Y-39307695D01*
X112296685Y-39307695D02*
X112296685Y-38494895D01*
X112219276Y-38611009D01*
X112141866Y-38688419D01*
X112064457Y-38727123D01*
%TO.C,PS1*%
X90313028Y-46107695D02*
X90313028Y-45294895D01*
X90622666Y-45294895D01*
X90700076Y-45333600D01*
X90738780Y-45372304D01*
X90777485Y-45449714D01*
X90777485Y-45565828D01*
X90738780Y-45643238D01*
X90700076Y-45681942D01*
X90622666Y-45720647D01*
X90313028Y-45720647D01*
X91087123Y-46068990D02*
X91203238Y-46107695D01*
X91396761Y-46107695D01*
X91474171Y-46068990D01*
X91512876Y-46030285D01*
X91551580Y-45952876D01*
X91551580Y-45875466D01*
X91512876Y-45798057D01*
X91474171Y-45759352D01*
X91396761Y-45720647D01*
X91241942Y-45681942D01*
X91164533Y-45643238D01*
X91125828Y-45604533D01*
X91087123Y-45527123D01*
X91087123Y-45449714D01*
X91125828Y-45372304D01*
X91164533Y-45333600D01*
X91241942Y-45294895D01*
X91435466Y-45294895D01*
X91551580Y-45333600D01*
X92325676Y-46107695D02*
X91861219Y-46107695D01*
X92093447Y-46107695D02*
X92093447Y-45294895D01*
X92016038Y-45411009D01*
X91938628Y-45488419D01*
X91861219Y-45527123D01*
%TO.C,C1*%
X83764533Y-71890285D02*
X83725828Y-71928990D01*
X83609714Y-71967695D01*
X83532304Y-71967695D01*
X83416190Y-71928990D01*
X83338780Y-71851580D01*
X83300076Y-71774171D01*
X83261371Y-71619352D01*
X83261371Y-71503238D01*
X83300076Y-71348419D01*
X83338780Y-71271009D01*
X83416190Y-71193600D01*
X83532304Y-71154895D01*
X83609714Y-71154895D01*
X83725828Y-71193600D01*
X83764533Y-71232304D01*
X84538628Y-71967695D02*
X84074171Y-71967695D01*
X84306400Y-71967695D02*
X84306400Y-71154895D01*
X84228990Y-71271009D01*
X84151580Y-71348419D01*
X84074171Y-71387123D01*
%TO.C,C35*%
X80977485Y-106090285D02*
X80938780Y-106128990D01*
X80822666Y-106167695D01*
X80745257Y-106167695D01*
X80629142Y-106128990D01*
X80551733Y-106051580D01*
X80513028Y-105974171D01*
X80474323Y-105819352D01*
X80474323Y-105703238D01*
X80513028Y-105548419D01*
X80551733Y-105471009D01*
X80629142Y-105393600D01*
X80745257Y-105354895D01*
X80822666Y-105354895D01*
X80938780Y-105393600D01*
X80977485Y-105432304D01*
X81248419Y-105354895D02*
X81751580Y-105354895D01*
X81480647Y-105664533D01*
X81596761Y-105664533D01*
X81674171Y-105703238D01*
X81712876Y-105741942D01*
X81751580Y-105819352D01*
X81751580Y-106012876D01*
X81712876Y-106090285D01*
X81674171Y-106128990D01*
X81596761Y-106167695D01*
X81364533Y-106167695D01*
X81287123Y-106128990D01*
X81248419Y-106090285D01*
X82486971Y-105354895D02*
X82099923Y-105354895D01*
X82061219Y-105741942D01*
X82099923Y-105703238D01*
X82177333Y-105664533D01*
X82370857Y-105664533D01*
X82448266Y-105703238D01*
X82486971Y-105741942D01*
X82525676Y-105819352D01*
X82525676Y-106012876D01*
X82486971Y-106090285D01*
X82448266Y-106128990D01*
X82370857Y-106167695D01*
X82177333Y-106167695D01*
X82099923Y-106128990D01*
X82061219Y-106090285D01*
%TO.C,C12*%
X105922514Y-68409714D02*
X105961219Y-68371009D01*
X106077333Y-68332304D01*
X106154742Y-68332304D01*
X106270857Y-68371009D01*
X106348266Y-68448419D01*
X106386971Y-68525828D01*
X106425676Y-68680647D01*
X106425676Y-68796761D01*
X106386971Y-68951580D01*
X106348266Y-69028990D01*
X106270857Y-69106400D01*
X106154742Y-69145104D01*
X106077333Y-69145104D01*
X105961219Y-69106400D01*
X105922514Y-69067695D01*
X105148419Y-68332304D02*
X105612876Y-68332304D01*
X105380647Y-68332304D02*
X105380647Y-69145104D01*
X105458057Y-69028990D01*
X105535466Y-68951580D01*
X105612876Y-68912876D01*
X104838780Y-69067695D02*
X104800076Y-69106400D01*
X104722666Y-69145104D01*
X104529142Y-69145104D01*
X104451733Y-69106400D01*
X104413028Y-69067695D01*
X104374323Y-68990285D01*
X104374323Y-68912876D01*
X104413028Y-68796761D01*
X104877485Y-68332304D01*
X104374323Y-68332304D01*
%TO.C,R28*%
X98177485Y-104267695D02*
X97906552Y-103880647D01*
X97713028Y-104267695D02*
X97713028Y-103454895D01*
X98022666Y-103454895D01*
X98100076Y-103493600D01*
X98138780Y-103532304D01*
X98177485Y-103609714D01*
X98177485Y-103725828D01*
X98138780Y-103803238D01*
X98100076Y-103841942D01*
X98022666Y-103880647D01*
X97713028Y-103880647D01*
X98487123Y-103532304D02*
X98525828Y-103493600D01*
X98603238Y-103454895D01*
X98796761Y-103454895D01*
X98874171Y-103493600D01*
X98912876Y-103532304D01*
X98951580Y-103609714D01*
X98951580Y-103687123D01*
X98912876Y-103803238D01*
X98448419Y-104267695D01*
X98951580Y-104267695D01*
X99416038Y-103803238D02*
X99338628Y-103764533D01*
X99299923Y-103725828D01*
X99261219Y-103648419D01*
X99261219Y-103609714D01*
X99299923Y-103532304D01*
X99338628Y-103493600D01*
X99416038Y-103454895D01*
X99570857Y-103454895D01*
X99648266Y-103493600D01*
X99686971Y-103532304D01*
X99725676Y-103609714D01*
X99725676Y-103648419D01*
X99686971Y-103725828D01*
X99648266Y-103764533D01*
X99570857Y-103803238D01*
X99416038Y-103803238D01*
X99338628Y-103841942D01*
X99299923Y-103880647D01*
X99261219Y-103958057D01*
X99261219Y-104112876D01*
X99299923Y-104190285D01*
X99338628Y-104228990D01*
X99416038Y-104267695D01*
X99570857Y-104267695D01*
X99648266Y-104228990D01*
X99686971Y-104190285D01*
X99725676Y-104112876D01*
X99725676Y-103958057D01*
X99686971Y-103880647D01*
X99648266Y-103841942D01*
X99570857Y-103803238D01*
%TO.C,R27*%
X82877485Y-95267695D02*
X82606552Y-94880647D01*
X82413028Y-95267695D02*
X82413028Y-94454895D01*
X82722666Y-94454895D01*
X82800076Y-94493600D01*
X82838780Y-94532304D01*
X82877485Y-94609714D01*
X82877485Y-94725828D01*
X82838780Y-94803238D01*
X82800076Y-94841942D01*
X82722666Y-94880647D01*
X82413028Y-94880647D01*
X83187123Y-94532304D02*
X83225828Y-94493600D01*
X83303238Y-94454895D01*
X83496761Y-94454895D01*
X83574171Y-94493600D01*
X83612876Y-94532304D01*
X83651580Y-94609714D01*
X83651580Y-94687123D01*
X83612876Y-94803238D01*
X83148419Y-95267695D01*
X83651580Y-95267695D01*
X83922514Y-94454895D02*
X84464380Y-94454895D01*
X84116038Y-95267695D01*
%TO.C,J28*%
X116354895Y-115157980D02*
X116935466Y-115157980D01*
X117051580Y-115196685D01*
X117128990Y-115274095D01*
X117167695Y-115390209D01*
X117167695Y-115467619D01*
X116432304Y-114809638D02*
X116393600Y-114770933D01*
X116354895Y-114693523D01*
X116354895Y-114500000D01*
X116393600Y-114422590D01*
X116432304Y-114383885D01*
X116509714Y-114345180D01*
X116587123Y-114345180D01*
X116703238Y-114383885D01*
X117167695Y-114848342D01*
X117167695Y-114345180D01*
X116703238Y-113880723D02*
X116664533Y-113958133D01*
X116625828Y-113996838D01*
X116548419Y-114035542D01*
X116509714Y-114035542D01*
X116432304Y-113996838D01*
X116393600Y-113958133D01*
X116354895Y-113880723D01*
X116354895Y-113725904D01*
X116393600Y-113648495D01*
X116432304Y-113609790D01*
X116509714Y-113571085D01*
X116548419Y-113571085D01*
X116625828Y-113609790D01*
X116664533Y-113648495D01*
X116703238Y-113725904D01*
X116703238Y-113880723D01*
X116741942Y-113958133D01*
X116780647Y-113996838D01*
X116858057Y-114035542D01*
X117012876Y-114035542D01*
X117090285Y-113996838D01*
X117128990Y-113958133D01*
X117167695Y-113880723D01*
X117167695Y-113725904D01*
X117128990Y-113648495D01*
X117090285Y-113609790D01*
X117012876Y-113571085D01*
X116858057Y-113571085D01*
X116780647Y-113609790D01*
X116741942Y-113648495D01*
X116703238Y-113725904D01*
%TO.C,R2*%
X94064533Y-61467695D02*
X93793600Y-61080647D01*
X93600076Y-61467695D02*
X93600076Y-60654895D01*
X93909714Y-60654895D01*
X93987123Y-60693600D01*
X94025828Y-60732304D01*
X94064533Y-60809714D01*
X94064533Y-60925828D01*
X94025828Y-61003238D01*
X93987123Y-61041942D01*
X93909714Y-61080647D01*
X93600076Y-61080647D01*
X94374171Y-60732304D02*
X94412876Y-60693600D01*
X94490285Y-60654895D01*
X94683809Y-60654895D01*
X94761219Y-60693600D01*
X94799923Y-60732304D01*
X94838628Y-60809714D01*
X94838628Y-60887123D01*
X94799923Y-61003238D01*
X94335466Y-61467695D01*
X94838628Y-61467695D01*
%TO.C,C14*%
X109222514Y-68309714D02*
X109261219Y-68271009D01*
X109377333Y-68232304D01*
X109454742Y-68232304D01*
X109570857Y-68271009D01*
X109648266Y-68348419D01*
X109686971Y-68425828D01*
X109725676Y-68580647D01*
X109725676Y-68696761D01*
X109686971Y-68851580D01*
X109648266Y-68928990D01*
X109570857Y-69006400D01*
X109454742Y-69045104D01*
X109377333Y-69045104D01*
X109261219Y-69006400D01*
X109222514Y-68967695D01*
X108448419Y-68232304D02*
X108912876Y-68232304D01*
X108680647Y-68232304D02*
X108680647Y-69045104D01*
X108758057Y-68928990D01*
X108835466Y-68851580D01*
X108912876Y-68812876D01*
X107751733Y-68774171D02*
X107751733Y-68232304D01*
X107945257Y-69083809D02*
X108138780Y-68503238D01*
X107635619Y-68503238D01*
%TO.C,C15*%
X108127485Y-80390285D02*
X108088780Y-80428990D01*
X107972666Y-80467695D01*
X107895257Y-80467695D01*
X107779142Y-80428990D01*
X107701733Y-80351580D01*
X107663028Y-80274171D01*
X107624323Y-80119352D01*
X107624323Y-80003238D01*
X107663028Y-79848419D01*
X107701733Y-79771009D01*
X107779142Y-79693600D01*
X107895257Y-79654895D01*
X107972666Y-79654895D01*
X108088780Y-79693600D01*
X108127485Y-79732304D01*
X108901580Y-80467695D02*
X108437123Y-80467695D01*
X108669352Y-80467695D02*
X108669352Y-79654895D01*
X108591942Y-79771009D01*
X108514533Y-79848419D01*
X108437123Y-79887123D01*
X109636971Y-79654895D02*
X109249923Y-79654895D01*
X109211219Y-80041942D01*
X109249923Y-80003238D01*
X109327333Y-79964533D01*
X109520857Y-79964533D01*
X109598266Y-80003238D01*
X109636971Y-80041942D01*
X109675676Y-80119352D01*
X109675676Y-80312876D01*
X109636971Y-80390285D01*
X109598266Y-80428990D01*
X109520857Y-80467695D01*
X109327333Y-80467695D01*
X109249923Y-80428990D01*
X109211219Y-80390285D01*
%TO.C,C55*%
X99677485Y-58890285D02*
X99638780Y-58928990D01*
X99522666Y-58967695D01*
X99445257Y-58967695D01*
X99329142Y-58928990D01*
X99251733Y-58851580D01*
X99213028Y-58774171D01*
X99174323Y-58619352D01*
X99174323Y-58503238D01*
X99213028Y-58348419D01*
X99251733Y-58271009D01*
X99329142Y-58193600D01*
X99445257Y-58154895D01*
X99522666Y-58154895D01*
X99638780Y-58193600D01*
X99677485Y-58232304D01*
X100412876Y-58154895D02*
X100025828Y-58154895D01*
X99987123Y-58541942D01*
X100025828Y-58503238D01*
X100103238Y-58464533D01*
X100296761Y-58464533D01*
X100374171Y-58503238D01*
X100412876Y-58541942D01*
X100451580Y-58619352D01*
X100451580Y-58812876D01*
X100412876Y-58890285D01*
X100374171Y-58928990D01*
X100296761Y-58967695D01*
X100103238Y-58967695D01*
X100025828Y-58928990D01*
X99987123Y-58890285D01*
X101186971Y-58154895D02*
X100799923Y-58154895D01*
X100761219Y-58541942D01*
X100799923Y-58503238D01*
X100877333Y-58464533D01*
X101070857Y-58464533D01*
X101148266Y-58503238D01*
X101186971Y-58541942D01*
X101225676Y-58619352D01*
X101225676Y-58812876D01*
X101186971Y-58890285D01*
X101148266Y-58928990D01*
X101070857Y-58967695D01*
X100877333Y-58967695D01*
X100799923Y-58928990D01*
X100761219Y-58890285D01*
%TO.C,C48*%
X106822514Y-102509714D02*
X106861219Y-102471009D01*
X106977333Y-102432304D01*
X107054742Y-102432304D01*
X107170857Y-102471009D01*
X107248266Y-102548419D01*
X107286971Y-102625828D01*
X107325676Y-102780647D01*
X107325676Y-102896761D01*
X107286971Y-103051580D01*
X107248266Y-103128990D01*
X107170857Y-103206400D01*
X107054742Y-103245104D01*
X106977333Y-103245104D01*
X106861219Y-103206400D01*
X106822514Y-103167695D01*
X106125828Y-102974171D02*
X106125828Y-102432304D01*
X106319352Y-103283809D02*
X106512876Y-102703238D01*
X106009714Y-102703238D01*
X105583961Y-102896761D02*
X105661371Y-102935466D01*
X105700076Y-102974171D01*
X105738780Y-103051580D01*
X105738780Y-103090285D01*
X105700076Y-103167695D01*
X105661371Y-103206400D01*
X105583961Y-103245104D01*
X105429142Y-103245104D01*
X105351733Y-103206400D01*
X105313028Y-103167695D01*
X105274323Y-103090285D01*
X105274323Y-103051580D01*
X105313028Y-102974171D01*
X105351733Y-102935466D01*
X105429142Y-102896761D01*
X105583961Y-102896761D01*
X105661371Y-102858057D01*
X105700076Y-102819352D01*
X105738780Y-102741942D01*
X105738780Y-102587123D01*
X105700076Y-102509714D01*
X105661371Y-102471009D01*
X105583961Y-102432304D01*
X105429142Y-102432304D01*
X105351733Y-102471009D01*
X105313028Y-102509714D01*
X105274323Y-102587123D01*
X105274323Y-102741942D01*
X105313028Y-102819352D01*
X105351733Y-102858057D01*
X105429142Y-102896761D01*
%TO.C,J20*%
X138745104Y-40622019D02*
X138164533Y-40622019D01*
X138048419Y-40583314D01*
X137971009Y-40505904D01*
X137932304Y-40389790D01*
X137932304Y-40312380D01*
X138667695Y-40970361D02*
X138706400Y-41009066D01*
X138745104Y-41086476D01*
X138745104Y-41280000D01*
X138706400Y-41357409D01*
X138667695Y-41396114D01*
X138590285Y-41434819D01*
X138512876Y-41434819D01*
X138396761Y-41396114D01*
X137932304Y-40931657D01*
X137932304Y-41434819D01*
X138745104Y-41937980D02*
X138745104Y-42015390D01*
X138706400Y-42092800D01*
X138667695Y-42131504D01*
X138590285Y-42170209D01*
X138435466Y-42208914D01*
X138241942Y-42208914D01*
X138087123Y-42170209D01*
X138009714Y-42131504D01*
X137971009Y-42092800D01*
X137932304Y-42015390D01*
X137932304Y-41937980D01*
X137971009Y-41860571D01*
X138009714Y-41821866D01*
X138087123Y-41783161D01*
X138241942Y-41744457D01*
X138435466Y-41744457D01*
X138590285Y-41783161D01*
X138667695Y-41821866D01*
X138706400Y-41860571D01*
X138745104Y-41937980D01*
%TO.C,R30*%
X112977485Y-130067695D02*
X112706552Y-129680647D01*
X112513028Y-130067695D02*
X112513028Y-129254895D01*
X112822666Y-129254895D01*
X112900076Y-129293600D01*
X112938780Y-129332304D01*
X112977485Y-129409714D01*
X112977485Y-129525828D01*
X112938780Y-129603238D01*
X112900076Y-129641942D01*
X112822666Y-129680647D01*
X112513028Y-129680647D01*
X113248419Y-129254895D02*
X113751580Y-129254895D01*
X113480647Y-129564533D01*
X113596761Y-129564533D01*
X113674171Y-129603238D01*
X113712876Y-129641942D01*
X113751580Y-129719352D01*
X113751580Y-129912876D01*
X113712876Y-129990285D01*
X113674171Y-130028990D01*
X113596761Y-130067695D01*
X113364533Y-130067695D01*
X113287123Y-130028990D01*
X113248419Y-129990285D01*
X114254742Y-129254895D02*
X114332152Y-129254895D01*
X114409561Y-129293600D01*
X114448266Y-129332304D01*
X114486971Y-129409714D01*
X114525676Y-129564533D01*
X114525676Y-129758057D01*
X114486971Y-129912876D01*
X114448266Y-129990285D01*
X114409561Y-130028990D01*
X114332152Y-130067695D01*
X114254742Y-130067695D01*
X114177333Y-130028990D01*
X114138628Y-129990285D01*
X114099923Y-129912876D01*
X114061219Y-129758057D01*
X114061219Y-129564533D01*
X114099923Y-129409714D01*
X114138628Y-129332304D01*
X114177333Y-129293600D01*
X114254742Y-129254895D01*
%TO.C,C52*%
X92504886Y-58890285D02*
X92466181Y-58928990D01*
X92350067Y-58967695D01*
X92272658Y-58967695D01*
X92156543Y-58928990D01*
X92079134Y-58851580D01*
X92040429Y-58774171D01*
X92001724Y-58619352D01*
X92001724Y-58503238D01*
X92040429Y-58348419D01*
X92079134Y-58271009D01*
X92156543Y-58193600D01*
X92272658Y-58154895D01*
X92350067Y-58154895D01*
X92466181Y-58193600D01*
X92504886Y-58232304D01*
X93240277Y-58154895D02*
X92853229Y-58154895D01*
X92814524Y-58541942D01*
X92853229Y-58503238D01*
X92930639Y-58464533D01*
X93124162Y-58464533D01*
X93201572Y-58503238D01*
X93240277Y-58541942D01*
X93278981Y-58619352D01*
X93278981Y-58812876D01*
X93240277Y-58890285D01*
X93201572Y-58928990D01*
X93124162Y-58967695D01*
X92930639Y-58967695D01*
X92853229Y-58928990D01*
X92814524Y-58890285D01*
X93588620Y-58232304D02*
X93627324Y-58193600D01*
X93704734Y-58154895D01*
X93898258Y-58154895D01*
X93975667Y-58193600D01*
X94014372Y-58232304D01*
X94053077Y-58309714D01*
X94053077Y-58387123D01*
X94014372Y-58503238D01*
X93549915Y-58967695D01*
X94053077Y-58967695D01*
%TO.C,C38*%
X74777485Y-95990285D02*
X74738780Y-96028990D01*
X74622666Y-96067695D01*
X74545257Y-96067695D01*
X74429142Y-96028990D01*
X74351733Y-95951580D01*
X74313028Y-95874171D01*
X74274323Y-95719352D01*
X74274323Y-95603238D01*
X74313028Y-95448419D01*
X74351733Y-95371009D01*
X74429142Y-95293600D01*
X74545257Y-95254895D01*
X74622666Y-95254895D01*
X74738780Y-95293600D01*
X74777485Y-95332304D01*
X75048419Y-95254895D02*
X75551580Y-95254895D01*
X75280647Y-95564533D01*
X75396761Y-95564533D01*
X75474171Y-95603238D01*
X75512876Y-95641942D01*
X75551580Y-95719352D01*
X75551580Y-95912876D01*
X75512876Y-95990285D01*
X75474171Y-96028990D01*
X75396761Y-96067695D01*
X75164533Y-96067695D01*
X75087123Y-96028990D01*
X75048419Y-95990285D01*
X76016038Y-95603238D02*
X75938628Y-95564533D01*
X75899923Y-95525828D01*
X75861219Y-95448419D01*
X75861219Y-95409714D01*
X75899923Y-95332304D01*
X75938628Y-95293600D01*
X76016038Y-95254895D01*
X76170857Y-95254895D01*
X76248266Y-95293600D01*
X76286971Y-95332304D01*
X76325676Y-95409714D01*
X76325676Y-95448419D01*
X76286971Y-95525828D01*
X76248266Y-95564533D01*
X76170857Y-95603238D01*
X76016038Y-95603238D01*
X75938628Y-95641942D01*
X75899923Y-95680647D01*
X75861219Y-95758057D01*
X75861219Y-95912876D01*
X75899923Y-95990285D01*
X75938628Y-96028990D01*
X76016038Y-96067695D01*
X76170857Y-96067695D01*
X76248266Y-96028990D01*
X76286971Y-95990285D01*
X76325676Y-95912876D01*
X76325676Y-95758057D01*
X76286971Y-95680647D01*
X76248266Y-95641942D01*
X76170857Y-95603238D01*
%TO.C,C6*%
X80864533Y-61790285D02*
X80825828Y-61828990D01*
X80709714Y-61867695D01*
X80632304Y-61867695D01*
X80516190Y-61828990D01*
X80438780Y-61751580D01*
X80400076Y-61674171D01*
X80361371Y-61519352D01*
X80361371Y-61403238D01*
X80400076Y-61248419D01*
X80438780Y-61171009D01*
X80516190Y-61093600D01*
X80632304Y-61054895D01*
X80709714Y-61054895D01*
X80825828Y-61093600D01*
X80864533Y-61132304D01*
X81561219Y-61054895D02*
X81406400Y-61054895D01*
X81328990Y-61093600D01*
X81290285Y-61132304D01*
X81212876Y-61248419D01*
X81174171Y-61403238D01*
X81174171Y-61712876D01*
X81212876Y-61790285D01*
X81251580Y-61828990D01*
X81328990Y-61867695D01*
X81483809Y-61867695D01*
X81561219Y-61828990D01*
X81599923Y-61790285D01*
X81638628Y-61712876D01*
X81638628Y-61519352D01*
X81599923Y-61441942D01*
X81561219Y-61403238D01*
X81483809Y-61364533D01*
X81328990Y-61364533D01*
X81251580Y-61403238D01*
X81212876Y-61441942D01*
X81174171Y-61519352D01*
%TO.C,D2*%
X119600076Y-68967695D02*
X119600076Y-68154895D01*
X119793600Y-68154895D01*
X119909714Y-68193600D01*
X119987123Y-68271009D01*
X120025828Y-68348419D01*
X120064533Y-68503238D01*
X120064533Y-68619352D01*
X120025828Y-68774171D01*
X119987123Y-68851580D01*
X119909714Y-68928990D01*
X119793600Y-68967695D01*
X119600076Y-68967695D01*
X120374171Y-68232304D02*
X120412876Y-68193600D01*
X120490285Y-68154895D01*
X120683809Y-68154895D01*
X120761219Y-68193600D01*
X120799923Y-68232304D01*
X120838628Y-68309714D01*
X120838628Y-68387123D01*
X120799923Y-68503238D01*
X120335466Y-68967695D01*
X120838628Y-68967695D01*
%TO.C,U3*%
X87120104Y-102525723D02*
X86462123Y-102525723D01*
X86384714Y-102564428D01*
X86346009Y-102603133D01*
X86307304Y-102680542D01*
X86307304Y-102835361D01*
X86346009Y-102912771D01*
X86384714Y-102951476D01*
X86462123Y-102990180D01*
X87120104Y-102990180D01*
X87120104Y-103299819D02*
X87120104Y-103802980D01*
X86810466Y-103532047D01*
X86810466Y-103648161D01*
X86771761Y-103725571D01*
X86733057Y-103764276D01*
X86655647Y-103802980D01*
X86462123Y-103802980D01*
X86384714Y-103764276D01*
X86346009Y-103725571D01*
X86307304Y-103648161D01*
X86307304Y-103415933D01*
X86346009Y-103338523D01*
X86384714Y-103299819D01*
%TO.C,J31*%
X116554895Y-124657980D02*
X117135466Y-124657980D01*
X117251580Y-124696685D01*
X117328990Y-124774095D01*
X117367695Y-124890209D01*
X117367695Y-124967619D01*
X116554895Y-124348342D02*
X116554895Y-123845180D01*
X116864533Y-124116114D01*
X116864533Y-124000000D01*
X116903238Y-123922590D01*
X116941942Y-123883885D01*
X117019352Y-123845180D01*
X117212876Y-123845180D01*
X117290285Y-123883885D01*
X117328990Y-123922590D01*
X117367695Y-124000000D01*
X117367695Y-124232228D01*
X117328990Y-124309638D01*
X117290285Y-124348342D01*
X117367695Y-123071085D02*
X117367695Y-123535542D01*
X117367695Y-123303314D02*
X116554895Y-123303314D01*
X116671009Y-123380723D01*
X116748419Y-123458133D01*
X116787123Y-123535542D01*
%TO.C,J6*%
X80070933Y-41045104D02*
X80070933Y-40464533D01*
X80109638Y-40348419D01*
X80187047Y-40271009D01*
X80303161Y-40232304D01*
X80380571Y-40232304D01*
X79335542Y-41045104D02*
X79490361Y-41045104D01*
X79567771Y-41006400D01*
X79606476Y-40967695D01*
X79683885Y-40851580D01*
X79722590Y-40696761D01*
X79722590Y-40387123D01*
X79683885Y-40309714D01*
X79645180Y-40271009D01*
X79567771Y-40232304D01*
X79412952Y-40232304D01*
X79335542Y-40271009D01*
X79296838Y-40309714D01*
X79258133Y-40387123D01*
X79258133Y-40580647D01*
X79296838Y-40658057D01*
X79335542Y-40696761D01*
X79412952Y-40735466D01*
X79567771Y-40735466D01*
X79645180Y-40696761D01*
X79683885Y-40658057D01*
X79722590Y-40580647D01*
%TO.C,J4*%
X67270933Y-41045104D02*
X67270933Y-40464533D01*
X67309638Y-40348419D01*
X67387047Y-40271009D01*
X67503161Y-40232304D01*
X67580571Y-40232304D01*
X66535542Y-40774171D02*
X66535542Y-40232304D01*
X66729066Y-41083809D02*
X66922590Y-40503238D01*
X66419428Y-40503238D01*
%TO.C,F1*%
X60801422Y-85284743D02*
X60801422Y-85555676D01*
X61227175Y-85555676D02*
X60414375Y-85555676D01*
X60414375Y-85168629D01*
X61227175Y-84433238D02*
X61227175Y-84897695D01*
X61227175Y-84665467D02*
X60414375Y-84665467D01*
X60530489Y-84742876D01*
X60607899Y-84820286D01*
X60646603Y-84897695D01*
%TO.C,R8*%
X100964533Y-70067695D02*
X100693600Y-69680647D01*
X100500076Y-70067695D02*
X100500076Y-69254895D01*
X100809714Y-69254895D01*
X100887123Y-69293600D01*
X100925828Y-69332304D01*
X100964533Y-69409714D01*
X100964533Y-69525828D01*
X100925828Y-69603238D01*
X100887123Y-69641942D01*
X100809714Y-69680647D01*
X100500076Y-69680647D01*
X101428990Y-69603238D02*
X101351580Y-69564533D01*
X101312876Y-69525828D01*
X101274171Y-69448419D01*
X101274171Y-69409714D01*
X101312876Y-69332304D01*
X101351580Y-69293600D01*
X101428990Y-69254895D01*
X101583809Y-69254895D01*
X101661219Y-69293600D01*
X101699923Y-69332304D01*
X101738628Y-69409714D01*
X101738628Y-69448419D01*
X101699923Y-69525828D01*
X101661219Y-69564533D01*
X101583809Y-69603238D01*
X101428990Y-69603238D01*
X101351580Y-69641942D01*
X101312876Y-69680647D01*
X101274171Y-69758057D01*
X101274171Y-69912876D01*
X101312876Y-69990285D01*
X101351580Y-70028990D01*
X101428990Y-70067695D01*
X101583809Y-70067695D01*
X101661219Y-70028990D01*
X101699923Y-69990285D01*
X101738628Y-69912876D01*
X101738628Y-69758057D01*
X101699923Y-69680647D01*
X101661219Y-69641942D01*
X101583809Y-69603238D01*
%TO.C,R4*%
X88864533Y-61467695D02*
X88593600Y-61080647D01*
X88400076Y-61467695D02*
X88400076Y-60654895D01*
X88709714Y-60654895D01*
X88787123Y-60693600D01*
X88825828Y-60732304D01*
X88864533Y-60809714D01*
X88864533Y-60925828D01*
X88825828Y-61003238D01*
X88787123Y-61041942D01*
X88709714Y-61080647D01*
X88400076Y-61080647D01*
X89561219Y-60925828D02*
X89561219Y-61467695D01*
X89367695Y-60616190D02*
X89174171Y-61196761D01*
X89677333Y-61196761D01*
%TO.C,J7*%
X96629066Y-31054895D02*
X96629066Y-31635466D01*
X96590361Y-31751580D01*
X96512952Y-31828990D01*
X96396838Y-31867695D01*
X96319428Y-31867695D01*
X96938704Y-31054895D02*
X97480571Y-31054895D01*
X97132228Y-31867695D01*
%TO.C,L1*%
X91764533Y-85167695D02*
X91377485Y-85167695D01*
X91377485Y-84354895D01*
X92461219Y-85167695D02*
X91996761Y-85167695D01*
X92228990Y-85167695D02*
X92228990Y-84354895D01*
X92151580Y-84471009D01*
X92074171Y-84548419D01*
X91996761Y-84587123D01*
%TO.C,R24*%
X86077485Y-95667695D02*
X85806552Y-95280647D01*
X85613028Y-95667695D02*
X85613028Y-94854895D01*
X85922666Y-94854895D01*
X86000076Y-94893600D01*
X86038780Y-94932304D01*
X86077485Y-95009714D01*
X86077485Y-95125828D01*
X86038780Y-95203238D01*
X86000076Y-95241942D01*
X85922666Y-95280647D01*
X85613028Y-95280647D01*
X86387123Y-94932304D02*
X86425828Y-94893600D01*
X86503238Y-94854895D01*
X86696761Y-94854895D01*
X86774171Y-94893600D01*
X86812876Y-94932304D01*
X86851580Y-95009714D01*
X86851580Y-95087123D01*
X86812876Y-95203238D01*
X86348419Y-95667695D01*
X86851580Y-95667695D01*
X87548266Y-95125828D02*
X87548266Y-95667695D01*
X87354742Y-94816190D02*
X87161219Y-95396761D01*
X87664380Y-95396761D01*
%TO.C,L3*%
X89364533Y-119367695D02*
X88977485Y-119367695D01*
X88977485Y-118554895D01*
X89558057Y-118554895D02*
X90061219Y-118554895D01*
X89790285Y-118864533D01*
X89906400Y-118864533D01*
X89983809Y-118903238D01*
X90022514Y-118941942D01*
X90061219Y-119019352D01*
X90061219Y-119212876D01*
X90022514Y-119290285D01*
X89983809Y-119328990D01*
X89906400Y-119367695D01*
X89674171Y-119367695D01*
X89596761Y-119328990D01*
X89558057Y-119290285D01*
D13*
%TO.C,J22*%
X139100000Y-53740000D02*
X133900000Y-53740000D01*
X139100000Y-43860000D02*
X133900000Y-43860000D01*
X133900000Y-43860000D02*
X133900000Y-47070000D01*
X133900000Y-53740000D02*
X133900000Y-51830000D01*
X139100000Y-50630000D02*
X139100000Y-53740000D01*
X139100000Y-45770000D02*
X139100000Y-43860000D01*
X133400000Y-52030000D02*
G75*
G03*
X133400000Y-52030000I-100000J0D01*
G01*
%TO.C,J32*%
X125200000Y-103990000D02*
X125200000Y-105690000D01*
X125700000Y-105690000D02*
X125700000Y-108900000D01*
X125700000Y-103990000D02*
X125200000Y-103990000D01*
X114750000Y-100780000D02*
X125700000Y-100780000D01*
X125200000Y-105690000D02*
X125700000Y-105690000D01*
X125700000Y-100780000D02*
X125700000Y-103990000D01*
X125700000Y-108900000D02*
X114750000Y-108900000D01*
X114750000Y-108900000D02*
X114750000Y-100780000D01*
X121100000Y-101280000D02*
G75*
G03*
X121100000Y-101280000I-100000J0D01*
G01*
%TO.C,J13*%
X125650000Y-79860000D02*
X114700000Y-79860000D01*
X114700000Y-79860000D02*
X114700000Y-71740000D01*
X114700000Y-71740000D02*
X125650000Y-71740000D01*
X125150000Y-76650000D02*
X125650000Y-76650000D01*
X125150000Y-74950000D02*
X125150000Y-76650000D01*
X125650000Y-74950000D02*
X125150000Y-74950000D01*
X125650000Y-76650000D02*
X125650000Y-79860000D01*
X125650000Y-71740000D02*
X125650000Y-74950000D01*
X121050000Y-72240000D02*
G75*
G03*
X121050000Y-72240000I-100000J0D01*
G01*
%TO.C,J5*%
X60200000Y-35800000D02*
X60200000Y-48000000D01*
X48000000Y-35800000D02*
X60200000Y-35800000D01*
X48000000Y-48000000D02*
X48000000Y-35800000D01*
X60200000Y-48000000D02*
X48000000Y-48000000D01*
D14*
X57100000Y-37200000D02*
G75*
G03*
X57100000Y-37200000I-100000J0D01*
G01*
D15*
%TO.C,D5*%
X135710000Y-31710000D02*
X135710000Y-29790000D01*
X132850000Y-31710000D02*
X135710000Y-31710000D01*
X135710000Y-29790000D02*
X132850000Y-29790000D01*
%TO.C,C53*%
X112988401Y-56480000D02*
X112988401Y-56782000D01*
X112548401Y-54021000D02*
X112548401Y-54800000D01*
X111587401Y-53590000D02*
X111587401Y-54800000D01*
X113068401Y-54627000D02*
X113068401Y-56653000D01*
X112828401Y-54289000D02*
X112828401Y-54800000D01*
X111667401Y-56480000D02*
X111667401Y-57674000D01*
X112028401Y-56480000D02*
X112028401Y-57564000D01*
X108957600Y-54445000D02*
X109357600Y-54445000D01*
X113228401Y-54976000D02*
X113228401Y-56304000D01*
X112708401Y-56480000D02*
X112708401Y-57118000D01*
X111787401Y-53635000D02*
X111787401Y-54800000D01*
X111827401Y-56480000D02*
X111827401Y-57634000D01*
X112188401Y-56480000D02*
X112188401Y-57491000D01*
X112148401Y-53770000D02*
X112148401Y-54800000D01*
X111507401Y-53578000D02*
X111507401Y-54800000D01*
X113188401Y-54872000D02*
X113188401Y-56408000D01*
X112908401Y-54386000D02*
X112908401Y-54800000D01*
X111867401Y-56480000D02*
X111867401Y-57622000D01*
X112468401Y-56480000D02*
X112468401Y-57320000D01*
X111747401Y-56480000D02*
X111747401Y-57656000D01*
X111867401Y-53658000D02*
X111867401Y-54800000D01*
X113148401Y-54781000D02*
X113148401Y-56499000D01*
X112308401Y-56480000D02*
X112308401Y-57425000D01*
X112268401Y-56480000D02*
X112268401Y-57448000D01*
X112148401Y-56480000D02*
X112148401Y-57510000D01*
X112588401Y-56480000D02*
X112588401Y-57227000D01*
X112588401Y-54053000D02*
X112588401Y-54800000D01*
X111427401Y-56480000D02*
X111427401Y-57711000D01*
X112668401Y-56480000D02*
X112668401Y-57156000D01*
X111227401Y-53560000D02*
X111227401Y-57720000D01*
X112388401Y-53905000D02*
X112388401Y-54800000D01*
X112628401Y-54088000D02*
X112628401Y-54800000D01*
X112068401Y-56480000D02*
X112068401Y-57547000D01*
X111707401Y-53615000D02*
X111707401Y-54800000D01*
X112868401Y-54336000D02*
X112868401Y-54800000D01*
X112948401Y-56480000D02*
X112948401Y-56840000D01*
X112388401Y-56480000D02*
X112388401Y-57375000D01*
X111948401Y-53686000D02*
X111948401Y-54800000D01*
X112828401Y-56480000D02*
X112828401Y-56991000D01*
X113308401Y-55270000D02*
X113308401Y-56010000D01*
X112748401Y-54202000D02*
X112748401Y-54800000D01*
X112228401Y-53810000D02*
X112228401Y-54800000D01*
X109157600Y-54245000D02*
X109157600Y-54645000D01*
X111747401Y-53624000D02*
X111747401Y-54800000D01*
X112788401Y-56480000D02*
X112788401Y-57036000D01*
X111787401Y-56480000D02*
X111787401Y-57645000D01*
X111467401Y-53573000D02*
X111467401Y-54800000D01*
X111988401Y-53700000D02*
X111988401Y-54800000D01*
X112508401Y-53990000D02*
X112508401Y-54800000D01*
X111467401Y-56480000D02*
X111467401Y-57707000D01*
X112948401Y-54440000D02*
X112948401Y-54800000D01*
X111948401Y-56480000D02*
X111948401Y-57594000D01*
X112268401Y-53832000D02*
X112268401Y-54800000D01*
X112228401Y-56480000D02*
X112228401Y-57470000D01*
X113268401Y-55103000D02*
X113268401Y-56177000D01*
X111627401Y-53598000D02*
X111627401Y-54800000D01*
X111667401Y-53606000D02*
X111667401Y-54800000D01*
X112668401Y-54124000D02*
X112668401Y-54800000D01*
X112508401Y-56480000D02*
X112508401Y-57290000D01*
X111827401Y-53646000D02*
X111827401Y-54800000D01*
X113028401Y-54560000D02*
X113028401Y-54800000D01*
X112988401Y-54498000D02*
X112988401Y-54800000D01*
X111907401Y-56480000D02*
X111907401Y-57608000D01*
X112708401Y-54162000D02*
X112708401Y-54800000D01*
X113028401Y-56480000D02*
X113028401Y-56720000D01*
X112348401Y-56480000D02*
X112348401Y-57400000D01*
X112108401Y-53751000D02*
X112108401Y-54800000D01*
X113108401Y-54700000D02*
X113108401Y-56580000D01*
X112428401Y-56480000D02*
X112428401Y-57348000D01*
X112548401Y-56480000D02*
X112548401Y-57259000D01*
X111627401Y-56480000D02*
X111627401Y-57682000D01*
X112868401Y-56480000D02*
X112868401Y-56944000D01*
X111507401Y-56480000D02*
X111507401Y-57702000D01*
X112428401Y-53932000D02*
X112428401Y-54800000D01*
X112348401Y-53880000D02*
X112348401Y-54800000D01*
X111267401Y-53560000D02*
X111267401Y-57720000D01*
X111427401Y-53569000D02*
X111427401Y-54800000D01*
X112468401Y-53960000D02*
X112468401Y-54800000D01*
X112068401Y-53733000D02*
X112068401Y-54800000D01*
X111347401Y-53563000D02*
X111347401Y-57717000D01*
X111988401Y-56480000D02*
X111988401Y-57580000D01*
X111907401Y-53672000D02*
X111907401Y-54800000D01*
X111547401Y-56480000D02*
X111547401Y-57696000D01*
X111387401Y-53566000D02*
X111387401Y-57714000D01*
X112028401Y-53716000D02*
X112028401Y-54800000D01*
X112788401Y-54244000D02*
X112788401Y-54800000D01*
X112188401Y-53789000D02*
X112188401Y-54800000D01*
X112308401Y-53855000D02*
X112308401Y-54800000D01*
X112108401Y-56480000D02*
X112108401Y-57529000D01*
X111307401Y-53561000D02*
X111307401Y-57719000D01*
X112628401Y-56480000D02*
X112628401Y-57192000D01*
X111547401Y-53584000D02*
X111547401Y-54800000D01*
X111587401Y-56480000D02*
X111587401Y-57690000D01*
X112748401Y-56480000D02*
X112748401Y-57078000D01*
X112908401Y-56480000D02*
X112908401Y-56894000D01*
X111707401Y-56480000D02*
X111707401Y-57665000D01*
X113347401Y-55640000D02*
G75*
G03*
X113347401Y-55640000I-2120000J0D01*
G01*
%TO.C,C41*%
X91738748Y-108835000D02*
X92261252Y-108835000D01*
X91738748Y-107365000D02*
X92261252Y-107365000D01*
%TO.C,C46*%
X101640000Y-106711252D02*
X101640000Y-105288748D01*
X104360000Y-106711252D02*
X104360000Y-105288748D01*
D13*
%TO.C,J10*%
X106140000Y-43800000D02*
X100860000Y-43800000D01*
X106140000Y-37800000D02*
X106140000Y-43800000D01*
X100860000Y-43800000D02*
X100860000Y-37800000D01*
X100860000Y-37800000D02*
X106140000Y-37800000D01*
D15*
%TO.C,R13*%
X129722936Y-30015000D02*
X130177064Y-30015000D01*
X129722936Y-31485000D02*
X130177064Y-31485000D01*
D13*
%TO.C,J8*%
X99640000Y-43700000D02*
X94360000Y-43700000D01*
X94360000Y-37700000D02*
X99640000Y-37700000D01*
X99640000Y-37700000D02*
X99640000Y-43700000D01*
X94360000Y-43700000D02*
X94360000Y-37700000D01*
%TO.C,J19*%
X114140000Y-30700000D02*
X114140000Y-36700000D01*
X108860000Y-36700000D02*
X108860000Y-30700000D01*
X114140000Y-36700000D02*
X108860000Y-36700000D01*
X108860000Y-30700000D02*
X114140000Y-30700000D01*
D15*
%TO.C,C8*%
X83265000Y-62838748D02*
X83265000Y-63361252D01*
X84735000Y-62838748D02*
X84735000Y-63361252D01*
D13*
%TO.C,J2*%
X60100000Y-68300000D02*
X60100000Y-80500000D01*
X47900000Y-68300000D02*
X60100000Y-68300000D01*
X60100000Y-80500000D02*
X47900000Y-80500000D01*
X47900000Y-80500000D02*
X47900000Y-68300000D01*
D14*
X57000000Y-69700000D02*
G75*
G03*
X57000000Y-69700000I-100000J0D01*
G01*
D13*
%TO.C,J30*%
X137600000Y-128060000D02*
X126650000Y-128060000D01*
X137600000Y-119940000D02*
X137600000Y-123150000D01*
X137600000Y-123150000D02*
X137100000Y-123150000D01*
X137600000Y-124850000D02*
X137600000Y-128060000D01*
X137100000Y-123150000D02*
X137100000Y-124850000D01*
X126650000Y-119940000D02*
X137600000Y-119940000D01*
X137100000Y-124850000D02*
X137600000Y-124850000D01*
X126650000Y-128060000D02*
X126650000Y-119940000D01*
X133000000Y-120440000D02*
G75*
G03*
X133000000Y-120440000I-100000J0D01*
G01*
D15*
%TO.C,C56*%
X120342401Y-57095000D02*
X120342401Y-56695000D01*
X117792600Y-57725000D02*
X117792600Y-56540000D01*
X117992600Y-54860000D02*
X117992600Y-53638000D01*
X116591600Y-56954000D02*
X116591600Y-56540000D01*
X117391600Y-57589000D02*
X117391600Y-56540000D01*
X117551600Y-54860000D02*
X117551600Y-53746000D01*
X116791600Y-57178000D02*
X116791600Y-56540000D01*
X117311600Y-54860000D02*
X117311600Y-53849000D01*
X117832600Y-54860000D02*
X117832600Y-53666000D01*
X116271600Y-56364000D02*
X116271600Y-55036000D01*
X116911600Y-54860000D02*
X116911600Y-54113000D01*
X116431600Y-56713000D02*
X116431600Y-54687000D01*
X118232600Y-57780000D02*
X118232600Y-53620000D01*
X118112600Y-57774000D02*
X118112600Y-53626000D01*
X116991600Y-54860000D02*
X116991600Y-54050000D01*
X117431600Y-54860000D02*
X117431600Y-53793000D01*
X117632600Y-54860000D02*
X117632600Y-53718000D01*
X116951600Y-54860000D02*
X116951600Y-54081000D01*
X117592600Y-57668000D02*
X117592600Y-56540000D01*
X117351600Y-57570000D02*
X117351600Y-56540000D01*
X118152600Y-57777000D02*
X118152600Y-53623000D01*
X116871600Y-54860000D02*
X116871600Y-54148000D01*
X116551600Y-56900000D02*
X116551600Y-56540000D01*
X117712600Y-54860000D02*
X117712600Y-53695000D01*
X116831600Y-57216000D02*
X116831600Y-56540000D01*
X117191600Y-57485000D02*
X117191600Y-56540000D01*
X117151600Y-54860000D02*
X117151600Y-53940000D01*
X117111600Y-57435000D02*
X117111600Y-56540000D01*
X118192600Y-57779000D02*
X118192600Y-53621000D01*
X117752600Y-57716000D02*
X117752600Y-56540000D01*
X117872600Y-57742000D02*
X117872600Y-56540000D01*
X117632600Y-57682000D02*
X117632600Y-56540000D01*
X116751600Y-54860000D02*
X116751600Y-54262000D01*
X117992600Y-57762000D02*
X117992600Y-56540000D01*
X116591600Y-54860000D02*
X116591600Y-54446000D01*
X117832600Y-57734000D02*
X117832600Y-56540000D01*
X117912600Y-57750000D02*
X117912600Y-56540000D01*
X117471600Y-54860000D02*
X117471600Y-53776000D01*
X118032600Y-57767000D02*
X118032600Y-56540000D01*
X117511600Y-54860000D02*
X117511600Y-53760000D01*
X117111600Y-54860000D02*
X117111600Y-53965000D01*
X117672600Y-54860000D02*
X117672600Y-53706000D01*
X117351600Y-54860000D02*
X117351600Y-53830000D01*
X118072600Y-57771000D02*
X118072600Y-56540000D01*
X116871600Y-57252000D02*
X116871600Y-56540000D01*
X116711600Y-57096000D02*
X116711600Y-56540000D01*
X117471600Y-57624000D02*
X117471600Y-56540000D01*
X117592600Y-54860000D02*
X117592600Y-53732000D01*
X116751600Y-57138000D02*
X116751600Y-56540000D01*
X117271600Y-57530000D02*
X117271600Y-56540000D01*
X117431600Y-57607000D02*
X117431600Y-56540000D01*
X116351600Y-56559000D02*
X116351600Y-54841000D01*
X116911600Y-57287000D02*
X116911600Y-56540000D01*
X117271600Y-54860000D02*
X117271600Y-53870000D01*
X117672600Y-57694000D02*
X117672600Y-56540000D01*
X117872600Y-54860000D02*
X117872600Y-53658000D01*
X117952600Y-57756000D02*
X117952600Y-56540000D01*
X117792600Y-54860000D02*
X117792600Y-53675000D01*
X116471600Y-56780000D02*
X116471600Y-56540000D01*
X117391600Y-54860000D02*
X117391600Y-53811000D01*
X117151600Y-57460000D02*
X117151600Y-56540000D01*
X117752600Y-54860000D02*
X117752600Y-53684000D01*
X116671600Y-54860000D02*
X116671600Y-54349000D01*
X118272600Y-57780000D02*
X118272600Y-53620000D01*
X117551600Y-57654000D02*
X117551600Y-56540000D01*
X117231600Y-57508000D02*
X117231600Y-56540000D01*
X116711600Y-54860000D02*
X116711600Y-54304000D01*
X116191600Y-56070000D02*
X116191600Y-55330000D01*
X120542401Y-56895000D02*
X120142401Y-56895000D01*
X117912600Y-54860000D02*
X117912600Y-53650000D01*
X116631600Y-54860000D02*
X116631600Y-54396000D01*
X116831600Y-54860000D02*
X116831600Y-54184000D01*
X118032600Y-54860000D02*
X118032600Y-53633000D01*
X117511600Y-57640000D02*
X117511600Y-56540000D01*
X116791600Y-54860000D02*
X116791600Y-54222000D01*
X117031600Y-57380000D02*
X117031600Y-56540000D01*
X116231600Y-56237000D02*
X116231600Y-55163000D01*
X116671600Y-57051000D02*
X116671600Y-56540000D01*
X117191600Y-54860000D02*
X117191600Y-53915000D01*
X117952600Y-54860000D02*
X117952600Y-53644000D01*
X116511600Y-56842000D02*
X116511600Y-56540000D01*
X116951600Y-57319000D02*
X116951600Y-56540000D01*
X117311600Y-57551000D02*
X117311600Y-56540000D01*
X117071600Y-57408000D02*
X117071600Y-56540000D01*
X116551600Y-54860000D02*
X116551600Y-54500000D01*
X117031600Y-54860000D02*
X117031600Y-54020000D01*
X116631600Y-57004000D02*
X116631600Y-56540000D01*
X116471600Y-54860000D02*
X116471600Y-54620000D01*
X116991600Y-57350000D02*
X116991600Y-56540000D01*
X118072600Y-54860000D02*
X118072600Y-53629000D01*
X117712600Y-57705000D02*
X117712600Y-56540000D01*
X116391600Y-56640000D02*
X116391600Y-54760000D01*
X117071600Y-54860000D02*
X117071600Y-53992000D01*
X116511600Y-54860000D02*
X116511600Y-54558000D01*
X117231600Y-54860000D02*
X117231600Y-53892000D01*
X116311600Y-56468000D02*
X116311600Y-54932000D01*
X120392600Y-55700000D02*
G75*
G03*
X120392600Y-55700000I-2120000J0D01*
G01*
D13*
%TO.C,J18*%
X125650000Y-88740000D02*
X114700000Y-88740000D01*
X125650000Y-80620000D02*
X125650000Y-83830000D01*
X125150000Y-83830000D02*
X125150000Y-85530000D01*
X125150000Y-85530000D02*
X125650000Y-85530000D01*
X114700000Y-88740000D02*
X114700000Y-80620000D01*
X114700000Y-80620000D02*
X125650000Y-80620000D01*
X125650000Y-83830000D02*
X125150000Y-83830000D01*
X125650000Y-85530000D02*
X125650000Y-88740000D01*
X121050000Y-81120000D02*
G75*
G03*
X121050000Y-81120000I-100000J0D01*
G01*
D15*
%TO.C,R6*%
X91122500Y-63045276D02*
X91122500Y-63554724D01*
X90077500Y-63045276D02*
X90077500Y-63554724D01*
%TO.C,C51*%
X110960000Y-106711252D02*
X110960000Y-105288748D01*
X108240000Y-106711252D02*
X108240000Y-105288748D01*
%TO.C,C47*%
X101640000Y-110388748D02*
X101640000Y-111811252D01*
X104360000Y-110388748D02*
X104360000Y-111811252D01*
%TO.C,C2*%
X91665000Y-63361252D02*
X91665000Y-62838748D01*
X93135000Y-63361252D02*
X93135000Y-62838748D01*
%TO.C,R14*%
X116722936Y-29135000D02*
X117177064Y-29135000D01*
X116722936Y-27665000D02*
X117177064Y-27665000D01*
%TO.C,R22*%
X92322500Y-97754724D02*
X92322500Y-97245276D01*
X91277500Y-97754724D02*
X91277500Y-97245276D01*
%TO.C,C39*%
X76660000Y-103088748D02*
X76660000Y-104511252D01*
X73940000Y-103088748D02*
X73940000Y-104511252D01*
%TO.C,C49*%
X107660000Y-110388748D02*
X107660000Y-111811252D01*
X104940000Y-110388748D02*
X104940000Y-111811252D01*
D13*
%TO.C,J12*%
X87760000Y-37660000D02*
X93040000Y-37660000D01*
X93040000Y-37660000D02*
X93040000Y-43660000D01*
X93040000Y-43660000D02*
X87760000Y-43660000D01*
X87760000Y-43660000D02*
X87760000Y-37660000D01*
D15*
%TO.C,D7*%
X122590000Y-29365000D02*
X122590000Y-27445000D01*
X119730000Y-29365000D02*
X122590000Y-29365000D01*
X122590000Y-27445000D02*
X119730000Y-27445000D01*
%TO.C,D6*%
X121747500Y-128540000D02*
X118887500Y-128540000D01*
X118887500Y-130460000D02*
X121747500Y-130460000D01*
X121747500Y-130460000D02*
X121747500Y-128540000D01*
%TO.C,C17*%
X113360000Y-72511252D02*
X113360000Y-71088748D01*
X110640000Y-72511252D02*
X110640000Y-71088748D01*
%TO.C,C3*%
X79640000Y-68888748D02*
X79640000Y-70311252D01*
X82360000Y-68888748D02*
X82360000Y-70311252D01*
D13*
%TO.C,J15*%
X137750000Y-88860000D02*
X126800000Y-88860000D01*
X137250000Y-83950000D02*
X137250000Y-85650000D01*
X137750000Y-83950000D02*
X137250000Y-83950000D01*
X137250000Y-85650000D02*
X137750000Y-85650000D01*
X126800000Y-88860000D02*
X126800000Y-80740000D01*
X126800000Y-80740000D02*
X137750000Y-80740000D01*
X137750000Y-80740000D02*
X137750000Y-83950000D01*
X137750000Y-85650000D02*
X137750000Y-88860000D01*
X133150000Y-81240000D02*
G75*
G03*
X133150000Y-81240000I-100000J0D01*
G01*
%TO.C,J29*%
X126650000Y-108960000D02*
X126650000Y-100840000D01*
X137600000Y-108960000D02*
X126650000Y-108960000D01*
X137600000Y-105750000D02*
X137600000Y-108960000D01*
X126650000Y-100840000D02*
X137600000Y-100840000D01*
X137600000Y-104050000D02*
X137100000Y-104050000D01*
X137100000Y-104050000D02*
X137100000Y-105750000D01*
X137100000Y-105750000D02*
X137600000Y-105750000D01*
X137600000Y-100840000D02*
X137600000Y-104050000D01*
X133000000Y-101340000D02*
G75*
G03*
X133000000Y-101340000I-100000J0D01*
G01*
D16*
%TO.C,PS3*%
X139500000Y-63237500D02*
X125500000Y-63237500D01*
X125500000Y-63237500D02*
X125500000Y-55737500D01*
X125500000Y-55737500D02*
X139500000Y-55737500D01*
X139500000Y-63237500D02*
X139500000Y-55737500D01*
D13*
X130060000Y-63937500D02*
G75*
G03*
X130060000Y-63937500I-100000J0D01*
G01*
%TO.C,J11*%
X100860000Y-30600000D02*
X106140000Y-30600000D01*
X100860000Y-36600000D02*
X100860000Y-30600000D01*
X106140000Y-36600000D02*
X100860000Y-36600000D01*
X106140000Y-30600000D02*
X106140000Y-36600000D01*
%TO.C,J16*%
X125600000Y-89740000D02*
X125600000Y-92950000D01*
X125100000Y-94650000D02*
X125600000Y-94650000D01*
X125600000Y-97860000D02*
X114650000Y-97860000D01*
X114650000Y-89740000D02*
X125600000Y-89740000D01*
X125100000Y-92950000D02*
X125100000Y-94650000D01*
X125600000Y-94650000D02*
X125600000Y-97860000D01*
X114650000Y-97860000D02*
X114650000Y-89740000D01*
X125600000Y-92950000D02*
X125100000Y-92950000D01*
X121000000Y-90240000D02*
G75*
G03*
X121000000Y-90240000I-100000J0D01*
G01*
D15*
%TO.C,C57*%
X134391600Y-68097500D02*
X134391600Y-67287500D01*
X133871600Y-67527500D02*
X133871600Y-67287500D01*
X133631600Y-66984500D02*
X133631600Y-65910500D01*
X134111600Y-65607500D02*
X134111600Y-65051500D01*
X134591600Y-65607500D02*
X134591600Y-64662500D01*
X135112600Y-68452500D02*
X135112600Y-67287500D01*
X134791600Y-68336500D02*
X134791600Y-67287500D01*
X135072600Y-65607500D02*
X135072600Y-64453500D01*
X134992600Y-68415500D02*
X134992600Y-67287500D01*
X135032600Y-65607500D02*
X135032600Y-64465500D01*
X135232600Y-68481500D02*
X135232600Y-67287500D01*
X134831600Y-65607500D02*
X134831600Y-64540500D01*
X134831600Y-68354500D02*
X134831600Y-67287500D01*
X134311600Y-65607500D02*
X134311600Y-64860500D01*
X133951600Y-67647500D02*
X133951600Y-67287500D01*
X134071600Y-65607500D02*
X134071600Y-65096500D01*
X134351600Y-68066500D02*
X134351600Y-67287500D01*
X134191600Y-67925500D02*
X134191600Y-67287500D01*
X134911600Y-65607500D02*
X134911600Y-64507500D01*
X135432600Y-68514500D02*
X135432600Y-67287500D01*
X135192600Y-68472500D02*
X135192600Y-67287500D01*
X137742401Y-67842500D02*
X137742401Y-67442500D01*
X134471600Y-68155500D02*
X134471600Y-67287500D01*
X135232600Y-65607500D02*
X135232600Y-64413500D01*
X135592600Y-68526500D02*
X135592600Y-64368500D01*
X134071600Y-67798500D02*
X134071600Y-67287500D01*
X133671600Y-67111500D02*
X133671600Y-65783500D01*
X134151600Y-65607500D02*
X134151600Y-65009500D01*
X134751600Y-68317500D02*
X134751600Y-67287500D01*
X134391600Y-65607500D02*
X134391600Y-64797500D01*
X137942401Y-67642500D02*
X137542401Y-67642500D01*
X135552600Y-68524500D02*
X135552600Y-64370500D01*
X134111600Y-67843500D02*
X134111600Y-67287500D01*
X133591600Y-66817500D02*
X133591600Y-66077500D01*
X134751600Y-65607500D02*
X134751600Y-64577500D01*
X133911600Y-67589500D02*
X133911600Y-67287500D01*
X135272600Y-65607500D02*
X135272600Y-64405500D01*
X134511600Y-65607500D02*
X134511600Y-64712500D01*
X134431600Y-65607500D02*
X134431600Y-64767500D01*
X135432600Y-65607500D02*
X135432600Y-64380500D01*
X134471600Y-65607500D02*
X134471600Y-64739500D01*
X134431600Y-68127500D02*
X134431600Y-67287500D01*
X135632600Y-68527500D02*
X135632600Y-64367500D01*
X134231600Y-65607500D02*
X134231600Y-64931500D01*
X135192600Y-65607500D02*
X135192600Y-64422500D01*
X134671600Y-68277500D02*
X134671600Y-67287500D01*
X134951600Y-68401500D02*
X134951600Y-67287500D01*
X134711600Y-68298500D02*
X134711600Y-67287500D01*
X135472600Y-65607500D02*
X135472600Y-64376500D01*
X135312600Y-65607500D02*
X135312600Y-64397500D01*
X133711600Y-67215500D02*
X133711600Y-65679500D01*
X135352600Y-65607500D02*
X135352600Y-64391500D01*
X135152600Y-65607500D02*
X135152600Y-64431500D01*
X135392600Y-65607500D02*
X135392600Y-64385500D01*
X134031600Y-67751500D02*
X134031600Y-67287500D01*
X134511600Y-68182500D02*
X134511600Y-67287500D01*
X135272600Y-68489500D02*
X135272600Y-67287500D01*
X135112600Y-65607500D02*
X135112600Y-64442500D01*
X134911600Y-68387500D02*
X134911600Y-67287500D01*
X135352600Y-68503500D02*
X135352600Y-67287500D01*
X133951600Y-65607500D02*
X133951600Y-65247500D01*
X134191600Y-65607500D02*
X134191600Y-64969500D01*
X133791600Y-67387500D02*
X133791600Y-65507500D01*
X134351600Y-65607500D02*
X134351600Y-64828500D01*
X135672600Y-68527500D02*
X135672600Y-64367500D01*
X135392600Y-68509500D02*
X135392600Y-67287500D01*
X134271600Y-67999500D02*
X134271600Y-67287500D01*
X133991600Y-65607500D02*
X133991600Y-65193500D01*
X134311600Y-68034500D02*
X134311600Y-67287500D01*
X134871600Y-65607500D02*
X134871600Y-64523500D01*
X135072600Y-68441500D02*
X135072600Y-67287500D01*
X134551600Y-68207500D02*
X134551600Y-67287500D01*
X134631600Y-65607500D02*
X134631600Y-64639500D01*
X134271600Y-65607500D02*
X134271600Y-64895500D01*
X134031600Y-65607500D02*
X134031600Y-65143500D01*
X135472600Y-68518500D02*
X135472600Y-67287500D01*
X134992600Y-65607500D02*
X134992600Y-64479500D01*
X134871600Y-68371500D02*
X134871600Y-67287500D01*
X133871600Y-65607500D02*
X133871600Y-65367500D01*
X133831600Y-67460500D02*
X133831600Y-65434500D01*
X134631600Y-68255500D02*
X134631600Y-67287500D01*
X135312600Y-68497500D02*
X135312600Y-67287500D01*
X134791600Y-65607500D02*
X134791600Y-64558500D01*
X134671600Y-65607500D02*
X134671600Y-64617500D01*
X133911600Y-65607500D02*
X133911600Y-65305500D01*
X134591600Y-68232500D02*
X134591600Y-67287500D01*
X135152600Y-68463500D02*
X135152600Y-67287500D01*
X134231600Y-67963500D02*
X134231600Y-67287500D01*
X134151600Y-67885500D02*
X134151600Y-67287500D01*
X135512600Y-68521500D02*
X135512600Y-64373500D01*
X133751600Y-67306500D02*
X133751600Y-65588500D01*
X135032600Y-68429500D02*
X135032600Y-67287500D01*
X134951600Y-65607500D02*
X134951600Y-64493500D01*
X134711600Y-65607500D02*
X134711600Y-64596500D01*
X134551600Y-65607500D02*
X134551600Y-64687500D01*
X133991600Y-67701500D02*
X133991600Y-67287500D01*
X137792600Y-66447500D02*
G75*
G03*
X137792600Y-66447500I-2120000J0D01*
G01*
%TO.C,D4*%
X94140000Y-29560000D02*
X97000000Y-29560000D01*
X94140000Y-27640000D02*
X94140000Y-29560000D01*
X97000000Y-27640000D02*
X94140000Y-27640000D01*
%TO.C,C11*%
X98365000Y-72061252D02*
X98365000Y-71538748D01*
X99835000Y-72061252D02*
X99835000Y-71538748D01*
D13*
%TO.C,J24*%
X130300000Y-42340000D02*
X125100000Y-42340000D01*
X125100000Y-42340000D02*
X125100000Y-40430000D01*
X130300000Y-32460000D02*
X125100000Y-32460000D01*
X130300000Y-34370000D02*
X130300000Y-32460000D01*
X130300000Y-39230000D02*
X130300000Y-42340000D01*
X125100000Y-32460000D02*
X125100000Y-35670000D01*
X124600000Y-40630000D02*
G75*
G03*
X124600000Y-40630000I-100000J0D01*
G01*
D15*
%TO.C,C44*%
X92361252Y-100865000D02*
X91838748Y-100865000D01*
X92361252Y-102335000D02*
X91838748Y-102335000D01*
D13*
%TO.C,J23*%
X116560000Y-36840000D02*
X116560000Y-30840000D01*
X116560000Y-30840000D02*
X121840000Y-30840000D01*
X121840000Y-36840000D02*
X116560000Y-36840000D01*
X121840000Y-30840000D02*
X121840000Y-36840000D01*
D15*
%TO.C,R9*%
X102177500Y-69645276D02*
X102177500Y-70154724D01*
X103222500Y-69645276D02*
X103222500Y-70154724D01*
%TO.C,C37*%
X79960000Y-103088748D02*
X79960000Y-104511252D01*
X77240000Y-103088748D02*
X77240000Y-104511252D01*
D13*
%TO.C,J27*%
X137600000Y-110340000D02*
X137600000Y-113550000D01*
X137100000Y-115250000D02*
X137600000Y-115250000D01*
X137600000Y-113550000D02*
X137100000Y-113550000D01*
X126650000Y-118460000D02*
X126650000Y-110340000D01*
X137600000Y-115250000D02*
X137600000Y-118460000D01*
X126650000Y-110340000D02*
X137600000Y-110340000D01*
X137600000Y-118460000D02*
X126650000Y-118460000D01*
X137100000Y-113550000D02*
X137100000Y-115250000D01*
X133000000Y-110840000D02*
G75*
G03*
X133000000Y-110840000I-100000J0D01*
G01*
D15*
%TO.C,C13*%
X104040000Y-76188748D02*
X104040000Y-77611252D01*
X106760000Y-76188748D02*
X106760000Y-77611252D01*
%TO.C,C50*%
X108240000Y-110388748D02*
X108240000Y-111811252D01*
X110960000Y-110388748D02*
X110960000Y-111811252D01*
%TO.C,C16*%
X110640000Y-76188748D02*
X110640000Y-77611252D01*
X113360000Y-76188748D02*
X113360000Y-77611252D01*
%TO.C,C5*%
X79060000Y-68888748D02*
X79060000Y-70311252D01*
X76340000Y-68888748D02*
X76340000Y-70311252D01*
%TO.C,R3*%
X86877500Y-63045276D02*
X86877500Y-63554724D01*
X87922500Y-63045276D02*
X87922500Y-63554724D01*
D13*
%TO.C,J25*%
X121840000Y-38140000D02*
X121840000Y-44140000D01*
X116560000Y-44140000D02*
X116560000Y-38140000D01*
X116560000Y-38140000D02*
X121840000Y-38140000D01*
X121840000Y-44140000D02*
X116560000Y-44140000D01*
%TO.C,J14*%
X126750000Y-79860000D02*
X126750000Y-71740000D01*
X137700000Y-79860000D02*
X126750000Y-79860000D01*
X137700000Y-71740000D02*
X137700000Y-74950000D01*
X137200000Y-74950000D02*
X137200000Y-76650000D01*
X137700000Y-74950000D02*
X137200000Y-74950000D01*
X137200000Y-76650000D02*
X137700000Y-76650000D01*
X137700000Y-76650000D02*
X137700000Y-79860000D01*
X126750000Y-71740000D02*
X137700000Y-71740000D01*
X133100000Y-72240000D02*
G75*
G03*
X133100000Y-72240000I-100000J0D01*
G01*
D17*
%TO.C,U1*%
X86575000Y-71745000D02*
X86775000Y-71745000D01*
X91575000Y-66745000D02*
X91275000Y-66745000D01*
X86575000Y-67245000D02*
X86575000Y-66745000D01*
X91275000Y-71745000D02*
X91575000Y-71745000D01*
D13*
X90675000Y-65745000D02*
X90675000Y-65745000D01*
D17*
X91575000Y-67045000D02*
X91575000Y-66745000D01*
X86575000Y-71245000D02*
X86575000Y-71745000D01*
X88375000Y-66745000D02*
X88275000Y-66745000D01*
X86575000Y-66745000D02*
X86775000Y-66745000D01*
X91575000Y-71745000D02*
X91575000Y-71445000D01*
D13*
X90875000Y-65745000D02*
X90875000Y-65745000D01*
X90675000Y-65745000D02*
G75*
G03*
X90875000Y-65745000I100000J0D01*
G01*
X90875000Y-65745000D02*
G75*
G03*
X90675000Y-65745000I-100000J0D01*
G01*
D15*
%TO.C,R10*%
X116245276Y-69777500D02*
X116754724Y-69777500D01*
X116245276Y-70822500D02*
X116754724Y-70822500D01*
%TO.C,R26*%
X88722500Y-97245276D02*
X88722500Y-97754724D01*
X87677500Y-97245276D02*
X87677500Y-97754724D01*
%TO.C,C54*%
X127491599Y-65607500D02*
X127491599Y-64662500D01*
X127251599Y-68066500D02*
X127251599Y-67287500D01*
X127731599Y-68354500D02*
X127731599Y-67287500D01*
X128252599Y-65607500D02*
X128252599Y-64391500D01*
X127331599Y-65607500D02*
X127331599Y-64767500D01*
X128132599Y-65607500D02*
X128132599Y-64413500D01*
X127411599Y-68182500D02*
X127411599Y-67287500D01*
X127131599Y-67963500D02*
X127131599Y-67287500D01*
X127011599Y-65607500D02*
X127011599Y-65051500D01*
X127051599Y-65607500D02*
X127051599Y-65009500D01*
X127091599Y-67925500D02*
X127091599Y-67287500D01*
X126891599Y-65607500D02*
X126891599Y-65193500D01*
X127731599Y-65607500D02*
X127731599Y-64540500D01*
X127291599Y-65607500D02*
X127291599Y-64797500D01*
X128532599Y-68527500D02*
X128532599Y-64367500D01*
X128172599Y-68489500D02*
X128172599Y-67287500D01*
X126891599Y-67701500D02*
X126891599Y-67287500D01*
X128292599Y-65607500D02*
X128292599Y-64385500D01*
X127932599Y-68429500D02*
X127932599Y-67287500D01*
X127491599Y-68232500D02*
X127491599Y-67287500D01*
X126771599Y-65607500D02*
X126771599Y-65367500D01*
X127811599Y-65607500D02*
X127811599Y-64507500D01*
X127972599Y-65607500D02*
X127972599Y-64453500D01*
X127131599Y-65607500D02*
X127131599Y-64931500D01*
X128052599Y-65607500D02*
X128052599Y-64431500D01*
X128252599Y-68503500D02*
X128252599Y-67287500D01*
X126971599Y-65607500D02*
X126971599Y-65096500D01*
X128372599Y-65607500D02*
X128372599Y-64376500D01*
X127251599Y-65607500D02*
X127251599Y-64828500D01*
X128332599Y-65607500D02*
X128332599Y-64380500D01*
X128492599Y-68526500D02*
X128492599Y-64368500D01*
X127771599Y-65607500D02*
X127771599Y-64523500D01*
X128012599Y-65607500D02*
X128012599Y-64442500D01*
X127451599Y-68207500D02*
X127451599Y-67287500D01*
X127331599Y-68127500D02*
X127331599Y-67287500D01*
X127691599Y-68336500D02*
X127691599Y-67287500D01*
X128092599Y-68472500D02*
X128092599Y-67287500D01*
X127371599Y-65607500D02*
X127371599Y-64739500D01*
X127611599Y-68298500D02*
X127611599Y-67287500D01*
X126491599Y-66817500D02*
X126491599Y-66077500D01*
X128132599Y-68481500D02*
X128132599Y-67287500D01*
X127851599Y-68401500D02*
X127851599Y-67287500D01*
X126931599Y-65607500D02*
X126931599Y-65143500D01*
X126811599Y-67589500D02*
X126811599Y-67287500D01*
X127171599Y-65607500D02*
X127171599Y-64895500D01*
X128412599Y-68521500D02*
X128412599Y-64373500D01*
X128212599Y-68497500D02*
X128212599Y-67287500D01*
X127972599Y-68441500D02*
X127972599Y-67287500D01*
X126571599Y-67111500D02*
X126571599Y-65783500D01*
X128572599Y-68527500D02*
X128572599Y-64367500D01*
X126651599Y-67306500D02*
X126651599Y-65588500D01*
X127892599Y-65607500D02*
X127892599Y-64479500D01*
X127531599Y-65607500D02*
X127531599Y-64639500D01*
X127451599Y-65607500D02*
X127451599Y-64687500D01*
X127051599Y-67885500D02*
X127051599Y-67287500D01*
X128452599Y-68524500D02*
X128452599Y-64370500D01*
X128212599Y-65607500D02*
X128212599Y-64397500D01*
X126811599Y-65607500D02*
X126811599Y-65305500D01*
X126611599Y-67215500D02*
X126611599Y-65679500D01*
X127571599Y-65607500D02*
X127571599Y-64617500D01*
X127771599Y-68371500D02*
X127771599Y-67287500D01*
X128012599Y-68452500D02*
X128012599Y-67287500D01*
X127011599Y-67843500D02*
X127011599Y-67287500D01*
X127811599Y-68387500D02*
X127811599Y-67287500D01*
X128292599Y-68509500D02*
X128292599Y-67287500D01*
X127091599Y-65607500D02*
X127091599Y-64969500D01*
X130642400Y-67842500D02*
X130642400Y-67442500D01*
X127611599Y-65607500D02*
X127611599Y-64596500D01*
X126771599Y-67527500D02*
X126771599Y-67287500D01*
X127411599Y-65607500D02*
X127411599Y-64712500D01*
X127291599Y-68097500D02*
X127291599Y-67287500D01*
X127371599Y-68155500D02*
X127371599Y-67287500D01*
X127892599Y-68415500D02*
X127892599Y-67287500D01*
X126971599Y-67798500D02*
X126971599Y-67287500D01*
X126851599Y-67647500D02*
X126851599Y-67287500D01*
X127571599Y-68277500D02*
X127571599Y-67287500D01*
X127651599Y-68317500D02*
X127651599Y-67287500D01*
X127691599Y-65607500D02*
X127691599Y-64558500D01*
X128172599Y-65607500D02*
X128172599Y-64405500D01*
X127531599Y-68255500D02*
X127531599Y-67287500D01*
X127171599Y-67999500D02*
X127171599Y-67287500D01*
X127651599Y-65607500D02*
X127651599Y-64577500D01*
X128092599Y-65607500D02*
X128092599Y-64422500D01*
X130842400Y-67642500D02*
X130442400Y-67642500D01*
X126851599Y-65607500D02*
X126851599Y-65247500D01*
X127211599Y-68034500D02*
X127211599Y-67287500D01*
X128372599Y-68518500D02*
X128372599Y-67287500D01*
X127851599Y-65607500D02*
X127851599Y-64493500D01*
X126931599Y-67751500D02*
X126931599Y-67287500D01*
X126731599Y-67460500D02*
X126731599Y-65434500D01*
X127211599Y-65607500D02*
X127211599Y-64860500D01*
X128052599Y-68463500D02*
X128052599Y-67287500D01*
X126531599Y-66984500D02*
X126531599Y-65910500D01*
X127932599Y-65607500D02*
X127932599Y-64465500D01*
X126691599Y-67387500D02*
X126691599Y-65507500D01*
X128332599Y-68514500D02*
X128332599Y-67287500D01*
X130692599Y-66447500D02*
G75*
G03*
X130692599Y-66447500I-2120000J0D01*
G01*
%TO.C,R1*%
X55477064Y-97065000D02*
X55022936Y-97065000D01*
X55477064Y-98535000D02*
X55022936Y-98535000D01*
%TO.C,C42*%
X82335000Y-97038748D02*
X82335000Y-97561252D01*
X80865000Y-97038748D02*
X80865000Y-97561252D01*
%TO.C,C43*%
X88261252Y-108835000D02*
X87738748Y-108835000D01*
X88261252Y-107365000D02*
X87738748Y-107365000D01*
%TO.C,C4*%
X79060000Y-65211252D02*
X79060000Y-63788748D01*
X76340000Y-65211252D02*
X76340000Y-63788748D01*
%TO.C,R25*%
X91845276Y-103922500D02*
X92354724Y-103922500D01*
X91845276Y-102877500D02*
X92354724Y-102877500D01*
D13*
%TO.C,J26*%
X130300000Y-50630000D02*
X130300000Y-53740000D01*
X130300000Y-43860000D02*
X125100000Y-43860000D01*
X125100000Y-43860000D02*
X125100000Y-47070000D01*
X125100000Y-53740000D02*
X125100000Y-51830000D01*
X130300000Y-45770000D02*
X130300000Y-43860000D01*
X130300000Y-53740000D02*
X125100000Y-53740000D01*
X124600000Y-52030000D02*
G75*
G03*
X124600000Y-52030000I-100000J0D01*
G01*
D15*
%TO.C,R5*%
X94245276Y-68677500D02*
X94754724Y-68677500D01*
X94245276Y-69722500D02*
X94754724Y-69722500D01*
%TO.C,R12*%
X100027064Y-29335000D02*
X99572936Y-29335000D01*
X100027064Y-27865000D02*
X99572936Y-27865000D01*
D16*
%TO.C,PS2*%
X108300000Y-52590000D02*
X108300000Y-45090000D01*
X122300000Y-52590000D02*
X122300000Y-45090000D01*
X122300000Y-52590000D02*
X108300000Y-52590000D01*
X108300000Y-45090000D02*
X122300000Y-45090000D01*
D13*
X112860000Y-53290000D02*
G75*
G03*
X112860000Y-53290000I-100000J0D01*
G01*
D15*
%TO.C,C10*%
X94761252Y-66665000D02*
X94238748Y-66665000D01*
X94761252Y-68135000D02*
X94238748Y-68135000D01*
%TO.C,R7*%
X86322500Y-63554724D02*
X86322500Y-63045276D01*
X85277500Y-63554724D02*
X85277500Y-63045276D01*
D13*
%TO.C,J17*%
X126900000Y-97860000D02*
X126900000Y-89740000D01*
X137850000Y-89740000D02*
X137850000Y-92950000D01*
X137350000Y-92950000D02*
X137350000Y-94650000D01*
X137850000Y-94650000D02*
X137850000Y-97860000D01*
X137350000Y-94650000D02*
X137850000Y-94650000D01*
X137850000Y-92950000D02*
X137350000Y-92950000D01*
X137850000Y-97860000D02*
X126900000Y-97860000D01*
X126900000Y-89740000D02*
X137850000Y-89740000D01*
X133250000Y-90240000D02*
G75*
G03*
X133250000Y-90240000I-100000J0D01*
G01*
D15*
%TO.C,R29*%
X99777500Y-103845276D02*
X99777500Y-104354724D01*
X100822500Y-103845276D02*
X100822500Y-104354724D01*
%TO.C,C40*%
X79960000Y-99411252D02*
X79960000Y-97988748D01*
X77240000Y-99411252D02*
X77240000Y-97988748D01*
D13*
%TO.C,J3*%
X60200000Y-48700000D02*
X60200000Y-60900000D01*
X48000000Y-60900000D02*
X48000000Y-48700000D01*
X60200000Y-60900000D02*
X48000000Y-60900000D01*
X48000000Y-48700000D02*
X60200000Y-48700000D01*
D14*
X57100000Y-50100000D02*
G75*
G03*
X57100000Y-50100000I-100000J0D01*
G01*
D15*
%TO.C,D3*%
X53025000Y-61040000D02*
X50165000Y-61040000D01*
X50165000Y-61040000D02*
X50165000Y-62960000D01*
X50165000Y-62960000D02*
X53025000Y-62960000D01*
%TO.C,C7*%
X94138748Y-74635000D02*
X94661252Y-74635000D01*
X94138748Y-73165000D02*
X94661252Y-73165000D01*
%TO.C,D1*%
X52450000Y-96840000D02*
X49590000Y-96840000D01*
X49590000Y-98760000D02*
X52450000Y-98760000D01*
X49590000Y-96840000D02*
X49590000Y-98760000D01*
D13*
%TO.C,J1*%
X60100000Y-93400000D02*
X47900000Y-93400000D01*
X47900000Y-81200000D02*
X60100000Y-81200000D01*
X47900000Y-93400000D02*
X47900000Y-81200000D01*
X60100000Y-81200000D02*
X60100000Y-93400000D01*
D14*
X57000000Y-82600000D02*
G75*
G03*
X57000000Y-82600000I-100000J0D01*
G01*
D15*
%TO.C,C36*%
X89265000Y-97561252D02*
X89265000Y-97038748D01*
X90735000Y-97561252D02*
X90735000Y-97038748D01*
%TO.C,C9*%
X90661252Y-73165000D02*
X90138748Y-73165000D01*
X90661252Y-74635000D02*
X90138748Y-74635000D01*
%TO.C,R11*%
X56127064Y-61265000D02*
X55672936Y-61265000D01*
X56127064Y-62735000D02*
X55672936Y-62735000D01*
D13*
%TO.C,J9*%
X87760000Y-30560000D02*
X93040000Y-30560000D01*
X93040000Y-36560000D02*
X87760000Y-36560000D01*
X87760000Y-36560000D02*
X87760000Y-30560000D01*
X93040000Y-30560000D02*
X93040000Y-36560000D01*
D15*
%TO.C,R23*%
X84477500Y-97245276D02*
X84477500Y-97754724D01*
X85522500Y-97245276D02*
X85522500Y-97754724D01*
%TO.C,C45*%
X97435000Y-106261252D02*
X97435000Y-105738748D01*
X95965000Y-106261252D02*
X95965000Y-105738748D01*
D13*
%TO.C,J21*%
X114240000Y-38140000D02*
X114240000Y-44140000D01*
X108960000Y-38140000D02*
X114240000Y-38140000D01*
X114240000Y-44140000D02*
X108960000Y-44140000D01*
X108960000Y-44140000D02*
X108960000Y-38140000D01*
D16*
%TO.C,PS1*%
X90100000Y-52490000D02*
X90100000Y-44990000D01*
X104100000Y-52490000D02*
X104100000Y-44990000D01*
X90100000Y-44990000D02*
X104100000Y-44990000D01*
X104100000Y-52490000D02*
X90100000Y-52490000D01*
D13*
X94660000Y-53190000D02*
G75*
G03*
X94660000Y-53190000I-100000J0D01*
G01*
D15*
%TO.C,C1*%
X84635000Y-68838748D02*
X84635000Y-69361252D01*
X83165000Y-68838748D02*
X83165000Y-69361252D01*
%TO.C,C35*%
X82235000Y-103038748D02*
X82235000Y-103561252D01*
X80765000Y-103038748D02*
X80765000Y-103561252D01*
%TO.C,C12*%
X106760000Y-72511252D02*
X106760000Y-71088748D01*
X104040000Y-72511252D02*
X104040000Y-71088748D01*
%TO.C,R28*%
X99222500Y-105845276D02*
X99222500Y-106354724D01*
X98177500Y-105845276D02*
X98177500Y-106354724D01*
%TO.C,R27*%
X82877500Y-97754724D02*
X82877500Y-97245276D01*
X83922500Y-97754724D02*
X83922500Y-97245276D01*
D13*
%TO.C,J28*%
X125700000Y-115310000D02*
X125700000Y-118520000D01*
X125700000Y-118520000D02*
X114750000Y-118520000D01*
X125200000Y-115310000D02*
X125700000Y-115310000D01*
X125700000Y-113610000D02*
X125200000Y-113610000D01*
X125200000Y-113610000D02*
X125200000Y-115310000D01*
X125700000Y-110400000D02*
X125700000Y-113610000D01*
X114750000Y-118520000D02*
X114750000Y-110400000D01*
X114750000Y-110400000D02*
X125700000Y-110400000D01*
X121100000Y-110900000D02*
G75*
G03*
X121100000Y-110900000I-100000J0D01*
G01*
D15*
%TO.C,R2*%
X94722500Y-63554724D02*
X94722500Y-63045276D01*
X93677500Y-63554724D02*
X93677500Y-63045276D01*
%TO.C,C14*%
X110060000Y-72511252D02*
X110060000Y-71088748D01*
X107340000Y-72511252D02*
X107340000Y-71088748D01*
%TO.C,C15*%
X110060000Y-76188748D02*
X110060000Y-77611252D01*
X107340000Y-76188748D02*
X107340000Y-77611252D01*
%TO.C,C55*%
X99491600Y-54660000D02*
X99491600Y-53611000D01*
X99451600Y-57370000D02*
X99451600Y-56340000D01*
X99932600Y-57534000D02*
X99932600Y-56340000D01*
X98691600Y-56754000D02*
X98691600Y-56340000D01*
X99091600Y-54660000D02*
X99091600Y-53850000D01*
X98891600Y-56978000D02*
X98891600Y-56340000D01*
X98611600Y-54660000D02*
X98611600Y-54358000D01*
X98811600Y-56896000D02*
X98811600Y-56340000D01*
X102442401Y-56895000D02*
X102442401Y-56495000D01*
X100212600Y-57574000D02*
X100212600Y-53426000D01*
X100052600Y-57556000D02*
X100052600Y-56340000D01*
X99051600Y-57119000D02*
X99051600Y-56340000D01*
X98971600Y-57052000D02*
X98971600Y-56340000D01*
X99411600Y-57351000D02*
X99411600Y-56340000D01*
X98931600Y-57016000D02*
X98931600Y-56340000D01*
X98731600Y-56804000D02*
X98731600Y-56340000D01*
X99051600Y-54660000D02*
X99051600Y-53881000D01*
X99131600Y-57180000D02*
X99131600Y-56340000D01*
X99852600Y-57516000D02*
X99852600Y-56340000D01*
X99331600Y-54660000D02*
X99331600Y-53692000D01*
X99211600Y-57235000D02*
X99211600Y-56340000D01*
X100012600Y-57550000D02*
X100012600Y-56340000D01*
X100372600Y-57580000D02*
X100372600Y-53420000D01*
X99651600Y-54660000D02*
X99651600Y-53546000D01*
X99171600Y-54660000D02*
X99171600Y-53792000D01*
X100172600Y-54660000D02*
X100172600Y-53429000D01*
X100092600Y-54660000D02*
X100092600Y-53438000D01*
X99692600Y-54660000D02*
X99692600Y-53532000D01*
X99531600Y-54660000D02*
X99531600Y-53593000D01*
X99772600Y-57494000D02*
X99772600Y-56340000D01*
X99611600Y-57440000D02*
X99611600Y-56340000D01*
X99732600Y-54660000D02*
X99732600Y-53518000D01*
X99692600Y-57468000D02*
X99692600Y-56340000D01*
X100012600Y-54660000D02*
X100012600Y-53450000D01*
X99812600Y-54660000D02*
X99812600Y-53495000D01*
X98811600Y-54660000D02*
X98811600Y-54104000D01*
X100252600Y-57577000D02*
X100252600Y-53423000D01*
X99371600Y-57330000D02*
X99371600Y-56340000D01*
X99892600Y-54660000D02*
X99892600Y-53475000D01*
X98731600Y-54660000D02*
X98731600Y-54196000D01*
X99772600Y-54660000D02*
X99772600Y-53506000D01*
X98411600Y-56268000D02*
X98411600Y-54732000D01*
X99011600Y-57087000D02*
X99011600Y-56340000D01*
X99651600Y-57454000D02*
X99651600Y-56340000D01*
X98691600Y-54660000D02*
X98691600Y-54246000D01*
X100332600Y-57580000D02*
X100332600Y-53420000D01*
X98491600Y-56440000D02*
X98491600Y-54560000D01*
X98571600Y-56580000D02*
X98571600Y-56340000D01*
X98611600Y-56642000D02*
X98611600Y-56340000D01*
X98931600Y-54660000D02*
X98931600Y-53984000D01*
X98291600Y-55870000D02*
X98291600Y-55130000D01*
X99571600Y-54660000D02*
X99571600Y-53576000D01*
X98651600Y-54660000D02*
X98651600Y-54300000D01*
X98891600Y-54660000D02*
X98891600Y-54022000D01*
X99011600Y-54660000D02*
X99011600Y-53913000D01*
X100092600Y-57562000D02*
X100092600Y-56340000D01*
X99371600Y-54660000D02*
X99371600Y-53670000D01*
X99451600Y-54660000D02*
X99451600Y-53630000D01*
X99732600Y-57482000D02*
X99732600Y-56340000D01*
X99251600Y-54660000D02*
X99251600Y-53740000D01*
X100132600Y-57567000D02*
X100132600Y-56340000D01*
X99331600Y-57308000D02*
X99331600Y-56340000D01*
X100132600Y-54660000D02*
X100132600Y-53433000D01*
X99972600Y-54660000D02*
X99972600Y-53458000D01*
X99251600Y-57260000D02*
X99251600Y-56340000D01*
X98331600Y-56037000D02*
X98331600Y-54963000D01*
X98651600Y-56700000D02*
X98651600Y-56340000D01*
X99291600Y-54660000D02*
X99291600Y-53715000D01*
X99972600Y-57542000D02*
X99972600Y-56340000D01*
X100172600Y-57571000D02*
X100172600Y-56340000D01*
X99531600Y-57407000D02*
X99531600Y-56340000D01*
X99932600Y-54660000D02*
X99932600Y-53466000D01*
X98571600Y-54660000D02*
X98571600Y-54420000D01*
X99291600Y-57285000D02*
X99291600Y-56340000D01*
X99571600Y-57424000D02*
X99571600Y-56340000D01*
X99171600Y-57208000D02*
X99171600Y-56340000D01*
X99812600Y-57505000D02*
X99812600Y-56340000D01*
X99091600Y-57150000D02*
X99091600Y-56340000D01*
X98451600Y-56359000D02*
X98451600Y-54641000D01*
X100292600Y-57579000D02*
X100292600Y-53421000D01*
X99852600Y-54660000D02*
X99852600Y-53484000D01*
X102642401Y-56695000D02*
X102242401Y-56695000D01*
X99892600Y-57525000D02*
X99892600Y-56340000D01*
X98971600Y-54660000D02*
X98971600Y-53948000D01*
X99411600Y-54660000D02*
X99411600Y-53649000D01*
X98851600Y-56938000D02*
X98851600Y-56340000D01*
X99131600Y-54660000D02*
X99131600Y-53820000D01*
X98371600Y-56164000D02*
X98371600Y-54836000D01*
X99211600Y-54660000D02*
X99211600Y-53765000D01*
X98851600Y-54660000D02*
X98851600Y-54062000D01*
X99491600Y-57389000D02*
X99491600Y-56340000D01*
X98771600Y-56851000D02*
X98771600Y-56340000D01*
X98771600Y-54660000D02*
X98771600Y-54149000D01*
X99611600Y-54660000D02*
X99611600Y-53560000D01*
X98531600Y-56513000D02*
X98531600Y-54487000D01*
X100052600Y-54660000D02*
X100052600Y-53444000D01*
X102492600Y-55500000D02*
G75*
G03*
X102492600Y-55500000I-2120000J0D01*
G01*
%TO.C,C48*%
X107660000Y-106711252D02*
X107660000Y-105288748D01*
X104940000Y-106711252D02*
X104940000Y-105288748D01*
D13*
%TO.C,J20*%
X134000000Y-42540000D02*
X134000000Y-40630000D01*
X139200000Y-34570000D02*
X139200000Y-32660000D01*
X139200000Y-32660000D02*
X134000000Y-32660000D01*
X134000000Y-32660000D02*
X134000000Y-35870000D01*
X139200000Y-42540000D02*
X134000000Y-42540000D01*
X139200000Y-39430000D02*
X139200000Y-42540000D01*
X133500000Y-40830000D02*
G75*
G03*
X133500000Y-40830000I-100000J0D01*
G01*
D15*
%TO.C,R30*%
X116032776Y-129177500D02*
X116542224Y-129177500D01*
X116032776Y-130222500D02*
X116542224Y-130222500D01*
%TO.C,C52*%
X94748401Y-56340000D02*
X94748401Y-56700000D01*
X93347401Y-56340000D02*
X93347401Y-57556000D01*
X93788401Y-53560000D02*
X93788401Y-54660000D01*
X94228401Y-56340000D02*
X94228401Y-57208000D01*
X93307401Y-56340000D02*
X93307401Y-57562000D01*
X93227401Y-53429000D02*
X93227401Y-54660000D01*
X94068401Y-56340000D02*
X94068401Y-57308000D01*
X94388401Y-56340000D02*
X94388401Y-57087000D01*
X93988401Y-53649000D02*
X93988401Y-54660000D01*
X94148401Y-56340000D02*
X94148401Y-57260000D01*
X93387401Y-56340000D02*
X93387401Y-57550000D01*
X94308401Y-53850000D02*
X94308401Y-54660000D01*
X93988401Y-56340000D02*
X93988401Y-57351000D01*
X93547401Y-56340000D02*
X93547401Y-57516000D01*
X93667401Y-53518000D02*
X93667401Y-54660000D01*
X93307401Y-53438000D02*
X93307401Y-54660000D01*
X93427401Y-56340000D02*
X93427401Y-57542000D01*
X94788401Y-54358000D02*
X94788401Y-54660000D01*
X94508401Y-56340000D02*
X94508401Y-56978000D01*
X94948401Y-54641000D02*
X94948401Y-56359000D01*
X93828401Y-53576000D02*
X93828401Y-54660000D01*
X93467401Y-53466000D02*
X93467401Y-54660000D01*
X93507401Y-53475000D02*
X93507401Y-54660000D01*
X93427401Y-53458000D02*
X93427401Y-54660000D01*
X93788401Y-56340000D02*
X93788401Y-57440000D01*
X93707401Y-53532000D02*
X93707401Y-54660000D01*
X94188401Y-56340000D02*
X94188401Y-57235000D01*
X93027401Y-53420000D02*
X93027401Y-57580000D01*
X94628401Y-54149000D02*
X94628401Y-54660000D01*
X93948401Y-53630000D02*
X93948401Y-54660000D01*
X94908401Y-54560000D02*
X94908401Y-56440000D01*
X94828401Y-54420000D02*
X94828401Y-54660000D01*
X93948401Y-56340000D02*
X93948401Y-57370000D01*
X93267401Y-56340000D02*
X93267401Y-57567000D01*
X94828401Y-56340000D02*
X94828401Y-56580000D01*
X93387401Y-53450000D02*
X93387401Y-54660000D01*
X93467401Y-56340000D02*
X93467401Y-57534000D01*
X94868401Y-54487000D02*
X94868401Y-56513000D01*
X94428401Y-53948000D02*
X94428401Y-54660000D01*
X94708401Y-54246000D02*
X94708401Y-54660000D01*
X94588401Y-56340000D02*
X94588401Y-56896000D01*
X93347401Y-53444000D02*
X93347401Y-54660000D01*
X94668401Y-54196000D02*
X94668401Y-54660000D01*
X93908401Y-53611000D02*
X93908401Y-54660000D01*
X93507401Y-56340000D02*
X93507401Y-57525000D01*
X93587401Y-56340000D02*
X93587401Y-57505000D01*
X94508401Y-54022000D02*
X94508401Y-54660000D01*
X94468401Y-53984000D02*
X94468401Y-54660000D01*
X93667401Y-56340000D02*
X93667401Y-57482000D01*
X93067401Y-53420000D02*
X93067401Y-57580000D01*
X93748401Y-53546000D02*
X93748401Y-54660000D01*
X95028401Y-54836000D02*
X95028401Y-56164000D01*
X94108401Y-56340000D02*
X94108401Y-57285000D01*
X95108401Y-55130000D02*
X95108401Y-55870000D01*
X90957600Y-54105000D02*
X90957600Y-54505000D01*
X94588401Y-54104000D02*
X94588401Y-54660000D01*
X94628401Y-56340000D02*
X94628401Y-56851000D01*
X94228401Y-53792000D02*
X94228401Y-54660000D01*
X93627401Y-56340000D02*
X93627401Y-57494000D01*
X94748401Y-54300000D02*
X94748401Y-54660000D01*
X94188401Y-53765000D02*
X94188401Y-54660000D01*
X93868401Y-56340000D02*
X93868401Y-57407000D01*
X94148401Y-53740000D02*
X94148401Y-54660000D01*
X93868401Y-53593000D02*
X93868401Y-54660000D01*
X90757600Y-54305000D02*
X91157600Y-54305000D01*
X93828401Y-56340000D02*
X93828401Y-57424000D01*
X93748401Y-56340000D02*
X93748401Y-57454000D01*
X93627401Y-53506000D02*
X93627401Y-54660000D01*
X93227401Y-56340000D02*
X93227401Y-57571000D01*
X94268401Y-53820000D02*
X94268401Y-54660000D01*
X93267401Y-53433000D02*
X93267401Y-54660000D01*
X93908401Y-56340000D02*
X93908401Y-57389000D01*
X94028401Y-56340000D02*
X94028401Y-57330000D01*
X94348401Y-56340000D02*
X94348401Y-57119000D01*
X93107401Y-53421000D02*
X93107401Y-57579000D01*
X93547401Y-53484000D02*
X93547401Y-54660000D01*
X94708401Y-56340000D02*
X94708401Y-56754000D01*
X94068401Y-53692000D02*
X94068401Y-54660000D01*
X94348401Y-53881000D02*
X94348401Y-54660000D01*
X95068401Y-54963000D02*
X95068401Y-56037000D01*
X94668401Y-56340000D02*
X94668401Y-56804000D01*
X93707401Y-56340000D02*
X93707401Y-57468000D01*
X94388401Y-53913000D02*
X94388401Y-54660000D01*
X94308401Y-56340000D02*
X94308401Y-57150000D01*
X94108401Y-53715000D02*
X94108401Y-54660000D01*
X94988401Y-54732000D02*
X94988401Y-56268000D01*
X93187401Y-53426000D02*
X93187401Y-57574000D01*
X93147401Y-53423000D02*
X93147401Y-57577000D01*
X93587401Y-53495000D02*
X93587401Y-54660000D01*
X94468401Y-56340000D02*
X94468401Y-57016000D01*
X94028401Y-53670000D02*
X94028401Y-54660000D01*
X94548401Y-54062000D02*
X94548401Y-54660000D01*
X94268401Y-56340000D02*
X94268401Y-57180000D01*
X94548401Y-56340000D02*
X94548401Y-56938000D01*
X94428401Y-56340000D02*
X94428401Y-57052000D01*
X94788401Y-56340000D02*
X94788401Y-56642000D01*
X95147401Y-55500000D02*
G75*
G03*
X95147401Y-55500000I-2120000J0D01*
G01*
%TO.C,C38*%
X76660000Y-99411252D02*
X76660000Y-97988748D01*
X73940000Y-99411252D02*
X73940000Y-97988748D01*
%TO.C,C6*%
X79640000Y-65211252D02*
X79640000Y-63788748D01*
X82360000Y-65211252D02*
X82360000Y-63788748D01*
%TO.C,D2*%
X122060000Y-71060000D02*
X122060000Y-69140000D01*
X119200000Y-71060000D02*
X122060000Y-71060000D01*
X122060000Y-69140000D02*
X119200000Y-69140000D01*
D13*
%TO.C,U3*%
X88475000Y-99945000D02*
X88475000Y-99945000D01*
D17*
X88875000Y-105945000D02*
X89175000Y-105945000D01*
X84175000Y-101445000D02*
X84175000Y-100945000D01*
D13*
X88275000Y-99945000D02*
X88275000Y-99945000D01*
D17*
X89175000Y-105945000D02*
X89175000Y-105645000D01*
X84175000Y-100945000D02*
X84375000Y-100945000D01*
X89175000Y-101245000D02*
X89175000Y-100945000D01*
X85975000Y-100945000D02*
X85875000Y-100945000D01*
X84175000Y-105945000D02*
X84375000Y-105945000D01*
X89175000Y-100945000D02*
X88875000Y-100945000D01*
X84175000Y-105445000D02*
X84175000Y-105945000D01*
D13*
X88275000Y-99945000D02*
G75*
G03*
X88475000Y-99945000I100000J0D01*
G01*
X88475000Y-99945000D02*
G75*
G03*
X88275000Y-99945000I-100000J0D01*
G01*
%TO.C,J31*%
X125800000Y-119940000D02*
X125800000Y-123150000D01*
X114850000Y-119940000D02*
X125800000Y-119940000D01*
X125300000Y-123150000D02*
X125300000Y-124850000D01*
X125300000Y-124850000D02*
X125800000Y-124850000D01*
X114850000Y-128060000D02*
X114850000Y-119940000D01*
X125800000Y-124850000D02*
X125800000Y-128060000D01*
X125800000Y-128060000D02*
X114850000Y-128060000D01*
X125800000Y-123150000D02*
X125300000Y-123150000D01*
X121200000Y-120440000D02*
G75*
G03*
X121200000Y-120440000I-100000J0D01*
G01*
%TO.C,J6*%
X73700000Y-30500000D02*
X85900000Y-30500000D01*
X85900000Y-30500000D02*
X85900000Y-42700000D01*
X73700000Y-42700000D02*
X73700000Y-30500000D01*
X85900000Y-42700000D02*
X73700000Y-42700000D01*
D14*
X84600000Y-39500000D02*
G75*
G03*
X84600000Y-39500000I-100000J0D01*
G01*
D13*
%TO.C,J4*%
X60800000Y-42700000D02*
X60800000Y-30500000D01*
X73000000Y-30500000D02*
X73000000Y-42700000D01*
X73000000Y-42700000D02*
X60800000Y-42700000D01*
X60800000Y-30500000D02*
X73000000Y-30500000D01*
D14*
X71700000Y-39500000D02*
G75*
G03*
X71700000Y-39500000I-100000J0D01*
G01*
D16*
%TO.C,F1*%
X68365000Y-88305000D02*
X68365000Y-68495000D01*
X61635000Y-88305000D02*
X68365000Y-88305000D01*
X68365000Y-68495000D02*
X61635000Y-68495000D01*
X61635000Y-68495000D02*
X61635000Y-88305000D01*
D15*
%TO.C,R8*%
X101622500Y-71645276D02*
X101622500Y-72154724D01*
X100577500Y-71645276D02*
X100577500Y-72154724D01*
%TO.C,R4*%
X89522500Y-63554724D02*
X89522500Y-63045276D01*
X88477500Y-63554724D02*
X88477500Y-63045276D01*
D13*
%TO.C,J7*%
X99540000Y-36600000D02*
X94260000Y-36600000D01*
X99540000Y-30600000D02*
X99540000Y-36600000D01*
X94260000Y-36600000D02*
X94260000Y-30600000D01*
X94260000Y-30600000D02*
X99540000Y-30600000D01*
D18*
%TO.C,L1*%
X83191000Y-91460000D02*
X83191000Y-93609000D01*
X100409000Y-76391000D02*
X100409000Y-78540000D01*
X83191000Y-93609000D02*
X100409000Y-93609000D01*
X83191000Y-76391000D02*
X100409000Y-76391000D01*
X83191000Y-78540000D02*
X83191000Y-76391000D01*
X100409000Y-93609000D02*
X100409000Y-91460000D01*
D15*
%TO.C,R24*%
X86077500Y-97754724D02*
X86077500Y-97245276D01*
X87122500Y-97754724D02*
X87122500Y-97245276D01*
D18*
%TO.C,L3*%
X80791000Y-125660000D02*
X80791000Y-127809000D01*
X98009000Y-127809000D02*
X98009000Y-125660000D01*
X80791000Y-110591000D02*
X98009000Y-110591000D01*
X98009000Y-110591000D02*
X98009000Y-112740000D01*
X80791000Y-127809000D02*
X98009000Y-127809000D01*
X80791000Y-112740000D02*
X80791000Y-110591000D01*
%TD*%
M02*
