M48
; DRILL file {KiCad (5.1.6)-1} date 06/25/21 13:52:56
; FORMAT={-:-/ absolute / metric / decimal}
; #@! TF.CreationDate,2021-06-25T13:52:56+02:00
; #@! TF.GenerationSoftware,Kicad,Pcbnew,(5.1.6)-1
; #@! TF.FileFunction,Plated,1,2,PTH
FMAT,2
METRIC
T1C0.400
T2C0.550
T3C0.600
T4C0.800
T5C0.850
T6C1.000
T7C1.100
T8C1.800
%
G90
G05
T1
X133.0Y-130.5
X136.509Y-127.55
X139.9Y-107.5
X142.2Y-126.0
X142.723Y-124.594
X144.9Y-130.3
X144.947Y-127.644
X146.2Y-129.6
X147.063Y-127.253
X148.446Y-125.117
X149.0Y-130.6
X151.1Y-131.8
X151.662Y-132.503
X153.2Y-127.3
X153.2Y-128.2
X153.3Y-125.8
T3
X145.25Y-139.25
X147.25Y-139.25
X118.25Y-105.0
X120.25Y-105.0
X139.25Y-101.25
X139.25Y-103.25
T4
X128.25Y-101.5
X130.25Y-101.5
X132.25Y-101.5
X134.25Y-101.5
X144.25Y-101.4
X146.25Y-101.4
X148.25Y-101.4
X150.25Y-101.4
T5
X115.25Y-126.25
X117.75Y-126.25
X120.25Y-126.25
X115.25Y-111.5
X117.75Y-111.5
X120.25Y-111.5
X115.25Y-119.0
X117.75Y-119.0
X120.25Y-119.0
T6
X136.0Y-107.0
X143.75Y-106.5
X146.29Y-106.5
X132.5Y-107.0
X147.17Y-118.5
X149.71Y-118.5
X152.25Y-118.5
X154.79Y-118.5
X157.33Y-118.5
T7
X127.1Y-134.875
X127.1Y-139.375
X133.6Y-134.875
X133.6Y-139.375
X136.45Y-112.25
X136.45Y-116.75
X142.95Y-112.25
X142.95Y-116.75
T8
X117.5Y-131.77
X117.5Y-135.73
T2
G00X163.9Y-123.0
M15
G01X164.55Y-123.0
M16
G05
G00X163.9Y-130.75
M15
G01X164.55Y-130.75
M16
G05
T5
G00X160.15Y-123.15
M15
G01X160.7Y-123.15
M16
G05
G00X160.15Y-130.6
M15
G01X160.7Y-130.6
M16
G05
T0
M30
