%FSLAX45Y45*%
G04 Gerber Fmt 4.5, Leading zero omitted, Abs format (unit mm)*
G04 Created by KiCad (PCBNEW (5.1.6)-1) date 2021-06-25 13:52:58*
%MOMM*%
%LPD*%
G01*
G04 APERTURE LIST*
%TA.AperFunction,Profile*%
%ADD10C,0.050000*%
%TD*%
%ADD11C,0.200000*%
%ADD12C,0.300000*%
G04 APERTURE END LIST*
D10*
X11550000Y-10200000D02*
G75*
G03*
X11550000Y-10200000I-150000J0D01*
G01*
X16550000Y-10200000D02*
G75*
G03*
X16550000Y-10200000I-150000J0D01*
G01*
X16585000Y-14280000D02*
G75*
G03*
X16585000Y-14280000I-150000J0D01*
G01*
X11550000Y-14300000D02*
G75*
G03*
X11550000Y-14300000I-150000J0D01*
G01*
X11450000Y-14530000D02*
G75*
G02*
X11150000Y-14230000I0J300000D01*
G01*
X16680000Y-14230000D02*
G75*
G02*
X16380000Y-14530000I-300000J0D01*
G01*
X16380000Y-9930000D02*
G75*
G02*
X16680000Y-10230000I0J-300000D01*
G01*
X11150000Y-10230000D02*
G75*
G02*
X11450000Y-9930000I300000J0D01*
G01*
X11150000Y-14230000D02*
X11150000Y-10230000D01*
X16380000Y-14530000D02*
X11450000Y-14530000D01*
X16680000Y-10230000D02*
X16680000Y-14230000D01*
X11450000Y-9930000D02*
X16380000Y-9930000D01*
D11*
X13280000Y-13030000D02*
X13320000Y-13070000D01*
X13320000Y-13030000D02*
X13280000Y-13070000D01*
X13630908Y-12734999D02*
X13670908Y-12774999D01*
X13670908Y-12734999D02*
X13630908Y-12774999D01*
X13970000Y-10730000D02*
X14010000Y-10770000D01*
X14010000Y-10730000D02*
X13970000Y-10770000D01*
X14200000Y-12580000D02*
X14240000Y-12620000D01*
X14240000Y-12580000D02*
X14200000Y-12620000D01*
X14252286Y-12439436D02*
X14292286Y-12479436D01*
X14292286Y-12439436D02*
X14252286Y-12479436D01*
X14470000Y-13010000D02*
X14510000Y-13050000D01*
X14510000Y-13010000D02*
X14470000Y-13050000D01*
X14474668Y-12744435D02*
X14514668Y-12784435D01*
X14514668Y-12744435D02*
X14474668Y-12784435D01*
X14600000Y-12940000D02*
X14640000Y-12980000D01*
X14640000Y-12940000D02*
X14600000Y-12980000D01*
X14686271Y-12705332D02*
X14726271Y-12745332D01*
X14726271Y-12705332D02*
X14686271Y-12745332D01*
X14824647Y-12491666D02*
X14864647Y-12531666D01*
X14864647Y-12491666D02*
X14824647Y-12531666D01*
X14880000Y-13040000D02*
X14920000Y-13080000D01*
X14920000Y-13040000D02*
X14880000Y-13080000D01*
X15090000Y-13160000D02*
X15130000Y-13200000D01*
X15130000Y-13160000D02*
X15090000Y-13200000D01*
X15146223Y-13230278D02*
X15186223Y-13270278D01*
X15186223Y-13230278D02*
X15146223Y-13270278D01*
X15300000Y-12709999D02*
X15340000Y-12749999D01*
X15340000Y-12709999D02*
X15300000Y-12749999D01*
X15300000Y-12800000D02*
X15340000Y-12840000D01*
X15340000Y-12800000D02*
X15300000Y-12840000D01*
X15310000Y-12560000D02*
X15350000Y-12600000D01*
X15350000Y-12560000D02*
X15310000Y-12600000D01*
X16450000Y-12300000D02*
G75*
G03*
X16450000Y-12300000I-27500J0D01*
G01*
X16390000Y-12317500D02*
X16455000Y-12317500D01*
X16390000Y-12282500D02*
X16455000Y-12282500D01*
X16455000Y-12317500D02*
G75*
G03*
X16455000Y-12282500I0J17500D01*
G01*
X16390000Y-12282500D02*
G75*
G03*
X16390000Y-12317500I0J-17500D01*
G01*
X16450000Y-13075000D02*
G75*
G03*
X16450000Y-13075000I-27500J0D01*
G01*
X16390000Y-13092500D02*
X16455000Y-13092500D01*
X16390000Y-13057500D02*
X16455000Y-13057500D01*
X16455000Y-13092500D02*
G75*
G03*
X16455000Y-13057500I0J17500D01*
G01*
X16390000Y-13057500D02*
G75*
G03*
X16390000Y-13092500I0J-17500D01*
G01*
X14525000Y-13895000D02*
X14525000Y-13955000D01*
X14495000Y-13925000D02*
X14555000Y-13925000D01*
X14725000Y-13895000D02*
X14725000Y-13955000D01*
X14695000Y-13925000D02*
X14755000Y-13925000D01*
X11825000Y-10470000D02*
X11825000Y-10530000D01*
X11795000Y-10500000D02*
X11855000Y-10500000D01*
X12025000Y-10470000D02*
X12025000Y-10530000D01*
X11995000Y-10500000D02*
X12055000Y-10500000D01*
X13925000Y-10095000D02*
X13925000Y-10155000D01*
X13895000Y-10125000D02*
X13955000Y-10125000D01*
X13925000Y-10295000D02*
X13925000Y-10355000D01*
X13895000Y-10325000D02*
X13955000Y-10325000D01*
X12853284Y-10178285D02*
X12853284Y-10121716D01*
X12796715Y-10121716D01*
X12796715Y-10178285D01*
X12853284Y-10178285D01*
X13053284Y-10178285D02*
X13053284Y-10121716D01*
X12996715Y-10121716D01*
X12996715Y-10178285D01*
X13053284Y-10178285D01*
X13253284Y-10178285D02*
X13253284Y-10121716D01*
X13196715Y-10121716D01*
X13196715Y-10178285D01*
X13253284Y-10178285D01*
X13453284Y-10178285D02*
X13453284Y-10121716D01*
X13396715Y-10121716D01*
X13396715Y-10178285D01*
X13453284Y-10178285D01*
X14453284Y-10168285D02*
X14453284Y-10111716D01*
X14396715Y-10111716D01*
X14396715Y-10168285D01*
X14453284Y-10168285D01*
X14653284Y-10168285D02*
X14653284Y-10111716D01*
X14596715Y-10111716D01*
X14596715Y-10168285D01*
X14653284Y-10168285D01*
X14853284Y-10168285D02*
X14853284Y-10111716D01*
X14796715Y-10111716D01*
X14796715Y-10168285D01*
X14853284Y-10168285D01*
X15053284Y-10168285D02*
X15053284Y-10111716D01*
X14996715Y-10111716D01*
X14996715Y-10168285D01*
X15053284Y-10168285D01*
X11525000Y-12667500D02*
X11567500Y-12625000D01*
X11525000Y-12582500D01*
X11482500Y-12625000D01*
X11525000Y-12667500D01*
X11775000Y-12667500D02*
X11817500Y-12625000D01*
X11775000Y-12582500D01*
X11732500Y-12625000D01*
X11775000Y-12667500D01*
X12025000Y-12667500D02*
X12067500Y-12625000D01*
X12025000Y-12582500D01*
X11982500Y-12625000D01*
X12025000Y-12667500D01*
X11525000Y-11192500D02*
X11567500Y-11150000D01*
X11525000Y-11107500D01*
X11482500Y-11150000D01*
X11525000Y-11192500D01*
X11775000Y-11192500D02*
X11817500Y-11150000D01*
X11775000Y-11107500D01*
X11732500Y-11150000D01*
X11775000Y-11192500D01*
X12025000Y-11192500D02*
X12067500Y-11150000D01*
X12025000Y-11107500D01*
X11982500Y-11150000D01*
X12025000Y-11192500D01*
X16042500Y-12357500D02*
X16085000Y-12315000D01*
X16042500Y-12272500D01*
X16000000Y-12315000D01*
X16042500Y-12357500D01*
X16015000Y-12347500D02*
X16070000Y-12347500D01*
X16015000Y-12282500D02*
X16070000Y-12282500D01*
X16070000Y-12347500D02*
G75*
G03*
X16070000Y-12282500I0J32500D01*
G01*
X16015000Y-12282500D02*
G75*
G03*
X16015000Y-12347500I0J-32500D01*
G01*
X16042500Y-13102500D02*
X16085000Y-13060000D01*
X16042500Y-13017500D01*
X16000000Y-13060000D01*
X16042500Y-13102500D01*
X16015000Y-13092500D02*
X16070000Y-13092500D01*
X16015000Y-13027500D02*
X16070000Y-13027500D01*
X16070000Y-13092500D02*
G75*
G03*
X16070000Y-13027500I0J32500D01*
G01*
X16015000Y-13027500D02*
G75*
G03*
X16015000Y-13092500I0J-32500D01*
G01*
X11525000Y-11942500D02*
X11567500Y-11900000D01*
X11525000Y-11857500D01*
X11482500Y-11900000D01*
X11525000Y-11942500D01*
X11775000Y-11942500D02*
X11817500Y-11900000D01*
X11775000Y-11857500D01*
X11732500Y-11900000D01*
X11775000Y-11942500D01*
X12025000Y-11942500D02*
X12067500Y-11900000D01*
X12025000Y-11857500D01*
X11982500Y-11900000D01*
X12025000Y-11942500D01*
X13550000Y-10650000D02*
X13650000Y-10750000D01*
X13650000Y-10650000D02*
X13550000Y-10750000D01*
X13650000Y-10700000D02*
G75*
G03*
X13650000Y-10700000I-50000J0D01*
G01*
X14325000Y-10600000D02*
X14425000Y-10700000D01*
X14425000Y-10600000D02*
X14325000Y-10700000D01*
X14425000Y-10650000D02*
G75*
G03*
X14425000Y-10650000I-50000J0D01*
G01*
X14579000Y-10600000D02*
X14679000Y-10700000D01*
X14679000Y-10600000D02*
X14579000Y-10700000D01*
X14679000Y-10650000D02*
G75*
G03*
X14679000Y-10650000I-50000J0D01*
G01*
X13200000Y-10650000D02*
X13300000Y-10750000D01*
X13300000Y-10650000D02*
X13200000Y-10750000D01*
X13300000Y-10700000D02*
G75*
G03*
X13300000Y-10700000I-50000J0D01*
G01*
X14667000Y-11800000D02*
X14767000Y-11900000D01*
X14767000Y-11800000D02*
X14667000Y-11900000D01*
X14767000Y-11850000D02*
G75*
G03*
X14767000Y-11850000I-50000J0D01*
G01*
X14921000Y-11800000D02*
X15021000Y-11900000D01*
X15021000Y-11800000D02*
X14921000Y-11900000D01*
X15021000Y-11850000D02*
G75*
G03*
X15021000Y-11850000I-50000J0D01*
G01*
X15175000Y-11800000D02*
X15275000Y-11900000D01*
X15275000Y-11800000D02*
X15175000Y-11900000D01*
X15275000Y-11850000D02*
G75*
G03*
X15275000Y-11850000I-50000J0D01*
G01*
X15429000Y-11800000D02*
X15529000Y-11900000D01*
X15529000Y-11800000D02*
X15429000Y-11900000D01*
X15529000Y-11850000D02*
G75*
G03*
X15529000Y-11850000I-50000J0D01*
G01*
X15683000Y-11800000D02*
X15783000Y-11900000D01*
X15783000Y-11800000D02*
X15683000Y-11900000D01*
X15783000Y-11850000D02*
G75*
G03*
X15783000Y-11850000I-50000J0D01*
G01*
X12655000Y-13432500D02*
X12765000Y-13542500D01*
X12765000Y-13432500D02*
X12655000Y-13542500D01*
X12710000Y-13432500D02*
X12710000Y-13542500D01*
X12655000Y-13487500D02*
X12765000Y-13487500D01*
X12655000Y-13882500D02*
X12765000Y-13992500D01*
X12765000Y-13882500D02*
X12655000Y-13992500D01*
X12710000Y-13882500D02*
X12710000Y-13992500D01*
X12655000Y-13937500D02*
X12765000Y-13937500D01*
X13305000Y-13432500D02*
X13415000Y-13542500D01*
X13415000Y-13432500D02*
X13305000Y-13542500D01*
X13360000Y-13432500D02*
X13360000Y-13542500D01*
X13305000Y-13487500D02*
X13415000Y-13487500D01*
X13305000Y-13882500D02*
X13415000Y-13992500D01*
X13415000Y-13882500D02*
X13305000Y-13992500D01*
X13360000Y-13882500D02*
X13360000Y-13992500D01*
X13305000Y-13937500D02*
X13415000Y-13937500D01*
X13590000Y-11170000D02*
X13700000Y-11280000D01*
X13700000Y-11170000D02*
X13590000Y-11280000D01*
X13645000Y-11170000D02*
X13645000Y-11280000D01*
X13590000Y-11225000D02*
X13700000Y-11225000D01*
X13590000Y-11620000D02*
X13700000Y-11730000D01*
X13700000Y-11620000D02*
X13590000Y-11730000D01*
X13645000Y-11620000D02*
X13645000Y-11730000D01*
X13590000Y-11675000D02*
X13700000Y-11675000D01*
X14240000Y-11170000D02*
X14350000Y-11280000D01*
X14350000Y-11170000D02*
X14240000Y-11280000D01*
X14295000Y-11170000D02*
X14295000Y-11280000D01*
X14240000Y-11225000D02*
X14350000Y-11225000D01*
X14240000Y-11620000D02*
X14350000Y-11730000D01*
X14350000Y-11620000D02*
X14240000Y-11730000D01*
X14295000Y-11620000D02*
X14295000Y-11730000D01*
X14240000Y-11675000D02*
X14350000Y-11675000D01*
X11660000Y-13087000D02*
X11840000Y-13267000D01*
X11840000Y-13087000D02*
X11660000Y-13267000D01*
X11813640Y-13240640D02*
X11813640Y-13113360D01*
X11686360Y-13113360D01*
X11686360Y-13240640D01*
X11813640Y-13240640D01*
X11660000Y-13483000D02*
X11840000Y-13663000D01*
X11840000Y-13483000D02*
X11660000Y-13663000D01*
X11813640Y-13636640D02*
X11813640Y-13509360D01*
X11686360Y-13509360D01*
X11686360Y-13636640D01*
X11813640Y-13636640D01*
D12*
X11433928Y-14998214D02*
X11433928Y-14698214D01*
X11505357Y-14698214D01*
X11548214Y-14712500D01*
X11576786Y-14741071D01*
X11591071Y-14769643D01*
X11605357Y-14826786D01*
X11605357Y-14869643D01*
X11591071Y-14926786D01*
X11576786Y-14955357D01*
X11548214Y-14983929D01*
X11505357Y-14998214D01*
X11433928Y-14998214D01*
X11733928Y-14998214D02*
X11733928Y-14798214D01*
X11733928Y-14855357D02*
X11748214Y-14826786D01*
X11762500Y-14812500D01*
X11791071Y-14798214D01*
X11819643Y-14798214D01*
X11919643Y-14998214D02*
X11919643Y-14798214D01*
X11919643Y-14698214D02*
X11905357Y-14712500D01*
X11919643Y-14726786D01*
X11933928Y-14712500D01*
X11919643Y-14698214D01*
X11919643Y-14726786D01*
X12105357Y-14998214D02*
X12076786Y-14983929D01*
X12062500Y-14955357D01*
X12062500Y-14698214D01*
X12262500Y-14998214D02*
X12233928Y-14983929D01*
X12219643Y-14955357D01*
X12219643Y-14698214D01*
X12605357Y-14998214D02*
X12605357Y-14698214D01*
X12705357Y-14912500D01*
X12805357Y-14698214D01*
X12805357Y-14998214D01*
X13076786Y-14998214D02*
X13076786Y-14841071D01*
X13062500Y-14812500D01*
X13033928Y-14798214D01*
X12976786Y-14798214D01*
X12948214Y-14812500D01*
X13076786Y-14983929D02*
X13048214Y-14998214D01*
X12976786Y-14998214D01*
X12948214Y-14983929D01*
X12933928Y-14955357D01*
X12933928Y-14926786D01*
X12948214Y-14898214D01*
X12976786Y-14883929D01*
X13048214Y-14883929D01*
X13076786Y-14869643D01*
X13219643Y-14798214D02*
X13219643Y-15098214D01*
X13219643Y-14812500D02*
X13248214Y-14798214D01*
X13305357Y-14798214D01*
X13333928Y-14812500D01*
X13348214Y-14826786D01*
X13362500Y-14855357D01*
X13362500Y-14941071D01*
X13348214Y-14969643D01*
X13333928Y-14983929D01*
X13305357Y-14998214D01*
X13248214Y-14998214D01*
X13219643Y-14983929D01*
X13491071Y-14969643D02*
X13505357Y-14983929D01*
X13491071Y-14998214D01*
X13476786Y-14983929D01*
X13491071Y-14969643D01*
X13491071Y-14998214D01*
X13491071Y-14812500D02*
X13505357Y-14826786D01*
X13491071Y-14841071D01*
X13476786Y-14826786D01*
X13491071Y-14812500D01*
X13491071Y-14841071D01*
X11107500Y-15472500D02*
X11147500Y-15512500D01*
X11147500Y-15472500D02*
X11107500Y-15512500D01*
X11491071Y-15328214D02*
X11519643Y-15328214D01*
X11548214Y-15342500D01*
X11562500Y-15356786D01*
X11576786Y-15385357D01*
X11591071Y-15442500D01*
X11591071Y-15513929D01*
X11576786Y-15571071D01*
X11562500Y-15599643D01*
X11548214Y-15613929D01*
X11519643Y-15628214D01*
X11491071Y-15628214D01*
X11462500Y-15613929D01*
X11448214Y-15599643D01*
X11433928Y-15571071D01*
X11419643Y-15513929D01*
X11419643Y-15442500D01*
X11433928Y-15385357D01*
X11448214Y-15356786D01*
X11462500Y-15342500D01*
X11491071Y-15328214D01*
X11719643Y-15599643D02*
X11733928Y-15613929D01*
X11719643Y-15628214D01*
X11705357Y-15613929D01*
X11719643Y-15599643D01*
X11719643Y-15628214D01*
X11991071Y-15428214D02*
X11991071Y-15628214D01*
X11919643Y-15313929D02*
X11848214Y-15528214D01*
X12033928Y-15528214D01*
X12205357Y-15328214D02*
X12233928Y-15328214D01*
X12262500Y-15342500D01*
X12276786Y-15356786D01*
X12291071Y-15385357D01*
X12305357Y-15442500D01*
X12305357Y-15513929D01*
X12291071Y-15571071D01*
X12276786Y-15599643D01*
X12262500Y-15613929D01*
X12233928Y-15628214D01*
X12205357Y-15628214D01*
X12176786Y-15613929D01*
X12162500Y-15599643D01*
X12148214Y-15571071D01*
X12133928Y-15513929D01*
X12133928Y-15442500D01*
X12148214Y-15385357D01*
X12162500Y-15356786D01*
X12176786Y-15342500D01*
X12205357Y-15328214D01*
X12433928Y-15628214D02*
X12433928Y-15428214D01*
X12433928Y-15456786D02*
X12448214Y-15442500D01*
X12476786Y-15428214D01*
X12519643Y-15428214D01*
X12548214Y-15442500D01*
X12562500Y-15471071D01*
X12562500Y-15628214D01*
X12562500Y-15471071D02*
X12576786Y-15442500D01*
X12605357Y-15428214D01*
X12648214Y-15428214D01*
X12676786Y-15442500D01*
X12691071Y-15471071D01*
X12691071Y-15628214D01*
X12833928Y-15628214D02*
X12833928Y-15428214D01*
X12833928Y-15456786D02*
X12848214Y-15442500D01*
X12876786Y-15428214D01*
X12919643Y-15428214D01*
X12948214Y-15442500D01*
X12962500Y-15471071D01*
X12962500Y-15628214D01*
X12962500Y-15471071D02*
X12976786Y-15442500D01*
X13005357Y-15428214D01*
X13048214Y-15428214D01*
X13076786Y-15442500D01*
X13091071Y-15471071D01*
X13091071Y-15628214D01*
X13676786Y-15313929D02*
X13419643Y-15699643D01*
X14062500Y-15328214D02*
X14091071Y-15328214D01*
X14119643Y-15342500D01*
X14133928Y-15356786D01*
X14148214Y-15385357D01*
X14162500Y-15442500D01*
X14162500Y-15513929D01*
X14148214Y-15571071D01*
X14133928Y-15599643D01*
X14119643Y-15613929D01*
X14091071Y-15628214D01*
X14062500Y-15628214D01*
X14033928Y-15613929D01*
X14019643Y-15599643D01*
X14005357Y-15571071D01*
X13991071Y-15513929D01*
X13991071Y-15442500D01*
X14005357Y-15385357D01*
X14019643Y-15356786D01*
X14033928Y-15342500D01*
X14062500Y-15328214D01*
X14291071Y-15599643D02*
X14305357Y-15613929D01*
X14291071Y-15628214D01*
X14276786Y-15613929D01*
X14291071Y-15599643D01*
X14291071Y-15628214D01*
X14491071Y-15328214D02*
X14519643Y-15328214D01*
X14548214Y-15342500D01*
X14562500Y-15356786D01*
X14576786Y-15385357D01*
X14591071Y-15442500D01*
X14591071Y-15513929D01*
X14576786Y-15571071D01*
X14562500Y-15599643D01*
X14548214Y-15613929D01*
X14519643Y-15628214D01*
X14491071Y-15628214D01*
X14462500Y-15613929D01*
X14448214Y-15599643D01*
X14433928Y-15571071D01*
X14419643Y-15513929D01*
X14419643Y-15442500D01*
X14433928Y-15385357D01*
X14448214Y-15356786D01*
X14462500Y-15342500D01*
X14491071Y-15328214D01*
X14876786Y-15628214D02*
X14705357Y-15628214D01*
X14791071Y-15628214D02*
X14791071Y-15328214D01*
X14762500Y-15371071D01*
X14733928Y-15399643D01*
X14705357Y-15413929D01*
X15133928Y-15328214D02*
X15076786Y-15328214D01*
X15048214Y-15342500D01*
X15033928Y-15356786D01*
X15005357Y-15399643D01*
X14991071Y-15456786D01*
X14991071Y-15571071D01*
X15005357Y-15599643D01*
X15019643Y-15613929D01*
X15048214Y-15628214D01*
X15105357Y-15628214D01*
X15133928Y-15613929D01*
X15148214Y-15599643D01*
X15162500Y-15571071D01*
X15162500Y-15499643D01*
X15148214Y-15471071D01*
X15133928Y-15456786D01*
X15105357Y-15442500D01*
X15048214Y-15442500D01*
X15019643Y-15456786D01*
X15005357Y-15471071D01*
X14991071Y-15499643D01*
X15276786Y-15328214D02*
X15276786Y-15385357D01*
X15391071Y-15328214D02*
X15391071Y-15385357D01*
X15833928Y-15742500D02*
X15819643Y-15728214D01*
X15791071Y-15685357D01*
X15776786Y-15656786D01*
X15762500Y-15613929D01*
X15748214Y-15542500D01*
X15748214Y-15485357D01*
X15762500Y-15413929D01*
X15776786Y-15371071D01*
X15791071Y-15342500D01*
X15819643Y-15299643D01*
X15833928Y-15285357D01*
X16105357Y-15628214D02*
X15933928Y-15628214D01*
X16019643Y-15628214D02*
X16019643Y-15328214D01*
X15991071Y-15371071D01*
X15962500Y-15399643D01*
X15933928Y-15413929D01*
X16362500Y-15328214D02*
X16305357Y-15328214D01*
X16276786Y-15342500D01*
X16262500Y-15356786D01*
X16233928Y-15399643D01*
X16219643Y-15456786D01*
X16219643Y-15571071D01*
X16233928Y-15599643D01*
X16248214Y-15613929D01*
X16276786Y-15628214D01*
X16333928Y-15628214D01*
X16362500Y-15613929D01*
X16376786Y-15599643D01*
X16391071Y-15571071D01*
X16391071Y-15499643D01*
X16376786Y-15471071D01*
X16362500Y-15456786D01*
X16333928Y-15442500D01*
X16276786Y-15442500D01*
X16248214Y-15456786D01*
X16233928Y-15471071D01*
X16219643Y-15499643D01*
X16748214Y-15628214D02*
X16748214Y-15328214D01*
X16876786Y-15628214D02*
X16876786Y-15471071D01*
X16862500Y-15442500D01*
X16833928Y-15428214D01*
X16791071Y-15428214D01*
X16762500Y-15442500D01*
X16748214Y-15456786D01*
X17062500Y-15628214D02*
X17033928Y-15613929D01*
X17019643Y-15599643D01*
X17005357Y-15571071D01*
X17005357Y-15485357D01*
X17019643Y-15456786D01*
X17033928Y-15442500D01*
X17062500Y-15428214D01*
X17105357Y-15428214D01*
X17133928Y-15442500D01*
X17148214Y-15456786D01*
X17162500Y-15485357D01*
X17162500Y-15571071D01*
X17148214Y-15599643D01*
X17133928Y-15613929D01*
X17105357Y-15628214D01*
X17062500Y-15628214D01*
X17333928Y-15628214D02*
X17305357Y-15613929D01*
X17291071Y-15585357D01*
X17291071Y-15328214D01*
X17562500Y-15613929D02*
X17533928Y-15628214D01*
X17476786Y-15628214D01*
X17448214Y-15613929D01*
X17433928Y-15585357D01*
X17433928Y-15471071D01*
X17448214Y-15442500D01*
X17476786Y-15428214D01*
X17533928Y-15428214D01*
X17562500Y-15442500D01*
X17576786Y-15471071D01*
X17576786Y-15499643D01*
X17433928Y-15528214D01*
X17691071Y-15613929D02*
X17719643Y-15628214D01*
X17776786Y-15628214D01*
X17805357Y-15613929D01*
X17819643Y-15585357D01*
X17819643Y-15571071D01*
X17805357Y-15542500D01*
X17776786Y-15528214D01*
X17733928Y-15528214D01*
X17705357Y-15513929D01*
X17691071Y-15485357D01*
X17691071Y-15471071D01*
X17705357Y-15442500D01*
X17733928Y-15428214D01*
X17776786Y-15428214D01*
X17805357Y-15442500D01*
X17919643Y-15742500D02*
X17933928Y-15728214D01*
X17962500Y-15685357D01*
X17976786Y-15656786D01*
X17991071Y-15613929D01*
X18005357Y-15542500D01*
X18005357Y-15485357D01*
X17991071Y-15413929D01*
X17976786Y-15371071D01*
X17962500Y-15342500D01*
X17933928Y-15299643D01*
X17919643Y-15285357D01*
X11147500Y-15888500D02*
G75*
G03*
X11147500Y-15888500I-27500J0D01*
G01*
X11491071Y-15724214D02*
X11519643Y-15724214D01*
X11548214Y-15738500D01*
X11562500Y-15752786D01*
X11576786Y-15781357D01*
X11591071Y-15838500D01*
X11591071Y-15909929D01*
X11576786Y-15967071D01*
X11562500Y-15995643D01*
X11548214Y-16009929D01*
X11519643Y-16024214D01*
X11491071Y-16024214D01*
X11462500Y-16009929D01*
X11448214Y-15995643D01*
X11433928Y-15967071D01*
X11419643Y-15909929D01*
X11419643Y-15838500D01*
X11433928Y-15781357D01*
X11448214Y-15752786D01*
X11462500Y-15738500D01*
X11491071Y-15724214D01*
X11719643Y-15995643D02*
X11733928Y-16009929D01*
X11719643Y-16024214D01*
X11705357Y-16009929D01*
X11719643Y-15995643D01*
X11719643Y-16024214D01*
X12005357Y-15724214D02*
X11862500Y-15724214D01*
X11848214Y-15867071D01*
X11862500Y-15852786D01*
X11891071Y-15838500D01*
X11962500Y-15838500D01*
X11991071Y-15852786D01*
X12005357Y-15867071D01*
X12019643Y-15895643D01*
X12019643Y-15967071D01*
X12005357Y-15995643D01*
X11991071Y-16009929D01*
X11962500Y-16024214D01*
X11891071Y-16024214D01*
X11862500Y-16009929D01*
X11848214Y-15995643D01*
X12291071Y-15724214D02*
X12148214Y-15724214D01*
X12133928Y-15867071D01*
X12148214Y-15852786D01*
X12176786Y-15838500D01*
X12248214Y-15838500D01*
X12276786Y-15852786D01*
X12291071Y-15867071D01*
X12305357Y-15895643D01*
X12305357Y-15967071D01*
X12291071Y-15995643D01*
X12276786Y-16009929D01*
X12248214Y-16024214D01*
X12176786Y-16024214D01*
X12148214Y-16009929D01*
X12133928Y-15995643D01*
X12433928Y-16024214D02*
X12433928Y-15824214D01*
X12433928Y-15852786D02*
X12448214Y-15838500D01*
X12476786Y-15824214D01*
X12519643Y-15824214D01*
X12548214Y-15838500D01*
X12562500Y-15867071D01*
X12562500Y-16024214D01*
X12562500Y-15867071D02*
X12576786Y-15838500D01*
X12605357Y-15824214D01*
X12648214Y-15824214D01*
X12676786Y-15838500D01*
X12691071Y-15867071D01*
X12691071Y-16024214D01*
X12833928Y-16024214D02*
X12833928Y-15824214D01*
X12833928Y-15852786D02*
X12848214Y-15838500D01*
X12876786Y-15824214D01*
X12919643Y-15824214D01*
X12948214Y-15838500D01*
X12962500Y-15867071D01*
X12962500Y-16024214D01*
X12962500Y-15867071D02*
X12976786Y-15838500D01*
X13005357Y-15824214D01*
X13048214Y-15824214D01*
X13076786Y-15838500D01*
X13091071Y-15867071D01*
X13091071Y-16024214D01*
X13676786Y-15709929D02*
X13419643Y-16095643D01*
X14062500Y-15724214D02*
X14091071Y-15724214D01*
X14119643Y-15738500D01*
X14133928Y-15752786D01*
X14148214Y-15781357D01*
X14162500Y-15838500D01*
X14162500Y-15909929D01*
X14148214Y-15967071D01*
X14133928Y-15995643D01*
X14119643Y-16009929D01*
X14091071Y-16024214D01*
X14062500Y-16024214D01*
X14033928Y-16009929D01*
X14019643Y-15995643D01*
X14005357Y-15967071D01*
X13991071Y-15909929D01*
X13991071Y-15838500D01*
X14005357Y-15781357D01*
X14019643Y-15752786D01*
X14033928Y-15738500D01*
X14062500Y-15724214D01*
X14291071Y-15995643D02*
X14305357Y-16009929D01*
X14291071Y-16024214D01*
X14276786Y-16009929D01*
X14291071Y-15995643D01*
X14291071Y-16024214D01*
X14491071Y-15724214D02*
X14519643Y-15724214D01*
X14548214Y-15738500D01*
X14562500Y-15752786D01*
X14576786Y-15781357D01*
X14591071Y-15838500D01*
X14591071Y-15909929D01*
X14576786Y-15967071D01*
X14562500Y-15995643D01*
X14548214Y-16009929D01*
X14519643Y-16024214D01*
X14491071Y-16024214D01*
X14462500Y-16009929D01*
X14448214Y-15995643D01*
X14433928Y-15967071D01*
X14419643Y-15909929D01*
X14419643Y-15838500D01*
X14433928Y-15781357D01*
X14448214Y-15752786D01*
X14462500Y-15738500D01*
X14491071Y-15724214D01*
X14705357Y-15752786D02*
X14719643Y-15738500D01*
X14748214Y-15724214D01*
X14819643Y-15724214D01*
X14848214Y-15738500D01*
X14862500Y-15752786D01*
X14876786Y-15781357D01*
X14876786Y-15809929D01*
X14862500Y-15852786D01*
X14691071Y-16024214D01*
X14876786Y-16024214D01*
X14991071Y-15752786D02*
X15005357Y-15738500D01*
X15033928Y-15724214D01*
X15105357Y-15724214D01*
X15133928Y-15738500D01*
X15148214Y-15752786D01*
X15162500Y-15781357D01*
X15162500Y-15809929D01*
X15148214Y-15852786D01*
X14976786Y-16024214D01*
X15162500Y-16024214D01*
X15276786Y-15724214D02*
X15276786Y-15781357D01*
X15391071Y-15724214D02*
X15391071Y-15781357D01*
X15833928Y-16138500D02*
X15819643Y-16124214D01*
X15791071Y-16081357D01*
X15776786Y-16052786D01*
X15762500Y-16009929D01*
X15748214Y-15938500D01*
X15748214Y-15881357D01*
X15762500Y-15809929D01*
X15776786Y-15767071D01*
X15791071Y-15738500D01*
X15819643Y-15695643D01*
X15833928Y-15681357D01*
X16005357Y-15724214D02*
X16033928Y-15724214D01*
X16062500Y-15738500D01*
X16076786Y-15752786D01*
X16091071Y-15781357D01*
X16105357Y-15838500D01*
X16105357Y-15909929D01*
X16091071Y-15967071D01*
X16076786Y-15995643D01*
X16062500Y-16009929D01*
X16033928Y-16024214D01*
X16005357Y-16024214D01*
X15976786Y-16009929D01*
X15962500Y-15995643D01*
X15948214Y-15967071D01*
X15933928Y-15909929D01*
X15933928Y-15838500D01*
X15948214Y-15781357D01*
X15962500Y-15752786D01*
X15976786Y-15738500D01*
X16005357Y-15724214D01*
X16462500Y-16024214D02*
X16462500Y-15724214D01*
X16591071Y-16024214D02*
X16591071Y-15867071D01*
X16576786Y-15838500D01*
X16548214Y-15824214D01*
X16505357Y-15824214D01*
X16476786Y-15838500D01*
X16462500Y-15852786D01*
X16776786Y-16024214D02*
X16748214Y-16009929D01*
X16733928Y-15995643D01*
X16719643Y-15967071D01*
X16719643Y-15881357D01*
X16733928Y-15852786D01*
X16748214Y-15838500D01*
X16776786Y-15824214D01*
X16819643Y-15824214D01*
X16848214Y-15838500D01*
X16862500Y-15852786D01*
X16876786Y-15881357D01*
X16876786Y-15967071D01*
X16862500Y-15995643D01*
X16848214Y-16009929D01*
X16819643Y-16024214D01*
X16776786Y-16024214D01*
X17048214Y-16024214D02*
X17019643Y-16009929D01*
X17005357Y-15981357D01*
X17005357Y-15724214D01*
X17276786Y-16009929D02*
X17248214Y-16024214D01*
X17191071Y-16024214D01*
X17162500Y-16009929D01*
X17148214Y-15981357D01*
X17148214Y-15867071D01*
X17162500Y-15838500D01*
X17191071Y-15824214D01*
X17248214Y-15824214D01*
X17276786Y-15838500D01*
X17291071Y-15867071D01*
X17291071Y-15895643D01*
X17148214Y-15924214D01*
X17405357Y-16009929D02*
X17433928Y-16024214D01*
X17491071Y-16024214D01*
X17519643Y-16009929D01*
X17533928Y-15981357D01*
X17533928Y-15967071D01*
X17519643Y-15938500D01*
X17491071Y-15924214D01*
X17448214Y-15924214D01*
X17419643Y-15909929D01*
X17405357Y-15881357D01*
X17405357Y-15867071D01*
X17419643Y-15838500D01*
X17448214Y-15824214D01*
X17491071Y-15824214D01*
X17519643Y-15838500D01*
X17891071Y-15909929D02*
X18119643Y-15909929D01*
X18005357Y-16024214D02*
X18005357Y-15795643D01*
X18476786Y-15752786D02*
X18491071Y-15738500D01*
X18519643Y-15724214D01*
X18591071Y-15724214D01*
X18619643Y-15738500D01*
X18633928Y-15752786D01*
X18648214Y-15781357D01*
X18648214Y-15809929D01*
X18633928Y-15852786D01*
X18462500Y-16024214D01*
X18648214Y-16024214D01*
X18991071Y-16009929D02*
X19019643Y-16024214D01*
X19076786Y-16024214D01*
X19105357Y-16009929D01*
X19119643Y-15981357D01*
X19119643Y-15967071D01*
X19105357Y-15938500D01*
X19076786Y-15924214D01*
X19033928Y-15924214D01*
X19005357Y-15909929D01*
X18991071Y-15881357D01*
X18991071Y-15867071D01*
X19005357Y-15838500D01*
X19033928Y-15824214D01*
X19076786Y-15824214D01*
X19105357Y-15838500D01*
X19291071Y-16024214D02*
X19262500Y-16009929D01*
X19248214Y-15981357D01*
X19248214Y-15724214D01*
X19448214Y-16024214D02*
X19419643Y-16009929D01*
X19405357Y-15995643D01*
X19391071Y-15967071D01*
X19391071Y-15881357D01*
X19405357Y-15852786D01*
X19419643Y-15838500D01*
X19448214Y-15824214D01*
X19491071Y-15824214D01*
X19519643Y-15838500D01*
X19533928Y-15852786D01*
X19548214Y-15881357D01*
X19548214Y-15967071D01*
X19533928Y-15995643D01*
X19519643Y-16009929D01*
X19491071Y-16024214D01*
X19448214Y-16024214D01*
X19633928Y-15824214D02*
X19748214Y-15824214D01*
X19676786Y-15724214D02*
X19676786Y-15981357D01*
X19691071Y-16009929D01*
X19719643Y-16024214D01*
X19748214Y-16024214D01*
X19833928Y-16009929D02*
X19862500Y-16024214D01*
X19919643Y-16024214D01*
X19948214Y-16009929D01*
X19962500Y-15981357D01*
X19962500Y-15967071D01*
X19948214Y-15938500D01*
X19919643Y-15924214D01*
X19876786Y-15924214D01*
X19848214Y-15909929D01*
X19833928Y-15881357D01*
X19833928Y-15867071D01*
X19848214Y-15838500D01*
X19876786Y-15824214D01*
X19919643Y-15824214D01*
X19948214Y-15838500D01*
X20062500Y-16138500D02*
X20076786Y-16124214D01*
X20105357Y-16081357D01*
X20119643Y-16052786D01*
X20133928Y-16009929D01*
X20148214Y-15938500D01*
X20148214Y-15881357D01*
X20133928Y-15809929D01*
X20119643Y-15767071D01*
X20105357Y-15738500D01*
X20076786Y-15695643D01*
X20062500Y-15681357D01*
X11117500Y-16254500D02*
X11117500Y-16314500D01*
X11087500Y-16284500D02*
X11147500Y-16284500D01*
X11491071Y-16120214D02*
X11519643Y-16120214D01*
X11548214Y-16134500D01*
X11562500Y-16148786D01*
X11576786Y-16177357D01*
X11591071Y-16234500D01*
X11591071Y-16305929D01*
X11576786Y-16363071D01*
X11562500Y-16391643D01*
X11548214Y-16405929D01*
X11519643Y-16420214D01*
X11491071Y-16420214D01*
X11462500Y-16405929D01*
X11448214Y-16391643D01*
X11433928Y-16363071D01*
X11419643Y-16305929D01*
X11419643Y-16234500D01*
X11433928Y-16177357D01*
X11448214Y-16148786D01*
X11462500Y-16134500D01*
X11491071Y-16120214D01*
X11719643Y-16391643D02*
X11733928Y-16405929D01*
X11719643Y-16420214D01*
X11705357Y-16405929D01*
X11719643Y-16391643D01*
X11719643Y-16420214D01*
X11991071Y-16120214D02*
X11933928Y-16120214D01*
X11905357Y-16134500D01*
X11891071Y-16148786D01*
X11862500Y-16191643D01*
X11848214Y-16248786D01*
X11848214Y-16363071D01*
X11862500Y-16391643D01*
X11876786Y-16405929D01*
X11905357Y-16420214D01*
X11962500Y-16420214D01*
X11991071Y-16405929D01*
X12005357Y-16391643D01*
X12019643Y-16363071D01*
X12019643Y-16291643D01*
X12005357Y-16263071D01*
X11991071Y-16248786D01*
X11962500Y-16234500D01*
X11905357Y-16234500D01*
X11876786Y-16248786D01*
X11862500Y-16263071D01*
X11848214Y-16291643D01*
X12205357Y-16120214D02*
X12233928Y-16120214D01*
X12262500Y-16134500D01*
X12276786Y-16148786D01*
X12291071Y-16177357D01*
X12305357Y-16234500D01*
X12305357Y-16305929D01*
X12291071Y-16363071D01*
X12276786Y-16391643D01*
X12262500Y-16405929D01*
X12233928Y-16420214D01*
X12205357Y-16420214D01*
X12176786Y-16405929D01*
X12162500Y-16391643D01*
X12148214Y-16363071D01*
X12133928Y-16305929D01*
X12133928Y-16234500D01*
X12148214Y-16177357D01*
X12162500Y-16148786D01*
X12176786Y-16134500D01*
X12205357Y-16120214D01*
X12433928Y-16420214D02*
X12433928Y-16220214D01*
X12433928Y-16248786D02*
X12448214Y-16234500D01*
X12476786Y-16220214D01*
X12519643Y-16220214D01*
X12548214Y-16234500D01*
X12562500Y-16263071D01*
X12562500Y-16420214D01*
X12562500Y-16263071D02*
X12576786Y-16234500D01*
X12605357Y-16220214D01*
X12648214Y-16220214D01*
X12676786Y-16234500D01*
X12691071Y-16263071D01*
X12691071Y-16420214D01*
X12833928Y-16420214D02*
X12833928Y-16220214D01*
X12833928Y-16248786D02*
X12848214Y-16234500D01*
X12876786Y-16220214D01*
X12919643Y-16220214D01*
X12948214Y-16234500D01*
X12962500Y-16263071D01*
X12962500Y-16420214D01*
X12962500Y-16263071D02*
X12976786Y-16234500D01*
X13005357Y-16220214D01*
X13048214Y-16220214D01*
X13076786Y-16234500D01*
X13091071Y-16263071D01*
X13091071Y-16420214D01*
X13676786Y-16105929D02*
X13419643Y-16491643D01*
X14062500Y-16120214D02*
X14091071Y-16120214D01*
X14119643Y-16134500D01*
X14133928Y-16148786D01*
X14148214Y-16177357D01*
X14162500Y-16234500D01*
X14162500Y-16305929D01*
X14148214Y-16363071D01*
X14133928Y-16391643D01*
X14119643Y-16405929D01*
X14091071Y-16420214D01*
X14062500Y-16420214D01*
X14033928Y-16405929D01*
X14019643Y-16391643D01*
X14005357Y-16363071D01*
X13991071Y-16305929D01*
X13991071Y-16234500D01*
X14005357Y-16177357D01*
X14019643Y-16148786D01*
X14033928Y-16134500D01*
X14062500Y-16120214D01*
X14291071Y-16391643D02*
X14305357Y-16405929D01*
X14291071Y-16420214D01*
X14276786Y-16405929D01*
X14291071Y-16391643D01*
X14291071Y-16420214D01*
X14491071Y-16120214D02*
X14519643Y-16120214D01*
X14548214Y-16134500D01*
X14562500Y-16148786D01*
X14576786Y-16177357D01*
X14591071Y-16234500D01*
X14591071Y-16305929D01*
X14576786Y-16363071D01*
X14562500Y-16391643D01*
X14548214Y-16405929D01*
X14519643Y-16420214D01*
X14491071Y-16420214D01*
X14462500Y-16405929D01*
X14448214Y-16391643D01*
X14433928Y-16363071D01*
X14419643Y-16305929D01*
X14419643Y-16234500D01*
X14433928Y-16177357D01*
X14448214Y-16148786D01*
X14462500Y-16134500D01*
X14491071Y-16120214D01*
X14705357Y-16148786D02*
X14719643Y-16134500D01*
X14748214Y-16120214D01*
X14819643Y-16120214D01*
X14848214Y-16134500D01*
X14862500Y-16148786D01*
X14876786Y-16177357D01*
X14876786Y-16205929D01*
X14862500Y-16248786D01*
X14691071Y-16420214D01*
X14876786Y-16420214D01*
X15133928Y-16220214D02*
X15133928Y-16420214D01*
X15062500Y-16105929D02*
X14991071Y-16320214D01*
X15176786Y-16320214D01*
X15276786Y-16120214D02*
X15276786Y-16177357D01*
X15391071Y-16120214D02*
X15391071Y-16177357D01*
X15833928Y-16534500D02*
X15819643Y-16520214D01*
X15791071Y-16477357D01*
X15776786Y-16448786D01*
X15762500Y-16405929D01*
X15748214Y-16334500D01*
X15748214Y-16277357D01*
X15762500Y-16205929D01*
X15776786Y-16163071D01*
X15791071Y-16134500D01*
X15819643Y-16091643D01*
X15833928Y-16077357D01*
X16076786Y-16120214D02*
X16019643Y-16120214D01*
X15991071Y-16134500D01*
X15976786Y-16148786D01*
X15948214Y-16191643D01*
X15933928Y-16248786D01*
X15933928Y-16363071D01*
X15948214Y-16391643D01*
X15962500Y-16405929D01*
X15991071Y-16420214D01*
X16048214Y-16420214D01*
X16076786Y-16405929D01*
X16091071Y-16391643D01*
X16105357Y-16363071D01*
X16105357Y-16291643D01*
X16091071Y-16263071D01*
X16076786Y-16248786D01*
X16048214Y-16234500D01*
X15991071Y-16234500D01*
X15962500Y-16248786D01*
X15948214Y-16263071D01*
X15933928Y-16291643D01*
X16462500Y-16420214D02*
X16462500Y-16120214D01*
X16591071Y-16420214D02*
X16591071Y-16263071D01*
X16576786Y-16234500D01*
X16548214Y-16220214D01*
X16505357Y-16220214D01*
X16476786Y-16234500D01*
X16462500Y-16248786D01*
X16776786Y-16420214D02*
X16748214Y-16405929D01*
X16733928Y-16391643D01*
X16719643Y-16363071D01*
X16719643Y-16277357D01*
X16733928Y-16248786D01*
X16748214Y-16234500D01*
X16776786Y-16220214D01*
X16819643Y-16220214D01*
X16848214Y-16234500D01*
X16862500Y-16248786D01*
X16876786Y-16277357D01*
X16876786Y-16363071D01*
X16862500Y-16391643D01*
X16848214Y-16405929D01*
X16819643Y-16420214D01*
X16776786Y-16420214D01*
X17048214Y-16420214D02*
X17019643Y-16405929D01*
X17005357Y-16377357D01*
X17005357Y-16120214D01*
X17276786Y-16405929D02*
X17248214Y-16420214D01*
X17191071Y-16420214D01*
X17162500Y-16405929D01*
X17148214Y-16377357D01*
X17148214Y-16263071D01*
X17162500Y-16234500D01*
X17191071Y-16220214D01*
X17248214Y-16220214D01*
X17276786Y-16234500D01*
X17291071Y-16263071D01*
X17291071Y-16291643D01*
X17148214Y-16320214D01*
X17405357Y-16405929D02*
X17433928Y-16420214D01*
X17491071Y-16420214D01*
X17519643Y-16405929D01*
X17533928Y-16377357D01*
X17533928Y-16363071D01*
X17519643Y-16334500D01*
X17491071Y-16320214D01*
X17448214Y-16320214D01*
X17419643Y-16305929D01*
X17405357Y-16277357D01*
X17405357Y-16263071D01*
X17419643Y-16234500D01*
X17448214Y-16220214D01*
X17491071Y-16220214D01*
X17519643Y-16234500D01*
X17633928Y-16534500D02*
X17648214Y-16520214D01*
X17676786Y-16477357D01*
X17691071Y-16448786D01*
X17705357Y-16405929D01*
X17719643Y-16334500D01*
X17719643Y-16277357D01*
X17705357Y-16205929D01*
X17691071Y-16163071D01*
X17676786Y-16134500D01*
X17648214Y-16091643D01*
X17633928Y-16077357D01*
X11135784Y-16708785D02*
X11135784Y-16652216D01*
X11079215Y-16652216D01*
X11079215Y-16708785D01*
X11135784Y-16708785D01*
X11491071Y-16516214D02*
X11519643Y-16516214D01*
X11548214Y-16530500D01*
X11562500Y-16544786D01*
X11576786Y-16573357D01*
X11591071Y-16630500D01*
X11591071Y-16701929D01*
X11576786Y-16759071D01*
X11562500Y-16787643D01*
X11548214Y-16801929D01*
X11519643Y-16816214D01*
X11491071Y-16816214D01*
X11462500Y-16801929D01*
X11448214Y-16787643D01*
X11433928Y-16759071D01*
X11419643Y-16701929D01*
X11419643Y-16630500D01*
X11433928Y-16573357D01*
X11448214Y-16544786D01*
X11462500Y-16530500D01*
X11491071Y-16516214D01*
X11719643Y-16787643D02*
X11733928Y-16801929D01*
X11719643Y-16816214D01*
X11705357Y-16801929D01*
X11719643Y-16787643D01*
X11719643Y-16816214D01*
X11905357Y-16644786D02*
X11876786Y-16630500D01*
X11862500Y-16616214D01*
X11848214Y-16587643D01*
X11848214Y-16573357D01*
X11862500Y-16544786D01*
X11876786Y-16530500D01*
X11905357Y-16516214D01*
X11962500Y-16516214D01*
X11991071Y-16530500D01*
X12005357Y-16544786D01*
X12019643Y-16573357D01*
X12019643Y-16587643D01*
X12005357Y-16616214D01*
X11991071Y-16630500D01*
X11962500Y-16644786D01*
X11905357Y-16644786D01*
X11876786Y-16659071D01*
X11862500Y-16673357D01*
X11848214Y-16701929D01*
X11848214Y-16759071D01*
X11862500Y-16787643D01*
X11876786Y-16801929D01*
X11905357Y-16816214D01*
X11962500Y-16816214D01*
X11991071Y-16801929D01*
X12005357Y-16787643D01*
X12019643Y-16759071D01*
X12019643Y-16701929D01*
X12005357Y-16673357D01*
X11991071Y-16659071D01*
X11962500Y-16644786D01*
X12205357Y-16516214D02*
X12233928Y-16516214D01*
X12262500Y-16530500D01*
X12276786Y-16544786D01*
X12291071Y-16573357D01*
X12305357Y-16630500D01*
X12305357Y-16701929D01*
X12291071Y-16759071D01*
X12276786Y-16787643D01*
X12262500Y-16801929D01*
X12233928Y-16816214D01*
X12205357Y-16816214D01*
X12176786Y-16801929D01*
X12162500Y-16787643D01*
X12148214Y-16759071D01*
X12133928Y-16701929D01*
X12133928Y-16630500D01*
X12148214Y-16573357D01*
X12162500Y-16544786D01*
X12176786Y-16530500D01*
X12205357Y-16516214D01*
X12433928Y-16816214D02*
X12433928Y-16616214D01*
X12433928Y-16644786D02*
X12448214Y-16630500D01*
X12476786Y-16616214D01*
X12519643Y-16616214D01*
X12548214Y-16630500D01*
X12562500Y-16659071D01*
X12562500Y-16816214D01*
X12562500Y-16659071D02*
X12576786Y-16630500D01*
X12605357Y-16616214D01*
X12648214Y-16616214D01*
X12676786Y-16630500D01*
X12691071Y-16659071D01*
X12691071Y-16816214D01*
X12833928Y-16816214D02*
X12833928Y-16616214D01*
X12833928Y-16644786D02*
X12848214Y-16630500D01*
X12876786Y-16616214D01*
X12919643Y-16616214D01*
X12948214Y-16630500D01*
X12962500Y-16659071D01*
X12962500Y-16816214D01*
X12962500Y-16659071D02*
X12976786Y-16630500D01*
X13005357Y-16616214D01*
X13048214Y-16616214D01*
X13076786Y-16630500D01*
X13091071Y-16659071D01*
X13091071Y-16816214D01*
X13676786Y-16501929D02*
X13419643Y-16887643D01*
X14062500Y-16516214D02*
X14091071Y-16516214D01*
X14119643Y-16530500D01*
X14133928Y-16544786D01*
X14148214Y-16573357D01*
X14162500Y-16630500D01*
X14162500Y-16701929D01*
X14148214Y-16759071D01*
X14133928Y-16787643D01*
X14119643Y-16801929D01*
X14091071Y-16816214D01*
X14062500Y-16816214D01*
X14033928Y-16801929D01*
X14019643Y-16787643D01*
X14005357Y-16759071D01*
X13991071Y-16701929D01*
X13991071Y-16630500D01*
X14005357Y-16573357D01*
X14019643Y-16544786D01*
X14033928Y-16530500D01*
X14062500Y-16516214D01*
X14291071Y-16787643D02*
X14305357Y-16801929D01*
X14291071Y-16816214D01*
X14276786Y-16801929D01*
X14291071Y-16787643D01*
X14291071Y-16816214D01*
X14491071Y-16516214D02*
X14519643Y-16516214D01*
X14548214Y-16530500D01*
X14562500Y-16544786D01*
X14576786Y-16573357D01*
X14591071Y-16630500D01*
X14591071Y-16701929D01*
X14576786Y-16759071D01*
X14562500Y-16787643D01*
X14548214Y-16801929D01*
X14519643Y-16816214D01*
X14491071Y-16816214D01*
X14462500Y-16801929D01*
X14448214Y-16787643D01*
X14433928Y-16759071D01*
X14419643Y-16701929D01*
X14419643Y-16630500D01*
X14433928Y-16573357D01*
X14448214Y-16544786D01*
X14462500Y-16530500D01*
X14491071Y-16516214D01*
X14691071Y-16516214D02*
X14876786Y-16516214D01*
X14776786Y-16630500D01*
X14819643Y-16630500D01*
X14848214Y-16644786D01*
X14862500Y-16659071D01*
X14876786Y-16687643D01*
X14876786Y-16759071D01*
X14862500Y-16787643D01*
X14848214Y-16801929D01*
X14819643Y-16816214D01*
X14733928Y-16816214D01*
X14705357Y-16801929D01*
X14691071Y-16787643D01*
X15162500Y-16816214D02*
X14991071Y-16816214D01*
X15076786Y-16816214D02*
X15076786Y-16516214D01*
X15048214Y-16559071D01*
X15019643Y-16587643D01*
X14991071Y-16601929D01*
X15276786Y-16516214D02*
X15276786Y-16573357D01*
X15391071Y-16516214D02*
X15391071Y-16573357D01*
X15833928Y-16930500D02*
X15819643Y-16916214D01*
X15791071Y-16873357D01*
X15776786Y-16844786D01*
X15762500Y-16801929D01*
X15748214Y-16730500D01*
X15748214Y-16673357D01*
X15762500Y-16601929D01*
X15776786Y-16559071D01*
X15791071Y-16530500D01*
X15819643Y-16487643D01*
X15833928Y-16473357D01*
X15991071Y-16644786D02*
X15962500Y-16630500D01*
X15948214Y-16616214D01*
X15933928Y-16587643D01*
X15933928Y-16573357D01*
X15948214Y-16544786D01*
X15962500Y-16530500D01*
X15991071Y-16516214D01*
X16048214Y-16516214D01*
X16076786Y-16530500D01*
X16091071Y-16544786D01*
X16105357Y-16573357D01*
X16105357Y-16587643D01*
X16091071Y-16616214D01*
X16076786Y-16630500D01*
X16048214Y-16644786D01*
X15991071Y-16644786D01*
X15962500Y-16659071D01*
X15948214Y-16673357D01*
X15933928Y-16701929D01*
X15933928Y-16759071D01*
X15948214Y-16787643D01*
X15962500Y-16801929D01*
X15991071Y-16816214D01*
X16048214Y-16816214D01*
X16076786Y-16801929D01*
X16091071Y-16787643D01*
X16105357Y-16759071D01*
X16105357Y-16701929D01*
X16091071Y-16673357D01*
X16076786Y-16659071D01*
X16048214Y-16644786D01*
X16462500Y-16816214D02*
X16462500Y-16516214D01*
X16591071Y-16816214D02*
X16591071Y-16659071D01*
X16576786Y-16630500D01*
X16548214Y-16616214D01*
X16505357Y-16616214D01*
X16476786Y-16630500D01*
X16462500Y-16644786D01*
X16776786Y-16816214D02*
X16748214Y-16801929D01*
X16733928Y-16787643D01*
X16719643Y-16759071D01*
X16719643Y-16673357D01*
X16733928Y-16644786D01*
X16748214Y-16630500D01*
X16776786Y-16616214D01*
X16819643Y-16616214D01*
X16848214Y-16630500D01*
X16862500Y-16644786D01*
X16876786Y-16673357D01*
X16876786Y-16759071D01*
X16862500Y-16787643D01*
X16848214Y-16801929D01*
X16819643Y-16816214D01*
X16776786Y-16816214D01*
X17048214Y-16816214D02*
X17019643Y-16801929D01*
X17005357Y-16773357D01*
X17005357Y-16516214D01*
X17276786Y-16801929D02*
X17248214Y-16816214D01*
X17191071Y-16816214D01*
X17162500Y-16801929D01*
X17148214Y-16773357D01*
X17148214Y-16659071D01*
X17162500Y-16630500D01*
X17191071Y-16616214D01*
X17248214Y-16616214D01*
X17276786Y-16630500D01*
X17291071Y-16659071D01*
X17291071Y-16687643D01*
X17148214Y-16716214D01*
X17405357Y-16801929D02*
X17433928Y-16816214D01*
X17491071Y-16816214D01*
X17519643Y-16801929D01*
X17533928Y-16773357D01*
X17533928Y-16759071D01*
X17519643Y-16730500D01*
X17491071Y-16716214D01*
X17448214Y-16716214D01*
X17419643Y-16701929D01*
X17405357Y-16673357D01*
X17405357Y-16659071D01*
X17419643Y-16630500D01*
X17448214Y-16616214D01*
X17491071Y-16616214D01*
X17519643Y-16630500D01*
X17633928Y-16930500D02*
X17648214Y-16916214D01*
X17676786Y-16873357D01*
X17691071Y-16844786D01*
X17705357Y-16801929D01*
X17719643Y-16730500D01*
X17719643Y-16673357D01*
X17705357Y-16601929D01*
X17691071Y-16559071D01*
X17676786Y-16530500D01*
X17648214Y-16487643D01*
X17633928Y-16473357D01*
X11105000Y-17119000D02*
X11147500Y-17076500D01*
X11105000Y-17034000D01*
X11062500Y-17076500D01*
X11105000Y-17119000D01*
X11491071Y-16912214D02*
X11519643Y-16912214D01*
X11548214Y-16926500D01*
X11562500Y-16940786D01*
X11576786Y-16969357D01*
X11591071Y-17026500D01*
X11591071Y-17097929D01*
X11576786Y-17155072D01*
X11562500Y-17183643D01*
X11548214Y-17197929D01*
X11519643Y-17212214D01*
X11491071Y-17212214D01*
X11462500Y-17197929D01*
X11448214Y-17183643D01*
X11433928Y-17155072D01*
X11419643Y-17097929D01*
X11419643Y-17026500D01*
X11433928Y-16969357D01*
X11448214Y-16940786D01*
X11462500Y-16926500D01*
X11491071Y-16912214D01*
X11719643Y-17183643D02*
X11733928Y-17197929D01*
X11719643Y-17212214D01*
X11705357Y-17197929D01*
X11719643Y-17183643D01*
X11719643Y-17212214D01*
X11905357Y-17040786D02*
X11876786Y-17026500D01*
X11862500Y-17012214D01*
X11848214Y-16983643D01*
X11848214Y-16969357D01*
X11862500Y-16940786D01*
X11876786Y-16926500D01*
X11905357Y-16912214D01*
X11962500Y-16912214D01*
X11991071Y-16926500D01*
X12005357Y-16940786D01*
X12019643Y-16969357D01*
X12019643Y-16983643D01*
X12005357Y-17012214D01*
X11991071Y-17026500D01*
X11962500Y-17040786D01*
X11905357Y-17040786D01*
X11876786Y-17055072D01*
X11862500Y-17069357D01*
X11848214Y-17097929D01*
X11848214Y-17155072D01*
X11862500Y-17183643D01*
X11876786Y-17197929D01*
X11905357Y-17212214D01*
X11962500Y-17212214D01*
X11991071Y-17197929D01*
X12005357Y-17183643D01*
X12019643Y-17155072D01*
X12019643Y-17097929D01*
X12005357Y-17069357D01*
X11991071Y-17055072D01*
X11962500Y-17040786D01*
X12291071Y-16912214D02*
X12148214Y-16912214D01*
X12133928Y-17055072D01*
X12148214Y-17040786D01*
X12176786Y-17026500D01*
X12248214Y-17026500D01*
X12276786Y-17040786D01*
X12291071Y-17055072D01*
X12305357Y-17083643D01*
X12305357Y-17155072D01*
X12291071Y-17183643D01*
X12276786Y-17197929D01*
X12248214Y-17212214D01*
X12176786Y-17212214D01*
X12148214Y-17197929D01*
X12133928Y-17183643D01*
X12433928Y-17212214D02*
X12433928Y-17012214D01*
X12433928Y-17040786D02*
X12448214Y-17026500D01*
X12476786Y-17012214D01*
X12519643Y-17012214D01*
X12548214Y-17026500D01*
X12562500Y-17055072D01*
X12562500Y-17212214D01*
X12562500Y-17055072D02*
X12576786Y-17026500D01*
X12605357Y-17012214D01*
X12648214Y-17012214D01*
X12676786Y-17026500D01*
X12691071Y-17055072D01*
X12691071Y-17212214D01*
X12833928Y-17212214D02*
X12833928Y-17012214D01*
X12833928Y-17040786D02*
X12848214Y-17026500D01*
X12876786Y-17012214D01*
X12919643Y-17012214D01*
X12948214Y-17026500D01*
X12962500Y-17055072D01*
X12962500Y-17212214D01*
X12962500Y-17055072D02*
X12976786Y-17026500D01*
X13005357Y-17012214D01*
X13048214Y-17012214D01*
X13076786Y-17026500D01*
X13091071Y-17055072D01*
X13091071Y-17212214D01*
X13676786Y-16897929D02*
X13419643Y-17283643D01*
X14062500Y-16912214D02*
X14091071Y-16912214D01*
X14119643Y-16926500D01*
X14133928Y-16940786D01*
X14148214Y-16969357D01*
X14162500Y-17026500D01*
X14162500Y-17097929D01*
X14148214Y-17155072D01*
X14133928Y-17183643D01*
X14119643Y-17197929D01*
X14091071Y-17212214D01*
X14062500Y-17212214D01*
X14033928Y-17197929D01*
X14019643Y-17183643D01*
X14005357Y-17155072D01*
X13991071Y-17097929D01*
X13991071Y-17026500D01*
X14005357Y-16969357D01*
X14019643Y-16940786D01*
X14033928Y-16926500D01*
X14062500Y-16912214D01*
X14291071Y-17183643D02*
X14305357Y-17197929D01*
X14291071Y-17212214D01*
X14276786Y-17197929D01*
X14291071Y-17183643D01*
X14291071Y-17212214D01*
X14491071Y-16912214D02*
X14519643Y-16912214D01*
X14548214Y-16926500D01*
X14562500Y-16940786D01*
X14576786Y-16969357D01*
X14591071Y-17026500D01*
X14591071Y-17097929D01*
X14576786Y-17155072D01*
X14562500Y-17183643D01*
X14548214Y-17197929D01*
X14519643Y-17212214D01*
X14491071Y-17212214D01*
X14462500Y-17197929D01*
X14448214Y-17183643D01*
X14433928Y-17155072D01*
X14419643Y-17097929D01*
X14419643Y-17026500D01*
X14433928Y-16969357D01*
X14448214Y-16940786D01*
X14462500Y-16926500D01*
X14491071Y-16912214D01*
X14691071Y-16912214D02*
X14876786Y-16912214D01*
X14776786Y-17026500D01*
X14819643Y-17026500D01*
X14848214Y-17040786D01*
X14862500Y-17055072D01*
X14876786Y-17083643D01*
X14876786Y-17155072D01*
X14862500Y-17183643D01*
X14848214Y-17197929D01*
X14819643Y-17212214D01*
X14733928Y-17212214D01*
X14705357Y-17197929D01*
X14691071Y-17183643D01*
X14976786Y-16912214D02*
X15162500Y-16912214D01*
X15062500Y-17026500D01*
X15105357Y-17026500D01*
X15133928Y-17040786D01*
X15148214Y-17055072D01*
X15162500Y-17083643D01*
X15162500Y-17155072D01*
X15148214Y-17183643D01*
X15133928Y-17197929D01*
X15105357Y-17212214D01*
X15019643Y-17212214D01*
X14991071Y-17197929D01*
X14976786Y-17183643D01*
X15276786Y-16912214D02*
X15276786Y-16969357D01*
X15391071Y-16912214D02*
X15391071Y-16969357D01*
X15833928Y-17326500D02*
X15819643Y-17312214D01*
X15791071Y-17269357D01*
X15776786Y-17240786D01*
X15762500Y-17197929D01*
X15748214Y-17126500D01*
X15748214Y-17069357D01*
X15762500Y-16997929D01*
X15776786Y-16955072D01*
X15791071Y-16926500D01*
X15819643Y-16883643D01*
X15833928Y-16869357D01*
X15962500Y-17212214D02*
X16019643Y-17212214D01*
X16048214Y-17197929D01*
X16062500Y-17183643D01*
X16091071Y-17140786D01*
X16105357Y-17083643D01*
X16105357Y-16969357D01*
X16091071Y-16940786D01*
X16076786Y-16926500D01*
X16048214Y-16912214D01*
X15991071Y-16912214D01*
X15962500Y-16926500D01*
X15948214Y-16940786D01*
X15933928Y-16969357D01*
X15933928Y-17040786D01*
X15948214Y-17069357D01*
X15962500Y-17083643D01*
X15991071Y-17097929D01*
X16048214Y-17097929D01*
X16076786Y-17083643D01*
X16091071Y-17069357D01*
X16105357Y-17040786D01*
X16462500Y-17212214D02*
X16462500Y-16912214D01*
X16591071Y-17212214D02*
X16591071Y-17055072D01*
X16576786Y-17026500D01*
X16548214Y-17012214D01*
X16505357Y-17012214D01*
X16476786Y-17026500D01*
X16462500Y-17040786D01*
X16776786Y-17212214D02*
X16748214Y-17197929D01*
X16733928Y-17183643D01*
X16719643Y-17155072D01*
X16719643Y-17069357D01*
X16733928Y-17040786D01*
X16748214Y-17026500D01*
X16776786Y-17012214D01*
X16819643Y-17012214D01*
X16848214Y-17026500D01*
X16862500Y-17040786D01*
X16876786Y-17069357D01*
X16876786Y-17155072D01*
X16862500Y-17183643D01*
X16848214Y-17197929D01*
X16819643Y-17212214D01*
X16776786Y-17212214D01*
X17048214Y-17212214D02*
X17019643Y-17197929D01*
X17005357Y-17169357D01*
X17005357Y-16912214D01*
X17276786Y-17197929D02*
X17248214Y-17212214D01*
X17191071Y-17212214D01*
X17162500Y-17197929D01*
X17148214Y-17169357D01*
X17148214Y-17055072D01*
X17162500Y-17026500D01*
X17191071Y-17012214D01*
X17248214Y-17012214D01*
X17276786Y-17026500D01*
X17291071Y-17055072D01*
X17291071Y-17083643D01*
X17148214Y-17112214D01*
X17405357Y-17197929D02*
X17433928Y-17212214D01*
X17491071Y-17212214D01*
X17519643Y-17197929D01*
X17533928Y-17169357D01*
X17533928Y-17155072D01*
X17519643Y-17126500D01*
X17491071Y-17112214D01*
X17448214Y-17112214D01*
X17419643Y-17097929D01*
X17405357Y-17069357D01*
X17405357Y-17055072D01*
X17419643Y-17026500D01*
X17448214Y-17012214D01*
X17491071Y-17012214D01*
X17519643Y-17026500D01*
X17891071Y-17097929D02*
X18119643Y-17097929D01*
X18005357Y-17212214D02*
X18005357Y-16983643D01*
X18476786Y-16940786D02*
X18491071Y-16926500D01*
X18519643Y-16912214D01*
X18591071Y-16912214D01*
X18619643Y-16926500D01*
X18633928Y-16940786D01*
X18648214Y-16969357D01*
X18648214Y-16997929D01*
X18633928Y-17040786D01*
X18462500Y-17212214D01*
X18648214Y-17212214D01*
X18991071Y-17197929D02*
X19019643Y-17212214D01*
X19076786Y-17212214D01*
X19105357Y-17197929D01*
X19119643Y-17169357D01*
X19119643Y-17155072D01*
X19105357Y-17126500D01*
X19076786Y-17112214D01*
X19033928Y-17112214D01*
X19005357Y-17097929D01*
X18991071Y-17069357D01*
X18991071Y-17055072D01*
X19005357Y-17026500D01*
X19033928Y-17012214D01*
X19076786Y-17012214D01*
X19105357Y-17026500D01*
X19291071Y-17212214D02*
X19262500Y-17197929D01*
X19248214Y-17169357D01*
X19248214Y-16912214D01*
X19448214Y-17212214D02*
X19419643Y-17197929D01*
X19405357Y-17183643D01*
X19391071Y-17155072D01*
X19391071Y-17069357D01*
X19405357Y-17040786D01*
X19419643Y-17026500D01*
X19448214Y-17012214D01*
X19491071Y-17012214D01*
X19519643Y-17026500D01*
X19533928Y-17040786D01*
X19548214Y-17069357D01*
X19548214Y-17155072D01*
X19533928Y-17183643D01*
X19519643Y-17197929D01*
X19491071Y-17212214D01*
X19448214Y-17212214D01*
X19633928Y-17012214D02*
X19748214Y-17012214D01*
X19676786Y-16912214D02*
X19676786Y-17169357D01*
X19691071Y-17197929D01*
X19719643Y-17212214D01*
X19748214Y-17212214D01*
X19833928Y-17197929D02*
X19862500Y-17212214D01*
X19919643Y-17212214D01*
X19948214Y-17197929D01*
X19962500Y-17169357D01*
X19962500Y-17155072D01*
X19948214Y-17126500D01*
X19919643Y-17112214D01*
X19876786Y-17112214D01*
X19848214Y-17097929D01*
X19833928Y-17069357D01*
X19833928Y-17055072D01*
X19848214Y-17026500D01*
X19876786Y-17012214D01*
X19919643Y-17012214D01*
X19948214Y-17026500D01*
X20062500Y-17326500D02*
X20076786Y-17312214D01*
X20105357Y-17269357D01*
X20119643Y-17240786D01*
X20133928Y-17197929D01*
X20148214Y-17126500D01*
X20148214Y-17069357D01*
X20133928Y-16997929D01*
X20119643Y-16955072D01*
X20105357Y-16926500D01*
X20076786Y-16883643D01*
X20062500Y-16869357D01*
X11047500Y-17422500D02*
X11147500Y-17522500D01*
X11147500Y-17422500D02*
X11047500Y-17522500D01*
X11147500Y-17472500D02*
G75*
G03*
X11147500Y-17472500I-50000J0D01*
G01*
X11591071Y-17608214D02*
X11419643Y-17608214D01*
X11505357Y-17608214D02*
X11505357Y-17308214D01*
X11476786Y-17351072D01*
X11448214Y-17379643D01*
X11419643Y-17393929D01*
X11719643Y-17579643D02*
X11733928Y-17593929D01*
X11719643Y-17608214D01*
X11705357Y-17593929D01*
X11719643Y-17579643D01*
X11719643Y-17608214D01*
X11919643Y-17308214D02*
X11948214Y-17308214D01*
X11976786Y-17322500D01*
X11991071Y-17336786D01*
X12005357Y-17365357D01*
X12019643Y-17422500D01*
X12019643Y-17493929D01*
X12005357Y-17551072D01*
X11991071Y-17579643D01*
X11976786Y-17593929D01*
X11948214Y-17608214D01*
X11919643Y-17608214D01*
X11891071Y-17593929D01*
X11876786Y-17579643D01*
X11862500Y-17551072D01*
X11848214Y-17493929D01*
X11848214Y-17422500D01*
X11862500Y-17365357D01*
X11876786Y-17336786D01*
X11891071Y-17322500D01*
X11919643Y-17308214D01*
X12205357Y-17308214D02*
X12233928Y-17308214D01*
X12262500Y-17322500D01*
X12276786Y-17336786D01*
X12291071Y-17365357D01*
X12305357Y-17422500D01*
X12305357Y-17493929D01*
X12291071Y-17551072D01*
X12276786Y-17579643D01*
X12262500Y-17593929D01*
X12233928Y-17608214D01*
X12205357Y-17608214D01*
X12176786Y-17593929D01*
X12162500Y-17579643D01*
X12148214Y-17551072D01*
X12133928Y-17493929D01*
X12133928Y-17422500D01*
X12148214Y-17365357D01*
X12162500Y-17336786D01*
X12176786Y-17322500D01*
X12205357Y-17308214D01*
X12433928Y-17608214D02*
X12433928Y-17408214D01*
X12433928Y-17436786D02*
X12448214Y-17422500D01*
X12476786Y-17408214D01*
X12519643Y-17408214D01*
X12548214Y-17422500D01*
X12562500Y-17451072D01*
X12562500Y-17608214D01*
X12562500Y-17451072D02*
X12576786Y-17422500D01*
X12605357Y-17408214D01*
X12648214Y-17408214D01*
X12676786Y-17422500D01*
X12691071Y-17451072D01*
X12691071Y-17608214D01*
X12833928Y-17608214D02*
X12833928Y-17408214D01*
X12833928Y-17436786D02*
X12848214Y-17422500D01*
X12876786Y-17408214D01*
X12919643Y-17408214D01*
X12948214Y-17422500D01*
X12962500Y-17451072D01*
X12962500Y-17608214D01*
X12962500Y-17451072D02*
X12976786Y-17422500D01*
X13005357Y-17408214D01*
X13048214Y-17408214D01*
X13076786Y-17422500D01*
X13091071Y-17451072D01*
X13091071Y-17608214D01*
X13676786Y-17293929D02*
X13419643Y-17679643D01*
X14062500Y-17308214D02*
X14091071Y-17308214D01*
X14119643Y-17322500D01*
X14133928Y-17336786D01*
X14148214Y-17365357D01*
X14162500Y-17422500D01*
X14162500Y-17493929D01*
X14148214Y-17551072D01*
X14133928Y-17579643D01*
X14119643Y-17593929D01*
X14091071Y-17608214D01*
X14062500Y-17608214D01*
X14033928Y-17593929D01*
X14019643Y-17579643D01*
X14005357Y-17551072D01*
X13991071Y-17493929D01*
X13991071Y-17422500D01*
X14005357Y-17365357D01*
X14019643Y-17336786D01*
X14033928Y-17322500D01*
X14062500Y-17308214D01*
X14291071Y-17579643D02*
X14305357Y-17593929D01*
X14291071Y-17608214D01*
X14276786Y-17593929D01*
X14291071Y-17579643D01*
X14291071Y-17608214D01*
X14491071Y-17308214D02*
X14519643Y-17308214D01*
X14548214Y-17322500D01*
X14562500Y-17336786D01*
X14576786Y-17365357D01*
X14591071Y-17422500D01*
X14591071Y-17493929D01*
X14576786Y-17551072D01*
X14562500Y-17579643D01*
X14548214Y-17593929D01*
X14519643Y-17608214D01*
X14491071Y-17608214D01*
X14462500Y-17593929D01*
X14448214Y-17579643D01*
X14433928Y-17551072D01*
X14419643Y-17493929D01*
X14419643Y-17422500D01*
X14433928Y-17365357D01*
X14448214Y-17336786D01*
X14462500Y-17322500D01*
X14491071Y-17308214D01*
X14691071Y-17308214D02*
X14876786Y-17308214D01*
X14776786Y-17422500D01*
X14819643Y-17422500D01*
X14848214Y-17436786D01*
X14862500Y-17451072D01*
X14876786Y-17479643D01*
X14876786Y-17551072D01*
X14862500Y-17579643D01*
X14848214Y-17593929D01*
X14819643Y-17608214D01*
X14733928Y-17608214D01*
X14705357Y-17593929D01*
X14691071Y-17579643D01*
X15019643Y-17608214D02*
X15076786Y-17608214D01*
X15105357Y-17593929D01*
X15119643Y-17579643D01*
X15148214Y-17536786D01*
X15162500Y-17479643D01*
X15162500Y-17365357D01*
X15148214Y-17336786D01*
X15133928Y-17322500D01*
X15105357Y-17308214D01*
X15048214Y-17308214D01*
X15019643Y-17322500D01*
X15005357Y-17336786D01*
X14991071Y-17365357D01*
X14991071Y-17436786D01*
X15005357Y-17465357D01*
X15019643Y-17479643D01*
X15048214Y-17493929D01*
X15105357Y-17493929D01*
X15133928Y-17479643D01*
X15148214Y-17465357D01*
X15162500Y-17436786D01*
X15276786Y-17308214D02*
X15276786Y-17365357D01*
X15391071Y-17308214D02*
X15391071Y-17365357D01*
X15833928Y-17722500D02*
X15819643Y-17708214D01*
X15791071Y-17665357D01*
X15776786Y-17636786D01*
X15762500Y-17593929D01*
X15748214Y-17522500D01*
X15748214Y-17465357D01*
X15762500Y-17393929D01*
X15776786Y-17351072D01*
X15791071Y-17322500D01*
X15819643Y-17279643D01*
X15833928Y-17265357D01*
X15962500Y-17608214D02*
X16019643Y-17608214D01*
X16048214Y-17593929D01*
X16062500Y-17579643D01*
X16091071Y-17536786D01*
X16105357Y-17479643D01*
X16105357Y-17365357D01*
X16091071Y-17336786D01*
X16076786Y-17322500D01*
X16048214Y-17308214D01*
X15991071Y-17308214D01*
X15962500Y-17322500D01*
X15948214Y-17336786D01*
X15933928Y-17365357D01*
X15933928Y-17436786D01*
X15948214Y-17465357D01*
X15962500Y-17479643D01*
X15991071Y-17493929D01*
X16048214Y-17493929D01*
X16076786Y-17479643D01*
X16091071Y-17465357D01*
X16105357Y-17436786D01*
X16462500Y-17608214D02*
X16462500Y-17308214D01*
X16591071Y-17608214D02*
X16591071Y-17451072D01*
X16576786Y-17422500D01*
X16548214Y-17408214D01*
X16505357Y-17408214D01*
X16476786Y-17422500D01*
X16462500Y-17436786D01*
X16776786Y-17608214D02*
X16748214Y-17593929D01*
X16733928Y-17579643D01*
X16719643Y-17551072D01*
X16719643Y-17465357D01*
X16733928Y-17436786D01*
X16748214Y-17422500D01*
X16776786Y-17408214D01*
X16819643Y-17408214D01*
X16848214Y-17422500D01*
X16862500Y-17436786D01*
X16876786Y-17465357D01*
X16876786Y-17551072D01*
X16862500Y-17579643D01*
X16848214Y-17593929D01*
X16819643Y-17608214D01*
X16776786Y-17608214D01*
X17048214Y-17608214D02*
X17019643Y-17593929D01*
X17005357Y-17565357D01*
X17005357Y-17308214D01*
X17276786Y-17593929D02*
X17248214Y-17608214D01*
X17191071Y-17608214D01*
X17162500Y-17593929D01*
X17148214Y-17565357D01*
X17148214Y-17451072D01*
X17162500Y-17422500D01*
X17191071Y-17408214D01*
X17248214Y-17408214D01*
X17276786Y-17422500D01*
X17291071Y-17451072D01*
X17291071Y-17479643D01*
X17148214Y-17508214D01*
X17405357Y-17593929D02*
X17433928Y-17608214D01*
X17491071Y-17608214D01*
X17519643Y-17593929D01*
X17533928Y-17565357D01*
X17533928Y-17551072D01*
X17519643Y-17522500D01*
X17491071Y-17508214D01*
X17448214Y-17508214D01*
X17419643Y-17493929D01*
X17405357Y-17465357D01*
X17405357Y-17451072D01*
X17419643Y-17422500D01*
X17448214Y-17408214D01*
X17491071Y-17408214D01*
X17519643Y-17422500D01*
X17633928Y-17722500D02*
X17648214Y-17708214D01*
X17676786Y-17665357D01*
X17691071Y-17636786D01*
X17705357Y-17593929D01*
X17719643Y-17522500D01*
X17719643Y-17465357D01*
X17705357Y-17393929D01*
X17691071Y-17351072D01*
X17676786Y-17322500D01*
X17648214Y-17279643D01*
X17633928Y-17265357D01*
X11037500Y-17813500D02*
X11147500Y-17923500D01*
X11147500Y-17813500D02*
X11037500Y-17923500D01*
X11092500Y-17813500D02*
X11092500Y-17923500D01*
X11037500Y-17868500D02*
X11147500Y-17868500D01*
X11591071Y-18004214D02*
X11419643Y-18004214D01*
X11505357Y-18004214D02*
X11505357Y-17704214D01*
X11476786Y-17747072D01*
X11448214Y-17775643D01*
X11419643Y-17789929D01*
X11719643Y-17975643D02*
X11733928Y-17989929D01*
X11719643Y-18004214D01*
X11705357Y-17989929D01*
X11719643Y-17975643D01*
X11719643Y-18004214D01*
X12019643Y-18004214D02*
X11848214Y-18004214D01*
X11933928Y-18004214D02*
X11933928Y-17704214D01*
X11905357Y-17747072D01*
X11876786Y-17775643D01*
X11848214Y-17789929D01*
X12205357Y-17704214D02*
X12233928Y-17704214D01*
X12262500Y-17718500D01*
X12276786Y-17732786D01*
X12291071Y-17761357D01*
X12305357Y-17818500D01*
X12305357Y-17889929D01*
X12291071Y-17947072D01*
X12276786Y-17975643D01*
X12262500Y-17989929D01*
X12233928Y-18004214D01*
X12205357Y-18004214D01*
X12176786Y-17989929D01*
X12162500Y-17975643D01*
X12148214Y-17947072D01*
X12133928Y-17889929D01*
X12133928Y-17818500D01*
X12148214Y-17761357D01*
X12162500Y-17732786D01*
X12176786Y-17718500D01*
X12205357Y-17704214D01*
X12433928Y-18004214D02*
X12433928Y-17804214D01*
X12433928Y-17832786D02*
X12448214Y-17818500D01*
X12476786Y-17804214D01*
X12519643Y-17804214D01*
X12548214Y-17818500D01*
X12562500Y-17847072D01*
X12562500Y-18004214D01*
X12562500Y-17847072D02*
X12576786Y-17818500D01*
X12605357Y-17804214D01*
X12648214Y-17804214D01*
X12676786Y-17818500D01*
X12691071Y-17847072D01*
X12691071Y-18004214D01*
X12833928Y-18004214D02*
X12833928Y-17804214D01*
X12833928Y-17832786D02*
X12848214Y-17818500D01*
X12876786Y-17804214D01*
X12919643Y-17804214D01*
X12948214Y-17818500D01*
X12962500Y-17847072D01*
X12962500Y-18004214D01*
X12962500Y-17847072D02*
X12976786Y-17818500D01*
X13005357Y-17804214D01*
X13048214Y-17804214D01*
X13076786Y-17818500D01*
X13091071Y-17847072D01*
X13091071Y-18004214D01*
X13676786Y-17689929D02*
X13419643Y-18075643D01*
X14062500Y-17704214D02*
X14091071Y-17704214D01*
X14119643Y-17718500D01*
X14133928Y-17732786D01*
X14148214Y-17761357D01*
X14162500Y-17818500D01*
X14162500Y-17889929D01*
X14148214Y-17947072D01*
X14133928Y-17975643D01*
X14119643Y-17989929D01*
X14091071Y-18004214D01*
X14062500Y-18004214D01*
X14033928Y-17989929D01*
X14019643Y-17975643D01*
X14005357Y-17947072D01*
X13991071Y-17889929D01*
X13991071Y-17818500D01*
X14005357Y-17761357D01*
X14019643Y-17732786D01*
X14033928Y-17718500D01*
X14062500Y-17704214D01*
X14291071Y-17975643D02*
X14305357Y-17989929D01*
X14291071Y-18004214D01*
X14276786Y-17989929D01*
X14291071Y-17975643D01*
X14291071Y-18004214D01*
X14491071Y-17704214D02*
X14519643Y-17704214D01*
X14548214Y-17718500D01*
X14562500Y-17732786D01*
X14576786Y-17761357D01*
X14591071Y-17818500D01*
X14591071Y-17889929D01*
X14576786Y-17947072D01*
X14562500Y-17975643D01*
X14548214Y-17989929D01*
X14519643Y-18004214D01*
X14491071Y-18004214D01*
X14462500Y-17989929D01*
X14448214Y-17975643D01*
X14433928Y-17947072D01*
X14419643Y-17889929D01*
X14419643Y-17818500D01*
X14433928Y-17761357D01*
X14448214Y-17732786D01*
X14462500Y-17718500D01*
X14491071Y-17704214D01*
X14848214Y-17804214D02*
X14848214Y-18004214D01*
X14776786Y-17689929D02*
X14705357Y-17904214D01*
X14891071Y-17904214D01*
X14976786Y-17704214D02*
X15162500Y-17704214D01*
X15062500Y-17818500D01*
X15105357Y-17818500D01*
X15133928Y-17832786D01*
X15148214Y-17847072D01*
X15162500Y-17875643D01*
X15162500Y-17947072D01*
X15148214Y-17975643D01*
X15133928Y-17989929D01*
X15105357Y-18004214D01*
X15019643Y-18004214D01*
X14991071Y-17989929D01*
X14976786Y-17975643D01*
X15276786Y-17704214D02*
X15276786Y-17761357D01*
X15391071Y-17704214D02*
X15391071Y-17761357D01*
X15833928Y-18118500D02*
X15819643Y-18104214D01*
X15791071Y-18061357D01*
X15776786Y-18032786D01*
X15762500Y-17989929D01*
X15748214Y-17918500D01*
X15748214Y-17861357D01*
X15762500Y-17789929D01*
X15776786Y-17747072D01*
X15791071Y-17718500D01*
X15819643Y-17675643D01*
X15833928Y-17661357D01*
X15991071Y-17832786D02*
X15962500Y-17818500D01*
X15948214Y-17804214D01*
X15933928Y-17775643D01*
X15933928Y-17761357D01*
X15948214Y-17732786D01*
X15962500Y-17718500D01*
X15991071Y-17704214D01*
X16048214Y-17704214D01*
X16076786Y-17718500D01*
X16091071Y-17732786D01*
X16105357Y-17761357D01*
X16105357Y-17775643D01*
X16091071Y-17804214D01*
X16076786Y-17818500D01*
X16048214Y-17832786D01*
X15991071Y-17832786D01*
X15962500Y-17847072D01*
X15948214Y-17861357D01*
X15933928Y-17889929D01*
X15933928Y-17947072D01*
X15948214Y-17975643D01*
X15962500Y-17989929D01*
X15991071Y-18004214D01*
X16048214Y-18004214D01*
X16076786Y-17989929D01*
X16091071Y-17975643D01*
X16105357Y-17947072D01*
X16105357Y-17889929D01*
X16091071Y-17861357D01*
X16076786Y-17847072D01*
X16048214Y-17832786D01*
X16462500Y-18004214D02*
X16462500Y-17704214D01*
X16591071Y-18004214D02*
X16591071Y-17847072D01*
X16576786Y-17818500D01*
X16548214Y-17804214D01*
X16505357Y-17804214D01*
X16476786Y-17818500D01*
X16462500Y-17832786D01*
X16776786Y-18004214D02*
X16748214Y-17989929D01*
X16733928Y-17975643D01*
X16719643Y-17947072D01*
X16719643Y-17861357D01*
X16733928Y-17832786D01*
X16748214Y-17818500D01*
X16776786Y-17804214D01*
X16819643Y-17804214D01*
X16848214Y-17818500D01*
X16862500Y-17832786D01*
X16876786Y-17861357D01*
X16876786Y-17947072D01*
X16862500Y-17975643D01*
X16848214Y-17989929D01*
X16819643Y-18004214D01*
X16776786Y-18004214D01*
X17048214Y-18004214D02*
X17019643Y-17989929D01*
X17005357Y-17961357D01*
X17005357Y-17704214D01*
X17276786Y-17989929D02*
X17248214Y-18004214D01*
X17191071Y-18004214D01*
X17162500Y-17989929D01*
X17148214Y-17961357D01*
X17148214Y-17847072D01*
X17162500Y-17818500D01*
X17191071Y-17804214D01*
X17248214Y-17804214D01*
X17276786Y-17818500D01*
X17291071Y-17847072D01*
X17291071Y-17875643D01*
X17148214Y-17904214D01*
X17405357Y-17989929D02*
X17433928Y-18004214D01*
X17491071Y-18004214D01*
X17519643Y-17989929D01*
X17533928Y-17961357D01*
X17533928Y-17947072D01*
X17519643Y-17918500D01*
X17491071Y-17904214D01*
X17448214Y-17904214D01*
X17419643Y-17889929D01*
X17405357Y-17861357D01*
X17405357Y-17847072D01*
X17419643Y-17818500D01*
X17448214Y-17804214D01*
X17491071Y-17804214D01*
X17519643Y-17818500D01*
X17633928Y-18118500D02*
X17648214Y-18104214D01*
X17676786Y-18061357D01*
X17691071Y-18032786D01*
X17705357Y-17989929D01*
X17719643Y-17918500D01*
X17719643Y-17861357D01*
X17705357Y-17789929D01*
X17691071Y-17747072D01*
X17676786Y-17718500D01*
X17648214Y-17675643D01*
X17633928Y-17661357D01*
X10967500Y-18174500D02*
X11147500Y-18354500D01*
X11147500Y-18174500D02*
X10967500Y-18354500D01*
X11121140Y-18328140D02*
X11121140Y-18200860D01*
X10993860Y-18200860D01*
X10993860Y-18328140D01*
X11121140Y-18328140D01*
X11591071Y-18400214D02*
X11419643Y-18400214D01*
X11505357Y-18400214D02*
X11505357Y-18100214D01*
X11476786Y-18143072D01*
X11448214Y-18171643D01*
X11419643Y-18185929D01*
X11719643Y-18371643D02*
X11733928Y-18385929D01*
X11719643Y-18400214D01*
X11705357Y-18385929D01*
X11719643Y-18371643D01*
X11719643Y-18400214D01*
X11905357Y-18228786D02*
X11876786Y-18214500D01*
X11862500Y-18200214D01*
X11848214Y-18171643D01*
X11848214Y-18157357D01*
X11862500Y-18128786D01*
X11876786Y-18114500D01*
X11905357Y-18100214D01*
X11962500Y-18100214D01*
X11991071Y-18114500D01*
X12005357Y-18128786D01*
X12019643Y-18157357D01*
X12019643Y-18171643D01*
X12005357Y-18200214D01*
X11991071Y-18214500D01*
X11962500Y-18228786D01*
X11905357Y-18228786D01*
X11876786Y-18243072D01*
X11862500Y-18257357D01*
X11848214Y-18285929D01*
X11848214Y-18343072D01*
X11862500Y-18371643D01*
X11876786Y-18385929D01*
X11905357Y-18400214D01*
X11962500Y-18400214D01*
X11991071Y-18385929D01*
X12005357Y-18371643D01*
X12019643Y-18343072D01*
X12019643Y-18285929D01*
X12005357Y-18257357D01*
X11991071Y-18243072D01*
X11962500Y-18228786D01*
X12205357Y-18100214D02*
X12233928Y-18100214D01*
X12262500Y-18114500D01*
X12276786Y-18128786D01*
X12291071Y-18157357D01*
X12305357Y-18214500D01*
X12305357Y-18285929D01*
X12291071Y-18343072D01*
X12276786Y-18371643D01*
X12262500Y-18385929D01*
X12233928Y-18400214D01*
X12205357Y-18400214D01*
X12176786Y-18385929D01*
X12162500Y-18371643D01*
X12148214Y-18343072D01*
X12133928Y-18285929D01*
X12133928Y-18214500D01*
X12148214Y-18157357D01*
X12162500Y-18128786D01*
X12176786Y-18114500D01*
X12205357Y-18100214D01*
X12433928Y-18400214D02*
X12433928Y-18200214D01*
X12433928Y-18228786D02*
X12448214Y-18214500D01*
X12476786Y-18200214D01*
X12519643Y-18200214D01*
X12548214Y-18214500D01*
X12562500Y-18243072D01*
X12562500Y-18400214D01*
X12562500Y-18243072D02*
X12576786Y-18214500D01*
X12605357Y-18200214D01*
X12648214Y-18200214D01*
X12676786Y-18214500D01*
X12691071Y-18243072D01*
X12691071Y-18400214D01*
X12833928Y-18400214D02*
X12833928Y-18200214D01*
X12833928Y-18228786D02*
X12848214Y-18214500D01*
X12876786Y-18200214D01*
X12919643Y-18200214D01*
X12948214Y-18214500D01*
X12962500Y-18243072D01*
X12962500Y-18400214D01*
X12962500Y-18243072D02*
X12976786Y-18214500D01*
X13005357Y-18200214D01*
X13048214Y-18200214D01*
X13076786Y-18214500D01*
X13091071Y-18243072D01*
X13091071Y-18400214D01*
X13676786Y-18085929D02*
X13419643Y-18471643D01*
X14062500Y-18100214D02*
X14091071Y-18100214D01*
X14119643Y-18114500D01*
X14133928Y-18128786D01*
X14148214Y-18157357D01*
X14162500Y-18214500D01*
X14162500Y-18285929D01*
X14148214Y-18343072D01*
X14133928Y-18371643D01*
X14119643Y-18385929D01*
X14091071Y-18400214D01*
X14062500Y-18400214D01*
X14033928Y-18385929D01*
X14019643Y-18371643D01*
X14005357Y-18343072D01*
X13991071Y-18285929D01*
X13991071Y-18214500D01*
X14005357Y-18157357D01*
X14019643Y-18128786D01*
X14033928Y-18114500D01*
X14062500Y-18100214D01*
X14291071Y-18371643D02*
X14305357Y-18385929D01*
X14291071Y-18400214D01*
X14276786Y-18385929D01*
X14291071Y-18371643D01*
X14291071Y-18400214D01*
X14491071Y-18100214D02*
X14519643Y-18100214D01*
X14548214Y-18114500D01*
X14562500Y-18128786D01*
X14576786Y-18157357D01*
X14591071Y-18214500D01*
X14591071Y-18285929D01*
X14576786Y-18343072D01*
X14562500Y-18371643D01*
X14548214Y-18385929D01*
X14519643Y-18400214D01*
X14491071Y-18400214D01*
X14462500Y-18385929D01*
X14448214Y-18371643D01*
X14433928Y-18343072D01*
X14419643Y-18285929D01*
X14419643Y-18214500D01*
X14433928Y-18157357D01*
X14448214Y-18128786D01*
X14462500Y-18114500D01*
X14491071Y-18100214D01*
X14691071Y-18100214D02*
X14891071Y-18100214D01*
X14762500Y-18400214D01*
X15162500Y-18400214D02*
X14991071Y-18400214D01*
X15076786Y-18400214D02*
X15076786Y-18100214D01*
X15048214Y-18143072D01*
X15019643Y-18171643D01*
X14991071Y-18185929D01*
X15276786Y-18100214D02*
X15276786Y-18157357D01*
X15391071Y-18100214D02*
X15391071Y-18157357D01*
X15833928Y-18514500D02*
X15819643Y-18500214D01*
X15791071Y-18457357D01*
X15776786Y-18428786D01*
X15762500Y-18385929D01*
X15748214Y-18314500D01*
X15748214Y-18257357D01*
X15762500Y-18185929D01*
X15776786Y-18143072D01*
X15791071Y-18114500D01*
X15819643Y-18071643D01*
X15833928Y-18057357D01*
X15933928Y-18128786D02*
X15948214Y-18114500D01*
X15976786Y-18100214D01*
X16048214Y-18100214D01*
X16076786Y-18114500D01*
X16091071Y-18128786D01*
X16105357Y-18157357D01*
X16105357Y-18185929D01*
X16091071Y-18228786D01*
X15919643Y-18400214D01*
X16105357Y-18400214D01*
X16462500Y-18400214D02*
X16462500Y-18100214D01*
X16591071Y-18400214D02*
X16591071Y-18243072D01*
X16576786Y-18214500D01*
X16548214Y-18200214D01*
X16505357Y-18200214D01*
X16476786Y-18214500D01*
X16462500Y-18228786D01*
X16776786Y-18400214D02*
X16748214Y-18385929D01*
X16733928Y-18371643D01*
X16719643Y-18343072D01*
X16719643Y-18257357D01*
X16733928Y-18228786D01*
X16748214Y-18214500D01*
X16776786Y-18200214D01*
X16819643Y-18200214D01*
X16848214Y-18214500D01*
X16862500Y-18228786D01*
X16876786Y-18257357D01*
X16876786Y-18343072D01*
X16862500Y-18371643D01*
X16848214Y-18385929D01*
X16819643Y-18400214D01*
X16776786Y-18400214D01*
X17048214Y-18400214D02*
X17019643Y-18385929D01*
X17005357Y-18357357D01*
X17005357Y-18100214D01*
X17276786Y-18385929D02*
X17248214Y-18400214D01*
X17191071Y-18400214D01*
X17162500Y-18385929D01*
X17148214Y-18357357D01*
X17148214Y-18243072D01*
X17162500Y-18214500D01*
X17191071Y-18200214D01*
X17248214Y-18200214D01*
X17276786Y-18214500D01*
X17291071Y-18243072D01*
X17291071Y-18271643D01*
X17148214Y-18300214D01*
X17405357Y-18385929D02*
X17433928Y-18400214D01*
X17491071Y-18400214D01*
X17519643Y-18385929D01*
X17533928Y-18357357D01*
X17533928Y-18343072D01*
X17519643Y-18314500D01*
X17491071Y-18300214D01*
X17448214Y-18300214D01*
X17419643Y-18285929D01*
X17405357Y-18257357D01*
X17405357Y-18243072D01*
X17419643Y-18214500D01*
X17448214Y-18200214D01*
X17491071Y-18200214D01*
X17519643Y-18214500D01*
X17633928Y-18514500D02*
X17648214Y-18500214D01*
X17676786Y-18457357D01*
X17691071Y-18428786D01*
X17705357Y-18385929D01*
X17719643Y-18314500D01*
X17719643Y-18257357D01*
X17705357Y-18185929D01*
X17691071Y-18143072D01*
X17676786Y-18114500D01*
X17648214Y-18071643D01*
X17633928Y-18057357D01*
M02*
