%TF.GenerationSoftware,KiCad,Pcbnew,(6.0.2)*%
%TF.CreationDate,2022-03-05T17:56:55+01:00*%
%TF.ProjectId,PCB_stepper,5043425f-7374-4657-9070-65722e6b6963,rev?*%
%TF.SameCoordinates,Original*%
%TF.FileFunction,Soldermask,Top*%
%TF.FilePolarity,Negative*%
%FSLAX46Y46*%
G04 Gerber Fmt 4.6, Leading zero omitted, Abs format (unit mm)*
G04 Created by KiCad (PCBNEW (6.0.2)) date 2022-03-05 17:56:55*
%MOMM*%
%LPD*%
G01*
G04 APERTURE LIST*
G04 Aperture macros list*
%AMRoundRect*
0 Rectangle with rounded corners*
0 $1 Rounding radius*
0 $2 $3 $4 $5 $6 $7 $8 $9 X,Y pos of 4 corners*
0 Add a 4 corners polygon primitive as box body*
4,1,4,$2,$3,$4,$5,$6,$7,$8,$9,$2,$3,0*
0 Add four circle primitives for the rounded corners*
1,1,$1+$1,$2,$3*
1,1,$1+$1,$4,$5*
1,1,$1+$1,$6,$7*
1,1,$1+$1,$8,$9*
0 Add four rect primitives between the rounded corners*
20,1,$1+$1,$2,$3,$4,$5,0*
20,1,$1+$1,$4,$5,$6,$7,0*
20,1,$1+$1,$6,$7,$8,$9,0*
20,1,$1+$1,$8,$9,$2,$3,0*%
G04 Aperture macros list end*
%ADD10C,0.800000*%
%ADD11C,6.400000*%
%ADD12RoundRect,0.250000X-0.450000X0.325000X-0.450000X-0.325000X0.450000X-0.325000X0.450000X0.325000X0*%
%ADD13RoundRect,0.250000X-0.337500X-0.475000X0.337500X-0.475000X0.337500X0.475000X-0.337500X0.475000X0*%
%ADD14R,1.500000X3.000000*%
%ADD15RoundRect,0.250000X-0.350000X-0.450000X0.350000X-0.450000X0.350000X0.450000X-0.350000X0.450000X0*%
%ADD16RoundRect,0.250000X0.475000X-0.337500X0.475000X0.337500X-0.475000X0.337500X-0.475000X-0.337500X0*%
%ADD17C,1.508000*%
%ADD18RoundRect,0.250000X-0.325000X-0.450000X0.325000X-0.450000X0.325000X0.450000X-0.325000X0.450000X0*%
%ADD19R,1.600000X1.600000*%
%ADD20C,1.600000*%
%ADD21RoundRect,0.250000X0.350000X0.450000X-0.350000X0.450000X-0.350000X-0.450000X0.350000X-0.450000X0*%
%ADD22RoundRect,0.250000X-0.475000X0.337500X-0.475000X-0.337500X0.475000X-0.337500X0.475000X0.337500X0*%
%ADD23RoundRect,0.250000X0.337500X0.475000X-0.337500X0.475000X-0.337500X-0.475000X0.337500X-0.475000X0*%
%ADD24O,1.600000X1.600000*%
%ADD25R,1.600000X1.300000*%
%ADD26R,1.500000X1.500000*%
%ADD27RoundRect,0.243750X-0.243750X-0.456250X0.243750X-0.456250X0.243750X0.456250X-0.243750X0.456250X0*%
%ADD28RoundRect,0.250000X0.450000X-0.350000X0.450000X0.350000X-0.450000X0.350000X-0.450000X-0.350000X0*%
%ADD29RoundRect,0.150000X0.150000X-0.587500X0.150000X0.587500X-0.150000X0.587500X-0.150000X-0.587500X0*%
%ADD30R,1.500000X2.000000*%
%ADD31R,3.800000X2.000000*%
%ADD32RoundRect,0.150000X-0.150000X0.825000X-0.150000X-0.825000X0.150000X-0.825000X0.150000X0.825000X0*%
%ADD33RoundRect,0.250000X-0.450000X0.350000X-0.450000X-0.350000X0.450000X-0.350000X0.450000X0.350000X0*%
%ADD34C,2.400000*%
%ADD35R,1.700000X1.700000*%
%ADD36O,1.700000X1.700000*%
%ADD37RoundRect,0.250000X0.450000X-0.325000X0.450000X0.325000X-0.450000X0.325000X-0.450000X-0.325000X0*%
%ADD38RoundRect,0.075000X-0.075000X0.662500X-0.075000X-0.662500X0.075000X-0.662500X0.075000X0.662500X0*%
%ADD39RoundRect,0.075000X-0.662500X0.075000X-0.662500X-0.075000X0.662500X-0.075000X0.662500X0.075000X0*%
%ADD40C,0.700000*%
%ADD41O,0.900000X2.400000*%
%ADD42O,0.900000X1.700000*%
G04 APERTURE END LIST*
D10*
%TO.C,H4*%
X112250000Y-102650000D03*
D11*
X112250000Y-100250000D03*
D10*
X113947056Y-98552944D03*
X114650000Y-100250000D03*
X110552944Y-101947056D03*
X113947056Y-101947056D03*
X112250000Y-97850000D03*
X109850000Y-100250000D03*
X110552944Y-98552944D03*
%TD*%
D12*
%TO.C,D3*%
X130450000Y-95575000D03*
X130450000Y-97625000D03*
%TD*%
D13*
%TO.C,C12*%
X153862500Y-75200000D03*
X155937500Y-75200000D03*
%TD*%
D14*
%TO.C,J2*%
X167105000Y-101450000D03*
X165835000Y-96950000D03*
X164565000Y-101450000D03*
X163295000Y-96950000D03*
%TD*%
D13*
%TO.C,C2*%
X148662500Y-72600000D03*
X150737500Y-72600000D03*
%TD*%
D15*
%TO.C,R1*%
X135600000Y-86050000D03*
X137600000Y-86050000D03*
%TD*%
D16*
%TO.C,C16*%
X167800000Y-79437500D03*
X167800000Y-77362500D03*
%TD*%
D17*
%TO.C,J5*%
X112100000Y-73690000D03*
X112100000Y-76230000D03*
X112100000Y-78770000D03*
X112100000Y-81310000D03*
%TD*%
D18*
%TO.C,D5*%
X165675000Y-92950000D03*
X167725000Y-92950000D03*
%TD*%
D10*
%TO.C,H1*%
X109850000Y-60000000D03*
X110552944Y-58302944D03*
X110552944Y-61697056D03*
X112250000Y-57600000D03*
X114650000Y-60000000D03*
X113947056Y-58302944D03*
X113947056Y-61697056D03*
D11*
X112250000Y-60000000D03*
D10*
X112250000Y-62400000D03*
%TD*%
D15*
%TO.C,R3*%
X147700000Y-94100000D03*
X149700000Y-94100000D03*
%TD*%
D10*
%TO.C,H3*%
X172552944Y-101947056D03*
X175947056Y-98552944D03*
X175947056Y-101947056D03*
X174250000Y-97850000D03*
D11*
X174250000Y-100250000D03*
D10*
X171850000Y-100250000D03*
X176650000Y-100250000D03*
X172552944Y-98552944D03*
X174250000Y-102650000D03*
%TD*%
D16*
%TO.C,C5*%
X142700000Y-70887500D03*
X142700000Y-68812500D03*
%TD*%
D19*
%TO.C,C15*%
X122597349Y-83500000D03*
D20*
X126097349Y-83500000D03*
%TD*%
D21*
%TO.C,R5*%
X146600000Y-92100000D03*
X144600000Y-92100000D03*
%TD*%
D22*
%TO.C,C3*%
X148600000Y-64162500D03*
X148600000Y-66237500D03*
%TD*%
D23*
%TO.C,C10*%
X142737500Y-92100000D03*
X140662500Y-92100000D03*
%TD*%
D19*
%TO.C,A1*%
X118160000Y-68610000D03*
D24*
X118160000Y-71150000D03*
X118160000Y-73690000D03*
X118160000Y-76230000D03*
X118160000Y-78770000D03*
X118160000Y-81310000D03*
X118160000Y-83850000D03*
X118160000Y-86390000D03*
X130860000Y-86390000D03*
X130860000Y-83850000D03*
X130860000Y-81310000D03*
X130860000Y-78770000D03*
X130860000Y-76230000D03*
X130860000Y-73690000D03*
X130860000Y-71150000D03*
X130860000Y-68610000D03*
%TD*%
D23*
%TO.C,C7*%
X137537500Y-79900000D03*
X135462500Y-79900000D03*
%TD*%
D16*
%TO.C,C4*%
X140800000Y-66237500D03*
X140800000Y-64162500D03*
%TD*%
D25*
%TO.C,Y1*%
X146350000Y-64200000D03*
X143050000Y-64200000D03*
X143050000Y-66200000D03*
X146350000Y-66200000D03*
%TD*%
D26*
%TO.C,SW2*%
X126800000Y-60300000D03*
X134600000Y-60300000D03*
%TD*%
D27*
%TO.C,D1*%
X139357500Y-86005000D03*
X141232500Y-86005000D03*
%TD*%
D28*
%TO.C,R8*%
X166000000Y-87775000D03*
X166000000Y-85775000D03*
%TD*%
D29*
%TO.C,D2*%
X154350000Y-93037500D03*
X156250000Y-93037500D03*
X155300000Y-91162500D03*
%TD*%
D21*
%TO.C,R4*%
X138800000Y-92100000D03*
X136800000Y-92100000D03*
%TD*%
D15*
%TO.C,R9*%
X161900000Y-92950000D03*
X163900000Y-92950000D03*
%TD*%
D28*
%TO.C,R6*%
X153400000Y-88100000D03*
X153400000Y-86100000D03*
%TD*%
D30*
%TO.C,U3*%
X160800000Y-79450000D03*
X163100000Y-79450000D03*
D31*
X163100000Y-73150000D03*
D30*
X165400000Y-79450000D03*
%TD*%
D32*
%TO.C,U2*%
X156905000Y-77425000D03*
X155635000Y-77425000D03*
X154365000Y-77425000D03*
X153095000Y-77425000D03*
X153095000Y-82375000D03*
X154365000Y-82375000D03*
X155635000Y-82375000D03*
X156905000Y-82375000D03*
%TD*%
D16*
%TO.C,C11*%
X136700000Y-99300000D03*
X136700000Y-97225000D03*
%TD*%
D14*
%TO.C,J3*%
X156405000Y-101450000D03*
X155135000Y-96950000D03*
X153865000Y-101450000D03*
X152595000Y-96950000D03*
%TD*%
D22*
%TO.C,C1*%
X146900000Y-83062500D03*
X146900000Y-85137500D03*
%TD*%
D23*
%TO.C,C9*%
X137537500Y-82000000D03*
X135462500Y-82000000D03*
%TD*%
D33*
%TO.C,R7*%
X130500000Y-91820000D03*
X130500000Y-93820000D03*
%TD*%
D23*
%TO.C,C17*%
X162837500Y-81800000D03*
X160762500Y-81800000D03*
%TD*%
D34*
%TO.C,J4*%
X120000000Y-93250000D03*
X125000000Y-93250000D03*
%TD*%
D35*
%TO.C,JP1*%
X156200000Y-88475000D03*
D36*
X156200000Y-85935000D03*
%TD*%
D16*
%TO.C,C6*%
X150000000Y-61237500D03*
X150000000Y-59162500D03*
%TD*%
D13*
%TO.C,C8*%
X144562500Y-90100000D03*
X146637500Y-90100000D03*
%TD*%
D37*
%TO.C,D4*%
X166000000Y-84000000D03*
X166000000Y-81950000D03*
%TD*%
D10*
%TO.C,H2*%
X176650000Y-60000000D03*
X175947056Y-58302944D03*
X174250000Y-62400000D03*
X171850000Y-60000000D03*
D11*
X174250000Y-60000000D03*
D10*
X174250000Y-57600000D03*
X175947056Y-61697056D03*
X172552944Y-61697056D03*
X172552944Y-58302944D03*
%TD*%
D26*
%TO.C,SW1*%
X140100000Y-60300000D03*
X147900000Y-60300000D03*
%TD*%
D38*
%TO.C,U1*%
X146750000Y-72837500D03*
X146250000Y-72837500D03*
X145750000Y-72837500D03*
X145250000Y-72837500D03*
X144750000Y-72837500D03*
X144250000Y-72837500D03*
X143750000Y-72837500D03*
X143250000Y-72837500D03*
X142750000Y-72837500D03*
X142250000Y-72837500D03*
X141750000Y-72837500D03*
X141250000Y-72837500D03*
D39*
X139837500Y-74250000D03*
X139837500Y-74750000D03*
X139837500Y-75250000D03*
X139837500Y-75750000D03*
X139837500Y-76250000D03*
X139837500Y-76750000D03*
X139837500Y-77250000D03*
X139837500Y-77750000D03*
X139837500Y-78250000D03*
X139837500Y-78750000D03*
X139837500Y-79250000D03*
X139837500Y-79750000D03*
D38*
X141250000Y-81162500D03*
X141750000Y-81162500D03*
X142250000Y-81162500D03*
X142750000Y-81162500D03*
X143250000Y-81162500D03*
X143750000Y-81162500D03*
X144250000Y-81162500D03*
X144750000Y-81162500D03*
X145250000Y-81162500D03*
X145750000Y-81162500D03*
X146250000Y-81162500D03*
X146750000Y-81162500D03*
D39*
X148162500Y-79750000D03*
X148162500Y-79250000D03*
X148162500Y-78750000D03*
X148162500Y-78250000D03*
X148162500Y-77750000D03*
X148162500Y-77250000D03*
X148162500Y-76750000D03*
X148162500Y-76250000D03*
X148162500Y-75750000D03*
X148162500Y-75250000D03*
X148162500Y-74750000D03*
X148162500Y-74250000D03*
%TD*%
D19*
%TO.C,C14*%
X163000000Y-68055113D03*
D20*
X163000000Y-66055113D03*
%TD*%
D33*
%TO.C,R2*%
X136700000Y-59400000D03*
X136700000Y-61400000D03*
%TD*%
D40*
%TO.C,J1*%
X146075000Y-97475000D03*
X145225000Y-97475000D03*
X144375000Y-97475000D03*
X143525000Y-97475000D03*
X142675000Y-97475000D03*
X141825000Y-97475000D03*
X140975000Y-97475000D03*
X140125000Y-97475000D03*
X140125000Y-98825000D03*
X140975000Y-98825000D03*
X141825000Y-98825000D03*
X142675000Y-98825000D03*
X143525000Y-98825000D03*
X144375000Y-98825000D03*
X145225000Y-98825000D03*
X146075000Y-98825000D03*
D41*
X138775000Y-98455000D03*
D42*
X138775000Y-101835000D03*
D41*
X147425000Y-98455000D03*
D42*
X147425000Y-101835000D03*
%TD*%
M02*
