%TF.GenerationSoftware,KiCad,Pcbnew,(6.0.2)*%
%TF.CreationDate,2022-03-05T17:56:55+01:00*%
%TF.ProjectId,PCB_stepper,5043425f-7374-4657-9070-65722e6b6963,rev?*%
%TF.SameCoordinates,Original*%
%TF.FileFunction,Soldermask,Bot*%
%TF.FilePolarity,Negative*%
%FSLAX46Y46*%
G04 Gerber Fmt 4.6, Leading zero omitted, Abs format (unit mm)*
G04 Created by KiCad (PCBNEW (6.0.2)) date 2022-03-05 17:56:55*
%MOMM*%
%LPD*%
G01*
G04 APERTURE LIST*
%ADD10C,0.800000*%
%ADD11C,6.400000*%
%ADD12C,1.508000*%
%ADD13R,1.600000X1.600000*%
%ADD14C,1.600000*%
%ADD15O,1.600000X1.600000*%
%ADD16C,2.400000*%
%ADD17R,1.700000X1.700000*%
%ADD18O,1.700000X1.700000*%
%ADD19C,0.700000*%
%ADD20O,0.900000X2.400000*%
%ADD21O,0.900000X1.700000*%
G04 APERTURE END LIST*
D10*
%TO.C,H4*%
X112250000Y-102650000D03*
D11*
X112250000Y-100250000D03*
D10*
X113947056Y-98552944D03*
X114650000Y-100250000D03*
X110552944Y-101947056D03*
X113947056Y-101947056D03*
X112250000Y-97850000D03*
X109850000Y-100250000D03*
X110552944Y-98552944D03*
%TD*%
D12*
%TO.C,J5*%
X112100000Y-73690000D03*
X112100000Y-76230000D03*
X112100000Y-78770000D03*
X112100000Y-81310000D03*
%TD*%
D10*
%TO.C,H1*%
X109850000Y-60000000D03*
X110552944Y-58302944D03*
X110552944Y-61697056D03*
X112250000Y-57600000D03*
X114650000Y-60000000D03*
X113947056Y-58302944D03*
X113947056Y-61697056D03*
D11*
X112250000Y-60000000D03*
D10*
X112250000Y-62400000D03*
%TD*%
%TO.C,H3*%
X172552944Y-101947056D03*
X175947056Y-98552944D03*
X175947056Y-101947056D03*
X174250000Y-97850000D03*
D11*
X174250000Y-100250000D03*
D10*
X171850000Y-100250000D03*
X176650000Y-100250000D03*
X172552944Y-98552944D03*
X174250000Y-102650000D03*
%TD*%
D13*
%TO.C,C15*%
X122597349Y-83500000D03*
D14*
X126097349Y-83500000D03*
%TD*%
D13*
%TO.C,A1*%
X118160000Y-68610000D03*
D15*
X118160000Y-71150000D03*
X118160000Y-73690000D03*
X118160000Y-76230000D03*
X118160000Y-78770000D03*
X118160000Y-81310000D03*
X118160000Y-83850000D03*
X118160000Y-86390000D03*
X130860000Y-86390000D03*
X130860000Y-83850000D03*
X130860000Y-81310000D03*
X130860000Y-78770000D03*
X130860000Y-76230000D03*
X130860000Y-73690000D03*
X130860000Y-71150000D03*
X130860000Y-68610000D03*
%TD*%
D16*
%TO.C,J4*%
X120000000Y-93250000D03*
X125000000Y-93250000D03*
%TD*%
D17*
%TO.C,JP1*%
X156200000Y-88475000D03*
D18*
X156200000Y-85935000D03*
%TD*%
D10*
%TO.C,H2*%
X176650000Y-60000000D03*
X175947056Y-58302944D03*
X174250000Y-62400000D03*
X171850000Y-60000000D03*
D11*
X174250000Y-60000000D03*
D10*
X174250000Y-57600000D03*
X175947056Y-61697056D03*
X172552944Y-61697056D03*
X172552944Y-58302944D03*
%TD*%
D13*
%TO.C,C14*%
X163000000Y-68055113D03*
D14*
X163000000Y-66055113D03*
%TD*%
D19*
%TO.C,J1*%
X146075000Y-97475000D03*
X145225000Y-97475000D03*
X144375000Y-97475000D03*
X143525000Y-97475000D03*
X142675000Y-97475000D03*
X141825000Y-97475000D03*
X140975000Y-97475000D03*
X140125000Y-97475000D03*
X140125000Y-98825000D03*
X140975000Y-98825000D03*
X141825000Y-98825000D03*
X142675000Y-98825000D03*
X143525000Y-98825000D03*
X144375000Y-98825000D03*
X145225000Y-98825000D03*
X146075000Y-98825000D03*
D20*
X138775000Y-98455000D03*
D21*
X138775000Y-101835000D03*
D20*
X147425000Y-98455000D03*
D21*
X147425000Y-101835000D03*
%TD*%
M02*
