M48
; DRILL file {KiCad (6.0.2)} date Sat Mar  5 17:56:50 2022
; FORMAT={-:-/ absolute / metric / decimal}
; #@! TF.CreationDate,2022-03-05T17:56:50+01:00
; #@! TF.GenerationSoftware,Kicad,Pcbnew,(6.0.2)
; #@! TF.FileFunction,Plated,1,2,PTH
FMAT,2
METRIC
; #@! TA.AperFunction,Plated,PTH,ViaDrill
T1C0.400
; #@! TA.AperFunction,Plated,PTH,ComponentDrill
T2C0.400
; #@! TA.AperFunction,Plated,PTH,ComponentDrill
T3C0.500
; #@! TA.AperFunction,Plated,PTH,ComponentDrill
T4C0.600
; #@! TA.AperFunction,Plated,PTH,ComponentDrill
T5C0.800
; #@! TA.AperFunction,Plated,PTH,ComponentDrill
T6C1.000
; #@! TA.AperFunction,Plated,PTH,ComponentDrill
T7C1.600
; #@! TA.AperFunction,Plated,PTH,ComponentDrill
T8C3.200
%
G90
G05
T1
X134.0Y-80.0
X134.0Y-82.0
X136.65Y-62.95
X138.25Y-78.5
X138.85Y-93.8
X141.25Y-68.5
X141.455Y-69.909
X143.5Y-74.5
X146.975Y-76.25
X148.25Y-90.0
X148.5Y-85.25
X149.75Y-92.5
X150.0Y-62.65
X150.0Y-74.525
X152.0Y-72.5
X153.862Y-75.2
X153.9Y-71.75
X155.25Y-92.75
T2
X140.125Y-97.475
X140.125Y-98.825
X140.975Y-97.475
X140.975Y-98.825
X141.825Y-97.475
X141.825Y-98.825
X142.675Y-97.475
X142.675Y-98.825
X143.525Y-97.475
X143.525Y-98.825
X144.375Y-97.475
X144.375Y-98.825
X145.225Y-97.475
X145.225Y-98.825
X146.075Y-97.475
X146.075Y-98.825
T3
X109.85Y-60.0
X109.85Y-100.25
X110.553Y-58.303
X110.553Y-61.697
X110.553Y-98.553
X110.553Y-101.947
X112.25Y-57.6
X112.25Y-62.4
X112.25Y-97.85
X112.25Y-102.65
X113.947Y-58.303
X113.947Y-61.697
X113.947Y-98.553
X113.947Y-101.947
X114.65Y-60.0
X114.65Y-100.25
X171.85Y-60.0
X171.85Y-100.25
X172.553Y-58.303
X172.553Y-61.697
X172.553Y-98.553
X172.553Y-101.947
X174.25Y-57.6
X174.25Y-62.4
X174.25Y-97.85
X174.25Y-102.65
X175.947Y-58.303
X175.947Y-61.697
X175.947Y-98.553
X175.947Y-101.947
X176.65Y-60.0
X176.65Y-100.25
T5
X118.16Y-68.61
X118.16Y-71.15
X118.16Y-73.69
X118.16Y-76.23
X118.16Y-78.77
X118.16Y-81.31
X118.16Y-83.85
X118.16Y-86.39
X122.597Y-83.5
X126.097Y-83.5
X130.86Y-68.61
X130.86Y-71.15
X130.86Y-73.69
X130.86Y-76.23
X130.86Y-78.77
X130.86Y-81.31
X130.86Y-83.85
X130.86Y-86.39
X163.0Y-66.055
X163.0Y-68.055
T6
X112.1Y-73.69
X112.1Y-76.23
X112.1Y-78.77
X112.1Y-81.31
X156.2Y-85.935
X156.2Y-88.475
T7
X120.0Y-93.25
X125.0Y-93.25
T8
X112.25Y-60.0
X112.25Y-100.25
X174.25Y-60.0
X174.25Y-100.25
T4
G00X138.775Y-99.205
M15
G01X138.775Y-97.705
M16
G05
G00X138.775Y-102.235
M15
G01X138.775Y-101.435
M16
G05
G00X147.425Y-99.205
M15
G01X147.425Y-97.705
M16
G05
G00X147.425Y-102.235
M15
G01X147.425Y-101.435
M16
G05
T0
M30
