%TF.GenerationSoftware,KiCad,Pcbnew,(6.0.2)*%
%TF.CreationDate,2022-03-05T17:56:55+01:00*%
%TF.ProjectId,PCB_stepper,5043425f-7374-4657-9070-65722e6b6963,rev?*%
%TF.SameCoordinates,Original*%
%TF.FileFunction,Legend,Top*%
%TF.FilePolarity,Positive*%
%FSLAX46Y46*%
G04 Gerber Fmt 4.6, Leading zero omitted, Abs format (unit mm)*
G04 Created by KiCad (PCBNEW (6.0.2)) date 2022-03-05 17:56:55*
%MOMM*%
%LPD*%
G01*
G04 APERTURE LIST*
%ADD10C,0.304800*%
%ADD11C,0.150000*%
%ADD12C,0.120000*%
%ADD13C,0.200000*%
%ADD14C,0.127000*%
%ADD15C,0.400000*%
G04 APERTURE END LIST*
D10*
X174189428Y-88422285D02*
X172665428Y-88422285D01*
X172665428Y-87841714D01*
X172738000Y-87696571D01*
X172810571Y-87624000D01*
X172955714Y-87551428D01*
X173173428Y-87551428D01*
X173318571Y-87624000D01*
X173391142Y-87696571D01*
X173463714Y-87841714D01*
X173463714Y-88422285D01*
X174044285Y-86027428D02*
X174116857Y-86100000D01*
X174189428Y-86317714D01*
X174189428Y-86462857D01*
X174116857Y-86680571D01*
X173971714Y-86825714D01*
X173826571Y-86898285D01*
X173536285Y-86970857D01*
X173318571Y-86970857D01*
X173028285Y-86898285D01*
X172883142Y-86825714D01*
X172738000Y-86680571D01*
X172665428Y-86462857D01*
X172665428Y-86317714D01*
X172738000Y-86100000D01*
X172810571Y-86027428D01*
X173391142Y-84866285D02*
X173463714Y-84648571D01*
X173536285Y-84576000D01*
X173681428Y-84503428D01*
X173899142Y-84503428D01*
X174044285Y-84576000D01*
X174116857Y-84648571D01*
X174189428Y-84793714D01*
X174189428Y-85374285D01*
X172665428Y-85374285D01*
X172665428Y-84866285D01*
X172738000Y-84721142D01*
X172810571Y-84648571D01*
X172955714Y-84576000D01*
X173100857Y-84576000D01*
X173246000Y-84648571D01*
X173318571Y-84721142D01*
X173391142Y-84866285D01*
X173391142Y-85374285D01*
X174116857Y-82761714D02*
X174189428Y-82616571D01*
X174189428Y-82326285D01*
X174116857Y-82181142D01*
X173971714Y-82108571D01*
X173899142Y-82108571D01*
X173754000Y-82181142D01*
X173681428Y-82326285D01*
X173681428Y-82544000D01*
X173608857Y-82689142D01*
X173463714Y-82761714D01*
X173391142Y-82761714D01*
X173246000Y-82689142D01*
X173173428Y-82544000D01*
X173173428Y-82326285D01*
X173246000Y-82181142D01*
X173173428Y-81673142D02*
X173173428Y-81092571D01*
X172665428Y-81455428D02*
X173971714Y-81455428D01*
X174116857Y-81382857D01*
X174189428Y-81237714D01*
X174189428Y-81092571D01*
X174116857Y-80004000D02*
X174189428Y-80149142D01*
X174189428Y-80439428D01*
X174116857Y-80584571D01*
X173971714Y-80657142D01*
X173391142Y-80657142D01*
X173246000Y-80584571D01*
X173173428Y-80439428D01*
X173173428Y-80149142D01*
X173246000Y-80004000D01*
X173391142Y-79931428D01*
X173536285Y-79931428D01*
X173681428Y-80657142D01*
X173173428Y-79278285D02*
X174697428Y-79278285D01*
X173246000Y-79278285D02*
X173173428Y-79133142D01*
X173173428Y-78842857D01*
X173246000Y-78697714D01*
X173318571Y-78625142D01*
X173463714Y-78552571D01*
X173899142Y-78552571D01*
X174044285Y-78625142D01*
X174116857Y-78697714D01*
X174189428Y-78842857D01*
X174189428Y-79133142D01*
X174116857Y-79278285D01*
X173173428Y-77899428D02*
X174697428Y-77899428D01*
X173246000Y-77899428D02*
X173173428Y-77754285D01*
X173173428Y-77464000D01*
X173246000Y-77318857D01*
X173318571Y-77246285D01*
X173463714Y-77173714D01*
X173899142Y-77173714D01*
X174044285Y-77246285D01*
X174116857Y-77318857D01*
X174189428Y-77464000D01*
X174189428Y-77754285D01*
X174116857Y-77899428D01*
X174116857Y-75940000D02*
X174189428Y-76085142D01*
X174189428Y-76375428D01*
X174116857Y-76520571D01*
X173971714Y-76593142D01*
X173391142Y-76593142D01*
X173246000Y-76520571D01*
X173173428Y-76375428D01*
X173173428Y-76085142D01*
X173246000Y-75940000D01*
X173391142Y-75867428D01*
X173536285Y-75867428D01*
X173681428Y-76593142D01*
X174189428Y-75214285D02*
X173173428Y-75214285D01*
X173463714Y-75214285D02*
X173318571Y-75141714D01*
X173246000Y-75069142D01*
X173173428Y-74924000D01*
X173173428Y-74778857D01*
X172665428Y-73327428D02*
X174189428Y-72819428D01*
X172665428Y-72311428D01*
X174189428Y-71005142D02*
X174189428Y-71876000D01*
X174189428Y-71440571D02*
X172665428Y-71440571D01*
X172883142Y-71585714D01*
X173028285Y-71730857D01*
X173100857Y-71876000D01*
D11*
%TO.C,D3*%
X132552380Y-97338095D02*
X131552380Y-97338095D01*
X131552380Y-97100000D01*
X131600000Y-96957142D01*
X131695238Y-96861904D01*
X131790476Y-96814285D01*
X131980952Y-96766666D01*
X132123809Y-96766666D01*
X132314285Y-96814285D01*
X132409523Y-96861904D01*
X132504761Y-96957142D01*
X132552380Y-97100000D01*
X132552380Y-97338095D01*
X131552380Y-96433333D02*
X131552380Y-95814285D01*
X131933333Y-96147619D01*
X131933333Y-96004761D01*
X131980952Y-95909523D01*
X132028571Y-95861904D01*
X132123809Y-95814285D01*
X132361904Y-95814285D01*
X132457142Y-95861904D01*
X132504761Y-95909523D01*
X132552380Y-96004761D01*
X132552380Y-96290476D01*
X132504761Y-96385714D01*
X132457142Y-96433333D01*
%TO.C,C12*%
X154257142Y-73877142D02*
X154209523Y-73924761D01*
X154066666Y-73972380D01*
X153971428Y-73972380D01*
X153828571Y-73924761D01*
X153733333Y-73829523D01*
X153685714Y-73734285D01*
X153638095Y-73543809D01*
X153638095Y-73400952D01*
X153685714Y-73210476D01*
X153733333Y-73115238D01*
X153828571Y-73020000D01*
X153971428Y-72972380D01*
X154066666Y-72972380D01*
X154209523Y-73020000D01*
X154257142Y-73067619D01*
X155209523Y-73972380D02*
X154638095Y-73972380D01*
X154923809Y-73972380D02*
X154923809Y-72972380D01*
X154828571Y-73115238D01*
X154733333Y-73210476D01*
X154638095Y-73258095D01*
X155590476Y-73067619D02*
X155638095Y-73020000D01*
X155733333Y-72972380D01*
X155971428Y-72972380D01*
X156066666Y-73020000D01*
X156114285Y-73067619D01*
X156161904Y-73162857D01*
X156161904Y-73258095D01*
X156114285Y-73400952D01*
X155542857Y-73972380D01*
X156161904Y-73972380D01*
%TO.C,J2*%
X169033333Y-96961904D02*
X169033333Y-97533333D01*
X168995238Y-97647619D01*
X168919047Y-97723809D01*
X168804761Y-97761904D01*
X168728571Y-97761904D01*
X169376190Y-97038095D02*
X169414285Y-97000000D01*
X169490476Y-96961904D01*
X169680952Y-96961904D01*
X169757142Y-97000000D01*
X169795238Y-97038095D01*
X169833333Y-97114285D01*
X169833333Y-97190476D01*
X169795238Y-97304761D01*
X169338095Y-97761904D01*
X169833333Y-97761904D01*
%TO.C,C2*%
X149533333Y-71277142D02*
X149485714Y-71324761D01*
X149342857Y-71372380D01*
X149247619Y-71372380D01*
X149104761Y-71324761D01*
X149009523Y-71229523D01*
X148961904Y-71134285D01*
X148914285Y-70943809D01*
X148914285Y-70800952D01*
X148961904Y-70610476D01*
X149009523Y-70515238D01*
X149104761Y-70420000D01*
X149247619Y-70372380D01*
X149342857Y-70372380D01*
X149485714Y-70420000D01*
X149533333Y-70467619D01*
X149914285Y-70467619D02*
X149961904Y-70420000D01*
X150057142Y-70372380D01*
X150295238Y-70372380D01*
X150390476Y-70420000D01*
X150438095Y-70467619D01*
X150485714Y-70562857D01*
X150485714Y-70658095D01*
X150438095Y-70800952D01*
X149866666Y-71372380D01*
X150485714Y-71372380D01*
%TO.C,R1*%
X136433333Y-84852380D02*
X136100000Y-84376190D01*
X135861904Y-84852380D02*
X135861904Y-83852380D01*
X136242857Y-83852380D01*
X136338095Y-83900000D01*
X136385714Y-83947619D01*
X136433333Y-84042857D01*
X136433333Y-84185714D01*
X136385714Y-84280952D01*
X136338095Y-84328571D01*
X136242857Y-84376190D01*
X135861904Y-84376190D01*
X137385714Y-84852380D02*
X136814285Y-84852380D01*
X137100000Y-84852380D02*
X137100000Y-83852380D01*
X137004761Y-83995238D01*
X136909523Y-84090476D01*
X136814285Y-84138095D01*
%TO.C,C16*%
X169857142Y-79042857D02*
X169904761Y-79090476D01*
X169952380Y-79233333D01*
X169952380Y-79328571D01*
X169904761Y-79471428D01*
X169809523Y-79566666D01*
X169714285Y-79614285D01*
X169523809Y-79661904D01*
X169380952Y-79661904D01*
X169190476Y-79614285D01*
X169095238Y-79566666D01*
X169000000Y-79471428D01*
X168952380Y-79328571D01*
X168952380Y-79233333D01*
X169000000Y-79090476D01*
X169047619Y-79042857D01*
X169952380Y-78090476D02*
X169952380Y-78661904D01*
X169952380Y-78376190D02*
X168952380Y-78376190D01*
X169095238Y-78471428D01*
X169190476Y-78566666D01*
X169238095Y-78661904D01*
X168952380Y-77233333D02*
X168952380Y-77423809D01*
X169000000Y-77519047D01*
X169047619Y-77566666D01*
X169190476Y-77661904D01*
X169380952Y-77709523D01*
X169761904Y-77709523D01*
X169857142Y-77661904D01*
X169904761Y-77614285D01*
X169952380Y-77519047D01*
X169952380Y-77328571D01*
X169904761Y-77233333D01*
X169857142Y-77185714D01*
X169761904Y-77138095D01*
X169523809Y-77138095D01*
X169428571Y-77185714D01*
X169380952Y-77233333D01*
X169333333Y-77328571D01*
X169333333Y-77519047D01*
X169380952Y-77614285D01*
X169428571Y-77661904D01*
X169523809Y-77709523D01*
%TO.C,J5*%
X109802380Y-73783333D02*
X110516666Y-73783333D01*
X110659523Y-73830952D01*
X110754761Y-73926190D01*
X110802380Y-74069047D01*
X110802380Y-74164285D01*
X109802380Y-72830952D02*
X109802380Y-73307142D01*
X110278571Y-73354761D01*
X110230952Y-73307142D01*
X110183333Y-73211904D01*
X110183333Y-72973809D01*
X110230952Y-72878571D01*
X110278571Y-72830952D01*
X110373809Y-72783333D01*
X110611904Y-72783333D01*
X110707142Y-72830952D01*
X110754761Y-72878571D01*
X110802380Y-72973809D01*
X110802380Y-73211904D01*
X110754761Y-73307142D01*
X110707142Y-73354761D01*
X114952380Y-73874285D02*
X114952380Y-74445714D01*
X114952380Y-74160000D02*
X113952380Y-74160000D01*
X114095238Y-74255238D01*
X114190476Y-74350476D01*
X114238095Y-74445714D01*
%TO.C,D5*%
X165961904Y-91752380D02*
X165961904Y-90752380D01*
X166200000Y-90752380D01*
X166342857Y-90800000D01*
X166438095Y-90895238D01*
X166485714Y-90990476D01*
X166533333Y-91180952D01*
X166533333Y-91323809D01*
X166485714Y-91514285D01*
X166438095Y-91609523D01*
X166342857Y-91704761D01*
X166200000Y-91752380D01*
X165961904Y-91752380D01*
X167438095Y-90752380D02*
X166961904Y-90752380D01*
X166914285Y-91228571D01*
X166961904Y-91180952D01*
X167057142Y-91133333D01*
X167295238Y-91133333D01*
X167390476Y-91180952D01*
X167438095Y-91228571D01*
X167485714Y-91323809D01*
X167485714Y-91561904D01*
X167438095Y-91657142D01*
X167390476Y-91704761D01*
X167295238Y-91752380D01*
X167057142Y-91752380D01*
X166961904Y-91704761D01*
X166914285Y-91657142D01*
%TO.C,R3*%
X151233333Y-94552380D02*
X150900000Y-94076190D01*
X150661904Y-94552380D02*
X150661904Y-93552380D01*
X151042857Y-93552380D01*
X151138095Y-93600000D01*
X151185714Y-93647619D01*
X151233333Y-93742857D01*
X151233333Y-93885714D01*
X151185714Y-93980952D01*
X151138095Y-94028571D01*
X151042857Y-94076190D01*
X150661904Y-94076190D01*
X151566666Y-93552380D02*
X152185714Y-93552380D01*
X151852380Y-93933333D01*
X151995238Y-93933333D01*
X152090476Y-93980952D01*
X152138095Y-94028571D01*
X152185714Y-94123809D01*
X152185714Y-94361904D01*
X152138095Y-94457142D01*
X152090476Y-94504761D01*
X151995238Y-94552380D01*
X151709523Y-94552380D01*
X151614285Y-94504761D01*
X151566666Y-94457142D01*
%TO.C,C5*%
X142533333Y-67807142D02*
X142485714Y-67854761D01*
X142342857Y-67902380D01*
X142247619Y-67902380D01*
X142104761Y-67854761D01*
X142009523Y-67759523D01*
X141961904Y-67664285D01*
X141914285Y-67473809D01*
X141914285Y-67330952D01*
X141961904Y-67140476D01*
X142009523Y-67045238D01*
X142104761Y-66950000D01*
X142247619Y-66902380D01*
X142342857Y-66902380D01*
X142485714Y-66950000D01*
X142533333Y-66997619D01*
X143438095Y-66902380D02*
X142961904Y-66902380D01*
X142914285Y-67378571D01*
X142961904Y-67330952D01*
X143057142Y-67283333D01*
X143295238Y-67283333D01*
X143390476Y-67330952D01*
X143438095Y-67378571D01*
X143485714Y-67473809D01*
X143485714Y-67711904D01*
X143438095Y-67807142D01*
X143390476Y-67854761D01*
X143295238Y-67902380D01*
X143057142Y-67902380D01*
X142961904Y-67854761D01*
X142914285Y-67807142D01*
%TO.C,C15*%
X123704491Y-78607142D02*
X123656872Y-78654761D01*
X123514015Y-78702380D01*
X123418777Y-78702380D01*
X123275920Y-78654761D01*
X123180682Y-78559523D01*
X123133063Y-78464285D01*
X123085444Y-78273809D01*
X123085444Y-78130952D01*
X123133063Y-77940476D01*
X123180682Y-77845238D01*
X123275920Y-77750000D01*
X123418777Y-77702380D01*
X123514015Y-77702380D01*
X123656872Y-77750000D01*
X123704491Y-77797619D01*
X124656872Y-78702380D02*
X124085444Y-78702380D01*
X124371158Y-78702380D02*
X124371158Y-77702380D01*
X124275920Y-77845238D01*
X124180682Y-77940476D01*
X124085444Y-77988095D01*
X125561634Y-77702380D02*
X125085444Y-77702380D01*
X125037825Y-78178571D01*
X125085444Y-78130952D01*
X125180682Y-78083333D01*
X125418777Y-78083333D01*
X125514015Y-78130952D01*
X125561634Y-78178571D01*
X125609253Y-78273809D01*
X125609253Y-78511904D01*
X125561634Y-78607142D01*
X125514015Y-78654761D01*
X125418777Y-78702380D01*
X125180682Y-78702380D01*
X125085444Y-78654761D01*
X125037825Y-78607142D01*
%TO.C,R5*%
X145433333Y-94202380D02*
X145100000Y-93726190D01*
X144861904Y-94202380D02*
X144861904Y-93202380D01*
X145242857Y-93202380D01*
X145338095Y-93250000D01*
X145385714Y-93297619D01*
X145433333Y-93392857D01*
X145433333Y-93535714D01*
X145385714Y-93630952D01*
X145338095Y-93678571D01*
X145242857Y-93726190D01*
X144861904Y-93726190D01*
X146338095Y-93202380D02*
X145861904Y-93202380D01*
X145814285Y-93678571D01*
X145861904Y-93630952D01*
X145957142Y-93583333D01*
X146195238Y-93583333D01*
X146290476Y-93630952D01*
X146338095Y-93678571D01*
X146385714Y-93773809D01*
X146385714Y-94011904D01*
X146338095Y-94107142D01*
X146290476Y-94154761D01*
X146195238Y-94202380D01*
X145957142Y-94202380D01*
X145861904Y-94154761D01*
X145814285Y-94107142D01*
%TO.C,C3*%
X150637142Y-65366666D02*
X150684761Y-65414285D01*
X150732380Y-65557142D01*
X150732380Y-65652380D01*
X150684761Y-65795238D01*
X150589523Y-65890476D01*
X150494285Y-65938095D01*
X150303809Y-65985714D01*
X150160952Y-65985714D01*
X149970476Y-65938095D01*
X149875238Y-65890476D01*
X149780000Y-65795238D01*
X149732380Y-65652380D01*
X149732380Y-65557142D01*
X149780000Y-65414285D01*
X149827619Y-65366666D01*
X149732380Y-65033333D02*
X149732380Y-64414285D01*
X150113333Y-64747619D01*
X150113333Y-64604761D01*
X150160952Y-64509523D01*
X150208571Y-64461904D01*
X150303809Y-64414285D01*
X150541904Y-64414285D01*
X150637142Y-64461904D01*
X150684761Y-64509523D01*
X150732380Y-64604761D01*
X150732380Y-64890476D01*
X150684761Y-64985714D01*
X150637142Y-65033333D01*
%TO.C,C10*%
X141057142Y-94137142D02*
X141009523Y-94184761D01*
X140866666Y-94232380D01*
X140771428Y-94232380D01*
X140628571Y-94184761D01*
X140533333Y-94089523D01*
X140485714Y-93994285D01*
X140438095Y-93803809D01*
X140438095Y-93660952D01*
X140485714Y-93470476D01*
X140533333Y-93375238D01*
X140628571Y-93280000D01*
X140771428Y-93232380D01*
X140866666Y-93232380D01*
X141009523Y-93280000D01*
X141057142Y-93327619D01*
X142009523Y-94232380D02*
X141438095Y-94232380D01*
X141723809Y-94232380D02*
X141723809Y-93232380D01*
X141628571Y-93375238D01*
X141533333Y-93470476D01*
X141438095Y-93518095D01*
X142628571Y-93232380D02*
X142723809Y-93232380D01*
X142819047Y-93280000D01*
X142866666Y-93327619D01*
X142914285Y-93422857D01*
X142961904Y-93613333D01*
X142961904Y-93851428D01*
X142914285Y-94041904D01*
X142866666Y-94137142D01*
X142819047Y-94184761D01*
X142723809Y-94232380D01*
X142628571Y-94232380D01*
X142533333Y-94184761D01*
X142485714Y-94137142D01*
X142438095Y-94041904D01*
X142390476Y-93851428D01*
X142390476Y-93613333D01*
X142438095Y-93422857D01*
X142485714Y-93327619D01*
X142533333Y-93280000D01*
X142628571Y-93232380D01*
%TO.C,A1*%
X123795714Y-66236666D02*
X124271904Y-66236666D01*
X123700476Y-66522380D02*
X124033809Y-65522380D01*
X124367142Y-66522380D01*
X125224285Y-66522380D02*
X124652857Y-66522380D01*
X124938571Y-66522380D02*
X124938571Y-65522380D01*
X124843333Y-65665238D01*
X124748095Y-65760476D01*
X124652857Y-65808095D01*
%TO.C,C7*%
X133533333Y-80257142D02*
X133485714Y-80304761D01*
X133342857Y-80352380D01*
X133247619Y-80352380D01*
X133104761Y-80304761D01*
X133009523Y-80209523D01*
X132961904Y-80114285D01*
X132914285Y-79923809D01*
X132914285Y-79780952D01*
X132961904Y-79590476D01*
X133009523Y-79495238D01*
X133104761Y-79400000D01*
X133247619Y-79352380D01*
X133342857Y-79352380D01*
X133485714Y-79400000D01*
X133533333Y-79447619D01*
X133866666Y-79352380D02*
X134533333Y-79352380D01*
X134104761Y-80352380D01*
%TO.C,C4*%
X140733333Y-63157142D02*
X140685714Y-63204761D01*
X140542857Y-63252380D01*
X140447619Y-63252380D01*
X140304761Y-63204761D01*
X140209523Y-63109523D01*
X140161904Y-63014285D01*
X140114285Y-62823809D01*
X140114285Y-62680952D01*
X140161904Y-62490476D01*
X140209523Y-62395238D01*
X140304761Y-62300000D01*
X140447619Y-62252380D01*
X140542857Y-62252380D01*
X140685714Y-62300000D01*
X140733333Y-62347619D01*
X141590476Y-62585714D02*
X141590476Y-63252380D01*
X141352380Y-62204761D02*
X141114285Y-62919047D01*
X141733333Y-62919047D01*
%TO.C,Y1*%
X144223809Y-67976190D02*
X144223809Y-68452380D01*
X143890476Y-67452380D02*
X144223809Y-67976190D01*
X144557142Y-67452380D01*
X145414285Y-68452380D02*
X144842857Y-68452380D01*
X145128571Y-68452380D02*
X145128571Y-67452380D01*
X145033333Y-67595238D01*
X144938095Y-67690476D01*
X144842857Y-67738095D01*
%TO.C,SW2*%
X129366666Y-58104761D02*
X129509523Y-58152380D01*
X129747619Y-58152380D01*
X129842857Y-58104761D01*
X129890476Y-58057142D01*
X129938095Y-57961904D01*
X129938095Y-57866666D01*
X129890476Y-57771428D01*
X129842857Y-57723809D01*
X129747619Y-57676190D01*
X129557142Y-57628571D01*
X129461904Y-57580952D01*
X129414285Y-57533333D01*
X129366666Y-57438095D01*
X129366666Y-57342857D01*
X129414285Y-57247619D01*
X129461904Y-57200000D01*
X129557142Y-57152380D01*
X129795238Y-57152380D01*
X129938095Y-57200000D01*
X130271428Y-57152380D02*
X130509523Y-58152380D01*
X130700000Y-57438095D01*
X130890476Y-58152380D01*
X131128571Y-57152380D01*
X131461904Y-57247619D02*
X131509523Y-57200000D01*
X131604761Y-57152380D01*
X131842857Y-57152380D01*
X131938095Y-57200000D01*
X131985714Y-57247619D01*
X132033333Y-57342857D01*
X132033333Y-57438095D01*
X131985714Y-57580952D01*
X131414285Y-58152380D01*
X132033333Y-58152380D01*
%TO.C,D1*%
X139556904Y-84807380D02*
X139556904Y-83807380D01*
X139795000Y-83807380D01*
X139937857Y-83855000D01*
X140033095Y-83950238D01*
X140080714Y-84045476D01*
X140128333Y-84235952D01*
X140128333Y-84378809D01*
X140080714Y-84569285D01*
X140033095Y-84664523D01*
X139937857Y-84759761D01*
X139795000Y-84807380D01*
X139556904Y-84807380D01*
X141080714Y-84807380D02*
X140509285Y-84807380D01*
X140795000Y-84807380D02*
X140795000Y-83807380D01*
X140699761Y-83950238D01*
X140604523Y-84045476D01*
X140509285Y-84093095D01*
%TO.C,R8*%
X164802380Y-86941666D02*
X164326190Y-87275000D01*
X164802380Y-87513095D02*
X163802380Y-87513095D01*
X163802380Y-87132142D01*
X163850000Y-87036904D01*
X163897619Y-86989285D01*
X163992857Y-86941666D01*
X164135714Y-86941666D01*
X164230952Y-86989285D01*
X164278571Y-87036904D01*
X164326190Y-87132142D01*
X164326190Y-87513095D01*
X164230952Y-86370238D02*
X164183333Y-86465476D01*
X164135714Y-86513095D01*
X164040476Y-86560714D01*
X163992857Y-86560714D01*
X163897619Y-86513095D01*
X163850000Y-86465476D01*
X163802380Y-86370238D01*
X163802380Y-86179761D01*
X163850000Y-86084523D01*
X163897619Y-86036904D01*
X163992857Y-85989285D01*
X164040476Y-85989285D01*
X164135714Y-86036904D01*
X164183333Y-86084523D01*
X164230952Y-86179761D01*
X164230952Y-86370238D01*
X164278571Y-86465476D01*
X164326190Y-86513095D01*
X164421428Y-86560714D01*
X164611904Y-86560714D01*
X164707142Y-86513095D01*
X164754761Y-86465476D01*
X164802380Y-86370238D01*
X164802380Y-86179761D01*
X164754761Y-86084523D01*
X164707142Y-86036904D01*
X164611904Y-85989285D01*
X164421428Y-85989285D01*
X164326190Y-86036904D01*
X164278571Y-86084523D01*
X164230952Y-86179761D01*
%TO.C,D2*%
X153352380Y-92838095D02*
X152352380Y-92838095D01*
X152352380Y-92600000D01*
X152400000Y-92457142D01*
X152495238Y-92361904D01*
X152590476Y-92314285D01*
X152780952Y-92266666D01*
X152923809Y-92266666D01*
X153114285Y-92314285D01*
X153209523Y-92361904D01*
X153304761Y-92457142D01*
X153352380Y-92600000D01*
X153352380Y-92838095D01*
X152447619Y-91885714D02*
X152400000Y-91838095D01*
X152352380Y-91742857D01*
X152352380Y-91504761D01*
X152400000Y-91409523D01*
X152447619Y-91361904D01*
X152542857Y-91314285D01*
X152638095Y-91314285D01*
X152780952Y-91361904D01*
X153352380Y-91933333D01*
X153352380Y-91314285D01*
%TO.C,R4*%
X137633333Y-94202380D02*
X137300000Y-93726190D01*
X137061904Y-94202380D02*
X137061904Y-93202380D01*
X137442857Y-93202380D01*
X137538095Y-93250000D01*
X137585714Y-93297619D01*
X137633333Y-93392857D01*
X137633333Y-93535714D01*
X137585714Y-93630952D01*
X137538095Y-93678571D01*
X137442857Y-93726190D01*
X137061904Y-93726190D01*
X138490476Y-93535714D02*
X138490476Y-94202380D01*
X138252380Y-93154761D02*
X138014285Y-93869047D01*
X138633333Y-93869047D01*
%TO.C,R9*%
X162733333Y-91752380D02*
X162400000Y-91276190D01*
X162161904Y-91752380D02*
X162161904Y-90752380D01*
X162542857Y-90752380D01*
X162638095Y-90800000D01*
X162685714Y-90847619D01*
X162733333Y-90942857D01*
X162733333Y-91085714D01*
X162685714Y-91180952D01*
X162638095Y-91228571D01*
X162542857Y-91276190D01*
X162161904Y-91276190D01*
X163209523Y-91752380D02*
X163400000Y-91752380D01*
X163495238Y-91704761D01*
X163542857Y-91657142D01*
X163638095Y-91514285D01*
X163685714Y-91323809D01*
X163685714Y-90942857D01*
X163638095Y-90847619D01*
X163590476Y-90800000D01*
X163495238Y-90752380D01*
X163304761Y-90752380D01*
X163209523Y-90800000D01*
X163161904Y-90847619D01*
X163114285Y-90942857D01*
X163114285Y-91180952D01*
X163161904Y-91276190D01*
X163209523Y-91323809D01*
X163304761Y-91371428D01*
X163495238Y-91371428D01*
X163590476Y-91323809D01*
X163638095Y-91276190D01*
X163685714Y-91180952D01*
%TO.C,R6*%
X152202380Y-87266666D02*
X151726190Y-87600000D01*
X152202380Y-87838095D02*
X151202380Y-87838095D01*
X151202380Y-87457142D01*
X151250000Y-87361904D01*
X151297619Y-87314285D01*
X151392857Y-87266666D01*
X151535714Y-87266666D01*
X151630952Y-87314285D01*
X151678571Y-87361904D01*
X151726190Y-87457142D01*
X151726190Y-87838095D01*
X151202380Y-86409523D02*
X151202380Y-86600000D01*
X151250000Y-86695238D01*
X151297619Y-86742857D01*
X151440476Y-86838095D01*
X151630952Y-86885714D01*
X152011904Y-86885714D01*
X152107142Y-86838095D01*
X152154761Y-86790476D01*
X152202380Y-86695238D01*
X152202380Y-86504761D01*
X152154761Y-86409523D01*
X152107142Y-86361904D01*
X152011904Y-86314285D01*
X151773809Y-86314285D01*
X151678571Y-86361904D01*
X151630952Y-86409523D01*
X151583333Y-86504761D01*
X151583333Y-86695238D01*
X151630952Y-86790476D01*
X151678571Y-86838095D01*
X151773809Y-86885714D01*
%TO.C,U3*%
X162552380Y-76961904D02*
X163361904Y-76961904D01*
X163457142Y-76914285D01*
X163504761Y-76866666D01*
X163552380Y-76771428D01*
X163552380Y-76580952D01*
X163504761Y-76485714D01*
X163457142Y-76438095D01*
X163361904Y-76390476D01*
X162552380Y-76390476D01*
X162552380Y-76009523D02*
X162552380Y-75390476D01*
X162933333Y-75723809D01*
X162933333Y-75580952D01*
X162980952Y-75485714D01*
X163028571Y-75438095D01*
X163123809Y-75390476D01*
X163361904Y-75390476D01*
X163457142Y-75438095D01*
X163504761Y-75485714D01*
X163552380Y-75580952D01*
X163552380Y-75866666D01*
X163504761Y-75961904D01*
X163457142Y-76009523D01*
%TO.C,U2*%
X157852380Y-80661904D02*
X158661904Y-80661904D01*
X158757142Y-80614285D01*
X158804761Y-80566666D01*
X158852380Y-80471428D01*
X158852380Y-80280952D01*
X158804761Y-80185714D01*
X158757142Y-80138095D01*
X158661904Y-80090476D01*
X157852380Y-80090476D01*
X157947619Y-79661904D02*
X157900000Y-79614285D01*
X157852380Y-79519047D01*
X157852380Y-79280952D01*
X157900000Y-79185714D01*
X157947619Y-79138095D01*
X158042857Y-79090476D01*
X158138095Y-79090476D01*
X158280952Y-79138095D01*
X158852380Y-79709523D01*
X158852380Y-79090476D01*
%TO.C,C11*%
X135377142Y-98905357D02*
X135424761Y-98952976D01*
X135472380Y-99095833D01*
X135472380Y-99191071D01*
X135424761Y-99333928D01*
X135329523Y-99429166D01*
X135234285Y-99476785D01*
X135043809Y-99524404D01*
X134900952Y-99524404D01*
X134710476Y-99476785D01*
X134615238Y-99429166D01*
X134520000Y-99333928D01*
X134472380Y-99191071D01*
X134472380Y-99095833D01*
X134520000Y-98952976D01*
X134567619Y-98905357D01*
X135472380Y-97952976D02*
X135472380Y-98524404D01*
X135472380Y-98238690D02*
X134472380Y-98238690D01*
X134615238Y-98333928D01*
X134710476Y-98429166D01*
X134758095Y-98524404D01*
X135472380Y-97000595D02*
X135472380Y-97572023D01*
X135472380Y-97286309D02*
X134472380Y-97286309D01*
X134615238Y-97381547D01*
X134710476Y-97476785D01*
X134758095Y-97572023D01*
%TO.C,J3*%
X158333333Y-96861904D02*
X158333333Y-97433333D01*
X158295238Y-97547619D01*
X158219047Y-97623809D01*
X158104761Y-97661904D01*
X158028571Y-97661904D01*
X158638095Y-96861904D02*
X159133333Y-96861904D01*
X158866666Y-97166666D01*
X158980952Y-97166666D01*
X159057142Y-97204761D01*
X159095238Y-97242857D01*
X159133333Y-97319047D01*
X159133333Y-97509523D01*
X159095238Y-97585714D01*
X159057142Y-97623809D01*
X158980952Y-97661904D01*
X158752380Y-97661904D01*
X158676190Y-97623809D01*
X158638095Y-97585714D01*
%TO.C,C1*%
X148937142Y-84266666D02*
X148984761Y-84314285D01*
X149032380Y-84457142D01*
X149032380Y-84552380D01*
X148984761Y-84695238D01*
X148889523Y-84790476D01*
X148794285Y-84838095D01*
X148603809Y-84885714D01*
X148460952Y-84885714D01*
X148270476Y-84838095D01*
X148175238Y-84790476D01*
X148080000Y-84695238D01*
X148032380Y-84552380D01*
X148032380Y-84457142D01*
X148080000Y-84314285D01*
X148127619Y-84266666D01*
X149032380Y-83314285D02*
X149032380Y-83885714D01*
X149032380Y-83600000D02*
X148032380Y-83600000D01*
X148175238Y-83695238D01*
X148270476Y-83790476D01*
X148318095Y-83885714D01*
%TO.C,C9*%
X133633333Y-82357142D02*
X133585714Y-82404761D01*
X133442857Y-82452380D01*
X133347619Y-82452380D01*
X133204761Y-82404761D01*
X133109523Y-82309523D01*
X133061904Y-82214285D01*
X133014285Y-82023809D01*
X133014285Y-81880952D01*
X133061904Y-81690476D01*
X133109523Y-81595238D01*
X133204761Y-81500000D01*
X133347619Y-81452380D01*
X133442857Y-81452380D01*
X133585714Y-81500000D01*
X133633333Y-81547619D01*
X134109523Y-82452380D02*
X134300000Y-82452380D01*
X134395238Y-82404761D01*
X134442857Y-82357142D01*
X134538095Y-82214285D01*
X134585714Y-82023809D01*
X134585714Y-81642857D01*
X134538095Y-81547619D01*
X134490476Y-81500000D01*
X134395238Y-81452380D01*
X134204761Y-81452380D01*
X134109523Y-81500000D01*
X134061904Y-81547619D01*
X134014285Y-81642857D01*
X134014285Y-81880952D01*
X134061904Y-81976190D01*
X134109523Y-82023809D01*
X134204761Y-82071428D01*
X134395238Y-82071428D01*
X134490476Y-82023809D01*
X134538095Y-81976190D01*
X134585714Y-81880952D01*
%TO.C,R7*%
X132602380Y-92986666D02*
X132126190Y-93320000D01*
X132602380Y-93558095D02*
X131602380Y-93558095D01*
X131602380Y-93177142D01*
X131650000Y-93081904D01*
X131697619Y-93034285D01*
X131792857Y-92986666D01*
X131935714Y-92986666D01*
X132030952Y-93034285D01*
X132078571Y-93081904D01*
X132126190Y-93177142D01*
X132126190Y-93558095D01*
X131602380Y-92653333D02*
X131602380Y-91986666D01*
X132602380Y-92415238D01*
%TO.C,C17*%
X161157142Y-83837142D02*
X161109523Y-83884761D01*
X160966666Y-83932380D01*
X160871428Y-83932380D01*
X160728571Y-83884761D01*
X160633333Y-83789523D01*
X160585714Y-83694285D01*
X160538095Y-83503809D01*
X160538095Y-83360952D01*
X160585714Y-83170476D01*
X160633333Y-83075238D01*
X160728571Y-82980000D01*
X160871428Y-82932380D01*
X160966666Y-82932380D01*
X161109523Y-82980000D01*
X161157142Y-83027619D01*
X162109523Y-83932380D02*
X161538095Y-83932380D01*
X161823809Y-83932380D02*
X161823809Y-82932380D01*
X161728571Y-83075238D01*
X161633333Y-83170476D01*
X161538095Y-83218095D01*
X162442857Y-82932380D02*
X163109523Y-82932380D01*
X162680952Y-83932380D01*
%TO.C,J4*%
X122166666Y-92702380D02*
X122166666Y-93416666D01*
X122119047Y-93559523D01*
X122023809Y-93654761D01*
X121880952Y-93702380D01*
X121785714Y-93702380D01*
X123071428Y-93035714D02*
X123071428Y-93702380D01*
X122833333Y-92654761D02*
X122595238Y-93369047D01*
X123214285Y-93369047D01*
%TO.C,JP1*%
X158052380Y-88333333D02*
X158766666Y-88333333D01*
X158909523Y-88380952D01*
X159004761Y-88476190D01*
X159052380Y-88619047D01*
X159052380Y-88714285D01*
X159052380Y-87857142D02*
X158052380Y-87857142D01*
X158052380Y-87476190D01*
X158100000Y-87380952D01*
X158147619Y-87333333D01*
X158242857Y-87285714D01*
X158385714Y-87285714D01*
X158480952Y-87333333D01*
X158528571Y-87380952D01*
X158576190Y-87476190D01*
X158576190Y-87857142D01*
X159052380Y-86333333D02*
X159052380Y-86904761D01*
X159052380Y-86619047D02*
X158052380Y-86619047D01*
X158195238Y-86714285D01*
X158290476Y-86809523D01*
X158338095Y-86904761D01*
%TO.C,C6*%
X151957142Y-60366666D02*
X152004761Y-60414285D01*
X152052380Y-60557142D01*
X152052380Y-60652380D01*
X152004761Y-60795238D01*
X151909523Y-60890476D01*
X151814285Y-60938095D01*
X151623809Y-60985714D01*
X151480952Y-60985714D01*
X151290476Y-60938095D01*
X151195238Y-60890476D01*
X151100000Y-60795238D01*
X151052380Y-60652380D01*
X151052380Y-60557142D01*
X151100000Y-60414285D01*
X151147619Y-60366666D01*
X151052380Y-59509523D02*
X151052380Y-59700000D01*
X151100000Y-59795238D01*
X151147619Y-59842857D01*
X151290476Y-59938095D01*
X151480952Y-59985714D01*
X151861904Y-59985714D01*
X151957142Y-59938095D01*
X152004761Y-59890476D01*
X152052380Y-59795238D01*
X152052380Y-59604761D01*
X152004761Y-59509523D01*
X151957142Y-59461904D01*
X151861904Y-59414285D01*
X151623809Y-59414285D01*
X151528571Y-59461904D01*
X151480952Y-59509523D01*
X151433333Y-59604761D01*
X151433333Y-59795238D01*
X151480952Y-59890476D01*
X151528571Y-59938095D01*
X151623809Y-59985714D01*
%TO.C,C8*%
X145433333Y-88777142D02*
X145385714Y-88824761D01*
X145242857Y-88872380D01*
X145147619Y-88872380D01*
X145004761Y-88824761D01*
X144909523Y-88729523D01*
X144861904Y-88634285D01*
X144814285Y-88443809D01*
X144814285Y-88300952D01*
X144861904Y-88110476D01*
X144909523Y-88015238D01*
X145004761Y-87920000D01*
X145147619Y-87872380D01*
X145242857Y-87872380D01*
X145385714Y-87920000D01*
X145433333Y-87967619D01*
X146004761Y-88300952D02*
X145909523Y-88253333D01*
X145861904Y-88205714D01*
X145814285Y-88110476D01*
X145814285Y-88062857D01*
X145861904Y-87967619D01*
X145909523Y-87920000D01*
X146004761Y-87872380D01*
X146195238Y-87872380D01*
X146290476Y-87920000D01*
X146338095Y-87967619D01*
X146385714Y-88062857D01*
X146385714Y-88110476D01*
X146338095Y-88205714D01*
X146290476Y-88253333D01*
X146195238Y-88300952D01*
X146004761Y-88300952D01*
X145909523Y-88348571D01*
X145861904Y-88396190D01*
X145814285Y-88491428D01*
X145814285Y-88681904D01*
X145861904Y-88777142D01*
X145909523Y-88824761D01*
X146004761Y-88872380D01*
X146195238Y-88872380D01*
X146290476Y-88824761D01*
X146338095Y-88777142D01*
X146385714Y-88681904D01*
X146385714Y-88491428D01*
X146338095Y-88396190D01*
X146290476Y-88348571D01*
X146195238Y-88300952D01*
%TO.C,D4*%
X164802380Y-83713095D02*
X163802380Y-83713095D01*
X163802380Y-83475000D01*
X163850000Y-83332142D01*
X163945238Y-83236904D01*
X164040476Y-83189285D01*
X164230952Y-83141666D01*
X164373809Y-83141666D01*
X164564285Y-83189285D01*
X164659523Y-83236904D01*
X164754761Y-83332142D01*
X164802380Y-83475000D01*
X164802380Y-83713095D01*
X164135714Y-82284523D02*
X164802380Y-82284523D01*
X163754761Y-82522619D02*
X164469047Y-82760714D01*
X164469047Y-82141666D01*
%TO.C,SW1*%
X142666666Y-58104761D02*
X142809523Y-58152380D01*
X143047619Y-58152380D01*
X143142857Y-58104761D01*
X143190476Y-58057142D01*
X143238095Y-57961904D01*
X143238095Y-57866666D01*
X143190476Y-57771428D01*
X143142857Y-57723809D01*
X143047619Y-57676190D01*
X142857142Y-57628571D01*
X142761904Y-57580952D01*
X142714285Y-57533333D01*
X142666666Y-57438095D01*
X142666666Y-57342857D01*
X142714285Y-57247619D01*
X142761904Y-57200000D01*
X142857142Y-57152380D01*
X143095238Y-57152380D01*
X143238095Y-57200000D01*
X143571428Y-57152380D02*
X143809523Y-58152380D01*
X144000000Y-57438095D01*
X144190476Y-58152380D01*
X144428571Y-57152380D01*
X145333333Y-58152380D02*
X144761904Y-58152380D01*
X145047619Y-58152380D02*
X145047619Y-57152380D01*
X144952380Y-57295238D01*
X144857142Y-57390476D01*
X144761904Y-57438095D01*
%TO.C,U1*%
X143452380Y-77761904D02*
X144261904Y-77761904D01*
X144357142Y-77714285D01*
X144404761Y-77666666D01*
X144452380Y-77571428D01*
X144452380Y-77380952D01*
X144404761Y-77285714D01*
X144357142Y-77238095D01*
X144261904Y-77190476D01*
X143452380Y-77190476D01*
X144452380Y-76190476D02*
X144452380Y-76761904D01*
X144452380Y-76476190D02*
X143452380Y-76476190D01*
X143595238Y-76571428D01*
X143690476Y-76666666D01*
X143738095Y-76761904D01*
%TO.C,C14*%
X159607142Y-67697970D02*
X159654761Y-67745589D01*
X159702380Y-67888446D01*
X159702380Y-67983684D01*
X159654761Y-68126541D01*
X159559523Y-68221779D01*
X159464285Y-68269398D01*
X159273809Y-68317017D01*
X159130952Y-68317017D01*
X158940476Y-68269398D01*
X158845238Y-68221779D01*
X158750000Y-68126541D01*
X158702380Y-67983684D01*
X158702380Y-67888446D01*
X158750000Y-67745589D01*
X158797619Y-67697970D01*
X159702380Y-66745589D02*
X159702380Y-67317017D01*
X159702380Y-67031303D02*
X158702380Y-67031303D01*
X158845238Y-67126541D01*
X158940476Y-67221779D01*
X158988095Y-67317017D01*
X159035714Y-65888446D02*
X159702380Y-65888446D01*
X158654761Y-66126541D02*
X159369047Y-66364636D01*
X159369047Y-65745589D01*
%TO.C,R2*%
X138752380Y-60566666D02*
X138276190Y-60900000D01*
X138752380Y-61138095D02*
X137752380Y-61138095D01*
X137752380Y-60757142D01*
X137800000Y-60661904D01*
X137847619Y-60614285D01*
X137942857Y-60566666D01*
X138085714Y-60566666D01*
X138180952Y-60614285D01*
X138228571Y-60661904D01*
X138276190Y-60757142D01*
X138276190Y-61138095D01*
X137847619Y-60185714D02*
X137800000Y-60138095D01*
X137752380Y-60042857D01*
X137752380Y-59804761D01*
X137800000Y-59709523D01*
X137847619Y-59661904D01*
X137942857Y-59614285D01*
X138038095Y-59614285D01*
X138180952Y-59661904D01*
X138752380Y-60233333D01*
X138752380Y-59614285D01*
D12*
%TO.C,D3*%
X131410000Y-97600000D02*
X131410000Y-94740000D01*
X131410000Y-94740000D02*
X129490000Y-94740000D01*
X129490000Y-94740000D02*
X129490000Y-97600000D01*
%TO.C,C12*%
X154638748Y-75935000D02*
X155161252Y-75935000D01*
X154638748Y-74465000D02*
X155161252Y-74465000D01*
D13*
%TO.C,J2*%
X160260000Y-101800000D02*
X163470000Y-101800000D01*
X167030000Y-96600000D02*
X170140000Y-96600000D01*
X170140000Y-96600000D02*
X170140000Y-101800000D01*
X170140000Y-101800000D02*
X168230000Y-101800000D01*
X160260000Y-96600000D02*
X160260000Y-101800000D01*
X162170000Y-96600000D02*
X160260000Y-96600000D01*
X168530000Y-102400000D02*
G75*
G03*
X168530000Y-102400000I-100000J0D01*
G01*
D12*
%TO.C,C2*%
X149438748Y-73335000D02*
X149961252Y-73335000D01*
X149438748Y-71865000D02*
X149961252Y-71865000D01*
%TO.C,R1*%
X136372936Y-86785000D02*
X136827064Y-86785000D01*
X136372936Y-85315000D02*
X136827064Y-85315000D01*
%TO.C,C16*%
X168535000Y-78661252D02*
X168535000Y-78138748D01*
X167065000Y-78661252D02*
X167065000Y-78138748D01*
D14*
%TO.C,J5*%
X115300000Y-82600000D02*
X109500000Y-82600000D01*
X109500000Y-82600000D02*
X109500000Y-72400000D01*
X115300000Y-72400000D02*
X115300000Y-82600000D01*
X109500000Y-72400000D02*
X115300000Y-72400000D01*
D12*
%TO.C,D5*%
X164840000Y-93910000D02*
X167700000Y-93910000D01*
X164840000Y-91990000D02*
X164840000Y-93910000D01*
X167700000Y-91990000D02*
X164840000Y-91990000D01*
%TO.C,R3*%
X148472936Y-93365000D02*
X148927064Y-93365000D01*
X148472936Y-94835000D02*
X148927064Y-94835000D01*
%TO.C,C5*%
X141965000Y-70111252D02*
X141965000Y-69588748D01*
X143435000Y-70111252D02*
X143435000Y-69588748D01*
%TO.C,C15*%
X125108349Y-84540000D02*
X125108349Y-87510000D01*
X126468349Y-80007000D02*
X126468349Y-82460000D01*
X126748349Y-80191000D02*
X126748349Y-82460000D01*
X128268349Y-82271000D02*
X128268349Y-84729000D01*
X125668349Y-79637000D02*
X125668349Y-82460000D01*
X125228349Y-79515000D02*
X125228349Y-82460000D01*
X127188349Y-80555000D02*
X127188349Y-86445000D01*
X125988349Y-84540000D02*
X125988349Y-87240000D01*
X125027349Y-79476000D02*
X125027349Y-87524000D01*
X126188349Y-84540000D02*
X126188349Y-87147000D01*
X126508349Y-80031000D02*
X126508349Y-82460000D01*
X124347349Y-79420000D02*
X124347349Y-87580000D01*
X126028349Y-84540000D02*
X126028349Y-87222000D01*
X128228349Y-82154000D02*
X128228349Y-84846000D01*
X126068349Y-79796000D02*
X126068349Y-82460000D01*
X126788349Y-84540000D02*
X126788349Y-86780000D01*
X126668349Y-80135000D02*
X126668349Y-82460000D01*
X126268349Y-84540000D02*
X126268349Y-87106000D01*
X128068349Y-81769000D02*
X128068349Y-85231000D01*
X128148349Y-81948000D02*
X128148349Y-85052000D01*
X126868349Y-84540000D02*
X126868349Y-86720000D01*
X126268349Y-79894000D02*
X126268349Y-82460000D01*
X120337651Y-80785000D02*
X120337651Y-81585000D01*
X126908349Y-84540000D02*
X126908349Y-86689000D01*
X125908349Y-79726000D02*
X125908349Y-82460000D01*
X127148349Y-80517000D02*
X127148349Y-86483000D01*
X126348349Y-79938000D02*
X126348349Y-82460000D01*
X126708349Y-80162000D02*
X126708349Y-82460000D01*
X127308349Y-80674000D02*
X127308349Y-86326000D01*
X128308349Y-82402000D02*
X128308349Y-84598000D01*
X125108349Y-79490000D02*
X125108349Y-82460000D01*
X125188349Y-84540000D02*
X125188349Y-87494000D01*
X127268349Y-80633000D02*
X127268349Y-86367000D01*
X126028349Y-79778000D02*
X126028349Y-82460000D01*
X126868349Y-80280000D02*
X126868349Y-82460000D01*
X127748349Y-81213000D02*
X127748349Y-85787000D01*
X127028349Y-80410000D02*
X127028349Y-82460000D01*
X125868349Y-84540000D02*
X125868349Y-87290000D01*
X125068349Y-84540000D02*
X125068349Y-87517000D01*
X125348349Y-79543000D02*
X125348349Y-82460000D01*
X125788349Y-79679000D02*
X125788349Y-82460000D01*
X125268349Y-84540000D02*
X125268349Y-87476000D01*
X124907349Y-79458000D02*
X124907349Y-87542000D01*
X126108349Y-79814000D02*
X126108349Y-82460000D01*
X127948349Y-81536000D02*
X127948349Y-85464000D01*
X127068349Y-84540000D02*
X127068349Y-86555000D01*
X125788349Y-84540000D02*
X125788349Y-87321000D01*
X126748349Y-84540000D02*
X126748349Y-86809000D01*
X127508349Y-80896000D02*
X127508349Y-86104000D01*
X125508349Y-84540000D02*
X125508349Y-87414000D01*
X127868349Y-81398000D02*
X127868349Y-85602000D01*
X125748349Y-79665000D02*
X125748349Y-82460000D01*
X125148349Y-79498000D02*
X125148349Y-82460000D01*
X125548349Y-84540000D02*
X125548349Y-87402000D01*
X125828349Y-79695000D02*
X125828349Y-82460000D01*
X124507349Y-79423000D02*
X124507349Y-87577000D01*
X124867349Y-79452000D02*
X124867349Y-87548000D01*
X126628349Y-84540000D02*
X126628349Y-86892000D01*
X126108349Y-84540000D02*
X126108349Y-87186000D01*
X127108349Y-84540000D02*
X127108349Y-86519000D01*
X126948349Y-80344000D02*
X126948349Y-82460000D01*
X125268349Y-79524000D02*
X125268349Y-82460000D01*
X124587349Y-79426000D02*
X124587349Y-87574000D01*
X125588349Y-79611000D02*
X125588349Y-82460000D01*
X126948349Y-84540000D02*
X126948349Y-86656000D01*
X119937651Y-81185000D02*
X120737651Y-81185000D01*
X125628349Y-84540000D02*
X125628349Y-87377000D01*
X124387349Y-79420000D02*
X124387349Y-87580000D01*
X127788349Y-81272000D02*
X127788349Y-85728000D01*
X127708349Y-81155000D02*
X127708349Y-85845000D01*
X124947349Y-79463000D02*
X124947349Y-87537000D01*
X124627349Y-79429000D02*
X124627349Y-87571000D01*
X124787349Y-79443000D02*
X124787349Y-87557000D01*
X127068349Y-80445000D02*
X127068349Y-82460000D01*
X125628349Y-79623000D02*
X125628349Y-82460000D01*
X125948349Y-79743000D02*
X125948349Y-82460000D01*
X125428349Y-84540000D02*
X125428349Y-87436000D01*
X125948349Y-84540000D02*
X125948349Y-87257000D01*
X126788349Y-80220000D02*
X126788349Y-82460000D01*
X126348349Y-84540000D02*
X126348349Y-87062000D01*
X128188349Y-82047000D02*
X128188349Y-84953000D01*
X124547349Y-79424000D02*
X124547349Y-87576000D01*
X126308349Y-79916000D02*
X126308349Y-82460000D01*
X127988349Y-81610000D02*
X127988349Y-85390000D01*
X124827349Y-79448000D02*
X124827349Y-87552000D01*
X125868349Y-79710000D02*
X125868349Y-82460000D01*
X125308349Y-84540000D02*
X125308349Y-87467000D01*
X126388349Y-79960000D02*
X126388349Y-82460000D01*
X127908349Y-81466000D02*
X127908349Y-85534000D01*
X126468349Y-84540000D02*
X126468349Y-86993000D01*
X127588349Y-80995000D02*
X127588349Y-86005000D01*
X127428349Y-80803000D02*
X127428349Y-86197000D01*
X128028349Y-81687000D02*
X128028349Y-85313000D01*
X126708349Y-84540000D02*
X126708349Y-86838000D01*
X126588349Y-80082000D02*
X126588349Y-82460000D01*
X128108349Y-81855000D02*
X128108349Y-85145000D01*
X125388349Y-79553000D02*
X125388349Y-82460000D01*
X128348349Y-82552000D02*
X128348349Y-84448000D01*
X125348349Y-84540000D02*
X125348349Y-87457000D01*
X126188349Y-79853000D02*
X126188349Y-82460000D01*
X127828349Y-81334000D02*
X127828349Y-85666000D01*
X126828349Y-84540000D02*
X126828349Y-86750000D01*
X127668349Y-81100000D02*
X127668349Y-85900000D01*
X125708349Y-79650000D02*
X125708349Y-82460000D01*
X126148349Y-79834000D02*
X126148349Y-82460000D01*
X125228349Y-84540000D02*
X125228349Y-87485000D01*
X125508349Y-79586000D02*
X125508349Y-82460000D01*
X125668349Y-84540000D02*
X125668349Y-87363000D01*
X125308349Y-79533000D02*
X125308349Y-82460000D01*
X126548349Y-80056000D02*
X126548349Y-82460000D01*
X127028349Y-84540000D02*
X127028349Y-86590000D01*
X126308349Y-84540000D02*
X126308349Y-87084000D01*
X126628349Y-80108000D02*
X126628349Y-82460000D01*
X125068349Y-79483000D02*
X125068349Y-82460000D01*
X125468349Y-84540000D02*
X125468349Y-87425000D01*
X127108349Y-80481000D02*
X127108349Y-82460000D01*
X125908349Y-84540000D02*
X125908349Y-87274000D01*
X125388349Y-84540000D02*
X125388349Y-87447000D01*
X124987349Y-79470000D02*
X124987349Y-87530000D01*
X126428349Y-79983000D02*
X126428349Y-82460000D01*
X126428349Y-84540000D02*
X126428349Y-87017000D01*
X125188349Y-79506000D02*
X125188349Y-82460000D01*
X127468349Y-80849000D02*
X127468349Y-86151000D01*
X125708349Y-84540000D02*
X125708349Y-87350000D01*
X125828349Y-84540000D02*
X125828349Y-87305000D01*
X125988349Y-79760000D02*
X125988349Y-82460000D01*
X126388349Y-84540000D02*
X126388349Y-87040000D01*
X124427349Y-79420000D02*
X124427349Y-87580000D01*
X126908349Y-80311000D02*
X126908349Y-82460000D01*
X127228349Y-80593000D02*
X127228349Y-86407000D01*
X126988349Y-80376000D02*
X126988349Y-82460000D01*
X126508349Y-84540000D02*
X126508349Y-86969000D01*
X126668349Y-84540000D02*
X126668349Y-86865000D01*
X128388349Y-82732000D02*
X128388349Y-84268000D01*
X124747349Y-79439000D02*
X124747349Y-87561000D01*
X126228349Y-79873000D02*
X126228349Y-82460000D01*
X125588349Y-84540000D02*
X125588349Y-87389000D01*
X124467349Y-79421000D02*
X124467349Y-87579000D01*
X126148349Y-84540000D02*
X126148349Y-87166000D01*
X126548349Y-84540000D02*
X126548349Y-86944000D01*
X125748349Y-84540000D02*
X125748349Y-87335000D01*
X125468349Y-79575000D02*
X125468349Y-82460000D01*
X125148349Y-84540000D02*
X125148349Y-87502000D01*
X124707349Y-79435000D02*
X124707349Y-87565000D01*
X126988349Y-84540000D02*
X126988349Y-86624000D01*
X128428349Y-82967000D02*
X128428349Y-84033000D01*
X127628349Y-81046000D02*
X127628349Y-85954000D01*
X127388349Y-80759000D02*
X127388349Y-86241000D01*
X127548349Y-80944000D02*
X127548349Y-86056000D01*
X126228349Y-84540000D02*
X126228349Y-87127000D01*
X126588349Y-84540000D02*
X126588349Y-86918000D01*
X126068349Y-84540000D02*
X126068349Y-87204000D01*
X124667349Y-79432000D02*
X124667349Y-87568000D01*
X126828349Y-80250000D02*
X126828349Y-82460000D01*
X127348349Y-80716000D02*
X127348349Y-86284000D01*
X125428349Y-79564000D02*
X125428349Y-82460000D01*
X125548349Y-79598000D02*
X125548349Y-82460000D01*
X128467349Y-83500000D02*
G75*
G03*
X128467349Y-83500000I-4120000J0D01*
G01*
%TO.C,R5*%
X145827064Y-92835000D02*
X145372936Y-92835000D01*
X145827064Y-91365000D02*
X145372936Y-91365000D01*
%TO.C,C3*%
X147865000Y-64938748D02*
X147865000Y-65461252D01*
X149335000Y-64938748D02*
X149335000Y-65461252D01*
%TO.C,C10*%
X141961252Y-92835000D02*
X141438748Y-92835000D01*
X141961252Y-91365000D02*
X141438748Y-91365000D01*
%TO.C,A1*%
X116760000Y-69880000D02*
X116760000Y-87790000D01*
X129590000Y-67210000D02*
X129590000Y-87790000D01*
X118160000Y-67210000D02*
X116760000Y-67210000D01*
X132260000Y-87790000D02*
X132260000Y-67210000D01*
X119430000Y-69880000D02*
X119430000Y-87790000D01*
X119430000Y-67210000D02*
X119430000Y-69880000D01*
X132260000Y-67210000D02*
X119430000Y-67210000D01*
X116760000Y-67210000D02*
X116760000Y-68610000D01*
X116760000Y-87790000D02*
X132260000Y-87790000D01*
X119430000Y-69880000D02*
X116760000Y-69880000D01*
%TO.C,C7*%
X136761252Y-80635000D02*
X136238748Y-80635000D01*
X136761252Y-79165000D02*
X136238748Y-79165000D01*
%TO.C,C4*%
X141535000Y-65461252D02*
X141535000Y-64938748D01*
X140065000Y-65461252D02*
X140065000Y-64938748D01*
%TO.C,Y1*%
X147350000Y-67050000D02*
X147350000Y-63350000D01*
X147350000Y-63350000D02*
X142050000Y-63350000D01*
%TO.C,SW2*%
X127640000Y-62150000D02*
X127640000Y-58450000D01*
X127640000Y-58450000D02*
X133760000Y-58450000D01*
X133760000Y-62150000D02*
X127640000Y-62150000D01*
X133760000Y-58450000D02*
X133760000Y-62150000D01*
%TO.C,D1*%
X138610000Y-85045000D02*
X138610000Y-86965000D01*
X141295000Y-85045000D02*
X138610000Y-85045000D01*
X138610000Y-86965000D02*
X141295000Y-86965000D01*
%TO.C,R8*%
X166735000Y-87002064D02*
X166735000Y-86547936D01*
X165265000Y-87002064D02*
X165265000Y-86547936D01*
%TO.C,D2*%
X156860000Y-92100000D02*
X156860000Y-92750000D01*
X153740000Y-92100000D02*
X153740000Y-91450000D01*
X156860000Y-92100000D02*
X156860000Y-91450000D01*
X153740000Y-92100000D02*
X153740000Y-93775000D01*
%TO.C,R4*%
X138027064Y-92835000D02*
X137572936Y-92835000D01*
X138027064Y-91365000D02*
X137572936Y-91365000D01*
%TO.C,R9*%
X162672936Y-93685000D02*
X163127064Y-93685000D01*
X162672936Y-92215000D02*
X163127064Y-92215000D01*
%TO.C,R6*%
X154135000Y-87327064D02*
X154135000Y-86872936D01*
X152665000Y-87327064D02*
X152665000Y-86872936D01*
%TO.C,U3*%
X159690000Y-80400000D02*
X159690000Y-74390000D01*
X166510000Y-78150000D02*
X166510000Y-74390000D01*
X166510000Y-74390000D02*
X165250000Y-74390000D01*
X159690000Y-74390000D02*
X160950000Y-74390000D01*
%TO.C,U2*%
X157560000Y-79900000D02*
X157560000Y-76450000D01*
X152440000Y-79900000D02*
X152440000Y-77950000D01*
X157560000Y-79900000D02*
X157560000Y-81850000D01*
X152440000Y-79900000D02*
X152440000Y-81850000D01*
%TO.C,C11*%
X137435000Y-98523752D02*
X137435000Y-98001248D01*
X135965000Y-98523752D02*
X135965000Y-98001248D01*
D13*
%TO.C,J3*%
X159440000Y-96600000D02*
X159440000Y-101800000D01*
X159440000Y-101800000D02*
X157530000Y-101800000D01*
X151470000Y-96600000D02*
X149560000Y-96600000D01*
X149560000Y-101800000D02*
X152770000Y-101800000D01*
X149560000Y-96600000D02*
X149560000Y-101800000D01*
X156330000Y-96600000D02*
X159440000Y-96600000D01*
X157830000Y-102400000D02*
G75*
G03*
X157830000Y-102400000I-100000J0D01*
G01*
D12*
%TO.C,C1*%
X146165000Y-83838748D02*
X146165000Y-84361252D01*
X147635000Y-83838748D02*
X147635000Y-84361252D01*
%TO.C,C9*%
X136761252Y-82735000D02*
X136238748Y-82735000D01*
X136761252Y-81265000D02*
X136238748Y-81265000D01*
%TO.C,R7*%
X131235000Y-92592936D02*
X131235000Y-93047064D01*
X129765000Y-92592936D02*
X129765000Y-93047064D01*
%TO.C,C17*%
X162061252Y-82535000D02*
X161538748Y-82535000D01*
X162061252Y-81065000D02*
X161538748Y-81065000D01*
D13*
%TO.C,J4*%
X128600000Y-91150000D02*
X128600000Y-103350000D01*
X128600000Y-103350000D02*
X116400000Y-103350000D01*
X116400000Y-103350000D02*
X116400000Y-91150000D01*
X116400000Y-91150000D02*
X128600000Y-91150000D01*
D15*
X117900000Y-94350000D02*
G75*
G03*
X117900000Y-94350000I-100000J0D01*
G01*
D12*
%TO.C,JP1*%
X157530000Y-84605000D02*
X154870000Y-84605000D01*
X157530000Y-87205000D02*
X154870000Y-87205000D01*
X157530000Y-87205000D02*
X157530000Y-84605000D01*
X157530000Y-89805000D02*
X156200000Y-89805000D01*
X154870000Y-87205000D02*
X154870000Y-84605000D01*
X157530000Y-88475000D02*
X157530000Y-89805000D01*
%TO.C,C6*%
X150735000Y-60461252D02*
X150735000Y-59938748D01*
X149265000Y-60461252D02*
X149265000Y-59938748D01*
%TO.C,C8*%
X145338748Y-89365000D02*
X145861252Y-89365000D01*
X145338748Y-90835000D02*
X145861252Y-90835000D01*
%TO.C,D4*%
X165040000Y-84835000D02*
X166960000Y-84835000D01*
X166960000Y-84835000D02*
X166960000Y-81975000D01*
X165040000Y-81975000D02*
X165040000Y-84835000D01*
%TO.C,SW1*%
X140940000Y-62150000D02*
X140940000Y-58450000D01*
X147060000Y-58450000D02*
X147060000Y-62150000D01*
X147060000Y-62150000D02*
X140940000Y-62150000D01*
X140940000Y-58450000D02*
X147060000Y-58450000D01*
%TO.C,U1*%
X147160000Y-73390000D02*
X147160000Y-72100000D01*
X140390000Y-73390000D02*
X140840000Y-73390000D01*
X147610000Y-73390000D02*
X147160000Y-73390000D01*
X140390000Y-73840000D02*
X140390000Y-73390000D01*
X140390000Y-80610000D02*
X140840000Y-80610000D01*
X140390000Y-80160000D02*
X140390000Y-80610000D01*
X147610000Y-80610000D02*
X147160000Y-80610000D01*
X147610000Y-80160000D02*
X147610000Y-80610000D01*
X147610000Y-73840000D02*
X147610000Y-73390000D01*
%TO.C,C14*%
X160464000Y-66575113D02*
X161960000Y-66575113D01*
X160431000Y-66815113D02*
X161960000Y-66815113D01*
X164040000Y-66254113D02*
X165455000Y-66254113D01*
X162085000Y-64614113D02*
X163915000Y-64614113D01*
X164040000Y-66334113D02*
X165480000Y-66334113D01*
X164040000Y-65294113D02*
X164901000Y-65294113D01*
X160439000Y-66735113D02*
X161960000Y-66735113D01*
X161136000Y-65254113D02*
X161960000Y-65254113D01*
X160905000Y-65534113D02*
X161960000Y-65534113D01*
X164040000Y-66054113D02*
X165382000Y-66054113D01*
X164040000Y-67015113D02*
X165580000Y-67015113D01*
X160652000Y-65974113D02*
X161960000Y-65974113D01*
X164040000Y-66975113D02*
X165579000Y-66975113D01*
X162195000Y-64574113D02*
X163805000Y-64574113D01*
X160965000Y-65454113D02*
X161960000Y-65454113D01*
X164040000Y-66655113D02*
X165550000Y-66655113D01*
X164040000Y-66935113D02*
X165578000Y-66935113D01*
X164040000Y-65974113D02*
X165348000Y-65974113D01*
X160878000Y-65574113D02*
X161960000Y-65574113D01*
X161174000Y-65214113D02*
X161960000Y-65214113D01*
X160420000Y-67015113D02*
X161960000Y-67015113D01*
X160422000Y-66935113D02*
X161960000Y-66935113D01*
X164040000Y-65214113D02*
X164826000Y-65214113D01*
X161063000Y-65334113D02*
X161960000Y-65334113D01*
X161099000Y-65294113D02*
X161960000Y-65294113D01*
X160532000Y-66294113D02*
X161960000Y-66294113D01*
X160450000Y-66655113D02*
X161960000Y-66655113D01*
X160444000Y-66695113D02*
X161960000Y-66695113D01*
X164040000Y-65774113D02*
X165247000Y-65774113D01*
X160457000Y-66615113D02*
X161960000Y-66615113D01*
X160420000Y-67055113D02*
X161960000Y-67055113D01*
X161617000Y-64854113D02*
X164383000Y-64854113D01*
X164040000Y-65534113D02*
X165095000Y-65534113D01*
X160545000Y-66254113D02*
X161960000Y-66254113D01*
X161557000Y-64894113D02*
X164443000Y-64894113D01*
X160851000Y-65614113D02*
X161960000Y-65614113D01*
X164040000Y-66695113D02*
X165556000Y-66695113D01*
X164040000Y-66375113D02*
X165491000Y-66375113D01*
X161902000Y-64694113D02*
X164098000Y-64694113D01*
X160825000Y-65654113D02*
X161960000Y-65654113D01*
X164040000Y-67055113D02*
X165580000Y-67055113D01*
X160732000Y-65814113D02*
X161960000Y-65814113D01*
X164040000Y-66094113D02*
X165398000Y-66094113D01*
X164040000Y-66294113D02*
X165468000Y-66294113D01*
X160421000Y-66975113D02*
X161960000Y-66975113D01*
X160499000Y-66415113D02*
X161960000Y-66415113D01*
X161347000Y-65054113D02*
X161960000Y-65054113D01*
X160671000Y-65934113D02*
X161960000Y-65934113D01*
X161500000Y-64934113D02*
X164500000Y-64934113D01*
X161822000Y-64734113D02*
X164178000Y-64734113D01*
X164040000Y-66214113D02*
X165442000Y-66214113D01*
X160520000Y-66334113D02*
X161960000Y-66334113D01*
X161275000Y-69609888D02*
X161775000Y-69609888D01*
X160586000Y-66134113D02*
X161960000Y-66134113D01*
X161681000Y-64814113D02*
X164319000Y-64814113D01*
X164040000Y-65414113D02*
X165004000Y-65414113D01*
X161029000Y-65374113D02*
X161960000Y-65374113D01*
X164040000Y-66615113D02*
X165543000Y-66615113D01*
X164040000Y-65174113D02*
X164785000Y-65174113D01*
X164040000Y-66775113D02*
X165565000Y-66775113D01*
X160509000Y-66375113D02*
X161960000Y-66375113D01*
X164040000Y-65134113D02*
X164743000Y-65134113D01*
X161301000Y-65094113D02*
X161960000Y-65094113D01*
X160996000Y-65414113D02*
X161960000Y-65414113D01*
X160776000Y-65734113D02*
X161960000Y-65734113D01*
X164040000Y-65054113D02*
X164653000Y-65054113D01*
X161525000Y-69859888D02*
X161525000Y-69359888D01*
X160800000Y-65694113D02*
X161960000Y-65694113D01*
X160572000Y-66174113D02*
X161960000Y-66174113D01*
X164040000Y-66134113D02*
X165414000Y-66134113D01*
X164040000Y-66174113D02*
X165428000Y-66174113D01*
X161749000Y-64774113D02*
X164251000Y-64774113D01*
X164040000Y-66895113D02*
X165576000Y-66895113D01*
X161257000Y-65134113D02*
X161960000Y-65134113D01*
X162323000Y-64534113D02*
X163677000Y-64534113D01*
X162482000Y-64494113D02*
X163518000Y-64494113D01*
X164040000Y-65694113D02*
X165200000Y-65694113D01*
X164040000Y-66855113D02*
X165573000Y-66855113D01*
X160635000Y-66014113D02*
X161960000Y-66014113D01*
X160618000Y-66054113D02*
X161960000Y-66054113D01*
X164040000Y-65614113D02*
X165149000Y-65614113D01*
X164040000Y-66014113D02*
X165365000Y-66014113D01*
X164040000Y-65374113D02*
X164971000Y-65374113D01*
X164040000Y-65574113D02*
X165122000Y-65574113D01*
X161446000Y-64974113D02*
X164554000Y-64974113D01*
X164040000Y-65894113D02*
X165310000Y-65894113D01*
X164040000Y-65494113D02*
X165065000Y-65494113D01*
X160489000Y-66455113D02*
X161960000Y-66455113D01*
X164040000Y-65094113D02*
X164699000Y-65094113D01*
X160435000Y-66775113D02*
X161960000Y-66775113D01*
X164040000Y-65814113D02*
X165268000Y-65814113D01*
X164040000Y-65254113D02*
X164864000Y-65254113D01*
X160710000Y-65854113D02*
X161960000Y-65854113D01*
X160480000Y-66495113D02*
X161960000Y-66495113D01*
X164040000Y-65654113D02*
X165175000Y-65654113D01*
X164040000Y-65734113D02*
X165224000Y-65734113D01*
X160935000Y-65494113D02*
X161960000Y-65494113D01*
X164040000Y-66735113D02*
X165561000Y-66735113D01*
X164040000Y-66495113D02*
X165520000Y-66495113D01*
X164040000Y-66455113D02*
X165511000Y-66455113D01*
X160558000Y-66214113D02*
X161960000Y-66214113D01*
X161395000Y-65014113D02*
X164605000Y-65014113D01*
X160753000Y-65774113D02*
X161960000Y-65774113D01*
X160472000Y-66535113D02*
X161960000Y-66535113D01*
X161989000Y-64654113D02*
X164011000Y-64654113D01*
X161215000Y-65174113D02*
X161960000Y-65174113D01*
X164040000Y-66815113D02*
X165569000Y-66815113D01*
X164040000Y-65454113D02*
X165035000Y-65454113D01*
X164040000Y-65334113D02*
X164937000Y-65334113D01*
X164040000Y-65934113D02*
X165329000Y-65934113D01*
X160690000Y-65894113D02*
X161960000Y-65894113D01*
X164040000Y-65854113D02*
X165290000Y-65854113D01*
X160602000Y-66094113D02*
X161960000Y-66094113D01*
X164040000Y-66415113D02*
X165501000Y-66415113D01*
X162716000Y-64454113D02*
X163284000Y-64454113D01*
X160424000Y-66895113D02*
X161960000Y-66895113D01*
X164040000Y-66575113D02*
X165536000Y-66575113D01*
X160427000Y-66855113D02*
X161960000Y-66855113D01*
X164040000Y-66535113D02*
X165528000Y-66535113D01*
X165620000Y-67055113D02*
G75*
G03*
X165620000Y-67055113I-2620000J0D01*
G01*
%TO.C,R2*%
X135965000Y-60172936D02*
X135965000Y-60627064D01*
X137435000Y-60172936D02*
X137435000Y-60627064D01*
%TD*%
M02*
