%TF.GenerationSoftware,KiCad,Pcbnew,(6.0.2)*%
%TF.CreationDate,2022-03-05T17:56:55+01:00*%
%TF.ProjectId,PCB_stepper,5043425f-7374-4657-9070-65722e6b6963,rev?*%
%TF.SameCoordinates,Original*%
%TF.FileFunction,Copper,L2,Bot*%
%TF.FilePolarity,Positive*%
%FSLAX46Y46*%
G04 Gerber Fmt 4.6, Leading zero omitted, Abs format (unit mm)*
G04 Created by KiCad (PCBNEW (6.0.2)) date 2022-03-05 17:56:55*
%MOMM*%
%LPD*%
G01*
G04 APERTURE LIST*
%TA.AperFunction,ComponentPad*%
%ADD10C,0.800000*%
%TD*%
%TA.AperFunction,ComponentPad*%
%ADD11C,6.400000*%
%TD*%
%TA.AperFunction,ComponentPad*%
%ADD12C,1.508000*%
%TD*%
%TA.AperFunction,ComponentPad*%
%ADD13R,1.600000X1.600000*%
%TD*%
%TA.AperFunction,ComponentPad*%
%ADD14C,1.600000*%
%TD*%
%TA.AperFunction,ComponentPad*%
%ADD15O,1.600000X1.600000*%
%TD*%
%TA.AperFunction,ComponentPad*%
%ADD16C,2.400000*%
%TD*%
%TA.AperFunction,ComponentPad*%
%ADD17R,1.700000X1.700000*%
%TD*%
%TA.AperFunction,ComponentPad*%
%ADD18O,1.700000X1.700000*%
%TD*%
%TA.AperFunction,ComponentPad*%
%ADD19C,0.700000*%
%TD*%
%TA.AperFunction,ComponentPad*%
%ADD20O,0.900000X2.400000*%
%TD*%
%TA.AperFunction,ComponentPad*%
%ADD21O,0.900000X1.700000*%
%TD*%
%TA.AperFunction,ViaPad*%
%ADD22C,0.800000*%
%TD*%
%TA.AperFunction,Conductor*%
%ADD23C,0.250000*%
%TD*%
%TA.AperFunction,Conductor*%
%ADD24C,0.200000*%
%TD*%
G04 APERTURE END LIST*
D10*
%TO.P,H4,1,1*%
%TO.N,GND*%
X112250000Y-102650000D03*
D11*
X112250000Y-100250000D03*
D10*
X113947056Y-98552944D03*
X114650000Y-100250000D03*
X110552944Y-101947056D03*
X113947056Y-101947056D03*
X112250000Y-97850000D03*
X109850000Y-100250000D03*
X110552944Y-98552944D03*
%TD*%
D12*
%TO.P,J5,1,Pin_1*%
%TO.N,Net-(A1-Pad3)*%
X112100000Y-73690000D03*
%TO.P,J5,2,Pin_2*%
%TO.N,Net-(A1-Pad4)*%
X112100000Y-76230000D03*
%TO.P,J5,3,Pin_3*%
%TO.N,Net-(A1-Pad5)*%
X112100000Y-78770000D03*
%TO.P,J5,4,Pin_4*%
%TO.N,Net-(A1-Pad6)*%
X112100000Y-81310000D03*
%TD*%
D10*
%TO.P,H1,1,1*%
%TO.N,GND*%
X109850000Y-60000000D03*
X110552944Y-58302944D03*
X110552944Y-61697056D03*
X112250000Y-57600000D03*
X114650000Y-60000000D03*
X113947056Y-58302944D03*
X113947056Y-61697056D03*
D11*
X112250000Y-60000000D03*
D10*
X112250000Y-62400000D03*
%TD*%
%TO.P,H3,1,1*%
%TO.N,GND*%
X172552944Y-101947056D03*
X175947056Y-98552944D03*
X175947056Y-101947056D03*
X174250000Y-97850000D03*
D11*
X174250000Y-100250000D03*
D10*
X171850000Y-100250000D03*
X176650000Y-100250000D03*
X172552944Y-98552944D03*
X174250000Y-102650000D03*
%TD*%
D13*
%TO.P,C15,1*%
%TO.N,+24V*%
X122597349Y-83500000D03*
D14*
%TO.P,C15,2*%
%TO.N,GND*%
X126097349Y-83500000D03*
%TD*%
D13*
%TO.P,A1,1,GND*%
%TO.N,GND*%
X118160000Y-68610000D03*
D15*
%TO.P,A1,2,~{FLT}*%
%TO.N,unconnected-(A1-Pad2)*%
X118160000Y-71150000D03*
%TO.P,A1,3,A2*%
%TO.N,Net-(A1-Pad3)*%
X118160000Y-73690000D03*
%TO.P,A1,4,A1*%
%TO.N,Net-(A1-Pad4)*%
X118160000Y-76230000D03*
%TO.P,A1,5,B1*%
%TO.N,Net-(A1-Pad5)*%
X118160000Y-78770000D03*
%TO.P,A1,6,B2*%
%TO.N,Net-(A1-Pad6)*%
X118160000Y-81310000D03*
%TO.P,A1,7,GND*%
%TO.N,GND*%
X118160000Y-83850000D03*
%TO.P,A1,8,VMOT*%
%TO.N,+24V*%
X118160000Y-86390000D03*
%TO.P,A1,9,~{EN}*%
%TO.N,/EN*%
X130860000Y-86390000D03*
%TO.P,A1,10,M0*%
%TO.N,/M0*%
X130860000Y-83850000D03*
%TO.P,A1,11,M1*%
%TO.N,/M1*%
X130860000Y-81310000D03*
%TO.P,A1,12,M2*%
%TO.N,/M2*%
X130860000Y-78770000D03*
%TO.P,A1,13,~{RST}*%
%TO.N,/RST_M*%
X130860000Y-76230000D03*
%TO.P,A1,14,~{SLP}*%
%TO.N,/SLP*%
X130860000Y-73690000D03*
%TO.P,A1,15,STEP*%
%TO.N,/STEP*%
X130860000Y-71150000D03*
%TO.P,A1,16,DIR*%
%TO.N,/DIR*%
X130860000Y-68610000D03*
%TD*%
D16*
%TO.P,J4,1,Pin_1*%
%TO.N,+24V*%
X120000000Y-93250000D03*
%TO.P,J4,2,Pin_2*%
%TO.N,GND*%
X125000000Y-93250000D03*
%TD*%
D17*
%TO.P,JP1,1,1*%
%TO.N,/CANH*%
X156200000Y-88475000D03*
D18*
%TO.P,JP1,2,2*%
%TO.N,Net-(JP1-Pad2)*%
X156200000Y-85935000D03*
%TD*%
D10*
%TO.P,H2,1,1*%
%TO.N,GND*%
X176650000Y-60000000D03*
X175947056Y-58302944D03*
X174250000Y-62400000D03*
X171850000Y-60000000D03*
D11*
X174250000Y-60000000D03*
D10*
X174250000Y-57600000D03*
X175947056Y-61697056D03*
X172552944Y-61697056D03*
X172552944Y-58302944D03*
%TD*%
D13*
%TO.P,C14,1*%
%TO.N,+3V3*%
X163000000Y-68055113D03*
D14*
%TO.P,C14,2*%
%TO.N,GND*%
X163000000Y-66055113D03*
%TD*%
D19*
%TO.P,J1,A1,GND*%
%TO.N,GND*%
X146075000Y-97475000D03*
%TO.P,J1,A4,VBUS*%
%TO.N,+5V*%
X145225000Y-97475000D03*
%TO.P,J1,A5,CC1*%
%TO.N,Net-(J1-PadA5)*%
X144375000Y-97475000D03*
%TO.P,J1,A6,D+*%
%TO.N,/USB+*%
X143525000Y-97475000D03*
%TO.P,J1,A7,D-*%
%TO.N,/USB-*%
X142675000Y-97475000D03*
%TO.P,J1,A8,SBU1*%
%TO.N,unconnected-(J1-PadA8)*%
X141825000Y-97475000D03*
%TO.P,J1,A9,VBUS*%
%TO.N,+5V*%
X140975000Y-97475000D03*
%TO.P,J1,A12,GND*%
%TO.N,GND*%
X140125000Y-97475000D03*
%TO.P,J1,B1,GND*%
X140125000Y-98825000D03*
%TO.P,J1,B4,VBUS*%
%TO.N,+5V*%
X140975000Y-98825000D03*
%TO.P,J1,B5,CC2*%
%TO.N,Net-(J1-PadB5)*%
X141825000Y-98825000D03*
%TO.P,J1,B6,D+*%
%TO.N,/USB+*%
X142675000Y-98825000D03*
%TO.P,J1,B7,D-*%
%TO.N,/USB-*%
X143525000Y-98825000D03*
%TO.P,J1,B8,SBU2*%
%TO.N,unconnected-(J1-PadB8)*%
X144375000Y-98825000D03*
%TO.P,J1,B9,VBUS*%
%TO.N,+5V*%
X145225000Y-98825000D03*
%TO.P,J1,B12,GND*%
%TO.N,GND*%
X146075000Y-98825000D03*
D20*
%TO.P,J1,S1,SHIELD*%
X138775000Y-98455000D03*
D21*
X138775000Y-101835000D03*
D20*
X147425000Y-98455000D03*
D21*
X147425000Y-101835000D03*
%TD*%
D22*
%TO.N,GND*%
X143500000Y-74500000D03*
X148500000Y-85250000D03*
X155250000Y-92750000D03*
X134000000Y-82000000D03*
X152000000Y-72500000D03*
X138250000Y-78500000D03*
X150000000Y-74525500D03*
X134000000Y-80000000D03*
X149750000Y-92500000D03*
X148250000Y-90000000D03*
X141250000Y-68500000D03*
%TO.N,/RST*%
X141455284Y-69908803D03*
X150000000Y-62650000D03*
%TO.N,+3V3*%
X153900000Y-71750000D03*
X153862500Y-75200000D03*
%TO.N,Net-(J1-PadB5)*%
X138850000Y-93800000D03*
%TO.N,/BOOT0*%
X136650000Y-62950000D03*
X146974500Y-76250000D03*
%TD*%
D23*
%TO.N,/RST*%
X150000000Y-67950000D02*
X148041197Y-69908803D01*
X148041197Y-69908803D02*
X141455284Y-69908803D01*
X150000000Y-62650000D02*
X150000000Y-67950000D01*
%TO.N,+3V3*%
X153900000Y-71750000D02*
X153900000Y-75162500D01*
X153900000Y-75162500D02*
X153862500Y-75200000D01*
D24*
%TO.N,/USB-*%
X142675000Y-97475000D02*
X142675000Y-97543548D01*
X143525000Y-98393548D02*
X143525000Y-98825000D01*
X142675000Y-97543548D02*
X143525000Y-98393548D01*
D23*
%TO.N,Net-(J1-PadB5)*%
X138750000Y-93800000D02*
X138850000Y-93800000D01*
X140794974Y-100350000D02*
X138824664Y-100350000D01*
X141825000Y-99319974D02*
X140794974Y-100350000D01*
X138824664Y-100350000D02*
X138000480Y-99525816D01*
X138000480Y-99525816D02*
X138000480Y-94549520D01*
X141825000Y-98825000D02*
X141825000Y-99319974D01*
X138000480Y-94549520D02*
X138750000Y-93800000D01*
%TO.N,/BOOT0*%
X146974500Y-76250000D02*
X146771867Y-76250000D01*
X136650000Y-66128133D02*
X136650000Y-62950000D01*
X146771867Y-76250000D02*
X136650000Y-66128133D01*
%TD*%
%TA.AperFunction,Conductor*%
%TO.N,GND*%
G36*
X172930208Y-56320002D02*
G01*
X172976701Y-56373658D01*
X172986805Y-56443932D01*
X172957311Y-56508512D01*
X172907241Y-56543631D01*
X172742836Y-56606740D01*
X172736811Y-56609422D01*
X172396397Y-56782872D01*
X172390687Y-56786169D01*
X172070265Y-56994253D01*
X172064939Y-56998123D01*
X171826165Y-57191478D01*
X171817700Y-57203733D01*
X171824034Y-57214824D01*
X177034310Y-62425100D01*
X177047386Y-62432241D01*
X177057753Y-62424784D01*
X177251877Y-62185061D01*
X177255747Y-62179735D01*
X177463831Y-61859313D01*
X177467128Y-61853603D01*
X177640578Y-61513189D01*
X177643260Y-61507164D01*
X177706369Y-61342759D01*
X177749454Y-61286331D01*
X177816208Y-61262154D01*
X177885435Y-61277905D01*
X177935157Y-61328583D01*
X177950000Y-61387913D01*
X177950000Y-98862087D01*
X177929998Y-98930208D01*
X177876342Y-98976701D01*
X177806068Y-98986805D01*
X177741488Y-98957311D01*
X177706369Y-98907241D01*
X177643260Y-98742836D01*
X177640578Y-98736811D01*
X177467128Y-98396397D01*
X177463831Y-98390687D01*
X177255747Y-98070265D01*
X177251877Y-98064939D01*
X177058522Y-97826165D01*
X177046267Y-97817700D01*
X177035176Y-97824034D01*
X171824900Y-103034310D01*
X171817759Y-103047386D01*
X171825216Y-103057753D01*
X172064935Y-103251874D01*
X172070272Y-103255751D01*
X172390685Y-103463830D01*
X172396394Y-103467127D01*
X172736811Y-103640578D01*
X172742836Y-103643260D01*
X172907241Y-103706369D01*
X172963669Y-103749454D01*
X172987846Y-103816208D01*
X172972095Y-103885435D01*
X172921417Y-103935157D01*
X172862087Y-103950000D01*
X113637913Y-103950000D01*
X113569792Y-103929998D01*
X113523299Y-103876342D01*
X113513195Y-103806068D01*
X113542689Y-103741488D01*
X113592759Y-103706369D01*
X113757164Y-103643260D01*
X113763189Y-103640578D01*
X114103606Y-103467127D01*
X114109315Y-103463830D01*
X114429728Y-103255751D01*
X114435065Y-103251874D01*
X114673835Y-103058522D01*
X114682300Y-103046267D01*
X114675966Y-103035176D01*
X111891922Y-100251132D01*
X112614408Y-100251132D01*
X112614539Y-100252965D01*
X112618790Y-100259580D01*
X115034310Y-102675100D01*
X115047386Y-102682241D01*
X115057753Y-102674784D01*
X115251877Y-102435061D01*
X115255747Y-102429735D01*
X115352696Y-102280447D01*
X137817000Y-102280447D01*
X137817323Y-102286822D01*
X137831082Y-102422277D01*
X137833636Y-102434717D01*
X137888016Y-102608244D01*
X137893025Y-102619932D01*
X137981187Y-102778979D01*
X137988438Y-102789412D01*
X138106785Y-102927491D01*
X138115976Y-102936244D01*
X138259680Y-103047711D01*
X138270440Y-103054435D01*
X138433625Y-103134732D01*
X138445519Y-103139155D01*
X138503470Y-103154251D01*
X138517564Y-103153817D01*
X138521000Y-103145636D01*
X138521000Y-103144229D01*
X139029000Y-103144229D01*
X139032973Y-103157760D01*
X139039075Y-103158637D01*
X139191136Y-103102690D01*
X139202549Y-103097123D01*
X139357108Y-103001292D01*
X139367174Y-102993540D01*
X139499303Y-102868592D01*
X139507605Y-102858974D01*
X139611908Y-102710013D01*
X139618108Y-102698919D01*
X139690332Y-102532020D01*
X139694171Y-102519917D01*
X139731675Y-102340400D01*
X139732915Y-102330848D01*
X139733000Y-102327616D01*
X139733000Y-102280447D01*
X146467000Y-102280447D01*
X146467323Y-102286822D01*
X146481082Y-102422277D01*
X146483636Y-102434717D01*
X146538016Y-102608244D01*
X146543025Y-102619932D01*
X146631187Y-102778979D01*
X146638438Y-102789412D01*
X146756785Y-102927491D01*
X146765976Y-102936244D01*
X146909680Y-103047711D01*
X146920440Y-103054435D01*
X147083625Y-103134732D01*
X147095519Y-103139155D01*
X147153470Y-103154251D01*
X147167564Y-103153817D01*
X147171000Y-103145636D01*
X147171000Y-103144229D01*
X147679000Y-103144229D01*
X147682973Y-103157760D01*
X147689075Y-103158637D01*
X147841136Y-103102690D01*
X147852549Y-103097123D01*
X148007108Y-103001292D01*
X148017174Y-102993540D01*
X148149303Y-102868592D01*
X148157605Y-102858974D01*
X148261908Y-102710013D01*
X148268108Y-102698919D01*
X148340332Y-102532020D01*
X148344171Y-102519917D01*
X148381675Y-102340400D01*
X148382915Y-102330848D01*
X148383000Y-102327616D01*
X148383000Y-102107115D01*
X148378525Y-102091876D01*
X148377135Y-102090671D01*
X148369452Y-102089000D01*
X147697115Y-102089000D01*
X147681876Y-102093475D01*
X147680671Y-102094865D01*
X147679000Y-102102548D01*
X147679000Y-103144229D01*
X147171000Y-103144229D01*
X147171000Y-102107115D01*
X147166525Y-102091876D01*
X147165135Y-102090671D01*
X147157452Y-102089000D01*
X146485115Y-102089000D01*
X146469876Y-102093475D01*
X146468671Y-102094865D01*
X146467000Y-102102548D01*
X146467000Y-102280447D01*
X139733000Y-102280447D01*
X139733000Y-102107115D01*
X139728525Y-102091876D01*
X139727135Y-102090671D01*
X139719452Y-102089000D01*
X139047115Y-102089000D01*
X139031876Y-102093475D01*
X139030671Y-102094865D01*
X139029000Y-102102548D01*
X139029000Y-103144229D01*
X138521000Y-103144229D01*
X138521000Y-102107115D01*
X138516525Y-102091876D01*
X138515135Y-102090671D01*
X138507452Y-102089000D01*
X137835115Y-102089000D01*
X137819876Y-102093475D01*
X137818671Y-102094865D01*
X137817000Y-102102548D01*
X137817000Y-102280447D01*
X115352696Y-102280447D01*
X115463831Y-102109313D01*
X115467128Y-102103603D01*
X115640578Y-101763189D01*
X115643260Y-101757164D01*
X115780171Y-101400498D01*
X115782212Y-101394216D01*
X115881094Y-101025184D01*
X115882465Y-101018734D01*
X115942234Y-100641371D01*
X115942920Y-100634833D01*
X115962916Y-100253301D01*
X115962916Y-100246699D01*
X115942920Y-99865167D01*
X115942234Y-99858629D01*
X115900195Y-99593209D01*
X137574980Y-99593209D01*
X137582394Y-99616026D01*
X137587008Y-99635245D01*
X137590761Y-99658942D01*
X137595264Y-99667779D01*
X137595264Y-99667780D01*
X137601652Y-99680318D01*
X137609216Y-99698579D01*
X137613565Y-99711963D01*
X137613567Y-99711966D01*
X137616631Y-99721397D01*
X137622460Y-99729420D01*
X137630733Y-99740807D01*
X137641057Y-99757653D01*
X137651952Y-99779036D01*
X137675926Y-99803010D01*
X138001554Y-100128637D01*
X138295745Y-100422828D01*
X138329771Y-100485140D01*
X138324706Y-100555955D01*
X138282159Y-100612791D01*
X138273047Y-100619009D01*
X138192892Y-100668708D01*
X138182826Y-100676460D01*
X138050697Y-100801408D01*
X138042395Y-100811026D01*
X137938092Y-100959987D01*
X137931892Y-100971081D01*
X137859668Y-101137980D01*
X137855829Y-101150083D01*
X137818325Y-101329600D01*
X137817085Y-101339152D01*
X137817000Y-101342384D01*
X137817000Y-101562885D01*
X137821475Y-101578124D01*
X137822865Y-101579329D01*
X137830548Y-101581000D01*
X139714885Y-101581000D01*
X139730124Y-101576525D01*
X139731329Y-101575135D01*
X139733000Y-101567452D01*
X139733000Y-101562885D01*
X146467000Y-101562885D01*
X146471475Y-101578124D01*
X146472865Y-101579329D01*
X146480548Y-101581000D01*
X147152885Y-101581000D01*
X147168124Y-101576525D01*
X147169329Y-101575135D01*
X147171000Y-101567452D01*
X147171000Y-101562885D01*
X147679000Y-101562885D01*
X147683475Y-101578124D01*
X147684865Y-101579329D01*
X147692548Y-101581000D01*
X148364885Y-101581000D01*
X148380124Y-101576525D01*
X148381329Y-101575135D01*
X148383000Y-101567452D01*
X148383000Y-101389553D01*
X148382677Y-101383178D01*
X148368918Y-101247723D01*
X148366364Y-101235283D01*
X148311984Y-101061756D01*
X148306975Y-101050068D01*
X148218813Y-100891021D01*
X148211562Y-100880588D01*
X148093215Y-100742509D01*
X148084024Y-100733756D01*
X147940320Y-100622289D01*
X147929560Y-100615565D01*
X147766375Y-100535268D01*
X147754481Y-100530845D01*
X147696530Y-100515749D01*
X147682436Y-100516183D01*
X147679000Y-100524364D01*
X147679000Y-101562885D01*
X147171000Y-101562885D01*
X147171000Y-100525771D01*
X147167027Y-100512240D01*
X147160925Y-100511363D01*
X147008864Y-100567310D01*
X146997451Y-100572877D01*
X146842892Y-100668708D01*
X146832826Y-100676460D01*
X146700697Y-100801408D01*
X146692395Y-100811026D01*
X146588092Y-100959987D01*
X146581892Y-100971081D01*
X146509668Y-101137980D01*
X146505829Y-101150083D01*
X146468325Y-101329600D01*
X146467085Y-101339152D01*
X146467000Y-101342384D01*
X146467000Y-101562885D01*
X139733000Y-101562885D01*
X139733000Y-101389553D01*
X139732677Y-101383178D01*
X139718918Y-101247723D01*
X139716364Y-101235283D01*
X139661984Y-101061756D01*
X139656975Y-101050068D01*
X139608483Y-100962586D01*
X139592952Y-100893309D01*
X139617340Y-100826633D01*
X139673904Y-100783726D01*
X139718685Y-100775500D01*
X140862367Y-100775500D01*
X140885184Y-100768086D01*
X140904403Y-100763472D01*
X140928100Y-100759719D01*
X140936938Y-100755216D01*
X140949476Y-100748828D01*
X140967737Y-100741264D01*
X140981121Y-100736915D01*
X140981124Y-100736913D01*
X140990555Y-100733849D01*
X141009965Y-100719747D01*
X141026811Y-100709423D01*
X141048194Y-100698528D01*
X141493421Y-100253301D01*
X170537084Y-100253301D01*
X170557080Y-100634833D01*
X170557766Y-100641371D01*
X170617535Y-101018734D01*
X170618906Y-101025184D01*
X170717788Y-101394216D01*
X170719829Y-101400498D01*
X170856740Y-101757164D01*
X170859422Y-101763189D01*
X171032872Y-102103603D01*
X171036169Y-102109313D01*
X171244253Y-102429735D01*
X171248123Y-102435061D01*
X171441478Y-102673835D01*
X171453733Y-102682300D01*
X171464824Y-102675966D01*
X173877978Y-100262812D01*
X173885592Y-100248868D01*
X173885461Y-100247035D01*
X173881210Y-100240420D01*
X171465690Y-97824900D01*
X171452614Y-97817759D01*
X171442247Y-97825216D01*
X171248123Y-98064939D01*
X171244253Y-98070265D01*
X171036169Y-98390687D01*
X171032872Y-98396397D01*
X170859422Y-98736811D01*
X170856740Y-98742836D01*
X170719829Y-99099502D01*
X170717788Y-99105784D01*
X170618906Y-99474816D01*
X170617535Y-99481266D01*
X170557766Y-99858629D01*
X170557080Y-99865167D01*
X170537084Y-100246699D01*
X170537084Y-100253301D01*
X141493421Y-100253301D01*
X142173528Y-99573194D01*
X142184419Y-99551818D01*
X142194749Y-99534963D01*
X142203021Y-99523578D01*
X142203021Y-99523577D01*
X142208850Y-99515555D01*
X142216264Y-99492737D01*
X142223833Y-99474466D01*
X142226659Y-99468919D01*
X142275413Y-99417309D01*
X142344330Y-99400250D01*
X142399042Y-99415403D01*
X142427099Y-99430637D01*
X142427101Y-99430638D01*
X142433776Y-99434262D01*
X142441125Y-99436190D01*
X142578719Y-99472287D01*
X142578721Y-99472287D01*
X142586069Y-99474215D01*
X142669380Y-99475524D01*
X142735898Y-99476569D01*
X142735901Y-99476569D01*
X142743495Y-99476688D01*
X142896968Y-99441538D01*
X142979060Y-99400250D01*
X143030840Y-99374208D01*
X143030843Y-99374206D01*
X143037625Y-99370795D01*
X143038067Y-99371674D01*
X143099472Y-99352624D01*
X143161512Y-99367878D01*
X143277099Y-99430637D01*
X143277101Y-99430638D01*
X143283776Y-99434262D01*
X143291125Y-99436190D01*
X143428719Y-99472287D01*
X143428721Y-99472287D01*
X143436069Y-99474215D01*
X143519380Y-99475524D01*
X143585898Y-99476569D01*
X143585901Y-99476569D01*
X143593495Y-99476688D01*
X143746968Y-99441538D01*
X143829060Y-99400250D01*
X143880840Y-99374208D01*
X143880843Y-99374206D01*
X143887625Y-99370795D01*
X143888067Y-99371674D01*
X143949472Y-99352624D01*
X144011512Y-99367878D01*
X144127099Y-99430637D01*
X144127101Y-99430638D01*
X144133776Y-99434262D01*
X144141125Y-99436190D01*
X144278719Y-99472287D01*
X144278721Y-99472287D01*
X144286069Y-99474215D01*
X144369380Y-99475524D01*
X144435898Y-99476569D01*
X144435901Y-99476569D01*
X144443495Y-99476688D01*
X144596968Y-99441538D01*
X144679060Y-99400250D01*
X144730840Y-99374208D01*
X144730843Y-99374206D01*
X144737625Y-99370795D01*
X144738067Y-99371674D01*
X144799472Y-99352624D01*
X144861512Y-99367878D01*
X144977099Y-99430637D01*
X144977101Y-99430638D01*
X144983776Y-99434262D01*
X144991125Y-99436190D01*
X145128719Y-99472287D01*
X145128721Y-99472287D01*
X145136069Y-99474215D01*
X145219380Y-99475524D01*
X145285898Y-99476569D01*
X145285901Y-99476569D01*
X145293495Y-99476688D01*
X145446968Y-99441538D01*
X145453753Y-99438125D01*
X145453757Y-99438124D01*
X145515234Y-99407205D01*
X145585078Y-99394467D01*
X145650722Y-99421511D01*
X145691323Y-99479753D01*
X145693992Y-99550699D01*
X145682433Y-99580158D01*
X145679740Y-99585090D01*
X145683251Y-99589780D01*
X145802372Y-99642816D01*
X145814860Y-99646873D01*
X145978364Y-99681628D01*
X145991424Y-99683000D01*
X146158576Y-99683000D01*
X146171636Y-99681628D01*
X146335137Y-99646874D01*
X146347629Y-99642815D01*
X146422383Y-99609532D01*
X146492750Y-99600098D01*
X146557047Y-99630204D01*
X146583834Y-99663553D01*
X146631187Y-99748979D01*
X146638438Y-99759412D01*
X146756785Y-99897491D01*
X146765976Y-99906244D01*
X146909680Y-100017711D01*
X146920440Y-100024435D01*
X147083625Y-100104732D01*
X147095519Y-100109155D01*
X147153470Y-100124251D01*
X147167564Y-100123817D01*
X147171000Y-100115636D01*
X147171000Y-100114229D01*
X147679000Y-100114229D01*
X147682973Y-100127760D01*
X147689075Y-100128637D01*
X147841136Y-100072690D01*
X147852549Y-100067123D01*
X148007108Y-99971292D01*
X148017174Y-99963540D01*
X148149303Y-99838592D01*
X148157605Y-99828974D01*
X148261908Y-99680013D01*
X148268108Y-99668919D01*
X148340332Y-99502020D01*
X148344171Y-99489917D01*
X148381675Y-99310400D01*
X148382915Y-99300848D01*
X148383000Y-99297616D01*
X148383000Y-98727115D01*
X148378525Y-98711876D01*
X148377135Y-98710671D01*
X148369452Y-98709000D01*
X147697115Y-98709000D01*
X147681876Y-98713475D01*
X147680671Y-98714865D01*
X147679000Y-98722548D01*
X147679000Y-100114229D01*
X147171000Y-100114229D01*
X147171000Y-98727115D01*
X147166525Y-98711876D01*
X147165135Y-98710671D01*
X147157452Y-98709000D01*
X146553000Y-98709000D01*
X146484879Y-98688998D01*
X146438386Y-98635342D01*
X146427000Y-98583000D01*
X146427000Y-98327000D01*
X146447002Y-98258879D01*
X146500658Y-98212386D01*
X146553000Y-98201000D01*
X147152885Y-98201000D01*
X147168124Y-98196525D01*
X147169329Y-98195135D01*
X147171000Y-98187452D01*
X147171000Y-98182885D01*
X147679000Y-98182885D01*
X147683475Y-98198124D01*
X147684865Y-98199329D01*
X147692548Y-98201000D01*
X148364885Y-98201000D01*
X148380124Y-98196525D01*
X148381329Y-98195135D01*
X148383000Y-98187452D01*
X148383000Y-97659553D01*
X148382677Y-97653178D01*
X148368918Y-97517723D01*
X148366364Y-97505283D01*
X148350209Y-97453733D01*
X171817700Y-97453733D01*
X171824034Y-97464824D01*
X174237188Y-99877978D01*
X174251132Y-99885592D01*
X174252965Y-99885461D01*
X174259580Y-99881210D01*
X176675100Y-97465690D01*
X176682241Y-97452614D01*
X176674784Y-97442247D01*
X176435065Y-97248126D01*
X176429728Y-97244249D01*
X176109315Y-97036170D01*
X176103606Y-97032873D01*
X175763189Y-96859422D01*
X175757164Y-96856740D01*
X175400498Y-96719829D01*
X175394216Y-96717788D01*
X175025184Y-96618906D01*
X175018734Y-96617535D01*
X174641371Y-96557766D01*
X174634833Y-96557080D01*
X174253301Y-96537084D01*
X174246699Y-96537084D01*
X173865167Y-96557080D01*
X173858629Y-96557766D01*
X173481266Y-96617535D01*
X173474816Y-96618906D01*
X173105784Y-96717788D01*
X173099502Y-96719829D01*
X172742836Y-96856740D01*
X172736811Y-96859422D01*
X172396397Y-97032872D01*
X172390687Y-97036169D01*
X172070265Y-97244253D01*
X172064939Y-97248123D01*
X171826165Y-97441478D01*
X171817700Y-97453733D01*
X148350209Y-97453733D01*
X148311984Y-97331756D01*
X148306975Y-97320068D01*
X148218813Y-97161021D01*
X148211562Y-97150588D01*
X148093215Y-97012509D01*
X148084024Y-97003756D01*
X147940320Y-96892289D01*
X147929560Y-96885565D01*
X147766375Y-96805268D01*
X147754481Y-96800845D01*
X147696530Y-96785749D01*
X147682436Y-96786183D01*
X147679000Y-96794364D01*
X147679000Y-98182885D01*
X147171000Y-98182885D01*
X147171000Y-96795771D01*
X147167027Y-96782240D01*
X147160925Y-96781363D01*
X147008864Y-96837310D01*
X146997451Y-96842877D01*
X146842891Y-96938708D01*
X146836681Y-96943491D01*
X146829560Y-96955708D01*
X146830184Y-96970053D01*
X146842935Y-97015828D01*
X146821986Y-97083664D01*
X146806042Y-97103168D01*
X146164095Y-97745115D01*
X146101783Y-97779141D01*
X146030968Y-97774076D01*
X145985905Y-97745115D01*
X145905887Y-97665097D01*
X145871861Y-97602785D01*
X145870239Y-97558248D01*
X145879553Y-97492805D01*
X145880134Y-97488723D01*
X145880278Y-97475000D01*
X145861363Y-97318694D01*
X145815235Y-97196619D01*
X145809867Y-97125825D01*
X145843625Y-97063368D01*
X145905791Y-97029076D01*
X145976628Y-97033838D01*
X146022196Y-97062986D01*
X146062188Y-97102978D01*
X146076132Y-97110592D01*
X146077965Y-97110461D01*
X146084580Y-97106210D01*
X146463500Y-96727290D01*
X146470260Y-96714910D01*
X146466749Y-96710220D01*
X146347628Y-96657184D01*
X146335140Y-96653127D01*
X146171636Y-96618372D01*
X146158576Y-96617000D01*
X145991424Y-96617000D01*
X145978364Y-96618372D01*
X145814860Y-96653127D01*
X145802372Y-96657184D01*
X145690237Y-96707110D01*
X145679492Y-96716243D01*
X145686893Y-96742366D01*
X145686216Y-96813359D01*
X145647265Y-96872717D01*
X145582406Y-96901593D01*
X145506706Y-96888064D01*
X145459831Y-96863245D01*
X145443122Y-96859048D01*
X145314498Y-96826740D01*
X145314496Y-96826740D01*
X145307128Y-96824889D01*
X145299530Y-96824849D01*
X145299528Y-96824849D01*
X145232319Y-96824497D01*
X145149684Y-96824065D01*
X145142305Y-96825837D01*
X145142301Y-96825837D01*
X145003967Y-96859048D01*
X145003963Y-96859049D01*
X144996588Y-96860820D01*
X144856955Y-96932889D01*
X144787250Y-96946358D01*
X144740211Y-96932278D01*
X144609831Y-96863245D01*
X144593122Y-96859048D01*
X144464498Y-96826740D01*
X144464496Y-96826740D01*
X144457128Y-96824889D01*
X144449530Y-96824849D01*
X144449528Y-96824849D01*
X144382319Y-96824497D01*
X144299684Y-96824065D01*
X144292305Y-96825837D01*
X144292301Y-96825837D01*
X144153967Y-96859048D01*
X144153963Y-96859049D01*
X144146588Y-96860820D01*
X144006955Y-96932889D01*
X143937250Y-96946358D01*
X143890211Y-96932278D01*
X143759831Y-96863245D01*
X143743122Y-96859048D01*
X143614498Y-96826740D01*
X143614496Y-96826740D01*
X143607128Y-96824889D01*
X143599530Y-96824849D01*
X143599528Y-96824849D01*
X143532319Y-96824497D01*
X143449684Y-96824065D01*
X143442305Y-96825837D01*
X143442301Y-96825837D01*
X143303967Y-96859048D01*
X143303963Y-96859049D01*
X143296588Y-96860820D01*
X143156955Y-96932889D01*
X143087250Y-96946358D01*
X143040211Y-96932278D01*
X142909831Y-96863245D01*
X142893122Y-96859048D01*
X142764498Y-96826740D01*
X142764496Y-96826740D01*
X142757128Y-96824889D01*
X142749530Y-96824849D01*
X142749528Y-96824849D01*
X142682319Y-96824497D01*
X142599684Y-96824065D01*
X142592305Y-96825837D01*
X142592301Y-96825837D01*
X142453967Y-96859048D01*
X142453963Y-96859049D01*
X142446588Y-96860820D01*
X142306955Y-96932889D01*
X142237250Y-96946358D01*
X142190211Y-96932278D01*
X142059831Y-96863245D01*
X142043122Y-96859048D01*
X141914498Y-96826740D01*
X141914496Y-96826740D01*
X141907128Y-96824889D01*
X141899530Y-96824849D01*
X141899528Y-96824849D01*
X141832319Y-96824497D01*
X141749684Y-96824065D01*
X141742305Y-96825837D01*
X141742301Y-96825837D01*
X141603967Y-96859048D01*
X141603963Y-96859049D01*
X141596588Y-96860820D01*
X141456955Y-96932889D01*
X141387250Y-96946358D01*
X141340211Y-96932278D01*
X141209831Y-96863245D01*
X141193122Y-96859048D01*
X141064498Y-96826740D01*
X141064496Y-96826740D01*
X141057128Y-96824889D01*
X141049530Y-96824849D01*
X141049528Y-96824849D01*
X140982319Y-96824497D01*
X140899684Y-96824065D01*
X140892305Y-96825837D01*
X140892301Y-96825837D01*
X140753967Y-96859048D01*
X140753963Y-96859049D01*
X140746588Y-96860820D01*
X140739846Y-96864300D01*
X140739840Y-96864302D01*
X140686000Y-96892091D01*
X140616293Y-96905560D01*
X140550370Y-96879204D01*
X140509160Y-96821392D01*
X140505749Y-96750477D01*
X140517624Y-96719738D01*
X140520260Y-96714910D01*
X140516749Y-96710220D01*
X140397628Y-96657184D01*
X140385140Y-96653127D01*
X140221636Y-96618372D01*
X140208576Y-96617000D01*
X140041424Y-96617000D01*
X140028364Y-96618372D01*
X139864860Y-96653127D01*
X139852372Y-96657184D01*
X139740237Y-96707110D01*
X139729493Y-96716242D01*
X139731090Y-96721880D01*
X140112188Y-97102978D01*
X140126132Y-97110592D01*
X140127965Y-97110461D01*
X140134580Y-97106210D01*
X140178684Y-97062106D01*
X140240996Y-97028080D01*
X140311811Y-97033145D01*
X140368647Y-97075692D01*
X140393458Y-97142212D01*
X140385172Y-97196970D01*
X140340309Y-97312039D01*
X140339318Y-97319568D01*
X140321802Y-97452614D01*
X140319758Y-97468138D01*
X140330152Y-97562283D01*
X140317746Y-97632184D01*
X140294008Y-97665202D01*
X140214095Y-97745115D01*
X140151783Y-97779141D01*
X140080968Y-97774076D01*
X140035905Y-97745115D01*
X139391827Y-97101037D01*
X139357801Y-97038725D01*
X139362866Y-96967910D01*
X139367757Y-96957200D01*
X139359465Y-96945923D01*
X139290320Y-96892289D01*
X139279560Y-96885565D01*
X139116375Y-96805268D01*
X139104481Y-96800845D01*
X139046530Y-96785749D01*
X139032436Y-96786183D01*
X139029000Y-96794364D01*
X139029000Y-98182885D01*
X139033475Y-98198124D01*
X139034865Y-98199329D01*
X139042548Y-98201000D01*
X139647000Y-98201000D01*
X139715121Y-98221002D01*
X139761614Y-98274658D01*
X139773000Y-98327000D01*
X139773000Y-98583000D01*
X139752998Y-98651121D01*
X139699342Y-98697614D01*
X139647000Y-98709000D01*
X138647000Y-98709000D01*
X138578879Y-98688998D01*
X138532386Y-98635342D01*
X138521000Y-98583000D01*
X138521000Y-96795771D01*
X138516525Y-96780532D01*
X138507140Y-96772400D01*
X138469469Y-96755197D01*
X138431085Y-96695471D01*
X138425980Y-96659971D01*
X138425980Y-94777958D01*
X138445982Y-94709837D01*
X138462885Y-94688863D01*
X138622618Y-94529130D01*
X138684930Y-94495104D01*
X138739343Y-94496257D01*
X138739357Y-94496157D01*
X138740223Y-94496276D01*
X138743686Y-94496349D01*
X138754233Y-94499116D01*
X138840609Y-94500473D01*
X138916161Y-94501660D01*
X138916164Y-94501660D01*
X138923760Y-94501779D01*
X138931165Y-94500083D01*
X138931166Y-94500083D01*
X139004222Y-94483351D01*
X139089029Y-94463928D01*
X139240498Y-94387747D01*
X139347568Y-94296300D01*
X139363651Y-94282564D01*
X139363652Y-94282563D01*
X139369423Y-94277634D01*
X139468361Y-94139947D01*
X139495997Y-94071202D01*
X139528766Y-93989687D01*
X139528767Y-93989685D01*
X139531601Y-93982634D01*
X139555490Y-93814778D01*
X139555562Y-93807932D01*
X139555602Y-93804135D01*
X139555602Y-93804129D01*
X139555645Y-93800000D01*
X139535276Y-93631680D01*
X139475345Y-93473077D01*
X139379312Y-93333349D01*
X139373119Y-93327831D01*
X139258392Y-93225612D01*
X139258388Y-93225610D01*
X139252721Y-93220560D01*
X139102881Y-93141224D01*
X138938441Y-93099919D01*
X138930843Y-93099879D01*
X138930841Y-93099879D01*
X138853668Y-93099475D01*
X138768895Y-93099031D01*
X138761508Y-93100805D01*
X138761504Y-93100805D01*
X138618162Y-93135220D01*
X138604032Y-93138612D01*
X138597288Y-93142093D01*
X138597285Y-93142094D01*
X138592089Y-93144776D01*
X138453369Y-93216375D01*
X138447647Y-93221367D01*
X138447645Y-93221368D01*
X138403842Y-93259580D01*
X138325604Y-93327831D01*
X138228113Y-93466547D01*
X138166524Y-93624513D01*
X138165532Y-93632046D01*
X138165532Y-93632047D01*
X138148271Y-93763159D01*
X138119549Y-93828086D01*
X138112444Y-93835808D01*
X137651952Y-94296300D01*
X137641057Y-94317683D01*
X137630733Y-94334529D01*
X137616631Y-94353939D01*
X137613567Y-94363370D01*
X137613565Y-94363373D01*
X137609216Y-94376757D01*
X137601652Y-94395018D01*
X137590761Y-94416394D01*
X137589210Y-94426188D01*
X137587008Y-94440090D01*
X137582394Y-94459310D01*
X137574980Y-94482127D01*
X137574980Y-99593209D01*
X115900195Y-99593209D01*
X115882465Y-99481266D01*
X115881094Y-99474816D01*
X115782212Y-99105784D01*
X115780171Y-99099502D01*
X115643260Y-98742836D01*
X115640578Y-98736811D01*
X115467128Y-98396397D01*
X115463831Y-98390687D01*
X115255747Y-98070265D01*
X115251877Y-98064939D01*
X115058522Y-97826165D01*
X115046267Y-97817700D01*
X115035176Y-97824034D01*
X112622022Y-100237188D01*
X112614408Y-100251132D01*
X111891922Y-100251132D01*
X109465690Y-97824900D01*
X109452614Y-97817759D01*
X109442247Y-97825216D01*
X109248123Y-98064939D01*
X109244253Y-98070265D01*
X109036169Y-98390687D01*
X109032872Y-98396397D01*
X108859422Y-98736811D01*
X108856740Y-98742836D01*
X108793631Y-98907241D01*
X108750546Y-98963669D01*
X108683792Y-98987846D01*
X108614565Y-98972095D01*
X108564843Y-98921417D01*
X108550000Y-98862087D01*
X108550000Y-97453733D01*
X109817700Y-97453733D01*
X109824034Y-97464824D01*
X112237188Y-99877978D01*
X112251132Y-99885592D01*
X112252965Y-99885461D01*
X112259580Y-99881210D01*
X114675100Y-97465690D01*
X114682241Y-97452614D01*
X114674784Y-97442247D01*
X114435065Y-97248126D01*
X114429728Y-97244249D01*
X114109315Y-97036170D01*
X114103606Y-97032873D01*
X113763189Y-96859422D01*
X113757164Y-96856740D01*
X113400498Y-96719829D01*
X113394216Y-96717788D01*
X113025184Y-96618906D01*
X113018734Y-96617535D01*
X112641371Y-96557766D01*
X112634833Y-96557080D01*
X112253301Y-96537084D01*
X112246699Y-96537084D01*
X111865167Y-96557080D01*
X111858629Y-96557766D01*
X111481266Y-96617535D01*
X111474816Y-96618906D01*
X111105784Y-96717788D01*
X111099502Y-96719829D01*
X110742836Y-96856740D01*
X110736811Y-96859422D01*
X110396397Y-97032872D01*
X110390687Y-97036169D01*
X110070265Y-97244253D01*
X110064939Y-97248123D01*
X109826165Y-97441478D01*
X109817700Y-97453733D01*
X108550000Y-97453733D01*
X108550000Y-93213214D01*
X118494806Y-93213214D01*
X118495103Y-93218366D01*
X118495103Y-93218370D01*
X118497666Y-93262812D01*
X118509010Y-93459545D01*
X118510147Y-93464591D01*
X118510148Y-93464597D01*
X118513660Y-93480180D01*
X118563255Y-93700249D01*
X118656084Y-93928861D01*
X118658789Y-93933276D01*
X118658790Y-93933277D01*
X118705289Y-94009155D01*
X118785006Y-94139241D01*
X118946557Y-94325741D01*
X118950532Y-94329041D01*
X118950535Y-94329044D01*
X118991885Y-94363373D01*
X119136399Y-94483351D01*
X119349433Y-94607838D01*
X119354253Y-94609678D01*
X119354258Y-94609681D01*
X119468547Y-94653323D01*
X119579939Y-94695859D01*
X119585007Y-94696890D01*
X119585010Y-94696891D01*
X119704587Y-94721219D01*
X119821726Y-94745052D01*
X119826899Y-94745242D01*
X119826902Y-94745242D01*
X120063136Y-94753904D01*
X120063140Y-94753904D01*
X120068300Y-94754093D01*
X120073420Y-94753437D01*
X120073422Y-94753437D01*
X120149703Y-94743665D01*
X120313041Y-94722741D01*
X120317990Y-94721256D01*
X120317996Y-94721255D01*
X120544424Y-94653323D01*
X120544423Y-94653323D01*
X120549374Y-94651838D01*
X120607507Y-94623359D01*
X123991386Y-94623359D01*
X124000099Y-94634879D01*
X124088586Y-94699760D01*
X124096505Y-94704708D01*
X124312877Y-94818547D01*
X124321451Y-94822275D01*
X124552282Y-94902885D01*
X124561291Y-94905299D01*
X124801518Y-94950908D01*
X124810775Y-94951962D01*
X125055107Y-94961563D01*
X125064420Y-94961237D01*
X125307478Y-94934618D01*
X125316655Y-94932917D01*
X125553107Y-94870665D01*
X125561926Y-94867628D01*
X125786584Y-94771107D01*
X125794856Y-94766800D01*
X126002777Y-94638135D01*
X126004620Y-94636796D01*
X126012038Y-94625541D01*
X126005974Y-94615184D01*
X125012812Y-93622022D01*
X124998868Y-93614408D01*
X124997035Y-93614539D01*
X124990420Y-93618790D01*
X123998044Y-94611166D01*
X123991386Y-94623359D01*
X120607507Y-94623359D01*
X120653266Y-94600942D01*
X120766303Y-94545566D01*
X120766308Y-94545563D01*
X120770954Y-94543287D01*
X120775164Y-94540284D01*
X120775169Y-94540281D01*
X120967617Y-94403009D01*
X120967622Y-94403005D01*
X120971829Y-94400004D01*
X121146605Y-94225837D01*
X121290588Y-94025463D01*
X121311756Y-93982634D01*
X121344156Y-93917075D01*
X121399911Y-93804264D01*
X121433045Y-93695207D01*
X121470135Y-93573132D01*
X121470136Y-93573126D01*
X121471639Y-93568180D01*
X121501731Y-93339608D01*
X121503408Y-93326872D01*
X121503409Y-93326866D01*
X121503845Y-93323550D01*
X121505643Y-93250000D01*
X121502341Y-93209835D01*
X123288022Y-93209835D01*
X123299754Y-93454064D01*
X123300891Y-93463324D01*
X123348593Y-93703143D01*
X123351082Y-93712118D01*
X123433708Y-93942250D01*
X123437505Y-93950778D01*
X123553234Y-94166160D01*
X123558245Y-94174027D01*
X123615173Y-94250263D01*
X123626431Y-94258712D01*
X123638850Y-94251940D01*
X124627978Y-93262812D01*
X124634356Y-93251132D01*
X125364408Y-93251132D01*
X125364539Y-93252965D01*
X125368790Y-93259580D01*
X126363732Y-94254522D01*
X126376112Y-94261282D01*
X126384453Y-94255038D01*
X126502700Y-94071202D01*
X126507147Y-94063011D01*
X126607572Y-93840076D01*
X126610767Y-93831298D01*
X126677135Y-93595973D01*
X126678993Y-93586844D01*
X126710044Y-93342770D01*
X126710525Y-93336483D01*
X126712706Y-93253160D01*
X126712555Y-93246851D01*
X126694321Y-93001486D01*
X126692944Y-92992280D01*
X126638979Y-92753786D01*
X126636255Y-92744875D01*
X126547633Y-92516983D01*
X126543619Y-92508567D01*
X126422284Y-92296276D01*
X126417074Y-92288553D01*
X126385787Y-92248865D01*
X126373863Y-92240395D01*
X126362328Y-92246882D01*
X125372022Y-93237188D01*
X125364408Y-93251132D01*
X124634356Y-93251132D01*
X124635592Y-93248868D01*
X124635461Y-93247035D01*
X124631210Y-93240420D01*
X123636828Y-92246038D01*
X123623520Y-92238771D01*
X123613481Y-92245893D01*
X123608581Y-92251784D01*
X123603168Y-92259373D01*
X123476322Y-92468409D01*
X123472084Y-92476726D01*
X123377529Y-92702214D01*
X123374572Y-92711052D01*
X123314384Y-92948042D01*
X123312763Y-92957232D01*
X123288267Y-93200510D01*
X123288022Y-93209835D01*
X121502341Y-93209835D01*
X121493231Y-93099031D01*
X121485849Y-93009240D01*
X121485848Y-93009234D01*
X121485425Y-93004089D01*
X121425316Y-92764783D01*
X121326928Y-92538507D01*
X121192905Y-92331339D01*
X121166635Y-92302468D01*
X121115155Y-92245893D01*
X121026846Y-92148842D01*
X121022795Y-92145643D01*
X121022791Y-92145639D01*
X120837264Y-91999119D01*
X120837259Y-91999116D01*
X120833210Y-91995918D01*
X120828694Y-91993425D01*
X120828691Y-91993423D01*
X120621722Y-91879170D01*
X120621718Y-91879168D01*
X120617198Y-91876673D01*
X120612329Y-91874949D01*
X120612325Y-91874947D01*
X120612240Y-91874917D01*
X123989330Y-91874917D01*
X123993903Y-91884693D01*
X124987188Y-92877978D01*
X125001132Y-92885592D01*
X125002965Y-92885461D01*
X125009580Y-92881210D01*
X126002488Y-91888302D01*
X126008872Y-91876612D01*
X125999460Y-91864502D01*
X125873144Y-91776873D01*
X125865116Y-91772145D01*
X125645810Y-91663995D01*
X125637177Y-91660507D01*
X125404288Y-91585958D01*
X125395238Y-91583785D01*
X125153891Y-91544480D01*
X125144602Y-91543668D01*
X124900114Y-91540467D01*
X124890803Y-91541037D01*
X124648522Y-91574010D01*
X124639403Y-91575948D01*
X124404668Y-91644367D01*
X124395915Y-91647639D01*
X124173869Y-91750004D01*
X124165714Y-91754524D01*
X123998468Y-91864175D01*
X123989330Y-91874917D01*
X120612240Y-91874917D01*
X120389485Y-91796035D01*
X120389481Y-91796034D01*
X120384610Y-91794309D01*
X120379517Y-91793402D01*
X120379514Y-91793401D01*
X120146783Y-91751945D01*
X120146777Y-91751944D01*
X120141694Y-91751039D01*
X120062324Y-91750069D01*
X119900142Y-91748088D01*
X119900140Y-91748088D01*
X119894972Y-91748025D01*
X119651070Y-91785347D01*
X119416540Y-91862003D01*
X119197679Y-91975935D01*
X119193546Y-91979038D01*
X119193543Y-91979040D01*
X119004499Y-92120978D01*
X119000364Y-92124083D01*
X118996792Y-92127821D01*
X118878331Y-92251784D01*
X118829896Y-92302468D01*
X118826982Y-92306740D01*
X118826981Y-92306741D01*
X118807238Y-92335683D01*
X118690851Y-92506300D01*
X118675901Y-92538507D01*
X118595809Y-92711052D01*
X118586965Y-92730104D01*
X118521026Y-92967871D01*
X118494806Y-93213214D01*
X108550000Y-93213214D01*
X108550000Y-84116522D01*
X116877273Y-84116522D01*
X116924764Y-84293761D01*
X116928510Y-84304053D01*
X117020586Y-84501511D01*
X117026069Y-84511007D01*
X117151028Y-84689467D01*
X117158084Y-84697875D01*
X117312125Y-84851916D01*
X117320533Y-84858972D01*
X117498993Y-84983931D01*
X117508489Y-84989414D01*
X117705947Y-85081490D01*
X117716239Y-85085236D01*
X117796968Y-85106867D01*
X117857591Y-85143819D01*
X117888612Y-85207679D01*
X117880184Y-85278174D01*
X117834981Y-85332921D01*
X117807969Y-85346785D01*
X117684193Y-85392449D01*
X117679232Y-85395401D01*
X117679231Y-85395401D01*
X117524057Y-85487720D01*
X117510371Y-85495862D01*
X117358305Y-85629220D01*
X117233089Y-85788057D01*
X117138914Y-85967053D01*
X117078937Y-86160213D01*
X117055164Y-86361069D01*
X117068392Y-86562894D01*
X117088555Y-86642286D01*
X117116422Y-86752012D01*
X117118178Y-86758928D01*
X117202856Y-86942607D01*
X117206189Y-86947323D01*
X117300340Y-87080544D01*
X117319588Y-87107780D01*
X117464466Y-87248913D01*
X117632637Y-87361282D01*
X117637940Y-87363560D01*
X117637943Y-87363562D01*
X117726291Y-87401519D01*
X117818470Y-87441122D01*
X118015740Y-87485760D01*
X118021509Y-87485987D01*
X118021512Y-87485987D01*
X118097683Y-87488979D01*
X118217842Y-87493700D01*
X118304132Y-87481189D01*
X118412286Y-87465508D01*
X118412291Y-87465507D01*
X118418007Y-87464678D01*
X118423479Y-87462820D01*
X118423481Y-87462820D01*
X118604067Y-87401519D01*
X118604069Y-87401518D01*
X118609531Y-87399664D01*
X118743747Y-87324500D01*
X118780964Y-87303658D01*
X118780965Y-87303657D01*
X118786001Y-87300837D01*
X118848433Y-87248913D01*
X118937073Y-87175191D01*
X118941505Y-87171505D01*
X119021263Y-87075607D01*
X119067146Y-87020439D01*
X119070837Y-87016001D01*
X119169664Y-86839531D01*
X119171903Y-86832937D01*
X119232820Y-86653481D01*
X119232820Y-86653479D01*
X119234678Y-86648007D01*
X119235507Y-86642291D01*
X119235508Y-86642286D01*
X119263167Y-86451516D01*
X119263700Y-86447842D01*
X119265215Y-86390000D01*
X119262557Y-86361069D01*
X129755164Y-86361069D01*
X129768392Y-86562894D01*
X129788555Y-86642286D01*
X129816422Y-86752012D01*
X129818178Y-86758928D01*
X129902856Y-86942607D01*
X129906189Y-86947323D01*
X130000340Y-87080544D01*
X130019588Y-87107780D01*
X130164466Y-87248913D01*
X130332637Y-87361282D01*
X130337940Y-87363560D01*
X130337943Y-87363562D01*
X130426291Y-87401519D01*
X130518470Y-87441122D01*
X130715740Y-87485760D01*
X130721509Y-87485987D01*
X130721512Y-87485987D01*
X130797683Y-87488979D01*
X130917842Y-87493700D01*
X131004132Y-87481189D01*
X131112286Y-87465508D01*
X131112291Y-87465507D01*
X131118007Y-87464678D01*
X131123479Y-87462820D01*
X131123481Y-87462820D01*
X131304067Y-87401519D01*
X131304069Y-87401518D01*
X131309531Y-87399664D01*
X131443747Y-87324500D01*
X131480964Y-87303658D01*
X131480965Y-87303657D01*
X131486001Y-87300837D01*
X131548433Y-87248913D01*
X131637073Y-87175191D01*
X131641505Y-87171505D01*
X131721263Y-87075607D01*
X131767146Y-87020439D01*
X131770837Y-87016001D01*
X131869664Y-86839531D01*
X131871903Y-86832937D01*
X131932820Y-86653481D01*
X131932820Y-86653479D01*
X131934678Y-86648007D01*
X131935507Y-86642291D01*
X131935508Y-86642286D01*
X131963167Y-86451516D01*
X131963700Y-86447842D01*
X131965215Y-86390000D01*
X131946708Y-86188591D01*
X131891807Y-85993926D01*
X131847832Y-85904754D01*
X155044967Y-85904754D01*
X155058796Y-86115749D01*
X155060217Y-86121345D01*
X155060218Y-86121350D01*
X155082784Y-86210200D01*
X155110845Y-86320690D01*
X155199369Y-86512714D01*
X155321405Y-86685391D01*
X155472865Y-86832937D01*
X155477661Y-86836142D01*
X155477664Y-86836144D01*
X155620936Y-86931875D01*
X155648677Y-86950411D01*
X155653985Y-86952692D01*
X155653986Y-86952692D01*
X155837650Y-87031600D01*
X155837653Y-87031601D01*
X155842953Y-87033878D01*
X155848582Y-87035152D01*
X155848583Y-87035152D01*
X156027368Y-87075607D01*
X156089395Y-87110150D01*
X156122899Y-87172743D01*
X156117245Y-87243514D01*
X156074226Y-87299994D01*
X156007501Y-87324249D01*
X155999560Y-87324500D01*
X155305354Y-87324500D01*
X155301650Y-87324941D01*
X155301647Y-87324941D01*
X155294254Y-87325821D01*
X155279154Y-87327618D01*
X155176847Y-87373061D01*
X155168628Y-87381294D01*
X155168627Y-87381295D01*
X155137142Y-87412835D01*
X155097759Y-87452287D01*
X155093056Y-87462924D01*
X155093055Y-87462926D01*
X155079450Y-87493700D01*
X155052494Y-87554673D01*
X155049500Y-87580354D01*
X155049500Y-89369646D01*
X155052618Y-89395846D01*
X155098061Y-89498153D01*
X155177287Y-89577241D01*
X155187924Y-89581944D01*
X155187926Y-89581945D01*
X155247462Y-89608265D01*
X155279673Y-89622506D01*
X155305354Y-89625500D01*
X157094646Y-89625500D01*
X157098350Y-89625059D01*
X157098353Y-89625059D01*
X157105746Y-89624179D01*
X157120846Y-89622382D01*
X157223153Y-89576939D01*
X157302241Y-89497713D01*
X157347506Y-89395327D01*
X157350500Y-89369646D01*
X157350500Y-87580354D01*
X157347382Y-87554154D01*
X157320530Y-87493700D01*
X157306663Y-87462482D01*
X157301939Y-87451847D01*
X157291196Y-87441122D01*
X157230945Y-87380977D01*
X157222713Y-87372759D01*
X157212076Y-87368056D01*
X157212074Y-87368055D01*
X157152538Y-87341735D01*
X157120327Y-87327494D01*
X157094646Y-87324500D01*
X156382291Y-87324500D01*
X156314170Y-87304498D01*
X156267677Y-87250842D01*
X156257573Y-87180568D01*
X156287067Y-87115988D01*
X156346793Y-87077604D01*
X156364211Y-87073804D01*
X156464013Y-87059333D01*
X156464014Y-87059333D01*
X156469730Y-87058504D01*
X156548987Y-87031600D01*
X156664483Y-86992395D01*
X156664488Y-86992393D01*
X156669955Y-86990537D01*
X156674998Y-86987713D01*
X156849395Y-86890046D01*
X156849399Y-86890043D01*
X156854442Y-86887219D01*
X157017012Y-86752012D01*
X157152219Y-86589442D01*
X157155043Y-86584399D01*
X157155046Y-86584395D01*
X157252713Y-86409998D01*
X157252714Y-86409996D01*
X157255537Y-86404955D01*
X157257393Y-86399488D01*
X157257395Y-86399483D01*
X157321647Y-86210200D01*
X157323504Y-86204730D01*
X157325010Y-86194348D01*
X157353314Y-85999140D01*
X157353314Y-85999138D01*
X157353846Y-85995470D01*
X157355429Y-85935000D01*
X157336081Y-85724440D01*
X157278686Y-85520931D01*
X157273342Y-85510093D01*
X157187719Y-85336469D01*
X157185165Y-85331290D01*
X157058651Y-85161867D01*
X156903381Y-85018337D01*
X156754941Y-84924678D01*
X156729434Y-84908584D01*
X156729433Y-84908584D01*
X156724554Y-84905505D01*
X156528160Y-84827152D01*
X156522503Y-84826027D01*
X156522497Y-84826025D01*
X156326442Y-84787028D01*
X156326440Y-84787028D01*
X156320775Y-84785901D01*
X156315000Y-84785825D01*
X156314996Y-84785825D01*
X156208976Y-84784437D01*
X156109346Y-84783133D01*
X156103649Y-84784112D01*
X156103648Y-84784112D01*
X155906650Y-84817962D01*
X155906649Y-84817962D01*
X155900953Y-84818941D01*
X155702575Y-84892127D01*
X155697614Y-84895079D01*
X155697613Y-84895079D01*
X155539050Y-84989414D01*
X155520856Y-85000238D01*
X155361881Y-85139655D01*
X155230976Y-85305708D01*
X155228287Y-85310819D01*
X155228285Y-85310822D01*
X155214792Y-85336469D01*
X155132523Y-85492836D01*
X155069820Y-85694773D01*
X155044967Y-85904754D01*
X131847832Y-85904754D01*
X131802351Y-85812527D01*
X131784079Y-85788057D01*
X131684788Y-85655091D01*
X131684787Y-85655090D01*
X131681335Y-85650467D01*
X131658350Y-85629220D01*
X131537053Y-85517094D01*
X131537051Y-85517092D01*
X131532812Y-85513174D01*
X131505374Y-85495862D01*
X131366637Y-85408325D01*
X131361757Y-85405246D01*
X131173898Y-85330298D01*
X130975526Y-85290839D01*
X130969752Y-85290763D01*
X130969748Y-85290763D01*
X130867257Y-85289422D01*
X130773286Y-85288192D01*
X130767589Y-85289171D01*
X130767588Y-85289171D01*
X130579646Y-85321465D01*
X130579645Y-85321465D01*
X130573949Y-85322444D01*
X130384193Y-85392449D01*
X130379232Y-85395401D01*
X130379231Y-85395401D01*
X130224057Y-85487720D01*
X130210371Y-85495862D01*
X130058305Y-85629220D01*
X129933089Y-85788057D01*
X129838914Y-85967053D01*
X129778937Y-86160213D01*
X129755164Y-86361069D01*
X119262557Y-86361069D01*
X119246708Y-86188591D01*
X119191807Y-85993926D01*
X119102351Y-85812527D01*
X119084079Y-85788057D01*
X118984788Y-85655091D01*
X118984787Y-85655090D01*
X118981335Y-85650467D01*
X118958350Y-85629220D01*
X118837053Y-85517094D01*
X118837051Y-85517092D01*
X118832812Y-85513174D01*
X118805374Y-85495862D01*
X118666637Y-85408325D01*
X118661757Y-85405246D01*
X118656396Y-85403107D01*
X118656394Y-85403106D01*
X118510933Y-85345073D01*
X118455073Y-85301252D01*
X118431773Y-85234188D01*
X118448429Y-85165173D01*
X118499753Y-85116118D01*
X118525013Y-85106336D01*
X118603759Y-85085237D01*
X118614053Y-85081490D01*
X118811511Y-84989414D01*
X118821007Y-84983931D01*
X118999467Y-84858972D01*
X119007875Y-84851916D01*
X119161916Y-84697875D01*
X119168972Y-84689467D01*
X119293931Y-84511007D01*
X119299414Y-84501511D01*
X119372561Y-84344646D01*
X121496849Y-84344646D01*
X121499967Y-84370846D01*
X121545410Y-84473153D01*
X121624636Y-84552241D01*
X121635273Y-84556944D01*
X121635275Y-84556945D01*
X121674502Y-84574287D01*
X121727022Y-84597506D01*
X121752703Y-84600500D01*
X123441995Y-84600500D01*
X123445699Y-84600059D01*
X123445702Y-84600059D01*
X123453095Y-84599179D01*
X123468195Y-84597382D01*
X123491542Y-84587012D01*
X123493681Y-84586062D01*
X125375842Y-84586062D01*
X125385138Y-84598077D01*
X125436343Y-84633931D01*
X125445838Y-84639414D01*
X125643296Y-84731490D01*
X125653588Y-84735236D01*
X125864037Y-84791625D01*
X125874830Y-84793528D01*
X126091874Y-84812517D01*
X126102824Y-84812517D01*
X126319868Y-84793528D01*
X126330661Y-84791625D01*
X126541110Y-84735236D01*
X126551402Y-84731490D01*
X126748860Y-84639414D01*
X126758355Y-84633931D01*
X126810397Y-84597491D01*
X126818773Y-84587012D01*
X126811705Y-84573566D01*
X126110161Y-83872022D01*
X126096217Y-83864408D01*
X126094384Y-83864539D01*
X126087769Y-83868790D01*
X125382272Y-84574287D01*
X125375842Y-84586062D01*
X123493681Y-84586062D01*
X123559867Y-84556663D01*
X123570502Y-84551939D01*
X123649590Y-84472713D01*
X123694855Y-84370327D01*
X123697849Y-84344646D01*
X123697849Y-83505475D01*
X124784832Y-83505475D01*
X124803821Y-83722519D01*
X124805724Y-83733312D01*
X124862113Y-83943761D01*
X124865859Y-83954053D01*
X124957935Y-84151511D01*
X124963418Y-84161006D01*
X124999858Y-84213048D01*
X125010337Y-84221424D01*
X125023783Y-84214356D01*
X125725327Y-83512812D01*
X125731705Y-83501132D01*
X126461757Y-83501132D01*
X126461888Y-83502965D01*
X126466139Y-83509580D01*
X127171636Y-84215077D01*
X127183411Y-84221507D01*
X127195426Y-84212211D01*
X127231280Y-84161006D01*
X127236763Y-84151511D01*
X127328839Y-83954053D01*
X127332585Y-83943761D01*
X127365460Y-83821069D01*
X129755164Y-83821069D01*
X129768392Y-84022894D01*
X129769815Y-84028496D01*
X129816685Y-84213048D01*
X129818178Y-84218928D01*
X129902856Y-84402607D01*
X129906189Y-84407323D01*
X130011931Y-84556945D01*
X130019588Y-84567780D01*
X130023730Y-84571815D01*
X130052740Y-84600075D01*
X130164466Y-84708913D01*
X130332637Y-84821282D01*
X130337940Y-84823560D01*
X130337943Y-84823562D01*
X130513163Y-84898842D01*
X130518470Y-84901122D01*
X130715740Y-84945760D01*
X130721509Y-84945987D01*
X130721512Y-84945987D01*
X130797683Y-84948979D01*
X130917842Y-84953700D01*
X131004132Y-84941189D01*
X131112286Y-84925508D01*
X131112291Y-84925507D01*
X131118007Y-84924678D01*
X131123479Y-84922820D01*
X131123481Y-84922820D01*
X131304067Y-84861519D01*
X131304069Y-84861518D01*
X131309531Y-84859664D01*
X131486001Y-84760837D01*
X131548433Y-84708913D01*
X131571814Y-84689467D01*
X131641505Y-84631505D01*
X131770837Y-84476001D01*
X131778637Y-84462074D01*
X131835287Y-84360916D01*
X131869664Y-84299531D01*
X131898333Y-84215077D01*
X131932820Y-84113481D01*
X131932820Y-84113479D01*
X131934678Y-84108007D01*
X131935507Y-84102291D01*
X131935508Y-84102286D01*
X131963167Y-83911516D01*
X131963700Y-83907842D01*
X131965215Y-83850000D01*
X131946708Y-83648591D01*
X131891807Y-83453926D01*
X131802351Y-83272527D01*
X131784079Y-83248057D01*
X131684788Y-83115091D01*
X131684787Y-83115090D01*
X131681335Y-83110467D01*
X131658350Y-83089220D01*
X131537053Y-82977094D01*
X131537051Y-82977092D01*
X131532812Y-82973174D01*
X131505374Y-82955862D01*
X131366637Y-82868325D01*
X131361757Y-82865246D01*
X131173898Y-82790298D01*
X130975526Y-82750839D01*
X130969752Y-82750763D01*
X130969748Y-82750763D01*
X130867257Y-82749422D01*
X130773286Y-82748192D01*
X130767589Y-82749171D01*
X130767588Y-82749171D01*
X130579646Y-82781465D01*
X130579645Y-82781465D01*
X130573949Y-82782444D01*
X130384193Y-82852449D01*
X130210371Y-82955862D01*
X130058305Y-83089220D01*
X129933089Y-83248057D01*
X129838914Y-83427053D01*
X129778937Y-83620213D01*
X129755164Y-83821069D01*
X127365460Y-83821069D01*
X127388974Y-83733312D01*
X127390877Y-83722519D01*
X127409866Y-83505475D01*
X127409866Y-83494525D01*
X127390877Y-83277481D01*
X127388974Y-83266688D01*
X127332585Y-83056239D01*
X127328839Y-83045947D01*
X127236763Y-82848489D01*
X127231280Y-82838994D01*
X127194840Y-82786952D01*
X127184361Y-82778576D01*
X127170915Y-82785644D01*
X126469371Y-83487188D01*
X126461757Y-83501132D01*
X125731705Y-83501132D01*
X125732941Y-83498868D01*
X125732810Y-83497035D01*
X125728559Y-83490420D01*
X125023062Y-82784923D01*
X125011287Y-82778493D01*
X124999272Y-82787789D01*
X124963418Y-82838994D01*
X124957935Y-82848489D01*
X124865859Y-83045947D01*
X124862113Y-83056239D01*
X124805724Y-83266688D01*
X124803821Y-83277481D01*
X124784832Y-83494525D01*
X124784832Y-83505475D01*
X123697849Y-83505475D01*
X123697849Y-82655354D01*
X123694731Y-82629154D01*
X123675654Y-82586204D01*
X123654012Y-82537482D01*
X123649288Y-82526847D01*
X123570062Y-82447759D01*
X123559425Y-82443056D01*
X123559423Y-82443055D01*
X123492510Y-82413473D01*
X123491413Y-82412988D01*
X125375925Y-82412988D01*
X125382993Y-82426434D01*
X126084537Y-83127978D01*
X126098481Y-83135592D01*
X126100314Y-83135461D01*
X126106929Y-83131210D01*
X126812426Y-82425713D01*
X126818856Y-82413938D01*
X126809560Y-82401923D01*
X126758355Y-82366069D01*
X126748860Y-82360586D01*
X126551402Y-82268510D01*
X126541110Y-82264764D01*
X126330661Y-82208375D01*
X126319868Y-82206472D01*
X126102824Y-82187483D01*
X126091874Y-82187483D01*
X125874830Y-82206472D01*
X125864037Y-82208375D01*
X125653588Y-82264764D01*
X125643296Y-82268510D01*
X125445838Y-82360586D01*
X125436343Y-82366069D01*
X125384301Y-82402509D01*
X125375925Y-82412988D01*
X123491413Y-82412988D01*
X123467676Y-82402494D01*
X123441995Y-82399500D01*
X121752703Y-82399500D01*
X121748999Y-82399941D01*
X121748996Y-82399941D01*
X121741603Y-82400821D01*
X121726503Y-82402618D01*
X121717863Y-82406456D01*
X121717862Y-82406456D01*
X121672885Y-82426434D01*
X121624196Y-82448061D01*
X121545108Y-82527287D01*
X121499843Y-82629673D01*
X121496849Y-82655354D01*
X121496849Y-84344646D01*
X119372561Y-84344646D01*
X119391490Y-84304053D01*
X119395236Y-84293761D01*
X119441394Y-84121497D01*
X119441058Y-84107401D01*
X119433116Y-84104000D01*
X116892033Y-84104000D01*
X116878502Y-84107973D01*
X116877273Y-84116522D01*
X108550000Y-84116522D01*
X108550000Y-83578503D01*
X116878606Y-83578503D01*
X116878942Y-83592599D01*
X116886884Y-83596000D01*
X119427967Y-83596000D01*
X119441498Y-83592027D01*
X119442727Y-83583478D01*
X119395236Y-83406239D01*
X119391490Y-83395947D01*
X119299414Y-83198489D01*
X119293931Y-83188993D01*
X119168972Y-83010533D01*
X119161916Y-83002125D01*
X119007875Y-82848084D01*
X118999467Y-82841028D01*
X118821007Y-82716069D01*
X118811511Y-82710586D01*
X118614053Y-82618510D01*
X118603761Y-82614764D01*
X118522361Y-82592953D01*
X118461738Y-82556001D01*
X118430717Y-82492140D01*
X118439145Y-82421646D01*
X118484348Y-82366899D01*
X118514470Y-82351933D01*
X118604067Y-82321519D01*
X118604069Y-82321518D01*
X118609531Y-82319664D01*
X118786001Y-82220837D01*
X118834993Y-82180091D01*
X118937073Y-82095191D01*
X118941505Y-82091505D01*
X119070837Y-81936001D01*
X119169664Y-81759531D01*
X119191862Y-81694140D01*
X119232820Y-81573481D01*
X119232820Y-81573479D01*
X119234678Y-81568007D01*
X119235507Y-81562291D01*
X119235508Y-81562286D01*
X119263167Y-81371516D01*
X119263700Y-81367842D01*
X119265215Y-81310000D01*
X119262557Y-81281069D01*
X129755164Y-81281069D01*
X129768392Y-81482894D01*
X129818178Y-81678928D01*
X129902856Y-81862607D01*
X130019588Y-82027780D01*
X130164466Y-82168913D01*
X130332637Y-82281282D01*
X130337940Y-82283560D01*
X130337943Y-82283562D01*
X130508957Y-82357035D01*
X130518470Y-82361122D01*
X130614361Y-82382820D01*
X130701373Y-82402509D01*
X130715740Y-82405760D01*
X130721509Y-82405987D01*
X130721512Y-82405987D01*
X130797683Y-82408979D01*
X130917842Y-82413700D01*
X131012738Y-82399941D01*
X131112286Y-82385508D01*
X131112291Y-82385507D01*
X131118007Y-82384678D01*
X131123479Y-82382820D01*
X131123481Y-82382820D01*
X131304067Y-82321519D01*
X131304069Y-82321518D01*
X131309531Y-82319664D01*
X131486001Y-82220837D01*
X131534993Y-82180091D01*
X131637073Y-82095191D01*
X131641505Y-82091505D01*
X131770837Y-81936001D01*
X131869664Y-81759531D01*
X131891862Y-81694140D01*
X131932820Y-81573481D01*
X131932820Y-81573479D01*
X131934678Y-81568007D01*
X131935507Y-81562291D01*
X131935508Y-81562286D01*
X131963167Y-81371516D01*
X131963700Y-81367842D01*
X131965215Y-81310000D01*
X131946708Y-81108591D01*
X131943106Y-81095817D01*
X131893376Y-80919490D01*
X131891807Y-80913926D01*
X131802351Y-80732527D01*
X131784079Y-80708057D01*
X131684788Y-80575091D01*
X131684787Y-80575090D01*
X131681335Y-80570467D01*
X131677099Y-80566551D01*
X131537053Y-80437094D01*
X131537051Y-80437092D01*
X131532812Y-80433174D01*
X131505374Y-80415862D01*
X131366637Y-80328325D01*
X131361757Y-80325246D01*
X131173898Y-80250298D01*
X130975526Y-80210839D01*
X130969752Y-80210763D01*
X130969748Y-80210763D01*
X130867257Y-80209422D01*
X130773286Y-80208192D01*
X130767589Y-80209171D01*
X130767588Y-80209171D01*
X130579646Y-80241465D01*
X130579645Y-80241465D01*
X130573949Y-80242444D01*
X130384193Y-80312449D01*
X130379232Y-80315401D01*
X130379231Y-80315401D01*
X130352390Y-80331370D01*
X130210371Y-80415862D01*
X130058305Y-80549220D01*
X129933089Y-80708057D01*
X129838914Y-80887053D01*
X129778937Y-81080213D01*
X129755164Y-81281069D01*
X119262557Y-81281069D01*
X119246708Y-81108591D01*
X119243106Y-81095817D01*
X119193376Y-80919490D01*
X119191807Y-80913926D01*
X119102351Y-80732527D01*
X119084079Y-80708057D01*
X118984788Y-80575091D01*
X118984787Y-80575090D01*
X118981335Y-80570467D01*
X118977099Y-80566551D01*
X118837053Y-80437094D01*
X118837051Y-80437092D01*
X118832812Y-80433174D01*
X118805374Y-80415862D01*
X118666637Y-80328325D01*
X118661757Y-80325246D01*
X118473898Y-80250298D01*
X118275526Y-80210839D01*
X118269752Y-80210763D01*
X118269748Y-80210763D01*
X118167257Y-80209422D01*
X118073286Y-80208192D01*
X118067589Y-80209171D01*
X118067588Y-80209171D01*
X117879646Y-80241465D01*
X117879645Y-80241465D01*
X117873949Y-80242444D01*
X117684193Y-80312449D01*
X117679232Y-80315401D01*
X117679231Y-80315401D01*
X117652390Y-80331370D01*
X117510371Y-80415862D01*
X117358305Y-80549220D01*
X117233089Y-80708057D01*
X117138914Y-80887053D01*
X117078937Y-81080213D01*
X117055164Y-81281069D01*
X117068392Y-81482894D01*
X117118178Y-81678928D01*
X117202856Y-81862607D01*
X117319588Y-82027780D01*
X117464466Y-82168913D01*
X117632637Y-82281282D01*
X117637940Y-82283560D01*
X117637943Y-82283562D01*
X117808957Y-82357035D01*
X117863650Y-82402303D01*
X117885187Y-82469954D01*
X117866730Y-82538510D01*
X117814139Y-82586204D01*
X117791830Y-82594510D01*
X117716239Y-82614764D01*
X117705947Y-82618510D01*
X117508489Y-82710586D01*
X117498993Y-82716069D01*
X117320533Y-82841028D01*
X117312125Y-82848084D01*
X117158084Y-83002125D01*
X117151028Y-83010533D01*
X117026069Y-83188993D01*
X117020586Y-83198489D01*
X116928510Y-83395947D01*
X116924764Y-83406239D01*
X116878606Y-83578503D01*
X108550000Y-83578503D01*
X108550000Y-81295206D01*
X111040501Y-81295206D01*
X111041743Y-81310000D01*
X111056733Y-81488496D01*
X111057806Y-81501278D01*
X111114807Y-81700066D01*
X111117625Y-81705548D01*
X111117626Y-81705552D01*
X111206514Y-81878509D01*
X111206517Y-81878513D01*
X111209334Y-81883995D01*
X111337786Y-82046061D01*
X111342479Y-82050055D01*
X111342480Y-82050056D01*
X111485909Y-82172123D01*
X111495271Y-82180091D01*
X111675789Y-82280980D01*
X111872466Y-82344884D01*
X112077809Y-82369370D01*
X112083944Y-82368898D01*
X112083946Y-82368898D01*
X112277856Y-82353977D01*
X112277860Y-82353976D01*
X112283998Y-82353504D01*
X112483178Y-82297892D01*
X112488682Y-82295112D01*
X112488684Y-82295111D01*
X112662262Y-82207431D01*
X112662264Y-82207430D01*
X112667763Y-82204652D01*
X112830722Y-82077334D01*
X112834748Y-82072670D01*
X112834751Y-82072667D01*
X112961819Y-81925457D01*
X112961820Y-81925455D01*
X112965848Y-81920789D01*
X113067995Y-81740979D01*
X113133270Y-81544753D01*
X113159189Y-81339586D01*
X113159602Y-81310000D01*
X113139422Y-81104189D01*
X113079651Y-80906217D01*
X112990053Y-80737708D01*
X112985459Y-80729067D01*
X112985457Y-80729064D01*
X112982565Y-80723625D01*
X112978674Y-80718855D01*
X112978672Y-80718851D01*
X112855758Y-80568143D01*
X112855755Y-80568140D01*
X112851863Y-80563368D01*
X112844966Y-80557662D01*
X112697271Y-80435478D01*
X112697266Y-80435475D01*
X112692522Y-80431550D01*
X112687103Y-80428620D01*
X112687100Y-80428618D01*
X112516032Y-80336122D01*
X112516027Y-80336120D01*
X112510612Y-80333192D01*
X112313063Y-80272040D01*
X112306938Y-80271396D01*
X112306937Y-80271396D01*
X112113526Y-80251068D01*
X112113524Y-80251068D01*
X112107397Y-80250424D01*
X111981229Y-80261906D01*
X111907591Y-80268607D01*
X111907590Y-80268607D01*
X111901450Y-80269166D01*
X111703066Y-80327554D01*
X111697601Y-80330411D01*
X111525261Y-80420508D01*
X111525257Y-80420511D01*
X111519801Y-80423363D01*
X111515001Y-80427223D01*
X111515000Y-80427223D01*
X111504733Y-80435478D01*
X111358635Y-80552943D01*
X111225708Y-80711360D01*
X111126082Y-80892578D01*
X111063553Y-81089696D01*
X111062867Y-81095813D01*
X111062866Y-81095817D01*
X111042730Y-81275334D01*
X111040501Y-81295206D01*
X108550000Y-81295206D01*
X108550000Y-78755206D01*
X111040501Y-78755206D01*
X111041743Y-78770000D01*
X111056733Y-78948496D01*
X111057806Y-78961278D01*
X111114807Y-79160066D01*
X111117625Y-79165548D01*
X111117626Y-79165552D01*
X111206514Y-79338509D01*
X111206517Y-79338513D01*
X111209334Y-79343995D01*
X111337786Y-79506061D01*
X111342479Y-79510055D01*
X111342480Y-79510056D01*
X111485909Y-79632123D01*
X111495271Y-79640091D01*
X111675789Y-79740980D01*
X111872466Y-79804884D01*
X112077809Y-79829370D01*
X112083944Y-79828898D01*
X112083946Y-79828898D01*
X112277856Y-79813977D01*
X112277860Y-79813976D01*
X112283998Y-79813504D01*
X112483178Y-79757892D01*
X112488682Y-79755112D01*
X112488684Y-79755111D01*
X112662262Y-79667431D01*
X112662264Y-79667430D01*
X112667763Y-79664652D01*
X112830722Y-79537334D01*
X112834748Y-79532670D01*
X112834751Y-79532667D01*
X112961819Y-79385457D01*
X112961820Y-79385455D01*
X112965848Y-79380789D01*
X113067995Y-79200979D01*
X113133270Y-79004753D01*
X113159189Y-78799586D01*
X113159602Y-78770000D01*
X113156765Y-78741069D01*
X117055164Y-78741069D01*
X117068392Y-78942894D01*
X117118178Y-79138928D01*
X117202856Y-79322607D01*
X117319588Y-79487780D01*
X117464466Y-79628913D01*
X117632637Y-79741282D01*
X117637940Y-79743560D01*
X117637943Y-79743562D01*
X117813163Y-79818842D01*
X117818470Y-79821122D01*
X118015740Y-79865760D01*
X118021509Y-79865987D01*
X118021512Y-79865987D01*
X118097683Y-79868979D01*
X118217842Y-79873700D01*
X118304132Y-79861189D01*
X118412286Y-79845508D01*
X118412291Y-79845507D01*
X118418007Y-79844678D01*
X118423479Y-79842820D01*
X118423481Y-79842820D01*
X118604067Y-79781519D01*
X118604069Y-79781518D01*
X118609531Y-79779664D01*
X118786001Y-79680837D01*
X118834993Y-79640091D01*
X118937073Y-79555191D01*
X118941505Y-79551505D01*
X119070837Y-79396001D01*
X119169664Y-79219531D01*
X119191862Y-79154140D01*
X119232820Y-79033481D01*
X119232820Y-79033479D01*
X119234678Y-79028007D01*
X119235507Y-79022291D01*
X119235508Y-79022286D01*
X119263167Y-78831516D01*
X119263700Y-78827842D01*
X119265215Y-78770000D01*
X119262557Y-78741069D01*
X129755164Y-78741069D01*
X129768392Y-78942894D01*
X129818178Y-79138928D01*
X129902856Y-79322607D01*
X130019588Y-79487780D01*
X130164466Y-79628913D01*
X130332637Y-79741282D01*
X130337940Y-79743560D01*
X130337943Y-79743562D01*
X130513163Y-79818842D01*
X130518470Y-79821122D01*
X130715740Y-79865760D01*
X130721509Y-79865987D01*
X130721512Y-79865987D01*
X130797683Y-79868979D01*
X130917842Y-79873700D01*
X131004132Y-79861189D01*
X131112286Y-79845508D01*
X131112291Y-79845507D01*
X131118007Y-79844678D01*
X131123479Y-79842820D01*
X131123481Y-79842820D01*
X131304067Y-79781519D01*
X131304069Y-79781518D01*
X131309531Y-79779664D01*
X131486001Y-79680837D01*
X131534993Y-79640091D01*
X131637073Y-79555191D01*
X131641505Y-79551505D01*
X131770837Y-79396001D01*
X131869664Y-79219531D01*
X131891862Y-79154140D01*
X131932820Y-79033481D01*
X131932820Y-79033479D01*
X131934678Y-79028007D01*
X131935507Y-79022291D01*
X131935508Y-79022286D01*
X131963167Y-78831516D01*
X131963700Y-78827842D01*
X131965215Y-78770000D01*
X131946708Y-78568591D01*
X131943106Y-78555817D01*
X131893376Y-78379490D01*
X131891807Y-78373926D01*
X131802351Y-78192527D01*
X131784079Y-78168057D01*
X131684788Y-78035091D01*
X131684787Y-78035090D01*
X131681335Y-78030467D01*
X131677099Y-78026551D01*
X131537053Y-77897094D01*
X131537051Y-77897092D01*
X131532812Y-77893174D01*
X131505374Y-77875862D01*
X131366637Y-77788325D01*
X131361757Y-77785246D01*
X131173898Y-77710298D01*
X130975526Y-77670839D01*
X130969752Y-77670763D01*
X130969748Y-77670763D01*
X130867257Y-77669422D01*
X130773286Y-77668192D01*
X130767589Y-77669171D01*
X130767588Y-77669171D01*
X130579646Y-77701465D01*
X130579645Y-77701465D01*
X130573949Y-77702444D01*
X130384193Y-77772449D01*
X130379232Y-77775401D01*
X130379231Y-77775401D01*
X130352390Y-77791370D01*
X130210371Y-77875862D01*
X130058305Y-78009220D01*
X129933089Y-78168057D01*
X129838914Y-78347053D01*
X129778937Y-78540213D01*
X129755164Y-78741069D01*
X119262557Y-78741069D01*
X119246708Y-78568591D01*
X119243106Y-78555817D01*
X119193376Y-78379490D01*
X119191807Y-78373926D01*
X119102351Y-78192527D01*
X119084079Y-78168057D01*
X118984788Y-78035091D01*
X118984787Y-78035090D01*
X118981335Y-78030467D01*
X118977099Y-78026551D01*
X118837053Y-77897094D01*
X118837051Y-77897092D01*
X118832812Y-77893174D01*
X118805374Y-77875862D01*
X118666637Y-77788325D01*
X118661757Y-77785246D01*
X118473898Y-77710298D01*
X118275526Y-77670839D01*
X118269752Y-77670763D01*
X118269748Y-77670763D01*
X118167257Y-77669422D01*
X118073286Y-77668192D01*
X118067589Y-77669171D01*
X118067588Y-77669171D01*
X117879646Y-77701465D01*
X117879645Y-77701465D01*
X117873949Y-77702444D01*
X117684193Y-77772449D01*
X117679232Y-77775401D01*
X117679231Y-77775401D01*
X117652390Y-77791370D01*
X117510371Y-77875862D01*
X117358305Y-78009220D01*
X117233089Y-78168057D01*
X117138914Y-78347053D01*
X117078937Y-78540213D01*
X117055164Y-78741069D01*
X113156765Y-78741069D01*
X113139422Y-78564189D01*
X113079651Y-78366217D01*
X112990053Y-78197708D01*
X112985459Y-78189067D01*
X112985457Y-78189064D01*
X112982565Y-78183625D01*
X112978674Y-78178855D01*
X112978672Y-78178851D01*
X112855758Y-78028143D01*
X112855755Y-78028140D01*
X112851863Y-78023368D01*
X112844966Y-78017662D01*
X112697271Y-77895478D01*
X112697266Y-77895475D01*
X112692522Y-77891550D01*
X112687103Y-77888620D01*
X112687100Y-77888618D01*
X112516032Y-77796122D01*
X112516027Y-77796120D01*
X112510612Y-77793192D01*
X112313063Y-77732040D01*
X112306938Y-77731396D01*
X112306937Y-77731396D01*
X112113526Y-77711068D01*
X112113524Y-77711068D01*
X112107397Y-77710424D01*
X111981229Y-77721906D01*
X111907591Y-77728607D01*
X111907590Y-77728607D01*
X111901450Y-77729166D01*
X111703066Y-77787554D01*
X111697601Y-77790411D01*
X111525261Y-77880508D01*
X111525257Y-77880511D01*
X111519801Y-77883363D01*
X111515001Y-77887223D01*
X111515000Y-77887223D01*
X111504733Y-77895478D01*
X111358635Y-78012943D01*
X111225708Y-78171360D01*
X111126082Y-78352578D01*
X111063553Y-78549696D01*
X111062867Y-78555813D01*
X111062866Y-78555817D01*
X111042730Y-78735334D01*
X111040501Y-78755206D01*
X108550000Y-78755206D01*
X108550000Y-76215206D01*
X111040501Y-76215206D01*
X111041743Y-76230000D01*
X111056733Y-76408496D01*
X111057806Y-76421278D01*
X111114807Y-76620066D01*
X111117625Y-76625548D01*
X111117626Y-76625552D01*
X111206514Y-76798509D01*
X111206517Y-76798513D01*
X111209334Y-76803995D01*
X111337786Y-76966061D01*
X111342479Y-76970055D01*
X111342480Y-76970056D01*
X111485909Y-77092123D01*
X111495271Y-77100091D01*
X111675789Y-77200980D01*
X111872466Y-77264884D01*
X112077809Y-77289370D01*
X112083944Y-77288898D01*
X112083946Y-77288898D01*
X112277856Y-77273977D01*
X112277860Y-77273976D01*
X112283998Y-77273504D01*
X112483178Y-77217892D01*
X112488682Y-77215112D01*
X112488684Y-77215111D01*
X112662262Y-77127431D01*
X112662264Y-77127430D01*
X112667763Y-77124652D01*
X112830722Y-76997334D01*
X112834748Y-76992670D01*
X112834751Y-76992667D01*
X112961819Y-76845457D01*
X112961820Y-76845455D01*
X112965848Y-76840789D01*
X113027329Y-76732564D01*
X113064950Y-76666340D01*
X113064952Y-76666336D01*
X113067995Y-76660979D01*
X113133270Y-76464753D01*
X113159189Y-76259586D01*
X113159602Y-76230000D01*
X113156765Y-76201069D01*
X117055164Y-76201069D01*
X117068392Y-76402894D01*
X117069815Y-76408496D01*
X117112523Y-76576660D01*
X117118178Y-76598928D01*
X117202856Y-76782607D01*
X117206189Y-76787323D01*
X117293253Y-76910516D01*
X117319588Y-76947780D01*
X117464466Y-77088913D01*
X117632637Y-77201282D01*
X117637940Y-77203560D01*
X117637943Y-77203562D01*
X117813163Y-77278842D01*
X117818470Y-77281122D01*
X118015740Y-77325760D01*
X118021509Y-77325987D01*
X118021512Y-77325987D01*
X118097683Y-77328979D01*
X118217842Y-77333700D01*
X118304132Y-77321189D01*
X118412286Y-77305508D01*
X118412291Y-77305507D01*
X118418007Y-77304678D01*
X118423479Y-77302820D01*
X118423481Y-77302820D01*
X118604067Y-77241519D01*
X118604069Y-77241518D01*
X118609531Y-77239664D01*
X118786001Y-77140837D01*
X118834993Y-77100091D01*
X118937073Y-77015191D01*
X118941505Y-77011505D01*
X119070837Y-76856001D01*
X119169664Y-76679531D01*
X119191862Y-76614140D01*
X119232820Y-76493481D01*
X119232820Y-76493479D01*
X119234678Y-76488007D01*
X119235507Y-76482291D01*
X119235508Y-76482286D01*
X119263167Y-76291516D01*
X119263700Y-76287842D01*
X119265215Y-76230000D01*
X119262557Y-76201069D01*
X129755164Y-76201069D01*
X129768392Y-76402894D01*
X129769815Y-76408496D01*
X129812523Y-76576660D01*
X129818178Y-76598928D01*
X129902856Y-76782607D01*
X129906189Y-76787323D01*
X129993253Y-76910516D01*
X130019588Y-76947780D01*
X130164466Y-77088913D01*
X130332637Y-77201282D01*
X130337940Y-77203560D01*
X130337943Y-77203562D01*
X130513163Y-77278842D01*
X130518470Y-77281122D01*
X130715740Y-77325760D01*
X130721509Y-77325987D01*
X130721512Y-77325987D01*
X130797683Y-77328979D01*
X130917842Y-77333700D01*
X131004132Y-77321189D01*
X131112286Y-77305508D01*
X131112291Y-77305507D01*
X131118007Y-77304678D01*
X131123479Y-77302820D01*
X131123481Y-77302820D01*
X131304067Y-77241519D01*
X131304069Y-77241518D01*
X131309531Y-77239664D01*
X131486001Y-77140837D01*
X131534993Y-77100091D01*
X131637073Y-77015191D01*
X131641505Y-77011505D01*
X131770837Y-76856001D01*
X131869664Y-76679531D01*
X131891862Y-76614140D01*
X131932820Y-76493481D01*
X131932820Y-76493479D01*
X131934678Y-76488007D01*
X131935507Y-76482291D01*
X131935508Y-76482286D01*
X131963167Y-76291516D01*
X131963700Y-76287842D01*
X131965215Y-76230000D01*
X131946708Y-76028591D01*
X131943106Y-76015817D01*
X131893376Y-75839490D01*
X131891807Y-75833926D01*
X131802351Y-75652527D01*
X131784079Y-75628057D01*
X131684788Y-75495091D01*
X131684787Y-75495090D01*
X131681335Y-75490467D01*
X131677099Y-75486551D01*
X131537053Y-75357094D01*
X131537051Y-75357092D01*
X131532812Y-75353174D01*
X131505374Y-75335862D01*
X131366637Y-75248325D01*
X131361757Y-75245246D01*
X131173898Y-75170298D01*
X130975526Y-75130839D01*
X130969752Y-75130763D01*
X130969748Y-75130763D01*
X130867257Y-75129422D01*
X130773286Y-75128192D01*
X130767589Y-75129171D01*
X130767588Y-75129171D01*
X130579646Y-75161465D01*
X130579645Y-75161465D01*
X130573949Y-75162444D01*
X130384193Y-75232449D01*
X130379232Y-75235401D01*
X130379231Y-75235401D01*
X130352390Y-75251370D01*
X130210371Y-75335862D01*
X130058305Y-75469220D01*
X129933089Y-75628057D01*
X129838914Y-75807053D01*
X129778937Y-76000213D01*
X129755164Y-76201069D01*
X119262557Y-76201069D01*
X119246708Y-76028591D01*
X119243106Y-76015817D01*
X119193376Y-75839490D01*
X119191807Y-75833926D01*
X119102351Y-75652527D01*
X119084079Y-75628057D01*
X118984788Y-75495091D01*
X118984787Y-75495090D01*
X118981335Y-75490467D01*
X118977099Y-75486551D01*
X118837053Y-75357094D01*
X118837051Y-75357092D01*
X118832812Y-75353174D01*
X118805374Y-75335862D01*
X118666637Y-75248325D01*
X118661757Y-75245246D01*
X118473898Y-75170298D01*
X118275526Y-75130839D01*
X118269752Y-75130763D01*
X118269748Y-75130763D01*
X118167257Y-75129422D01*
X118073286Y-75128192D01*
X118067589Y-75129171D01*
X118067588Y-75129171D01*
X117879646Y-75161465D01*
X117879645Y-75161465D01*
X117873949Y-75162444D01*
X117684193Y-75232449D01*
X117679232Y-75235401D01*
X117679231Y-75235401D01*
X117652390Y-75251370D01*
X117510371Y-75335862D01*
X117358305Y-75469220D01*
X117233089Y-75628057D01*
X117138914Y-75807053D01*
X117078937Y-76000213D01*
X117055164Y-76201069D01*
X113156765Y-76201069D01*
X113139422Y-76024189D01*
X113079651Y-75826217D01*
X113031108Y-75734921D01*
X112985459Y-75649067D01*
X112985457Y-75649064D01*
X112982565Y-75643625D01*
X112978674Y-75638855D01*
X112978672Y-75638851D01*
X112855758Y-75488143D01*
X112855755Y-75488140D01*
X112851863Y-75483368D01*
X112844966Y-75477662D01*
X112697271Y-75355478D01*
X112697266Y-75355475D01*
X112692522Y-75351550D01*
X112687103Y-75348620D01*
X112687100Y-75348618D01*
X112516032Y-75256122D01*
X112516027Y-75256120D01*
X112510612Y-75253192D01*
X112313063Y-75192040D01*
X112306938Y-75191396D01*
X112306937Y-75191396D01*
X112113526Y-75171068D01*
X112113524Y-75171068D01*
X112107397Y-75170424D01*
X111981229Y-75181906D01*
X111907591Y-75188607D01*
X111907590Y-75188607D01*
X111901450Y-75189166D01*
X111703066Y-75247554D01*
X111697601Y-75250411D01*
X111525261Y-75340508D01*
X111525257Y-75340511D01*
X111519801Y-75343363D01*
X111515001Y-75347223D01*
X111515000Y-75347223D01*
X111507086Y-75353586D01*
X111358635Y-75472943D01*
X111225708Y-75631360D01*
X111126082Y-75812578D01*
X111063553Y-76009696D01*
X111062867Y-76015813D01*
X111062866Y-76015817D01*
X111054633Y-76089220D01*
X111040501Y-76215206D01*
X108550000Y-76215206D01*
X108550000Y-73675206D01*
X111040501Y-73675206D01*
X111041743Y-73690000D01*
X111056733Y-73868496D01*
X111057806Y-73881278D01*
X111114807Y-74080066D01*
X111117625Y-74085548D01*
X111117626Y-74085552D01*
X111206514Y-74258509D01*
X111206517Y-74258513D01*
X111209334Y-74263995D01*
X111337786Y-74426061D01*
X111342479Y-74430055D01*
X111342480Y-74430056D01*
X111485909Y-74552123D01*
X111495271Y-74560091D01*
X111675789Y-74660980D01*
X111872466Y-74724884D01*
X112077809Y-74749370D01*
X112083944Y-74748898D01*
X112083946Y-74748898D01*
X112277856Y-74733977D01*
X112277860Y-74733976D01*
X112283998Y-74733504D01*
X112483178Y-74677892D01*
X112488682Y-74675112D01*
X112488684Y-74675111D01*
X112662262Y-74587431D01*
X112662264Y-74587430D01*
X112667763Y-74584652D01*
X112830722Y-74457334D01*
X112834748Y-74452670D01*
X112834751Y-74452667D01*
X112961819Y-74305457D01*
X112961820Y-74305455D01*
X112965848Y-74300789D01*
X113067995Y-74120979D01*
X113133270Y-73924753D01*
X113159189Y-73719586D01*
X113159602Y-73690000D01*
X113156765Y-73661069D01*
X117055164Y-73661069D01*
X117068392Y-73862894D01*
X117118178Y-74058928D01*
X117202856Y-74242607D01*
X117319588Y-74407780D01*
X117464466Y-74548913D01*
X117632637Y-74661282D01*
X117637940Y-74663560D01*
X117637943Y-74663562D01*
X117801998Y-74734045D01*
X117818470Y-74741122D01*
X118015740Y-74785760D01*
X118021509Y-74785987D01*
X118021512Y-74785987D01*
X118097683Y-74788979D01*
X118217842Y-74793700D01*
X118304132Y-74781189D01*
X118412286Y-74765508D01*
X118412291Y-74765507D01*
X118418007Y-74764678D01*
X118423479Y-74762820D01*
X118423481Y-74762820D01*
X118604067Y-74701519D01*
X118604069Y-74701518D01*
X118609531Y-74699664D01*
X118786001Y-74600837D01*
X118834993Y-74560091D01*
X118937073Y-74475191D01*
X118941505Y-74471505D01*
X119070837Y-74316001D01*
X119169664Y-74139531D01*
X119191862Y-74074140D01*
X119232820Y-73953481D01*
X119232820Y-73953479D01*
X119234678Y-73948007D01*
X119235507Y-73942291D01*
X119235508Y-73942286D01*
X119263167Y-73751516D01*
X119263700Y-73747842D01*
X119265215Y-73690000D01*
X119262557Y-73661069D01*
X129755164Y-73661069D01*
X129768392Y-73862894D01*
X129818178Y-74058928D01*
X129902856Y-74242607D01*
X130019588Y-74407780D01*
X130164466Y-74548913D01*
X130332637Y-74661282D01*
X130337940Y-74663560D01*
X130337943Y-74663562D01*
X130501998Y-74734045D01*
X130518470Y-74741122D01*
X130715740Y-74785760D01*
X130721509Y-74785987D01*
X130721512Y-74785987D01*
X130797683Y-74788979D01*
X130917842Y-74793700D01*
X131004132Y-74781189D01*
X131112286Y-74765508D01*
X131112291Y-74765507D01*
X131118007Y-74764678D01*
X131123479Y-74762820D01*
X131123481Y-74762820D01*
X131304067Y-74701519D01*
X131304069Y-74701518D01*
X131309531Y-74699664D01*
X131486001Y-74600837D01*
X131534993Y-74560091D01*
X131637073Y-74475191D01*
X131641505Y-74471505D01*
X131770837Y-74316001D01*
X131869664Y-74139531D01*
X131891862Y-74074140D01*
X131932820Y-73953481D01*
X131932820Y-73953479D01*
X131934678Y-73948007D01*
X131935507Y-73942291D01*
X131935508Y-73942286D01*
X131963167Y-73751516D01*
X131963700Y-73747842D01*
X131965215Y-73690000D01*
X131946708Y-73488591D01*
X131943106Y-73475817D01*
X131893376Y-73299490D01*
X131891807Y-73293926D01*
X131802351Y-73112527D01*
X131784079Y-73088057D01*
X131684788Y-72955091D01*
X131684787Y-72955090D01*
X131681335Y-72950467D01*
X131677099Y-72946551D01*
X131537053Y-72817094D01*
X131537051Y-72817092D01*
X131532812Y-72813174D01*
X131505374Y-72795862D01*
X131366637Y-72708325D01*
X131361757Y-72705246D01*
X131173898Y-72630298D01*
X130975526Y-72590839D01*
X130969752Y-72590763D01*
X130969748Y-72590763D01*
X130867257Y-72589422D01*
X130773286Y-72588192D01*
X130767589Y-72589171D01*
X130767588Y-72589171D01*
X130579646Y-72621465D01*
X130579645Y-72621465D01*
X130573949Y-72622444D01*
X130384193Y-72692449D01*
X130379232Y-72695401D01*
X130379231Y-72695401D01*
X130352390Y-72711370D01*
X130210371Y-72795862D01*
X130058305Y-72929220D01*
X129933089Y-73088057D01*
X129838914Y-73267053D01*
X129778937Y-73460213D01*
X129755164Y-73661069D01*
X119262557Y-73661069D01*
X119246708Y-73488591D01*
X119243106Y-73475817D01*
X119193376Y-73299490D01*
X119191807Y-73293926D01*
X119102351Y-73112527D01*
X119084079Y-73088057D01*
X118984788Y-72955091D01*
X118984787Y-72955090D01*
X118981335Y-72950467D01*
X118977099Y-72946551D01*
X118837053Y-72817094D01*
X118837051Y-72817092D01*
X118832812Y-72813174D01*
X118805374Y-72795862D01*
X118666637Y-72708325D01*
X118661757Y-72705246D01*
X118473898Y-72630298D01*
X118275526Y-72590839D01*
X118269752Y-72590763D01*
X118269748Y-72590763D01*
X118167257Y-72589422D01*
X118073286Y-72588192D01*
X118067589Y-72589171D01*
X118067588Y-72589171D01*
X117879646Y-72621465D01*
X117879645Y-72621465D01*
X117873949Y-72622444D01*
X117684193Y-72692449D01*
X117679232Y-72695401D01*
X117679231Y-72695401D01*
X117652390Y-72711370D01*
X117510371Y-72795862D01*
X117358305Y-72929220D01*
X117233089Y-73088057D01*
X117138914Y-73267053D01*
X117078937Y-73460213D01*
X117055164Y-73661069D01*
X113156765Y-73661069D01*
X113139422Y-73484189D01*
X113079651Y-73286217D01*
X112990053Y-73117708D01*
X112985459Y-73109067D01*
X112985457Y-73109064D01*
X112982565Y-73103625D01*
X112978674Y-73098855D01*
X112978672Y-73098851D01*
X112855758Y-72948143D01*
X112855755Y-72948140D01*
X112851863Y-72943368D01*
X112844966Y-72937662D01*
X112697271Y-72815478D01*
X112697266Y-72815475D01*
X112692522Y-72811550D01*
X112687103Y-72808620D01*
X112687100Y-72808618D01*
X112516032Y-72716122D01*
X112516027Y-72716120D01*
X112510612Y-72713192D01*
X112313063Y-72652040D01*
X112306938Y-72651396D01*
X112306937Y-72651396D01*
X112113526Y-72631068D01*
X112113524Y-72631068D01*
X112107397Y-72630424D01*
X111981229Y-72641906D01*
X111907591Y-72648607D01*
X111907590Y-72648607D01*
X111901450Y-72649166D01*
X111703066Y-72707554D01*
X111697601Y-72710411D01*
X111525261Y-72800508D01*
X111525257Y-72800511D01*
X111519801Y-72803363D01*
X111515001Y-72807223D01*
X111515000Y-72807223D01*
X111504733Y-72815478D01*
X111358635Y-72932943D01*
X111225708Y-73091360D01*
X111126082Y-73272578D01*
X111063553Y-73469696D01*
X111062867Y-73475813D01*
X111062866Y-73475817D01*
X111042730Y-73655334D01*
X111040501Y-73675206D01*
X108550000Y-73675206D01*
X108550000Y-69454669D01*
X116852001Y-69454669D01*
X116852371Y-69461490D01*
X116857895Y-69512352D01*
X116861521Y-69527604D01*
X116906676Y-69648054D01*
X116915214Y-69663649D01*
X116991715Y-69765724D01*
X117004276Y-69778285D01*
X117106351Y-69854786D01*
X117121946Y-69863324D01*
X117242394Y-69908478D01*
X117257649Y-69912105D01*
X117308514Y-69917631D01*
X117315328Y-69918000D01*
X117620114Y-69918000D01*
X117688235Y-69938002D01*
X117734728Y-69991658D01*
X117744832Y-70061932D01*
X117715338Y-70126512D01*
X117683285Y-70150922D01*
X117684193Y-70152449D01*
X117510371Y-70255862D01*
X117358305Y-70389220D01*
X117233089Y-70548057D01*
X117138914Y-70727053D01*
X117078937Y-70920213D01*
X117055164Y-71121069D01*
X117068392Y-71322894D01*
X117118178Y-71518928D01*
X117202856Y-71702607D01*
X117319588Y-71867780D01*
X117464466Y-72008913D01*
X117632637Y-72121282D01*
X117637940Y-72123560D01*
X117637943Y-72123562D01*
X117726291Y-72161519D01*
X117818470Y-72201122D01*
X118015740Y-72245760D01*
X118021509Y-72245987D01*
X118021512Y-72245987D01*
X118097683Y-72248979D01*
X118217842Y-72253700D01*
X118304132Y-72241189D01*
X118412286Y-72225508D01*
X118412291Y-72225507D01*
X118418007Y-72224678D01*
X118423479Y-72222820D01*
X118423481Y-72222820D01*
X118604067Y-72161519D01*
X118604069Y-72161518D01*
X118609531Y-72159664D01*
X118757747Y-72076660D01*
X118780964Y-72063658D01*
X118780965Y-72063657D01*
X118786001Y-72060837D01*
X118848433Y-72008913D01*
X118937073Y-71935191D01*
X118941505Y-71931505D01*
X119070837Y-71776001D01*
X119083083Y-71754135D01*
X119166845Y-71604564D01*
X119169664Y-71599531D01*
X119229563Y-71423077D01*
X119232820Y-71413481D01*
X119232820Y-71413479D01*
X119234678Y-71408007D01*
X119235507Y-71402291D01*
X119235508Y-71402286D01*
X119263167Y-71211516D01*
X119263700Y-71207842D01*
X119265215Y-71150000D01*
X119262557Y-71121069D01*
X129755164Y-71121069D01*
X129768392Y-71322894D01*
X129818178Y-71518928D01*
X129902856Y-71702607D01*
X130019588Y-71867780D01*
X130164466Y-72008913D01*
X130332637Y-72121282D01*
X130337940Y-72123560D01*
X130337943Y-72123562D01*
X130426291Y-72161519D01*
X130518470Y-72201122D01*
X130715740Y-72245760D01*
X130721509Y-72245987D01*
X130721512Y-72245987D01*
X130797683Y-72248979D01*
X130917842Y-72253700D01*
X131004132Y-72241189D01*
X131112286Y-72225508D01*
X131112291Y-72225507D01*
X131118007Y-72224678D01*
X131123479Y-72222820D01*
X131123481Y-72222820D01*
X131304067Y-72161519D01*
X131304069Y-72161518D01*
X131309531Y-72159664D01*
X131457747Y-72076660D01*
X131480964Y-72063658D01*
X131480965Y-72063657D01*
X131486001Y-72060837D01*
X131548433Y-72008913D01*
X131637073Y-71935191D01*
X131641505Y-71931505D01*
X131770837Y-71776001D01*
X131783083Y-71754135D01*
X131866845Y-71604564D01*
X131869664Y-71599531D01*
X131929563Y-71423077D01*
X131932820Y-71413481D01*
X131932820Y-71413479D01*
X131934678Y-71408007D01*
X131935507Y-71402291D01*
X131935508Y-71402286D01*
X131963167Y-71211516D01*
X131963700Y-71207842D01*
X131965215Y-71150000D01*
X131946708Y-70948591D01*
X131891807Y-70753926D01*
X131802351Y-70572527D01*
X131784079Y-70548057D01*
X131684788Y-70415091D01*
X131684787Y-70415090D01*
X131681335Y-70410467D01*
X131658350Y-70389220D01*
X131537053Y-70277094D01*
X131537051Y-70277092D01*
X131532812Y-70273174D01*
X131524959Y-70268219D01*
X131366637Y-70168325D01*
X131361757Y-70165246D01*
X131173898Y-70090298D01*
X130975526Y-70050839D01*
X130969752Y-70050763D01*
X130969748Y-70050763D01*
X130867257Y-70049422D01*
X130773286Y-70048192D01*
X130767589Y-70049171D01*
X130767588Y-70049171D01*
X130579646Y-70081465D01*
X130579645Y-70081465D01*
X130573949Y-70082444D01*
X130384193Y-70152449D01*
X130210371Y-70255862D01*
X130058305Y-70389220D01*
X129933089Y-70548057D01*
X129838914Y-70727053D01*
X129778937Y-70920213D01*
X129755164Y-71121069D01*
X119262557Y-71121069D01*
X119246708Y-70948591D01*
X119191807Y-70753926D01*
X119102351Y-70572527D01*
X119084079Y-70548057D01*
X118984788Y-70415091D01*
X118984787Y-70415090D01*
X118981335Y-70410467D01*
X118958350Y-70389220D01*
X118837053Y-70277094D01*
X118837051Y-70277092D01*
X118832812Y-70273174D01*
X118824959Y-70268219D01*
X118666637Y-70168325D01*
X118661757Y-70165246D01*
X118656396Y-70163107D01*
X118656394Y-70163106D01*
X118651187Y-70161029D01*
X118595327Y-70117208D01*
X118572027Y-70050144D01*
X118588683Y-69981129D01*
X118640007Y-69932075D01*
X118697877Y-69917999D01*
X119004669Y-69917999D01*
X119011490Y-69917629D01*
X119062352Y-69912105D01*
X119077604Y-69908479D01*
X119198054Y-69863324D01*
X119213649Y-69854786D01*
X119315724Y-69778285D01*
X119328285Y-69765724D01*
X119404786Y-69663649D01*
X119413324Y-69648054D01*
X119458478Y-69527606D01*
X119462105Y-69512351D01*
X119467631Y-69461486D01*
X119468000Y-69454672D01*
X119468000Y-68882115D01*
X119463525Y-68866876D01*
X119462135Y-68865671D01*
X119454452Y-68864000D01*
X116870116Y-68864000D01*
X116854877Y-68868475D01*
X116853672Y-68869865D01*
X116852001Y-68877548D01*
X116852001Y-69454669D01*
X108550000Y-69454669D01*
X108550000Y-68581069D01*
X129755164Y-68581069D01*
X129768392Y-68782894D01*
X129818178Y-68978928D01*
X129902856Y-69162607D01*
X129906189Y-69167323D01*
X130015288Y-69321695D01*
X130019588Y-69327780D01*
X130164466Y-69468913D01*
X130332637Y-69581282D01*
X130337940Y-69583560D01*
X130337943Y-69583562D01*
X130426291Y-69621519D01*
X130518470Y-69661122D01*
X130715740Y-69705760D01*
X130721509Y-69705987D01*
X130721512Y-69705987D01*
X130797683Y-69708979D01*
X130917842Y-69713700D01*
X131004132Y-69701189D01*
X131112286Y-69685508D01*
X131112291Y-69685507D01*
X131118007Y-69684678D01*
X131123479Y-69682820D01*
X131123481Y-69682820D01*
X131304067Y-69621519D01*
X131304069Y-69621518D01*
X131309531Y-69619664D01*
X131486001Y-69520837D01*
X131531131Y-69483303D01*
X131637073Y-69395191D01*
X131641505Y-69391505D01*
X131710436Y-69308625D01*
X131767146Y-69240439D01*
X131770837Y-69236001D01*
X131869664Y-69059531D01*
X131880427Y-69027826D01*
X131932820Y-68873481D01*
X131932820Y-68873479D01*
X131934678Y-68868007D01*
X131935507Y-68862291D01*
X131935508Y-68862286D01*
X131963167Y-68671516D01*
X131963700Y-68667842D01*
X131965215Y-68610000D01*
X131946708Y-68408591D01*
X131891807Y-68213926D01*
X131802351Y-68032527D01*
X131784079Y-68008057D01*
X131684788Y-67875091D01*
X131684787Y-67875090D01*
X131681335Y-67870467D01*
X131658350Y-67849220D01*
X131537053Y-67737094D01*
X131537051Y-67737092D01*
X131532812Y-67733174D01*
X131505374Y-67715862D01*
X131366637Y-67628325D01*
X131361757Y-67625246D01*
X131173898Y-67550298D01*
X130975526Y-67510839D01*
X130969752Y-67510763D01*
X130969748Y-67510763D01*
X130867257Y-67509422D01*
X130773286Y-67508192D01*
X130767589Y-67509171D01*
X130767588Y-67509171D01*
X130579646Y-67541465D01*
X130579645Y-67541465D01*
X130573949Y-67542444D01*
X130384193Y-67612449D01*
X130379232Y-67615401D01*
X130379231Y-67615401D01*
X130224178Y-67707648D01*
X130210371Y-67715862D01*
X130058305Y-67849220D01*
X129933089Y-68008057D01*
X129838914Y-68187053D01*
X129778937Y-68380213D01*
X129755164Y-68581069D01*
X108550000Y-68581069D01*
X108550000Y-68337885D01*
X116852000Y-68337885D01*
X116856475Y-68353124D01*
X116857865Y-68354329D01*
X116865548Y-68356000D01*
X117887885Y-68356000D01*
X117903124Y-68351525D01*
X117904329Y-68350135D01*
X117906000Y-68342452D01*
X117906000Y-68337885D01*
X118414000Y-68337885D01*
X118418475Y-68353124D01*
X118419865Y-68354329D01*
X118427548Y-68356000D01*
X119449884Y-68356000D01*
X119465123Y-68351525D01*
X119466328Y-68350135D01*
X119467999Y-68342452D01*
X119467999Y-67765331D01*
X119467629Y-67758510D01*
X119462105Y-67707648D01*
X119458479Y-67692396D01*
X119413324Y-67571946D01*
X119404786Y-67556351D01*
X119328285Y-67454276D01*
X119315724Y-67441715D01*
X119213649Y-67365214D01*
X119198054Y-67356676D01*
X119077606Y-67311522D01*
X119062351Y-67307895D01*
X119011486Y-67302369D01*
X119004672Y-67302000D01*
X118432115Y-67302000D01*
X118416876Y-67306475D01*
X118415671Y-67307865D01*
X118414000Y-67315548D01*
X118414000Y-68337885D01*
X117906000Y-68337885D01*
X117906000Y-67320116D01*
X117901525Y-67304877D01*
X117900135Y-67303672D01*
X117892452Y-67302001D01*
X117315331Y-67302001D01*
X117308510Y-67302371D01*
X117257648Y-67307895D01*
X117242396Y-67311521D01*
X117121946Y-67356676D01*
X117106351Y-67365214D01*
X117004276Y-67441715D01*
X116991715Y-67454276D01*
X116915214Y-67556351D01*
X116906676Y-67571946D01*
X116861522Y-67692394D01*
X116857895Y-67707649D01*
X116852369Y-67758514D01*
X116852000Y-67765328D01*
X116852000Y-68337885D01*
X108550000Y-68337885D01*
X108550000Y-62797386D01*
X109817759Y-62797386D01*
X109825216Y-62807753D01*
X110064935Y-63001874D01*
X110070272Y-63005751D01*
X110390685Y-63213830D01*
X110396394Y-63217127D01*
X110736811Y-63390578D01*
X110742836Y-63393260D01*
X111099502Y-63530171D01*
X111105784Y-63532212D01*
X111474816Y-63631094D01*
X111481266Y-63632465D01*
X111858629Y-63692234D01*
X111865167Y-63692920D01*
X112246699Y-63712916D01*
X112253301Y-63712916D01*
X112634833Y-63692920D01*
X112641371Y-63692234D01*
X113018734Y-63632465D01*
X113025184Y-63631094D01*
X113394216Y-63532212D01*
X113400498Y-63530171D01*
X113757164Y-63393260D01*
X113763189Y-63390578D01*
X114103606Y-63217127D01*
X114109315Y-63213830D01*
X114429728Y-63005751D01*
X114435065Y-63001874D01*
X114508249Y-62942611D01*
X135944394Y-62942611D01*
X135962999Y-63111135D01*
X136021266Y-63270356D01*
X136025502Y-63276659D01*
X136025502Y-63276660D01*
X136111596Y-63404783D01*
X136111599Y-63404786D01*
X136115830Y-63411083D01*
X136171496Y-63461735D01*
X136183300Y-63472476D01*
X136220222Y-63533117D01*
X136224500Y-63565670D01*
X136224500Y-66195526D01*
X136231914Y-66218343D01*
X136236528Y-66237562D01*
X136240281Y-66261259D01*
X136244784Y-66270096D01*
X136244784Y-66270097D01*
X136251172Y-66282635D01*
X136258736Y-66300896D01*
X136263085Y-66314280D01*
X136263087Y-66314283D01*
X136266151Y-66323714D01*
X136271980Y-66331737D01*
X136280253Y-66343124D01*
X136290577Y-66359970D01*
X136301472Y-66381353D01*
X146250780Y-76330661D01*
X146284806Y-76392973D01*
X146286255Y-76401835D01*
X146286665Y-76403585D01*
X146287499Y-76411135D01*
X146345766Y-76570356D01*
X146350002Y-76576659D01*
X146350002Y-76576660D01*
X146361201Y-76593326D01*
X146440330Y-76711083D01*
X146445942Y-76716190D01*
X146445945Y-76716193D01*
X146560112Y-76820077D01*
X146560116Y-76820080D01*
X146565733Y-76825191D01*
X146572406Y-76828814D01*
X146572410Y-76828817D01*
X146708058Y-76902467D01*
X146708060Y-76902468D01*
X146714735Y-76906092D01*
X146722084Y-76908020D01*
X146871383Y-76947188D01*
X146871385Y-76947188D01*
X146878733Y-76949116D01*
X146965109Y-76950473D01*
X147040661Y-76951660D01*
X147040664Y-76951660D01*
X147048260Y-76951779D01*
X147055665Y-76950083D01*
X147055666Y-76950083D01*
X147116086Y-76936245D01*
X147213529Y-76913928D01*
X147364998Y-76837747D01*
X147493923Y-76727634D01*
X147592861Y-76589947D01*
X147600737Y-76570356D01*
X147653266Y-76439687D01*
X147653267Y-76439685D01*
X147656101Y-76432634D01*
X147676708Y-76287842D01*
X147679409Y-76268862D01*
X147679409Y-76268859D01*
X147679990Y-76264778D01*
X147680062Y-76257932D01*
X147680102Y-76254135D01*
X147680102Y-76254129D01*
X147680145Y-76250000D01*
X147659776Y-76081680D01*
X147599845Y-75923077D01*
X147533275Y-75826217D01*
X147508114Y-75789608D01*
X147508113Y-75789607D01*
X147503812Y-75783349D01*
X147488916Y-75770077D01*
X147382892Y-75675612D01*
X147382888Y-75675610D01*
X147377221Y-75670560D01*
X147368974Y-75666193D01*
X147294272Y-75626641D01*
X147227381Y-75591224D01*
X147062941Y-75549919D01*
X147055343Y-75549879D01*
X147055341Y-75549879D01*
X146978168Y-75549475D01*
X146893395Y-75549031D01*
X146886007Y-75550805D01*
X146886005Y-75550805D01*
X146855041Y-75558239D01*
X146783996Y-75575296D01*
X146713090Y-75571750D01*
X146665488Y-75541873D01*
X146316226Y-75192611D01*
X153156894Y-75192611D01*
X153175499Y-75361135D01*
X153183367Y-75382634D01*
X153221978Y-75488143D01*
X153233766Y-75520356D01*
X153238002Y-75526659D01*
X153238002Y-75526660D01*
X153248225Y-75541873D01*
X153328330Y-75661083D01*
X153333942Y-75666190D01*
X153333945Y-75666193D01*
X153448112Y-75770077D01*
X153448116Y-75770080D01*
X153453733Y-75775191D01*
X153460406Y-75778814D01*
X153460410Y-75778817D01*
X153596058Y-75852467D01*
X153596060Y-75852468D01*
X153602735Y-75856092D01*
X153610084Y-75858020D01*
X153759383Y-75897188D01*
X153759385Y-75897188D01*
X153766733Y-75899116D01*
X153853109Y-75900473D01*
X153928661Y-75901660D01*
X153928664Y-75901660D01*
X153936260Y-75901779D01*
X153943665Y-75900083D01*
X153943666Y-75900083D01*
X154004086Y-75886245D01*
X154101529Y-75863928D01*
X154252998Y-75787747D01*
X154381923Y-75677634D01*
X154480861Y-75539947D01*
X154488737Y-75520356D01*
X154541266Y-75389687D01*
X154541267Y-75389685D01*
X154544101Y-75382634D01*
X154563216Y-75248325D01*
X154567409Y-75218862D01*
X154567409Y-75218859D01*
X154567990Y-75214778D01*
X154568145Y-75200000D01*
X154566340Y-75185080D01*
X154559912Y-75131966D01*
X154547776Y-75031680D01*
X154487845Y-74873077D01*
X154479084Y-74860330D01*
X154396114Y-74739608D01*
X154396113Y-74739607D01*
X154391812Y-74733349D01*
X154383130Y-74725613D01*
X154367681Y-74711849D01*
X154330125Y-74651599D01*
X154325500Y-74617773D01*
X154325500Y-72365939D01*
X154345502Y-72297818D01*
X154369669Y-72270128D01*
X154413651Y-72232564D01*
X154413652Y-72232563D01*
X154419423Y-72227634D01*
X154518361Y-72089947D01*
X154528929Y-72063658D01*
X154578766Y-71939687D01*
X154578767Y-71939685D01*
X154581601Y-71932634D01*
X154605490Y-71764778D01*
X154605645Y-71750000D01*
X154603840Y-71735080D01*
X154601004Y-71711653D01*
X154585276Y-71581680D01*
X154525345Y-71423077D01*
X154456491Y-71322894D01*
X154433614Y-71289608D01*
X154433613Y-71289607D01*
X154429312Y-71283349D01*
X154348689Y-71211516D01*
X154308392Y-71175612D01*
X154308388Y-71175610D01*
X154302721Y-71170560D01*
X154270886Y-71153704D01*
X154220139Y-71126835D01*
X154152881Y-71091224D01*
X153988441Y-71049919D01*
X153980843Y-71049879D01*
X153980841Y-71049879D01*
X153903668Y-71049475D01*
X153818895Y-71049031D01*
X153811508Y-71050805D01*
X153811504Y-71050805D01*
X153668162Y-71085220D01*
X153654032Y-71088612D01*
X153647288Y-71092093D01*
X153647285Y-71092094D01*
X153510117Y-71162892D01*
X153503369Y-71166375D01*
X153375604Y-71277831D01*
X153371237Y-71284045D01*
X153288136Y-71402286D01*
X153278113Y-71416547D01*
X153216524Y-71574513D01*
X153215532Y-71582046D01*
X153215532Y-71582047D01*
X153199040Y-71707323D01*
X153194394Y-71742611D01*
X153212999Y-71911135D01*
X153223448Y-71939687D01*
X153267783Y-72060837D01*
X153271266Y-72070356D01*
X153275502Y-72076659D01*
X153275502Y-72076660D01*
X153361596Y-72204783D01*
X153361599Y-72204786D01*
X153365830Y-72211083D01*
X153412416Y-72253473D01*
X153433300Y-72272476D01*
X153470222Y-72333117D01*
X153474500Y-72365670D01*
X153474500Y-74551557D01*
X153454498Y-74619678D01*
X153431329Y-74646506D01*
X153338104Y-74727831D01*
X153240613Y-74866547D01*
X153179024Y-75024513D01*
X153178032Y-75032046D01*
X153178032Y-75032047D01*
X153159815Y-75170424D01*
X153156894Y-75192611D01*
X146316226Y-75192611D01*
X141818423Y-70694808D01*
X141784397Y-70632496D01*
X141789462Y-70561681D01*
X141837787Y-70500767D01*
X141839000Y-70499961D01*
X141845782Y-70496550D01*
X141974707Y-70386437D01*
X141979138Y-70380270D01*
X141983968Y-70375018D01*
X142044800Y-70338412D01*
X142076717Y-70334303D01*
X148108590Y-70334303D01*
X148131407Y-70326889D01*
X148150626Y-70322275D01*
X148174323Y-70318522D01*
X148183161Y-70314019D01*
X148195699Y-70307631D01*
X148213960Y-70300067D01*
X148227344Y-70295718D01*
X148227347Y-70295716D01*
X148236778Y-70292652D01*
X148256188Y-70278550D01*
X148273034Y-70268226D01*
X148294417Y-70257331D01*
X150348528Y-68203220D01*
X150359419Y-68181844D01*
X150369749Y-68164989D01*
X150378021Y-68153604D01*
X150378021Y-68153603D01*
X150383850Y-68145581D01*
X150391264Y-68122763D01*
X150398827Y-68104502D01*
X150409719Y-68083126D01*
X150411270Y-68073335D01*
X150411272Y-68073328D01*
X150413473Y-68059431D01*
X150418087Y-68040212D01*
X150422436Y-68026827D01*
X150422437Y-68026820D01*
X150425500Y-68017393D01*
X150425500Y-66060588D01*
X161687483Y-66060588D01*
X161706472Y-66277632D01*
X161708375Y-66288425D01*
X161764764Y-66498874D01*
X161768510Y-66509166D01*
X161860586Y-66706624D01*
X161866069Y-66716119D01*
X161989897Y-66892964D01*
X162012585Y-66960238D01*
X161995300Y-67029099D01*
X161975857Y-67054253D01*
X161947759Y-67082400D01*
X161902494Y-67184786D01*
X161899500Y-67210467D01*
X161899500Y-68899759D01*
X161902618Y-68925959D01*
X161906456Y-68934599D01*
X161906456Y-68934600D01*
X161943140Y-69017187D01*
X161948061Y-69028266D01*
X161956294Y-69036485D01*
X161956295Y-69036486D01*
X161984422Y-69064564D01*
X162027287Y-69107354D01*
X162037924Y-69112057D01*
X162037926Y-69112058D01*
X162097462Y-69138378D01*
X162129673Y-69152619D01*
X162155354Y-69155613D01*
X163844646Y-69155613D01*
X163848350Y-69155172D01*
X163848353Y-69155172D01*
X163855746Y-69154292D01*
X163870846Y-69152495D01*
X163973153Y-69107052D01*
X164052241Y-69027826D01*
X164097506Y-68925440D01*
X164100500Y-68899759D01*
X164100500Y-67210467D01*
X164097382Y-67184267D01*
X164051939Y-67081960D01*
X164024315Y-67054384D01*
X163990236Y-66992101D01*
X163995239Y-66921281D01*
X164010120Y-66892940D01*
X164133931Y-66716120D01*
X164139414Y-66706624D01*
X164231490Y-66509166D01*
X164235236Y-66498874D01*
X164291625Y-66288425D01*
X164293528Y-66277632D01*
X164312517Y-66060588D01*
X164312517Y-66049638D01*
X164293528Y-65832594D01*
X164291625Y-65821801D01*
X164235236Y-65611352D01*
X164231490Y-65601060D01*
X164139414Y-65403602D01*
X164133931Y-65394107D01*
X164097491Y-65342065D01*
X164087012Y-65333689D01*
X164073566Y-65340757D01*
X163089095Y-66325228D01*
X163026783Y-66359254D01*
X162955968Y-66354189D01*
X162910905Y-66325228D01*
X161925713Y-65340036D01*
X161913938Y-65333606D01*
X161901923Y-65342902D01*
X161866069Y-65394107D01*
X161860586Y-65403602D01*
X161768510Y-65601060D01*
X161764764Y-65611352D01*
X161708375Y-65821801D01*
X161706472Y-65832594D01*
X161687483Y-66049638D01*
X161687483Y-66060588D01*
X150425500Y-66060588D01*
X150425500Y-64968101D01*
X162278576Y-64968101D01*
X162285644Y-64981547D01*
X162987188Y-65683091D01*
X163001132Y-65690705D01*
X163002965Y-65690574D01*
X163009580Y-65686323D01*
X163715077Y-64980826D01*
X163721507Y-64969051D01*
X163712211Y-64957036D01*
X163661006Y-64921182D01*
X163651511Y-64915699D01*
X163454053Y-64823623D01*
X163443761Y-64819877D01*
X163233312Y-64763488D01*
X163222519Y-64761585D01*
X163005475Y-64742596D01*
X162994525Y-64742596D01*
X162777481Y-64761585D01*
X162766688Y-64763488D01*
X162556239Y-64819877D01*
X162545947Y-64823623D01*
X162348489Y-64915699D01*
X162338994Y-64921182D01*
X162286952Y-64957622D01*
X162278576Y-64968101D01*
X150425500Y-64968101D01*
X150425500Y-63265939D01*
X150445502Y-63197818D01*
X150469669Y-63170128D01*
X150513651Y-63132564D01*
X150513652Y-63132563D01*
X150519423Y-63127634D01*
X150618361Y-62989947D01*
X150628479Y-62964778D01*
X150678766Y-62839687D01*
X150678767Y-62839685D01*
X150681601Y-62832634D01*
X150686617Y-62797386D01*
X171817759Y-62797386D01*
X171825216Y-62807753D01*
X172064935Y-63001874D01*
X172070272Y-63005751D01*
X172390685Y-63213830D01*
X172396394Y-63217127D01*
X172736811Y-63390578D01*
X172742836Y-63393260D01*
X173099502Y-63530171D01*
X173105784Y-63532212D01*
X173474816Y-63631094D01*
X173481266Y-63632465D01*
X173858629Y-63692234D01*
X173865167Y-63692920D01*
X174246699Y-63712916D01*
X174253301Y-63712916D01*
X174634833Y-63692920D01*
X174641371Y-63692234D01*
X175018734Y-63632465D01*
X175025184Y-63631094D01*
X175394216Y-63532212D01*
X175400498Y-63530171D01*
X175757164Y-63393260D01*
X175763189Y-63390578D01*
X176103606Y-63217127D01*
X176109315Y-63213830D01*
X176429728Y-63005751D01*
X176435065Y-63001874D01*
X176673835Y-62808522D01*
X176682300Y-62796267D01*
X176675966Y-62785176D01*
X174262812Y-60372022D01*
X174248868Y-60364408D01*
X174247035Y-60364539D01*
X174240420Y-60368790D01*
X171824900Y-62784310D01*
X171817759Y-62797386D01*
X150686617Y-62797386D01*
X150705490Y-62664778D01*
X150705645Y-62650000D01*
X150703840Y-62635080D01*
X150686188Y-62489220D01*
X150685276Y-62481680D01*
X150625345Y-62323077D01*
X150529312Y-62183349D01*
X150517514Y-62172837D01*
X150408392Y-62075612D01*
X150408388Y-62075610D01*
X150402721Y-62070560D01*
X150252881Y-61991224D01*
X150088441Y-61949919D01*
X150080843Y-61949879D01*
X150080841Y-61949879D01*
X150003668Y-61949475D01*
X149918895Y-61949031D01*
X149911508Y-61950805D01*
X149911504Y-61950805D01*
X149768162Y-61985220D01*
X149754032Y-61988612D01*
X149747288Y-61992093D01*
X149747285Y-61992094D01*
X149742089Y-61994776D01*
X149603369Y-62066375D01*
X149475604Y-62177831D01*
X149471237Y-62184045D01*
X149397210Y-62289375D01*
X149378113Y-62316547D01*
X149316524Y-62474513D01*
X149315532Y-62482046D01*
X149315532Y-62482047D01*
X149296031Y-62630180D01*
X149294394Y-62642611D01*
X149312999Y-62811135D01*
X149320867Y-62832634D01*
X149363876Y-62950161D01*
X149371266Y-62970356D01*
X149375502Y-62976659D01*
X149375502Y-62976660D01*
X149461596Y-63104783D01*
X149461599Y-63104786D01*
X149465830Y-63111083D01*
X149521496Y-63161735D01*
X149533300Y-63172476D01*
X149570222Y-63233117D01*
X149574500Y-63265670D01*
X149574500Y-67721562D01*
X149554498Y-67789683D01*
X149537595Y-67810657D01*
X147901854Y-69446398D01*
X147839542Y-69480424D01*
X147812759Y-69483303D01*
X142076550Y-69483303D01*
X142008429Y-69463301D01*
X141985729Y-69443801D01*
X141984596Y-69442152D01*
X141972798Y-69431640D01*
X141863676Y-69334415D01*
X141863672Y-69334413D01*
X141858005Y-69329363D01*
X141708165Y-69250027D01*
X141543725Y-69208722D01*
X141536127Y-69208682D01*
X141536125Y-69208682D01*
X141458952Y-69208278D01*
X141374179Y-69207834D01*
X141366792Y-69209608D01*
X141366788Y-69209608D01*
X141238372Y-69240439D01*
X141209316Y-69247415D01*
X141202572Y-69250896D01*
X141202569Y-69250897D01*
X141197373Y-69253579D01*
X141058653Y-69325178D01*
X141052931Y-69330170D01*
X141052929Y-69330171D01*
X141048064Y-69334415D01*
X140930888Y-69436634D01*
X140908202Y-69468913D01*
X140864102Y-69531661D01*
X140808567Y-69575892D01*
X140737935Y-69583078D01*
X140671920Y-69548305D01*
X137112405Y-65988790D01*
X137078379Y-65926478D01*
X137075500Y-65899695D01*
X137075500Y-63565939D01*
X137095502Y-63497818D01*
X137119669Y-63470128D01*
X137163651Y-63432564D01*
X137163652Y-63432563D01*
X137169423Y-63427634D01*
X137268361Y-63289947D01*
X137278012Y-63265939D01*
X137328766Y-63139687D01*
X137328767Y-63139685D01*
X137331601Y-63132634D01*
X137350211Y-63001874D01*
X137354909Y-62968862D01*
X137354909Y-62968859D01*
X137355490Y-62964778D01*
X137355645Y-62950000D01*
X137353840Y-62935080D01*
X137351004Y-62911653D01*
X137335276Y-62781680D01*
X137275345Y-62623077D01*
X137179312Y-62483349D01*
X137167514Y-62472837D01*
X137058392Y-62375612D01*
X137058388Y-62375610D01*
X137052721Y-62370560D01*
X136902881Y-62291224D01*
X136738441Y-62249919D01*
X136730843Y-62249879D01*
X136730841Y-62249879D01*
X136653668Y-62249475D01*
X136568895Y-62249031D01*
X136561508Y-62250805D01*
X136561504Y-62250805D01*
X136418162Y-62285220D01*
X136404032Y-62288612D01*
X136397288Y-62292093D01*
X136397285Y-62292094D01*
X136260117Y-62362892D01*
X136253369Y-62366375D01*
X136125604Y-62477831D01*
X136028113Y-62616547D01*
X135966524Y-62774513D01*
X135965532Y-62782046D01*
X135965532Y-62782047D01*
X135962697Y-62803586D01*
X135944394Y-62942611D01*
X114508249Y-62942611D01*
X114673835Y-62808522D01*
X114682300Y-62796267D01*
X114675966Y-62785176D01*
X112262812Y-60372022D01*
X112248868Y-60364408D01*
X112247035Y-60364539D01*
X112240420Y-60368790D01*
X109824900Y-62784310D01*
X109817759Y-62797386D01*
X108550000Y-62797386D01*
X108550000Y-61387913D01*
X108570002Y-61319792D01*
X108623658Y-61273299D01*
X108693932Y-61263195D01*
X108758512Y-61292689D01*
X108793631Y-61342759D01*
X108856740Y-61507164D01*
X108859422Y-61513189D01*
X109032872Y-61853603D01*
X109036169Y-61859313D01*
X109244253Y-62179735D01*
X109248123Y-62185061D01*
X109441478Y-62423835D01*
X109453733Y-62432300D01*
X109464824Y-62425966D01*
X111889658Y-60001132D01*
X112614408Y-60001132D01*
X112614539Y-60002965D01*
X112618790Y-60009580D01*
X115034310Y-62425100D01*
X115047386Y-62432241D01*
X115057753Y-62424784D01*
X115251877Y-62185061D01*
X115255747Y-62179735D01*
X115463831Y-61859313D01*
X115467128Y-61853603D01*
X115640578Y-61513189D01*
X115643260Y-61507164D01*
X115780171Y-61150498D01*
X115782212Y-61144216D01*
X115881094Y-60775184D01*
X115882465Y-60768734D01*
X115942234Y-60391371D01*
X115942920Y-60384833D01*
X115962916Y-60003301D01*
X170537084Y-60003301D01*
X170557080Y-60384833D01*
X170557766Y-60391371D01*
X170617535Y-60768734D01*
X170618906Y-60775184D01*
X170717788Y-61144216D01*
X170719829Y-61150498D01*
X170856740Y-61507164D01*
X170859422Y-61513189D01*
X171032872Y-61853603D01*
X171036169Y-61859313D01*
X171244253Y-62179735D01*
X171248123Y-62185061D01*
X171441478Y-62423835D01*
X171453733Y-62432300D01*
X171464824Y-62425966D01*
X173877978Y-60012812D01*
X173885592Y-59998868D01*
X173885461Y-59997035D01*
X173881210Y-59990420D01*
X171465690Y-57574900D01*
X171452614Y-57567759D01*
X171442247Y-57575216D01*
X171248123Y-57814939D01*
X171244253Y-57820265D01*
X171036169Y-58140687D01*
X171032872Y-58146397D01*
X170859422Y-58486811D01*
X170856740Y-58492836D01*
X170719829Y-58849502D01*
X170717788Y-58855784D01*
X170618906Y-59224816D01*
X170617535Y-59231266D01*
X170557766Y-59608629D01*
X170557080Y-59615167D01*
X170537084Y-59996699D01*
X170537084Y-60003301D01*
X115962916Y-60003301D01*
X115962916Y-59996699D01*
X115942920Y-59615167D01*
X115942234Y-59608629D01*
X115882465Y-59231266D01*
X115881094Y-59224816D01*
X115782212Y-58855784D01*
X115780171Y-58849502D01*
X115643260Y-58492836D01*
X115640578Y-58486811D01*
X115467128Y-58146397D01*
X115463831Y-58140687D01*
X115255747Y-57820265D01*
X115251877Y-57814939D01*
X115058522Y-57576165D01*
X115046267Y-57567700D01*
X115035176Y-57574034D01*
X112622022Y-59987188D01*
X112614408Y-60001132D01*
X111889658Y-60001132D01*
X114675100Y-57215690D01*
X114682241Y-57202614D01*
X114674784Y-57192247D01*
X114435065Y-56998126D01*
X114429728Y-56994249D01*
X114109315Y-56786170D01*
X114103606Y-56782873D01*
X113763189Y-56609422D01*
X113757164Y-56606740D01*
X113592759Y-56543631D01*
X113536331Y-56500546D01*
X113512154Y-56433792D01*
X113527905Y-56364565D01*
X113578583Y-56314843D01*
X113637913Y-56300000D01*
X172862087Y-56300000D01*
X172930208Y-56320002D01*
G37*
%TD.AperFunction*%
%TA.AperFunction,Conductor*%
G36*
X146119032Y-98525924D02*
G01*
X146164095Y-98554885D01*
X146345115Y-98735905D01*
X146379141Y-98798217D01*
X146374076Y-98869032D01*
X146345115Y-98914095D01*
X146020547Y-99238663D01*
X145958235Y-99272689D01*
X145887420Y-99267624D01*
X145830584Y-99225077D01*
X145805773Y-99158557D01*
X145814545Y-99102571D01*
X145855114Y-99001652D01*
X145857950Y-98994598D01*
X145870383Y-98907241D01*
X145879553Y-98842807D01*
X145879553Y-98842804D01*
X145880134Y-98838723D01*
X145880278Y-98825000D01*
X145869888Y-98739142D01*
X145881561Y-98669112D01*
X145905880Y-98634910D01*
X145985905Y-98554885D01*
X146048217Y-98520859D01*
X146119032Y-98525924D01*
G37*
%TD.AperFunction*%
%TA.AperFunction,Conductor*%
G36*
X140169032Y-98525924D02*
G01*
X140214095Y-98554885D01*
X140294154Y-98634944D01*
X140328180Y-98697256D01*
X140329981Y-98740485D01*
X140320749Y-98810606D01*
X140320749Y-98810611D01*
X140319758Y-98818138D01*
X140337035Y-98974633D01*
X140339645Y-98981765D01*
X140384244Y-99103637D01*
X140388870Y-99174482D01*
X140354461Y-99236583D01*
X140291939Y-99270222D01*
X140221156Y-99264719D01*
X140176823Y-99236033D01*
X139854885Y-98914095D01*
X139820859Y-98851783D01*
X139825924Y-98780968D01*
X139854885Y-98735905D01*
X140035905Y-98554885D01*
X140098217Y-98520859D01*
X140169032Y-98525924D01*
G37*
%TD.AperFunction*%
%TA.AperFunction,Conductor*%
G36*
X111087708Y-101157248D02*
G01*
X111132771Y-101186209D01*
X111313791Y-101367229D01*
X111347817Y-101429541D01*
X111342752Y-101500356D01*
X111313791Y-101545419D01*
X110151307Y-102707903D01*
X110088995Y-102741929D01*
X110018180Y-102736864D01*
X109973117Y-102707903D01*
X109792097Y-102526883D01*
X109758071Y-102464571D01*
X109763136Y-102393756D01*
X109792097Y-102348693D01*
X110954581Y-101186209D01*
X111016893Y-101152183D01*
X111087708Y-101157248D01*
G37*
%TD.AperFunction*%
%TA.AperFunction,Conductor*%
G36*
X175500356Y-101157248D02*
G01*
X175545419Y-101186209D01*
X176707903Y-102348693D01*
X176741929Y-102411005D01*
X176736864Y-102481820D01*
X176707903Y-102526883D01*
X176526883Y-102707903D01*
X176464571Y-102741929D01*
X176393756Y-102736864D01*
X176348693Y-102707903D01*
X175186209Y-101545419D01*
X175152183Y-101483107D01*
X175157248Y-101412292D01*
X175186209Y-101367229D01*
X175367229Y-101186209D01*
X175429541Y-101152183D01*
X175500356Y-101157248D01*
G37*
%TD.AperFunction*%
%TA.AperFunction,Conductor*%
G36*
X110106244Y-57513136D02*
G01*
X110151307Y-57542097D01*
X111313791Y-58704581D01*
X111347817Y-58766893D01*
X111342752Y-58837708D01*
X111313791Y-58882771D01*
X111132771Y-59063791D01*
X111070459Y-59097817D01*
X110999644Y-59092752D01*
X110954581Y-59063791D01*
X109792097Y-57901307D01*
X109758071Y-57838995D01*
X109763136Y-57768180D01*
X109792097Y-57723117D01*
X109973117Y-57542097D01*
X110035429Y-57508071D01*
X110106244Y-57513136D01*
G37*
%TD.AperFunction*%
%TA.AperFunction,Conductor*%
G36*
X176481820Y-57513136D02*
G01*
X176526883Y-57542097D01*
X176707903Y-57723117D01*
X176741929Y-57785429D01*
X176736864Y-57856244D01*
X176707903Y-57901307D01*
X175545419Y-59063791D01*
X175483107Y-59097817D01*
X175412292Y-59092752D01*
X175367229Y-59063791D01*
X175186209Y-58882771D01*
X175152183Y-58820459D01*
X175157248Y-58749644D01*
X175186209Y-58704581D01*
X176348693Y-57542097D01*
X176411005Y-57508071D01*
X176481820Y-57513136D01*
G37*
%TD.AperFunction*%
%TD*%
M02*
