%TF.GenerationSoftware,KiCad,Pcbnew,(6.0.2)*%
%TF.CreationDate,2022-03-05T17:56:55+01:00*%
%TF.ProjectId,PCB_stepper,5043425f-7374-4657-9070-65722e6b6963,rev?*%
%TF.SameCoordinates,Original*%
%TF.FileFunction,Paste,Top*%
%TF.FilePolarity,Positive*%
%FSLAX46Y46*%
G04 Gerber Fmt 4.6, Leading zero omitted, Abs format (unit mm)*
G04 Created by KiCad (PCBNEW (6.0.2)) date 2022-03-05 17:56:55*
%MOMM*%
%LPD*%
G01*
G04 APERTURE LIST*
G04 Aperture macros list*
%AMRoundRect*
0 Rectangle with rounded corners*
0 $1 Rounding radius*
0 $2 $3 $4 $5 $6 $7 $8 $9 X,Y pos of 4 corners*
0 Add a 4 corners polygon primitive as box body*
4,1,4,$2,$3,$4,$5,$6,$7,$8,$9,$2,$3,0*
0 Add four circle primitives for the rounded corners*
1,1,$1+$1,$2,$3*
1,1,$1+$1,$4,$5*
1,1,$1+$1,$6,$7*
1,1,$1+$1,$8,$9*
0 Add four rect primitives between the rounded corners*
20,1,$1+$1,$2,$3,$4,$5,0*
20,1,$1+$1,$4,$5,$6,$7,0*
20,1,$1+$1,$6,$7,$8,$9,0*
20,1,$1+$1,$8,$9,$2,$3,0*%
G04 Aperture macros list end*
%ADD10RoundRect,0.250000X-0.450000X0.325000X-0.450000X-0.325000X0.450000X-0.325000X0.450000X0.325000X0*%
%ADD11RoundRect,0.250000X-0.337500X-0.475000X0.337500X-0.475000X0.337500X0.475000X-0.337500X0.475000X0*%
%ADD12R,1.500000X3.000000*%
%ADD13RoundRect,0.250000X-0.350000X-0.450000X0.350000X-0.450000X0.350000X0.450000X-0.350000X0.450000X0*%
%ADD14RoundRect,0.250000X0.475000X-0.337500X0.475000X0.337500X-0.475000X0.337500X-0.475000X-0.337500X0*%
%ADD15RoundRect,0.250000X-0.325000X-0.450000X0.325000X-0.450000X0.325000X0.450000X-0.325000X0.450000X0*%
%ADD16RoundRect,0.250000X0.350000X0.450000X-0.350000X0.450000X-0.350000X-0.450000X0.350000X-0.450000X0*%
%ADD17RoundRect,0.250000X-0.475000X0.337500X-0.475000X-0.337500X0.475000X-0.337500X0.475000X0.337500X0*%
%ADD18RoundRect,0.250000X0.337500X0.475000X-0.337500X0.475000X-0.337500X-0.475000X0.337500X-0.475000X0*%
%ADD19R,1.600000X1.300000*%
%ADD20R,1.500000X1.500000*%
%ADD21RoundRect,0.243750X-0.243750X-0.456250X0.243750X-0.456250X0.243750X0.456250X-0.243750X0.456250X0*%
%ADD22RoundRect,0.250000X0.450000X-0.350000X0.450000X0.350000X-0.450000X0.350000X-0.450000X-0.350000X0*%
%ADD23RoundRect,0.150000X0.150000X-0.587500X0.150000X0.587500X-0.150000X0.587500X-0.150000X-0.587500X0*%
%ADD24R,1.500000X2.000000*%
%ADD25R,3.800000X2.000000*%
%ADD26RoundRect,0.150000X-0.150000X0.825000X-0.150000X-0.825000X0.150000X-0.825000X0.150000X0.825000X0*%
%ADD27RoundRect,0.250000X-0.450000X0.350000X-0.450000X-0.350000X0.450000X-0.350000X0.450000X0.350000X0*%
%ADD28RoundRect,0.250000X0.450000X-0.325000X0.450000X0.325000X-0.450000X0.325000X-0.450000X-0.325000X0*%
%ADD29RoundRect,0.075000X-0.075000X0.662500X-0.075000X-0.662500X0.075000X-0.662500X0.075000X0.662500X0*%
%ADD30RoundRect,0.075000X-0.662500X0.075000X-0.662500X-0.075000X0.662500X-0.075000X0.662500X0.075000X0*%
G04 APERTURE END LIST*
D10*
%TO.C,D3*%
X130450000Y-95575000D03*
X130450000Y-97625000D03*
%TD*%
D11*
%TO.C,C12*%
X153862500Y-75200000D03*
X155937500Y-75200000D03*
%TD*%
D12*
%TO.C,J2*%
X167105000Y-101450000D03*
X165835000Y-96950000D03*
X164565000Y-101450000D03*
X163295000Y-96950000D03*
%TD*%
D11*
%TO.C,C2*%
X148662500Y-72600000D03*
X150737500Y-72600000D03*
%TD*%
D13*
%TO.C,R1*%
X135600000Y-86050000D03*
X137600000Y-86050000D03*
%TD*%
D14*
%TO.C,C16*%
X167800000Y-79437500D03*
X167800000Y-77362500D03*
%TD*%
D15*
%TO.C,D5*%
X165675000Y-92950000D03*
X167725000Y-92950000D03*
%TD*%
D13*
%TO.C,R3*%
X147700000Y-94100000D03*
X149700000Y-94100000D03*
%TD*%
D14*
%TO.C,C5*%
X142700000Y-70887500D03*
X142700000Y-68812500D03*
%TD*%
D16*
%TO.C,R5*%
X146600000Y-92100000D03*
X144600000Y-92100000D03*
%TD*%
D17*
%TO.C,C3*%
X148600000Y-64162500D03*
X148600000Y-66237500D03*
%TD*%
D18*
%TO.C,C10*%
X142737500Y-92100000D03*
X140662500Y-92100000D03*
%TD*%
%TO.C,C7*%
X137537500Y-79900000D03*
X135462500Y-79900000D03*
%TD*%
D14*
%TO.C,C4*%
X140800000Y-66237500D03*
X140800000Y-64162500D03*
%TD*%
D19*
%TO.C,Y1*%
X146350000Y-64200000D03*
X143050000Y-64200000D03*
X143050000Y-66200000D03*
X146350000Y-66200000D03*
%TD*%
D20*
%TO.C,SW2*%
X126800000Y-60300000D03*
X134600000Y-60300000D03*
%TD*%
D21*
%TO.C,D1*%
X139357500Y-86005000D03*
X141232500Y-86005000D03*
%TD*%
D22*
%TO.C,R8*%
X166000000Y-87775000D03*
X166000000Y-85775000D03*
%TD*%
D23*
%TO.C,D2*%
X154350000Y-93037500D03*
X156250000Y-93037500D03*
X155300000Y-91162500D03*
%TD*%
D16*
%TO.C,R4*%
X138800000Y-92100000D03*
X136800000Y-92100000D03*
%TD*%
D13*
%TO.C,R9*%
X161900000Y-92950000D03*
X163900000Y-92950000D03*
%TD*%
D22*
%TO.C,R6*%
X153400000Y-88100000D03*
X153400000Y-86100000D03*
%TD*%
D24*
%TO.C,U3*%
X160800000Y-79450000D03*
X163100000Y-79450000D03*
D25*
X163100000Y-73150000D03*
D24*
X165400000Y-79450000D03*
%TD*%
D26*
%TO.C,U2*%
X156905000Y-77425000D03*
X155635000Y-77425000D03*
X154365000Y-77425000D03*
X153095000Y-77425000D03*
X153095000Y-82375000D03*
X154365000Y-82375000D03*
X155635000Y-82375000D03*
X156905000Y-82375000D03*
%TD*%
D14*
%TO.C,C11*%
X136700000Y-99300000D03*
X136700000Y-97225000D03*
%TD*%
D12*
%TO.C,J3*%
X156405000Y-101450000D03*
X155135000Y-96950000D03*
X153865000Y-101450000D03*
X152595000Y-96950000D03*
%TD*%
D17*
%TO.C,C1*%
X146900000Y-83062500D03*
X146900000Y-85137500D03*
%TD*%
D18*
%TO.C,C9*%
X137537500Y-82000000D03*
X135462500Y-82000000D03*
%TD*%
D27*
%TO.C,R7*%
X130500000Y-91820000D03*
X130500000Y-93820000D03*
%TD*%
D18*
%TO.C,C17*%
X162837500Y-81800000D03*
X160762500Y-81800000D03*
%TD*%
D14*
%TO.C,C6*%
X150000000Y-61237500D03*
X150000000Y-59162500D03*
%TD*%
D11*
%TO.C,C8*%
X144562500Y-90100000D03*
X146637500Y-90100000D03*
%TD*%
D28*
%TO.C,D4*%
X166000000Y-84000000D03*
X166000000Y-81950000D03*
%TD*%
D20*
%TO.C,SW1*%
X140100000Y-60300000D03*
X147900000Y-60300000D03*
%TD*%
D29*
%TO.C,U1*%
X146750000Y-72837500D03*
X146250000Y-72837500D03*
X145750000Y-72837500D03*
X145250000Y-72837500D03*
X144750000Y-72837500D03*
X144250000Y-72837500D03*
X143750000Y-72837500D03*
X143250000Y-72837500D03*
X142750000Y-72837500D03*
X142250000Y-72837500D03*
X141750000Y-72837500D03*
X141250000Y-72837500D03*
D30*
X139837500Y-74250000D03*
X139837500Y-74750000D03*
X139837500Y-75250000D03*
X139837500Y-75750000D03*
X139837500Y-76250000D03*
X139837500Y-76750000D03*
X139837500Y-77250000D03*
X139837500Y-77750000D03*
X139837500Y-78250000D03*
X139837500Y-78750000D03*
X139837500Y-79250000D03*
X139837500Y-79750000D03*
D29*
X141250000Y-81162500D03*
X141750000Y-81162500D03*
X142250000Y-81162500D03*
X142750000Y-81162500D03*
X143250000Y-81162500D03*
X143750000Y-81162500D03*
X144250000Y-81162500D03*
X144750000Y-81162500D03*
X145250000Y-81162500D03*
X145750000Y-81162500D03*
X146250000Y-81162500D03*
X146750000Y-81162500D03*
D30*
X148162500Y-79750000D03*
X148162500Y-79250000D03*
X148162500Y-78750000D03*
X148162500Y-78250000D03*
X148162500Y-77750000D03*
X148162500Y-77250000D03*
X148162500Y-76750000D03*
X148162500Y-76250000D03*
X148162500Y-75750000D03*
X148162500Y-75250000D03*
X148162500Y-74750000D03*
X148162500Y-74250000D03*
%TD*%
D27*
%TO.C,R2*%
X136700000Y-59400000D03*
X136700000Y-61400000D03*
%TD*%
M02*
