%TF.GenerationSoftware,KiCad,Pcbnew,(6.0.2)*%
%TF.CreationDate,2022-05-29T19:06:36+02:00*%
%TF.ProjectId,PCB_ESP32_CAN,5043425f-4553-4503-9332-5f43414e2e6b,rev?*%
%TF.SameCoordinates,Original*%
%TF.FileFunction,Other,Comment*%
%FSLAX46Y46*%
G04 Gerber Fmt 4.6, Leading zero omitted, Abs format (unit mm)*
G04 Created by KiCad (PCBNEW (6.0.2)) date 2022-05-29 19:06:36*
%MOMM*%
%LPD*%
G01*
G04 APERTURE LIST*
%ADD10C,0.150000*%
%ADD11C,0.100000*%
G04 APERTURE END LIST*
D10*
%TO.C,U1*%
X141038095Y-127716666D02*
X141514285Y-127716666D01*
X140942857Y-128002380D02*
X141276190Y-127002380D01*
X141609523Y-128002380D01*
X141942857Y-127335714D02*
X141942857Y-128002380D01*
X141942857Y-127430952D02*
X141990476Y-127383333D01*
X142085714Y-127335714D01*
X142228571Y-127335714D01*
X142323809Y-127383333D01*
X142371428Y-127478571D01*
X142371428Y-128002380D01*
X142704761Y-127335714D02*
X143085714Y-127335714D01*
X142847619Y-127002380D02*
X142847619Y-127859523D01*
X142895238Y-127954761D01*
X142990476Y-128002380D01*
X143085714Y-128002380D01*
X143800000Y-127954761D02*
X143704761Y-128002380D01*
X143514285Y-128002380D01*
X143419047Y-127954761D01*
X143371428Y-127859523D01*
X143371428Y-127478571D01*
X143419047Y-127383333D01*
X143514285Y-127335714D01*
X143704761Y-127335714D01*
X143800000Y-127383333D01*
X143847619Y-127478571D01*
X143847619Y-127573809D01*
X143371428Y-127669047D01*
X144276190Y-127335714D02*
X144276190Y-128002380D01*
X144276190Y-127430952D02*
X144323809Y-127383333D01*
X144419047Y-127335714D01*
X144561904Y-127335714D01*
X144657142Y-127383333D01*
X144704761Y-127478571D01*
X144704761Y-128002380D01*
X145180952Y-127335714D02*
X145180952Y-128002380D01*
X145180952Y-127430952D02*
X145228571Y-127383333D01*
X145323809Y-127335714D01*
X145466666Y-127335714D01*
X145561904Y-127383333D01*
X145609523Y-127478571D01*
X145609523Y-128002380D01*
X146514285Y-128002380D02*
X146514285Y-127478571D01*
X146466666Y-127383333D01*
X146371428Y-127335714D01*
X146180952Y-127335714D01*
X146085714Y-127383333D01*
X146514285Y-127954761D02*
X146419047Y-128002380D01*
X146180952Y-128002380D01*
X146085714Y-127954761D01*
X146038095Y-127859523D01*
X146038095Y-127764285D01*
X146085714Y-127669047D01*
X146180952Y-127621428D01*
X146419047Y-127621428D01*
X146514285Y-127573809D01*
X137728571Y-134002380D02*
X137728571Y-133002380D01*
X138300000Y-134002380D02*
X137871428Y-133430952D01*
X138300000Y-133002380D02*
X137728571Y-133573809D01*
X138728571Y-133478571D02*
X139061904Y-133478571D01*
X139204761Y-134002380D02*
X138728571Y-134002380D01*
X138728571Y-133002380D01*
X139204761Y-133002380D01*
X139633333Y-133478571D02*
X139966666Y-133478571D01*
X140109523Y-134002380D02*
X139633333Y-134002380D01*
X139633333Y-133002380D01*
X140109523Y-133002380D01*
X140538095Y-134002380D02*
X140538095Y-133002380D01*
X140919047Y-133002380D01*
X141014285Y-133050000D01*
X141061904Y-133097619D01*
X141109523Y-133192857D01*
X141109523Y-133335714D01*
X141061904Y-133430952D01*
X141014285Y-133478571D01*
X140919047Y-133526190D01*
X140538095Y-133526190D01*
X141538095Y-133621428D02*
X142300000Y-133621428D01*
X142966666Y-133002380D02*
X143157142Y-133002380D01*
X143252380Y-133050000D01*
X143347619Y-133145238D01*
X143395238Y-133335714D01*
X143395238Y-133669047D01*
X143347619Y-133859523D01*
X143252380Y-133954761D01*
X143157142Y-134002380D01*
X142966666Y-134002380D01*
X142871428Y-133954761D01*
X142776190Y-133859523D01*
X142728571Y-133669047D01*
X142728571Y-133335714D01*
X142776190Y-133145238D01*
X142871428Y-133050000D01*
X142966666Y-133002380D01*
X143823809Y-133002380D02*
X143823809Y-133811904D01*
X143871428Y-133907142D01*
X143919047Y-133954761D01*
X144014285Y-134002380D01*
X144204761Y-134002380D01*
X144300000Y-133954761D01*
X144347619Y-133907142D01*
X144395238Y-133811904D01*
X144395238Y-133002380D01*
X144728571Y-133002380D02*
X145300000Y-133002380D01*
X145014285Y-134002380D02*
X145014285Y-133002380D01*
X146300000Y-133002380D02*
X146966666Y-133002380D01*
X146300000Y-134002380D01*
X146966666Y-134002380D01*
X147538095Y-133002380D02*
X147728571Y-133002380D01*
X147823809Y-133050000D01*
X147919047Y-133145238D01*
X147966666Y-133335714D01*
X147966666Y-133669047D01*
X147919047Y-133859523D01*
X147823809Y-133954761D01*
X147728571Y-134002380D01*
X147538095Y-134002380D01*
X147442857Y-133954761D01*
X147347619Y-133859523D01*
X147300000Y-133669047D01*
X147300000Y-133335714D01*
X147347619Y-133145238D01*
X147442857Y-133050000D01*
X147538095Y-133002380D01*
X148395238Y-134002380D02*
X148395238Y-133002380D01*
X148966666Y-134002380D01*
X148966666Y-133002380D01*
X149442857Y-133478571D02*
X149776190Y-133478571D01*
X149919047Y-134002380D02*
X149442857Y-134002380D01*
X149442857Y-133002380D01*
X149919047Y-133002380D01*
D11*
X154261904Y-128651190D02*
X154023809Y-128651190D01*
X154000000Y-128889285D01*
X154023809Y-128865476D01*
X154071428Y-128841666D01*
X154190476Y-128841666D01*
X154238095Y-128865476D01*
X154261904Y-128889285D01*
X154285714Y-128936904D01*
X154285714Y-129055952D01*
X154261904Y-129103571D01*
X154238095Y-129127380D01*
X154190476Y-129151190D01*
X154071428Y-129151190D01*
X154023809Y-129127380D01*
X154000000Y-129103571D01*
X154880952Y-129151190D02*
X154880952Y-128817857D01*
X154880952Y-128865476D02*
X154904761Y-128841666D01*
X154952380Y-128817857D01*
X155023809Y-128817857D01*
X155071428Y-128841666D01*
X155095238Y-128889285D01*
X155095238Y-129151190D01*
X155095238Y-128889285D02*
X155119047Y-128841666D01*
X155166666Y-128817857D01*
X155238095Y-128817857D01*
X155285714Y-128841666D01*
X155309523Y-128889285D01*
X155309523Y-129151190D01*
X155547619Y-129151190D02*
X155547619Y-128817857D01*
X155547619Y-128865476D02*
X155571428Y-128841666D01*
X155619047Y-128817857D01*
X155690476Y-128817857D01*
X155738095Y-128841666D01*
X155761904Y-128889285D01*
X155761904Y-129151190D01*
X155761904Y-128889285D02*
X155785714Y-128841666D01*
X155833333Y-128817857D01*
X155904761Y-128817857D01*
X155952380Y-128841666D01*
X155976190Y-128889285D01*
X155976190Y-129151190D01*
X135726190Y-134363095D02*
X135726190Y-134601190D01*
X135964285Y-134625000D01*
X135940476Y-134601190D01*
X135916666Y-134553571D01*
X135916666Y-134434523D01*
X135940476Y-134386904D01*
X135964285Y-134363095D01*
X136011904Y-134339285D01*
X136130952Y-134339285D01*
X136178571Y-134363095D01*
X136202380Y-134386904D01*
X136226190Y-134434523D01*
X136226190Y-134553571D01*
X136202380Y-134601190D01*
X136178571Y-134625000D01*
X136226190Y-133744047D02*
X135892857Y-133744047D01*
X135940476Y-133744047D02*
X135916666Y-133720238D01*
X135892857Y-133672619D01*
X135892857Y-133601190D01*
X135916666Y-133553571D01*
X135964285Y-133529761D01*
X136226190Y-133529761D01*
X135964285Y-133529761D02*
X135916666Y-133505952D01*
X135892857Y-133458333D01*
X135892857Y-133386904D01*
X135916666Y-133339285D01*
X135964285Y-133315476D01*
X136226190Y-133315476D01*
X136226190Y-133077380D02*
X135892857Y-133077380D01*
X135940476Y-133077380D02*
X135916666Y-133053571D01*
X135892857Y-133005952D01*
X135892857Y-132934523D01*
X135916666Y-132886904D01*
X135964285Y-132863095D01*
X136226190Y-132863095D01*
X135964285Y-132863095D02*
X135916666Y-132839285D01*
X135892857Y-132791666D01*
X135892857Y-132720238D01*
X135916666Y-132672619D01*
X135964285Y-132648809D01*
X136226190Y-132648809D01*
X131261904Y-128651190D02*
X131023809Y-128651190D01*
X131000000Y-128889285D01*
X131023809Y-128865476D01*
X131071428Y-128841666D01*
X131190476Y-128841666D01*
X131238095Y-128865476D01*
X131261904Y-128889285D01*
X131285714Y-128936904D01*
X131285714Y-129055952D01*
X131261904Y-129103571D01*
X131238095Y-129127380D01*
X131190476Y-129151190D01*
X131071428Y-129151190D01*
X131023809Y-129127380D01*
X131000000Y-129103571D01*
X131880952Y-129151190D02*
X131880952Y-128817857D01*
X131880952Y-128865476D02*
X131904761Y-128841666D01*
X131952380Y-128817857D01*
X132023809Y-128817857D01*
X132071428Y-128841666D01*
X132095238Y-128889285D01*
X132095238Y-129151190D01*
X132095238Y-128889285D02*
X132119047Y-128841666D01*
X132166666Y-128817857D01*
X132238095Y-128817857D01*
X132285714Y-128841666D01*
X132309523Y-128889285D01*
X132309523Y-129151190D01*
X132547619Y-129151190D02*
X132547619Y-128817857D01*
X132547619Y-128865476D02*
X132571428Y-128841666D01*
X132619047Y-128817857D01*
X132690476Y-128817857D01*
X132738095Y-128841666D01*
X132761904Y-128889285D01*
X132761904Y-129151190D01*
X132761904Y-128889285D02*
X132785714Y-128841666D01*
X132833333Y-128817857D01*
X132904761Y-128817857D01*
X132952380Y-128841666D01*
X132976190Y-128889285D01*
X132976190Y-129151190D01*
X130000000Y-128425000D02*
X130200000Y-128625000D01*
X130000000Y-128425000D02*
X130200000Y-128225000D01*
X134600000Y-128425000D02*
X130000000Y-128425000D01*
X135400000Y-130550000D02*
X135600000Y-130750000D01*
X134600000Y-128425000D02*
X134400000Y-128225000D01*
X134600000Y-128425000D02*
X134400000Y-128625000D01*
X135400000Y-135150000D02*
X135600000Y-134950000D01*
X153000000Y-128425000D02*
X153200000Y-128625000D01*
X135400000Y-130550000D02*
X135400000Y-135150000D01*
X135400000Y-135150000D02*
X135200000Y-134950000D01*
X157600000Y-128425000D02*
X157400000Y-128625000D01*
X135400000Y-130550000D02*
X135200000Y-130750000D01*
X153000000Y-128425000D02*
X153200000Y-128225000D01*
X157600000Y-128425000D02*
X157400000Y-128225000D01*
X157600000Y-128425000D02*
X153000000Y-128425000D01*
D10*
%TO.C,H2*%
X120100000Y-127075000D02*
G75*
G03*
X120100000Y-127075000I-3200000J0D01*
G01*
%TO.C,H4*%
X165000000Y-127075000D02*
G75*
G03*
X165000000Y-127075000I-3200000J0D01*
G01*
%TO.C,H1*%
X120100000Y-77075000D02*
G75*
G03*
X120100000Y-77075000I-3200000J0D01*
G01*
%TO.C,H3*%
X165000000Y-77075000D02*
G75*
G03*
X165000000Y-77075000I-3200000J0D01*
G01*
%TD*%
M02*
