M48
; DRILL file {KiCad (6.0.2)} date Sun May 29 19:06:36 2022
; FORMAT={-:-/ absolute / inch / decimal}
; #@! TF.CreationDate,2022-05-29T19:06:36+02:00
; #@! TF.GenerationSoftware,Kicad,Pcbnew,(6.0.2)
; #@! TF.FileFunction,Plated,1,4,PTH
FMAT,2
INCH
; #@! TA.AperFunction,Plated,PTH,ViaDrill
T1C0.0118
; #@! TA.AperFunction,Plated,PTH,ViaDrill
T2C0.0157
; #@! TA.AperFunction,Plated,PTH,ComponentDrill
T3C0.0157
; #@! TA.AperFunction,Plated,PTH,ComponentDrill
T4C0.0197
; #@! TA.AperFunction,Plated,PTH,ComponentDrill
T5C0.0236
; #@! TA.AperFunction,Plated,PTH,ComponentDrill
T6C0.0394
; #@! TA.AperFunction,Plated,PTH,ComponentDrill
T7C0.1260
%
G90
G05
T1
X4.5394Y-4.2638
X4.5512Y-4.7402
X4.6535Y-4.7402
X4.6654Y-4.2638
X4.7244Y-4.2283
X4.7756Y-3.374
X4.7756Y-3.6102
X4.7756Y-3.689
X4.7756Y-3.7677
X4.7756Y-3.8504
X4.7992Y-3.9606
X4.7992Y-4.689
X4.8268Y-3.1654
X4.8307Y-3.4921
X4.874Y-4.5551
X4.9094Y-3.7283
X4.9508Y-3.2894
X5.0039Y-4.1732
X5.0157Y-3.3858
X5.1063Y-3.4646
X5.1063Y-3.5197
X5.126Y-3.8622
X5.1339Y-3.811
X5.1654Y-3.5197
X5.1693Y-3.4646
X5.2559Y-4.8346
X5.2598Y-3.3858
X5.2598Y-3.4843
X5.2626Y-3.5177
X5.2874Y-3.5827
X5.2953Y-3.9488
X5.2953Y-3.9921
X5.311Y-3.6535
X5.3307Y-4.185
X5.3976Y-4.8346
X5.4449Y-3.1654
X5.4449Y-3.7323
X5.4528Y-3.4646
X5.5039Y-3.9291
X5.6299Y-4.4764
X5.6299Y-4.5945
X5.6732Y-3.6181
X5.689Y-3.3976
X5.6969Y-4.5315
X5.7008Y-3.5906
X5.7283Y-3.6181
X5.7638Y-4.4764
X5.7638Y-4.5945
X5.7756Y-3.9528
X5.8858Y-4.0748
X5.9252Y-3.4685
X5.9291Y-4.8346
X5.9409Y-4.1457
X5.9961Y-4.7348
X5.9961Y-4.878
X6.0157Y-3.748
X6.0512Y-3.5157
X6.063Y-4.8346
X6.1024Y-4.8346
X6.185Y-4.5472
X6.185Y-4.811
X6.2234Y-3.6634
X6.2234Y-3.75
X6.2274Y-3.25
X6.2274Y-3.3406
X6.2549Y-3.25
X6.2549Y-3.3406
X6.2549Y-3.6634
X6.2549Y-3.75
X6.3898Y-3.9724
X6.3967Y-3.3878
X6.44Y-3.8248
X6.44Y-3.8839
X6.44Y-3.9429
X6.4439Y-3.4154
X6.4439Y-3.4744
X6.4439Y-3.5217
T2
X6.126Y-3.6024
T3
X5.0217Y-3.1821
X5.0217Y-3.2352
X5.0551Y-3.1821
X5.0551Y-3.2352
X5.0886Y-3.1821
X5.0886Y-3.2352
X5.122Y-3.1821
X5.122Y-3.2352
X5.1555Y-3.1821
X5.1555Y-3.2352
X5.189Y-3.1821
X5.189Y-3.2352
X5.2224Y-3.1821
X5.2224Y-3.2352
X5.2559Y-3.1821
X5.2559Y-3.2352
T4
X4.5079Y-3.0344
X4.5079Y-5.003
X4.5355Y-2.9676
X4.5355Y-3.1013
X4.5355Y-4.9361
X4.5355Y-5.0698
X4.6024Y-2.94
X4.6024Y-3.1289
X4.6024Y-4.9085
X4.6024Y-5.0974
X4.6692Y-2.9676
X4.6692Y-3.1013
X4.6692Y-4.9361
X4.6692Y-5.0698
X4.6969Y-3.0344
X4.6969Y-5.003
X6.2756Y-3.0344
X6.2756Y-5.003
X6.3033Y-2.9676
X6.3033Y-3.1013
X6.3033Y-4.9361
X6.3033Y-5.0698
X6.3701Y-2.94
X6.3701Y-3.1289
X6.3701Y-4.9085
X6.3701Y-5.0974
X6.4369Y-2.9676
X6.4369Y-3.1013
X6.4369Y-4.9361
X6.4369Y-5.0698
X6.4646Y-3.0344
X6.4646Y-5.003
T6
X5.9055Y-4.0039
X6.0055Y-4.0039
T7
X4.6024Y-3.0344
X4.6024Y-5.003
X6.3701Y-3.0344
X6.3701Y-5.003
T5
G00X4.9685Y-3.0793
M15
G01X4.9685Y-3.0478
M16
G05
G00X4.9685Y-3.2262
M15
G01X4.9685Y-3.1671
M16
G05
G00X5.3091Y-3.0793
M15
G01X5.3091Y-3.0478
M16
G05
G00X5.3091Y-3.2262
M15
G01X5.3091Y-3.1671
M16
G05
T0
M30
