%TF.GenerationSoftware,KiCad,Pcbnew,(6.0.2)*%
%TF.CreationDate,2022-05-29T19:06:36+02:00*%
%TF.ProjectId,PCB_ESP32_CAN,5043425f-4553-4503-9332-5f43414e2e6b,rev?*%
%TF.SameCoordinates,Original*%
%TF.FileFunction,Legend,Top*%
%TF.FilePolarity,Positive*%
%FSLAX46Y46*%
G04 Gerber Fmt 4.6, Leading zero omitted, Abs format (unit mm)*
G04 Created by KiCad (PCBNEW (6.0.2)) date 2022-05-29 19:06:36*
%MOMM*%
%LPD*%
G01*
G04 APERTURE LIST*
G04 Aperture macros list*
%AMRoundRect*
0 Rectangle with rounded corners*
0 $1 Rounding radius*
0 $2 $3 $4 $5 $6 $7 $8 $9 X,Y pos of 4 corners*
0 Add a 4 corners polygon primitive as box body*
4,1,4,$2,$3,$4,$5,$6,$7,$8,$9,$2,$3,0*
0 Add four circle primitives for the rounded corners*
1,1,$1+$1,$2,$3*
1,1,$1+$1,$4,$5*
1,1,$1+$1,$6,$7*
1,1,$1+$1,$8,$9*
0 Add four rect primitives between the rounded corners*
20,1,$1+$1,$2,$3,$4,$5,0*
20,1,$1+$1,$4,$5,$6,$7,0*
20,1,$1+$1,$6,$7,$8,$9,0*
20,1,$1+$1,$8,$9,$2,$3,0*%
G04 Aperture macros list end*
%ADD10C,0.152400*%
%ADD11C,0.100000*%
%ADD12C,0.150000*%
%ADD13C,0.120000*%
%ADD14C,0.200000*%
%ADD15RoundRect,0.250000X-0.337500X-0.475000X0.337500X-0.475000X0.337500X0.475000X-0.337500X0.475000X0*%
%ADD16RoundRect,0.250000X0.337500X0.475000X-0.337500X0.475000X-0.337500X-0.475000X0.337500X-0.475000X0*%
%ADD17RoundRect,0.250000X0.475000X-0.337500X0.475000X0.337500X-0.475000X0.337500X-0.475000X-0.337500X0*%
%ADD18RoundRect,0.250000X-0.475000X0.337500X-0.475000X-0.337500X0.475000X-0.337500X0.475000X0.337500X0*%
%ADD19RoundRect,0.250000X0.325000X0.450000X-0.325000X0.450000X-0.325000X-0.450000X0.325000X-0.450000X0*%
%ADD20RoundRect,0.250000X-0.325000X-0.450000X0.325000X-0.450000X0.325000X0.450000X-0.325000X0.450000X0*%
%ADD21R,0.900000X0.800000*%
%ADD22R,1.700000X1.700000*%
%ADD23O,1.700000X1.700000*%
%ADD24RoundRect,0.250000X0.350000X0.450000X-0.350000X0.450000X-0.350000X-0.450000X0.350000X-0.450000X0*%
%ADD25RoundRect,0.250000X-0.350000X-0.450000X0.350000X-0.450000X0.350000X0.450000X-0.350000X0.450000X0*%
%ADD26RoundRect,0.250000X0.450000X-0.350000X0.450000X0.350000X-0.450000X0.350000X-0.450000X-0.350000X0*%
%ADD27RoundRect,0.250000X-0.450000X0.350000X-0.450000X-0.350000X0.450000X-0.350000X0.450000X0.350000X0*%
%ADD28R,1.600000X2.180000*%
%ADD29R,2.000000X0.900000*%
%ADD30R,0.900000X2.000000*%
%ADD31R,5.000000X5.000000*%
%ADD32RoundRect,0.062500X-0.062500X0.350000X-0.062500X-0.350000X0.062500X-0.350000X0.062500X0.350000X0*%
%ADD33RoundRect,0.062500X-0.350000X0.062500X-0.350000X-0.062500X0.350000X-0.062500X0.350000X0.062500X0*%
%ADD34R,2.600000X2.600000*%
%ADD35RoundRect,0.150000X-0.825000X-0.150000X0.825000X-0.150000X0.825000X0.150000X-0.825000X0.150000X0*%
%ADD36R,2.000000X1.500000*%
%ADD37R,2.000000X3.800000*%
%ADD38C,0.800000*%
%ADD39C,6.400000*%
%ADD40R,1.500000X3.000000*%
%ADD41C,0.700000*%
%ADD42O,0.900000X2.400000*%
%ADD43O,0.900000X1.700000*%
G04 APERTURE END LIST*
D10*
X133400000Y-86690285D02*
X133438704Y-86728990D01*
X133400000Y-86767695D01*
X133361295Y-86728990D01*
X133400000Y-86690285D01*
X133400000Y-86767695D01*
D11*
X161617904Y-111880952D02*
X160817904Y-111880952D01*
X160817904Y-111576190D01*
X160856000Y-111500000D01*
X160894095Y-111461904D01*
X160970285Y-111423809D01*
X161084571Y-111423809D01*
X161160761Y-111461904D01*
X161198857Y-111500000D01*
X161236952Y-111576190D01*
X161236952Y-111880952D01*
X161541714Y-110623809D02*
X161579809Y-110661904D01*
X161617904Y-110776190D01*
X161617904Y-110852380D01*
X161579809Y-110966666D01*
X161503619Y-111042857D01*
X161427428Y-111080952D01*
X161275047Y-111119047D01*
X161160761Y-111119047D01*
X161008380Y-111080952D01*
X160932190Y-111042857D01*
X160856000Y-110966666D01*
X160817904Y-110852380D01*
X160817904Y-110776190D01*
X160856000Y-110661904D01*
X160894095Y-110623809D01*
X161198857Y-110014285D02*
X161236952Y-109900000D01*
X161275047Y-109861904D01*
X161351238Y-109823809D01*
X161465523Y-109823809D01*
X161541714Y-109861904D01*
X161579809Y-109900000D01*
X161617904Y-109976190D01*
X161617904Y-110280952D01*
X160817904Y-110280952D01*
X160817904Y-110014285D01*
X160856000Y-109938095D01*
X160894095Y-109900000D01*
X160970285Y-109861904D01*
X161046476Y-109861904D01*
X161122666Y-109900000D01*
X161160761Y-109938095D01*
X161198857Y-110014285D01*
X161198857Y-110280952D01*
X161617904Y-109480952D02*
X161084571Y-109480952D01*
X161236952Y-109480952D02*
X161160761Y-109442857D01*
X161122666Y-109404761D01*
X161084571Y-109328571D01*
X161084571Y-109252380D01*
X161579809Y-109023809D02*
X161617904Y-108947619D01*
X161617904Y-108795238D01*
X161579809Y-108719047D01*
X161503619Y-108680952D01*
X161465523Y-108680952D01*
X161389333Y-108719047D01*
X161351238Y-108795238D01*
X161351238Y-108909523D01*
X161313142Y-108985714D01*
X161236952Y-109023809D01*
X161198857Y-109023809D01*
X161122666Y-108985714D01*
X161084571Y-108909523D01*
X161084571Y-108795238D01*
X161122666Y-108719047D01*
X162829714Y-115385714D02*
X162867809Y-115423809D01*
X162905904Y-115538095D01*
X162905904Y-115614285D01*
X162867809Y-115728571D01*
X162791619Y-115804761D01*
X162715428Y-115842857D01*
X162563047Y-115880952D01*
X162448761Y-115880952D01*
X162296380Y-115842857D01*
X162220190Y-115804761D01*
X162144000Y-115728571D01*
X162105904Y-115614285D01*
X162105904Y-115538095D01*
X162144000Y-115423809D01*
X162182095Y-115385714D01*
X162905904Y-114700000D02*
X162486857Y-114700000D01*
X162410666Y-114738095D01*
X162372571Y-114814285D01*
X162372571Y-114966666D01*
X162410666Y-115042857D01*
X162867809Y-114700000D02*
X162905904Y-114776190D01*
X162905904Y-114966666D01*
X162867809Y-115042857D01*
X162791619Y-115080952D01*
X162715428Y-115080952D01*
X162639238Y-115042857D01*
X162601142Y-114966666D01*
X162601142Y-114776190D01*
X162563047Y-114700000D01*
X162905904Y-114319047D02*
X162372571Y-114319047D01*
X162524952Y-114319047D02*
X162448761Y-114280952D01*
X162410666Y-114242857D01*
X162372571Y-114166666D01*
X162372571Y-114090476D01*
X162372571Y-113938095D02*
X162372571Y-113633333D01*
X162105904Y-113823809D02*
X162791619Y-113823809D01*
X162867809Y-113785714D01*
X162905904Y-113709523D01*
X162905904Y-113633333D01*
X162867809Y-113061904D02*
X162905904Y-113138095D01*
X162905904Y-113290476D01*
X162867809Y-113366666D01*
X162791619Y-113404761D01*
X162486857Y-113404761D01*
X162410666Y-113366666D01*
X162372571Y-113290476D01*
X162372571Y-113138095D01*
X162410666Y-113061904D01*
X162486857Y-113023809D01*
X162563047Y-113023809D01*
X162639238Y-113404761D01*
X162829714Y-111614285D02*
X162867809Y-111652380D01*
X162905904Y-111766666D01*
X162905904Y-111842857D01*
X162867809Y-111957142D01*
X162791619Y-112033333D01*
X162715428Y-112071428D01*
X162563047Y-112109523D01*
X162448761Y-112109523D01*
X162296380Y-112071428D01*
X162220190Y-112033333D01*
X162144000Y-111957142D01*
X162105904Y-111842857D01*
X162105904Y-111766666D01*
X162144000Y-111652380D01*
X162182095Y-111614285D01*
X162105904Y-111119047D02*
X162105904Y-110966666D01*
X162144000Y-110890476D01*
X162220190Y-110814285D01*
X162372571Y-110776190D01*
X162639238Y-110776190D01*
X162791619Y-110814285D01*
X162867809Y-110890476D01*
X162905904Y-110966666D01*
X162905904Y-111119047D01*
X162867809Y-111195238D01*
X162791619Y-111271428D01*
X162639238Y-111309523D01*
X162372571Y-111309523D01*
X162220190Y-111271428D01*
X162144000Y-111195238D01*
X162105904Y-111119047D01*
X162905904Y-110433333D02*
X162105904Y-110433333D01*
X162677333Y-110166666D01*
X162105904Y-109900000D01*
X162905904Y-109900000D01*
X162067809Y-108947619D02*
X163096380Y-109633333D01*
X162372571Y-108795238D02*
X162372571Y-108490476D01*
X162105904Y-108680952D02*
X162791619Y-108680952D01*
X162867809Y-108642857D01*
X162905904Y-108566666D01*
X162905904Y-108490476D01*
X162867809Y-107919047D02*
X162905904Y-107995238D01*
X162905904Y-108147619D01*
X162867809Y-108223809D01*
X162791619Y-108261904D01*
X162486857Y-108261904D01*
X162410666Y-108223809D01*
X162372571Y-108147619D01*
X162372571Y-107995238D01*
X162410666Y-107919047D01*
X162486857Y-107880952D01*
X162563047Y-107880952D01*
X162639238Y-108261904D01*
X162867809Y-107576190D02*
X162905904Y-107500000D01*
X162905904Y-107347619D01*
X162867809Y-107271428D01*
X162791619Y-107233333D01*
X162753523Y-107233333D01*
X162677333Y-107271428D01*
X162639238Y-107347619D01*
X162639238Y-107461904D01*
X162601142Y-107538095D01*
X162524952Y-107576190D01*
X162486857Y-107576190D01*
X162410666Y-107538095D01*
X162372571Y-107461904D01*
X162372571Y-107347619D01*
X162410666Y-107271428D01*
X162372571Y-107004761D02*
X162372571Y-106700000D01*
X162105904Y-106890476D02*
X162791619Y-106890476D01*
X162867809Y-106852380D01*
X162905904Y-106776190D01*
X162905904Y-106700000D01*
X162105904Y-105938095D02*
X162905904Y-105671428D01*
X162105904Y-105404761D01*
X162182095Y-105176190D02*
X162144000Y-105138095D01*
X162105904Y-105061904D01*
X162105904Y-104871428D01*
X162144000Y-104795238D01*
X162182095Y-104757142D01*
X162258285Y-104719047D01*
X162334476Y-104719047D01*
X162448761Y-104757142D01*
X162905904Y-105214285D01*
X162905904Y-104719047D01*
D10*
%TO.C,C1*%
X123464533Y-117990285D02*
X123425828Y-118028990D01*
X123309714Y-118067695D01*
X123232304Y-118067695D01*
X123116190Y-118028990D01*
X123038780Y-117951580D01*
X123000076Y-117874171D01*
X122961371Y-117719352D01*
X122961371Y-117603238D01*
X123000076Y-117448419D01*
X123038780Y-117371009D01*
X123116190Y-117293600D01*
X123232304Y-117254895D01*
X123309714Y-117254895D01*
X123425828Y-117293600D01*
X123464533Y-117332304D01*
X124238628Y-118067695D02*
X123774171Y-118067695D01*
X124006400Y-118067695D02*
X124006400Y-117254895D01*
X123928990Y-117371009D01*
X123851580Y-117448419D01*
X123774171Y-117487123D01*
%TO.C,C2*%
X158564533Y-117190285D02*
X158525828Y-117228990D01*
X158409714Y-117267695D01*
X158332304Y-117267695D01*
X158216190Y-117228990D01*
X158138780Y-117151580D01*
X158100076Y-117074171D01*
X158061371Y-116919352D01*
X158061371Y-116803238D01*
X158100076Y-116648419D01*
X158138780Y-116571009D01*
X158216190Y-116493600D01*
X158332304Y-116454895D01*
X158409714Y-116454895D01*
X158525828Y-116493600D01*
X158564533Y-116532304D01*
X158874171Y-116532304D02*
X158912876Y-116493600D01*
X158990285Y-116454895D01*
X159183809Y-116454895D01*
X159261219Y-116493600D01*
X159299923Y-116532304D01*
X159338628Y-116609714D01*
X159338628Y-116687123D01*
X159299923Y-116803238D01*
X158835466Y-117267695D01*
X159338628Y-117267695D01*
%TO.C,C3*%
X158564533Y-119190285D02*
X158525828Y-119228990D01*
X158409714Y-119267695D01*
X158332304Y-119267695D01*
X158216190Y-119228990D01*
X158138780Y-119151580D01*
X158100076Y-119074171D01*
X158061371Y-118919352D01*
X158061371Y-118803238D01*
X158100076Y-118648419D01*
X158138780Y-118571009D01*
X158216190Y-118493600D01*
X158332304Y-118454895D01*
X158409714Y-118454895D01*
X158525828Y-118493600D01*
X158564533Y-118532304D01*
X158835466Y-118454895D02*
X159338628Y-118454895D01*
X159067695Y-118764533D01*
X159183809Y-118764533D01*
X159261219Y-118803238D01*
X159299923Y-118841942D01*
X159338628Y-118919352D01*
X159338628Y-119112876D01*
X159299923Y-119190285D01*
X159261219Y-119228990D01*
X159183809Y-119267695D01*
X158951580Y-119267695D01*
X158874171Y-119228990D01*
X158835466Y-119190285D01*
%TO.C,C5*%
X158564533Y-121190285D02*
X158525828Y-121228990D01*
X158409714Y-121267695D01*
X158332304Y-121267695D01*
X158216190Y-121228990D01*
X158138780Y-121151580D01*
X158100076Y-121074171D01*
X158061371Y-120919352D01*
X158061371Y-120803238D01*
X158100076Y-120648419D01*
X158138780Y-120571009D01*
X158216190Y-120493600D01*
X158332304Y-120454895D01*
X158409714Y-120454895D01*
X158525828Y-120493600D01*
X158564533Y-120532304D01*
X159299923Y-120454895D02*
X158912876Y-120454895D01*
X158874171Y-120841942D01*
X158912876Y-120803238D01*
X158990285Y-120764533D01*
X159183809Y-120764533D01*
X159261219Y-120803238D01*
X159299923Y-120841942D01*
X159338628Y-120919352D01*
X159338628Y-121112876D01*
X159299923Y-121190285D01*
X159261219Y-121228990D01*
X159183809Y-121267695D01*
X158990285Y-121267695D01*
X158912876Y-121228990D01*
X158874171Y-121190285D01*
%TO.C,C7*%
X120764533Y-99190285D02*
X120725828Y-99228990D01*
X120609714Y-99267695D01*
X120532304Y-99267695D01*
X120416190Y-99228990D01*
X120338780Y-99151580D01*
X120300076Y-99074171D01*
X120261371Y-98919352D01*
X120261371Y-98803238D01*
X120300076Y-98648419D01*
X120338780Y-98571009D01*
X120416190Y-98493600D01*
X120532304Y-98454895D01*
X120609714Y-98454895D01*
X120725828Y-98493600D01*
X120764533Y-98532304D01*
X121035466Y-98454895D02*
X121577333Y-98454895D01*
X121228990Y-99267695D01*
%TO.C,C8*%
X120764533Y-97090285D02*
X120725828Y-97128990D01*
X120609714Y-97167695D01*
X120532304Y-97167695D01*
X120416190Y-97128990D01*
X120338780Y-97051580D01*
X120300076Y-96974171D01*
X120261371Y-96819352D01*
X120261371Y-96703238D01*
X120300076Y-96548419D01*
X120338780Y-96471009D01*
X120416190Y-96393600D01*
X120532304Y-96354895D01*
X120609714Y-96354895D01*
X120725828Y-96393600D01*
X120764533Y-96432304D01*
X121228990Y-96703238D02*
X121151580Y-96664533D01*
X121112876Y-96625828D01*
X121074171Y-96548419D01*
X121074171Y-96509714D01*
X121112876Y-96432304D01*
X121151580Y-96393600D01*
X121228990Y-96354895D01*
X121383809Y-96354895D01*
X121461219Y-96393600D01*
X121499923Y-96432304D01*
X121538628Y-96509714D01*
X121538628Y-96548419D01*
X121499923Y-96625828D01*
X121461219Y-96664533D01*
X121383809Y-96703238D01*
X121228990Y-96703238D01*
X121151580Y-96741942D01*
X121112876Y-96780647D01*
X121074171Y-96858057D01*
X121074171Y-97012876D01*
X121112876Y-97090285D01*
X121151580Y-97128990D01*
X121228990Y-97167695D01*
X121383809Y-97167695D01*
X121461219Y-97128990D01*
X121499923Y-97090285D01*
X121538628Y-97012876D01*
X121538628Y-96858057D01*
X121499923Y-96780647D01*
X121461219Y-96741942D01*
X121383809Y-96703238D01*
%TO.C,C10*%
X120077485Y-94990285D02*
X120038780Y-95028990D01*
X119922666Y-95067695D01*
X119845257Y-95067695D01*
X119729142Y-95028990D01*
X119651733Y-94951580D01*
X119613028Y-94874171D01*
X119574323Y-94719352D01*
X119574323Y-94603238D01*
X119613028Y-94448419D01*
X119651733Y-94371009D01*
X119729142Y-94293600D01*
X119845257Y-94254895D01*
X119922666Y-94254895D01*
X120038780Y-94293600D01*
X120077485Y-94332304D01*
X120851580Y-95067695D02*
X120387123Y-95067695D01*
X120619352Y-95067695D02*
X120619352Y-94254895D01*
X120541942Y-94371009D01*
X120464533Y-94448419D01*
X120387123Y-94487123D01*
X121354742Y-94254895D02*
X121432152Y-94254895D01*
X121509561Y-94293600D01*
X121548266Y-94332304D01*
X121586971Y-94409714D01*
X121625676Y-94564533D01*
X121625676Y-94758057D01*
X121586971Y-94912876D01*
X121548266Y-94990285D01*
X121509561Y-95028990D01*
X121432152Y-95067695D01*
X121354742Y-95067695D01*
X121277333Y-95028990D01*
X121238628Y-94990285D01*
X121199923Y-94912876D01*
X121161219Y-94758057D01*
X121161219Y-94564533D01*
X121199923Y-94409714D01*
X121238628Y-94332304D01*
X121277333Y-94293600D01*
X121354742Y-94254895D01*
%TO.C,C11*%
X120177485Y-86990285D02*
X120138780Y-87028990D01*
X120022666Y-87067695D01*
X119945257Y-87067695D01*
X119829142Y-87028990D01*
X119751733Y-86951580D01*
X119713028Y-86874171D01*
X119674323Y-86719352D01*
X119674323Y-86603238D01*
X119713028Y-86448419D01*
X119751733Y-86371009D01*
X119829142Y-86293600D01*
X119945257Y-86254895D01*
X120022666Y-86254895D01*
X120138780Y-86293600D01*
X120177485Y-86332304D01*
X120951580Y-87067695D02*
X120487123Y-87067695D01*
X120719352Y-87067695D02*
X120719352Y-86254895D01*
X120641942Y-86371009D01*
X120564533Y-86448419D01*
X120487123Y-86487123D01*
X121725676Y-87067695D02*
X121261219Y-87067695D01*
X121493447Y-87067695D02*
X121493447Y-86254895D01*
X121416038Y-86371009D01*
X121338628Y-86448419D01*
X121261219Y-86487123D01*
%TO.C,C12*%
X123377485Y-102390285D02*
X123338780Y-102428990D01*
X123222666Y-102467695D01*
X123145257Y-102467695D01*
X123029142Y-102428990D01*
X122951733Y-102351580D01*
X122913028Y-102274171D01*
X122874323Y-102119352D01*
X122874323Y-102003238D01*
X122913028Y-101848419D01*
X122951733Y-101771009D01*
X123029142Y-101693600D01*
X123145257Y-101654895D01*
X123222666Y-101654895D01*
X123338780Y-101693600D01*
X123377485Y-101732304D01*
X124151580Y-102467695D02*
X123687123Y-102467695D01*
X123919352Y-102467695D02*
X123919352Y-101654895D01*
X123841942Y-101771009D01*
X123764533Y-101848419D01*
X123687123Y-101887123D01*
X124461219Y-101732304D02*
X124499923Y-101693600D01*
X124577333Y-101654895D01*
X124770857Y-101654895D01*
X124848266Y-101693600D01*
X124886971Y-101732304D01*
X124925676Y-101809714D01*
X124925676Y-101887123D01*
X124886971Y-102003238D01*
X124422514Y-102467695D01*
X124925676Y-102467695D01*
%TO.C,C13*%
X153990285Y-85822514D02*
X154028990Y-85861219D01*
X154067695Y-85977333D01*
X154067695Y-86054742D01*
X154028990Y-86170857D01*
X153951580Y-86248266D01*
X153874171Y-86286971D01*
X153719352Y-86325676D01*
X153603238Y-86325676D01*
X153448419Y-86286971D01*
X153371009Y-86248266D01*
X153293600Y-86170857D01*
X153254895Y-86054742D01*
X153254895Y-85977333D01*
X153293600Y-85861219D01*
X153332304Y-85822514D01*
X154067695Y-85048419D02*
X154067695Y-85512876D01*
X154067695Y-85280647D02*
X153254895Y-85280647D01*
X153371009Y-85358057D01*
X153448419Y-85435466D01*
X153487123Y-85512876D01*
X153254895Y-84777485D02*
X153254895Y-84274323D01*
X153564533Y-84545257D01*
X153564533Y-84429142D01*
X153603238Y-84351733D01*
X153641942Y-84313028D01*
X153719352Y-84274323D01*
X153912876Y-84274323D01*
X153990285Y-84313028D01*
X154028990Y-84351733D01*
X154067695Y-84429142D01*
X154067695Y-84661371D01*
X154028990Y-84738780D01*
X153990285Y-84777485D01*
%TO.C,C14*%
X153990285Y-95722514D02*
X154028990Y-95761219D01*
X154067695Y-95877333D01*
X154067695Y-95954742D01*
X154028990Y-96070857D01*
X153951580Y-96148266D01*
X153874171Y-96186971D01*
X153719352Y-96225676D01*
X153603238Y-96225676D01*
X153448419Y-96186971D01*
X153371009Y-96148266D01*
X153293600Y-96070857D01*
X153254895Y-95954742D01*
X153254895Y-95877333D01*
X153293600Y-95761219D01*
X153332304Y-95722514D01*
X154067695Y-94948419D02*
X154067695Y-95412876D01*
X154067695Y-95180647D02*
X153254895Y-95180647D01*
X153371009Y-95258057D01*
X153448419Y-95335466D01*
X153487123Y-95412876D01*
X153525828Y-94251733D02*
X154067695Y-94251733D01*
X153216190Y-94445257D02*
X153796761Y-94638780D01*
X153796761Y-94135619D01*
%TO.C,C15*%
X134840285Y-100822514D02*
X134878990Y-100861219D01*
X134917695Y-100977333D01*
X134917695Y-101054742D01*
X134878990Y-101170857D01*
X134801580Y-101248266D01*
X134724171Y-101286971D01*
X134569352Y-101325676D01*
X134453238Y-101325676D01*
X134298419Y-101286971D01*
X134221009Y-101248266D01*
X134143600Y-101170857D01*
X134104895Y-101054742D01*
X134104895Y-100977333D01*
X134143600Y-100861219D01*
X134182304Y-100822514D01*
X134917695Y-100048419D02*
X134917695Y-100512876D01*
X134917695Y-100280647D02*
X134104895Y-100280647D01*
X134221009Y-100358057D01*
X134298419Y-100435466D01*
X134337123Y-100512876D01*
X134104895Y-99313028D02*
X134104895Y-99700076D01*
X134491942Y-99738780D01*
X134453238Y-99700076D01*
X134414533Y-99622666D01*
X134414533Y-99429142D01*
X134453238Y-99351733D01*
X134491942Y-99313028D01*
X134569352Y-99274323D01*
X134762876Y-99274323D01*
X134840285Y-99313028D01*
X134878990Y-99351733D01*
X134917695Y-99429142D01*
X134917695Y-99622666D01*
X134878990Y-99700076D01*
X134840285Y-99738780D01*
%TO.C,TX*%
X127980723Y-96654895D02*
X128445180Y-96654895D01*
X128212952Y-97467695D02*
X128212952Y-96654895D01*
X128638704Y-96654895D02*
X129180571Y-97467695D01*
X129180571Y-96654895D02*
X128638704Y-97467695D01*
%TO.C,RX*%
X132064533Y-97467695D02*
X131793600Y-97080647D01*
X131600076Y-97467695D02*
X131600076Y-96654895D01*
X131909714Y-96654895D01*
X131987123Y-96693600D01*
X132025828Y-96732304D01*
X132064533Y-96809714D01*
X132064533Y-96925828D01*
X132025828Y-97003238D01*
X131987123Y-97041942D01*
X131909714Y-97080647D01*
X131600076Y-97080647D01*
X132335466Y-96654895D02*
X132877333Y-97467695D01*
X132877333Y-96654895D02*
X132335466Y-97467695D01*
%TO.C,3V3*%
X149443676Y-96354895D02*
X149946838Y-96354895D01*
X149675904Y-96664533D01*
X149792019Y-96664533D01*
X149869428Y-96703238D01*
X149908133Y-96741942D01*
X149946838Y-96819352D01*
X149946838Y-97012876D01*
X149908133Y-97090285D01*
X149869428Y-97128990D01*
X149792019Y-97167695D01*
X149559790Y-97167695D01*
X149482380Y-97128990D01*
X149443676Y-97090285D01*
X150179066Y-96354895D02*
X150450000Y-97167695D01*
X150720933Y-96354895D01*
X150914457Y-96354895D02*
X151417619Y-96354895D01*
X151146685Y-96664533D01*
X151262800Y-96664533D01*
X151340209Y-96703238D01*
X151378914Y-96741942D01*
X151417619Y-96819352D01*
X151417619Y-97012876D01*
X151378914Y-97090285D01*
X151340209Y-97128990D01*
X151262800Y-97167695D01*
X151030571Y-97167695D01*
X150953161Y-97128990D01*
X150914457Y-97090285D01*
%TO.C,5V*%
X150345180Y-83454895D02*
X149958133Y-83454895D01*
X149919428Y-83841942D01*
X149958133Y-83803238D01*
X150035542Y-83764533D01*
X150229066Y-83764533D01*
X150306476Y-83803238D01*
X150345180Y-83841942D01*
X150383885Y-83919352D01*
X150383885Y-84112876D01*
X150345180Y-84190285D01*
X150306476Y-84228990D01*
X150229066Y-84267695D01*
X150035542Y-84267695D01*
X149958133Y-84228990D01*
X149919428Y-84190285D01*
X150616114Y-83454895D02*
X150887047Y-84267695D01*
X151157980Y-83454895D01*
%TO.C,D5*%
X145885076Y-103267695D02*
X145885076Y-102454895D01*
X146078600Y-102454895D01*
X146194714Y-102493600D01*
X146272123Y-102571009D01*
X146310828Y-102648419D01*
X146349533Y-102803238D01*
X146349533Y-102919352D01*
X146310828Y-103074171D01*
X146272123Y-103151580D01*
X146194714Y-103228990D01*
X146078600Y-103267695D01*
X145885076Y-103267695D01*
X147084923Y-102454895D02*
X146697876Y-102454895D01*
X146659171Y-102841942D01*
X146697876Y-102803238D01*
X146775285Y-102764533D01*
X146968809Y-102764533D01*
X147046219Y-102803238D01*
X147084923Y-102841942D01*
X147123628Y-102919352D01*
X147123628Y-103112876D01*
X147084923Y-103190285D01*
X147046219Y-103228990D01*
X146968809Y-103267695D01*
X146775285Y-103267695D01*
X146697876Y-103228990D01*
X146659171Y-103190285D01*
%TO.C,120*%
X155237695Y-102241866D02*
X155237695Y-102706323D01*
X155237695Y-102474095D02*
X154424895Y-102474095D01*
X154541009Y-102551504D01*
X154618419Y-102628914D01*
X154657123Y-102706323D01*
X154502304Y-101932228D02*
X154463600Y-101893523D01*
X154424895Y-101816114D01*
X154424895Y-101622590D01*
X154463600Y-101545180D01*
X154502304Y-101506476D01*
X154579714Y-101467771D01*
X154657123Y-101467771D01*
X154773238Y-101506476D01*
X155237695Y-101970933D01*
X155237695Y-101467771D01*
X154424895Y-100964609D02*
X154424895Y-100887200D01*
X154463600Y-100809790D01*
X154502304Y-100771085D01*
X154579714Y-100732380D01*
X154734533Y-100693676D01*
X154928057Y-100693676D01*
X155082876Y-100732380D01*
X155160285Y-100771085D01*
X155198990Y-100809790D01*
X155237695Y-100887200D01*
X155237695Y-100964609D01*
X155198990Y-101042019D01*
X155160285Y-101080723D01*
X155082876Y-101119428D01*
X154928057Y-101158133D01*
X154734533Y-101158133D01*
X154579714Y-101119428D01*
X154502304Y-101080723D01*
X154463600Y-101042019D01*
X154424895Y-100964609D01*
%TO.C,Q1*%
X137622590Y-87145104D02*
X137545180Y-87106400D01*
X137467771Y-87028990D01*
X137351657Y-86912876D01*
X137274247Y-86874171D01*
X137196838Y-86874171D01*
X137235542Y-87067695D02*
X137158133Y-87028990D01*
X137080723Y-86951580D01*
X137042019Y-86796761D01*
X137042019Y-86525828D01*
X137080723Y-86371009D01*
X137158133Y-86293600D01*
X137235542Y-86254895D01*
X137390361Y-86254895D01*
X137467771Y-86293600D01*
X137545180Y-86371009D01*
X137583885Y-86525828D01*
X137583885Y-86796761D01*
X137545180Y-86951580D01*
X137467771Y-87028990D01*
X137390361Y-87067695D01*
X137235542Y-87067695D01*
X138357980Y-87067695D02*
X137893523Y-87067695D01*
X138125752Y-87067695D02*
X138125752Y-86254895D01*
X138048342Y-86371009D01*
X137970933Y-86448419D01*
X137893523Y-86487123D01*
%TO.C,Q2*%
X141122590Y-91795104D02*
X141045180Y-91756400D01*
X140967771Y-91678990D01*
X140851657Y-91562876D01*
X140774247Y-91524171D01*
X140696838Y-91524171D01*
X140735542Y-91717695D02*
X140658133Y-91678990D01*
X140580723Y-91601580D01*
X140542019Y-91446761D01*
X140542019Y-91175828D01*
X140580723Y-91021009D01*
X140658133Y-90943600D01*
X140735542Y-90904895D01*
X140890361Y-90904895D01*
X140967771Y-90943600D01*
X141045180Y-91021009D01*
X141083885Y-91175828D01*
X141083885Y-91446761D01*
X141045180Y-91601580D01*
X140967771Y-91678990D01*
X140890361Y-91717695D01*
X140735542Y-91717695D01*
X141393523Y-90982304D02*
X141432228Y-90943600D01*
X141509638Y-90904895D01*
X141703161Y-90904895D01*
X141780571Y-90943600D01*
X141819276Y-90982304D01*
X141857980Y-91059714D01*
X141857980Y-91137123D01*
X141819276Y-91253238D01*
X141354819Y-91717695D01*
X141857980Y-91717695D01*
%TO.C,R1*%
X123364533Y-116067695D02*
X123093600Y-115680647D01*
X122900076Y-116067695D02*
X122900076Y-115254895D01*
X123209714Y-115254895D01*
X123287123Y-115293600D01*
X123325828Y-115332304D01*
X123364533Y-115409714D01*
X123364533Y-115525828D01*
X123325828Y-115603238D01*
X123287123Y-115641942D01*
X123209714Y-115680647D01*
X122900076Y-115680647D01*
X124138628Y-116067695D02*
X123674171Y-116067695D01*
X123906400Y-116067695D02*
X123906400Y-115254895D01*
X123828990Y-115371009D01*
X123751580Y-115448419D01*
X123674171Y-115487123D01*
%TO.C,R2*%
X123364533Y-114067695D02*
X123093600Y-113680647D01*
X122900076Y-114067695D02*
X122900076Y-113254895D01*
X123209714Y-113254895D01*
X123287123Y-113293600D01*
X123325828Y-113332304D01*
X123364533Y-113409714D01*
X123364533Y-113525828D01*
X123325828Y-113603238D01*
X123287123Y-113641942D01*
X123209714Y-113680647D01*
X122900076Y-113680647D01*
X123674171Y-113332304D02*
X123712876Y-113293600D01*
X123790285Y-113254895D01*
X123983809Y-113254895D01*
X124061219Y-113293600D01*
X124099923Y-113332304D01*
X124138628Y-113409714D01*
X124138628Y-113487123D01*
X124099923Y-113603238D01*
X123635466Y-114067695D01*
X124138628Y-114067695D01*
%TO.C,R5*%
X123264533Y-106367695D02*
X122993600Y-105980647D01*
X122800076Y-106367695D02*
X122800076Y-105554895D01*
X123109714Y-105554895D01*
X123187123Y-105593600D01*
X123225828Y-105632304D01*
X123264533Y-105709714D01*
X123264533Y-105825828D01*
X123225828Y-105903238D01*
X123187123Y-105941942D01*
X123109714Y-105980647D01*
X122800076Y-105980647D01*
X123999923Y-105554895D02*
X123612876Y-105554895D01*
X123574171Y-105941942D01*
X123612876Y-105903238D01*
X123690285Y-105864533D01*
X123883809Y-105864533D01*
X123961219Y-105903238D01*
X123999923Y-105941942D01*
X124038628Y-106019352D01*
X124038628Y-106212876D01*
X123999923Y-106290285D01*
X123961219Y-106328990D01*
X123883809Y-106367695D01*
X123690285Y-106367695D01*
X123612876Y-106328990D01*
X123574171Y-106290285D01*
%TO.C,R6*%
X123264533Y-104367695D02*
X122993600Y-103980647D01*
X122800076Y-104367695D02*
X122800076Y-103554895D01*
X123109714Y-103554895D01*
X123187123Y-103593600D01*
X123225828Y-103632304D01*
X123264533Y-103709714D01*
X123264533Y-103825828D01*
X123225828Y-103903238D01*
X123187123Y-103941942D01*
X123109714Y-103980647D01*
X122800076Y-103980647D01*
X123961219Y-103554895D02*
X123806400Y-103554895D01*
X123728990Y-103593600D01*
X123690285Y-103632304D01*
X123612876Y-103748419D01*
X123574171Y-103903238D01*
X123574171Y-104212876D01*
X123612876Y-104290285D01*
X123651580Y-104328990D01*
X123728990Y-104367695D01*
X123883809Y-104367695D01*
X123961219Y-104328990D01*
X123999923Y-104290285D01*
X124038628Y-104212876D01*
X124038628Y-104019352D01*
X123999923Y-103941942D01*
X123961219Y-103903238D01*
X123883809Y-103864533D01*
X123728990Y-103864533D01*
X123651580Y-103903238D01*
X123612876Y-103941942D01*
X123574171Y-104019352D01*
%TO.C,R8*%
X130364533Y-120767695D02*
X130093600Y-120380647D01*
X129900076Y-120767695D02*
X129900076Y-119954895D01*
X130209714Y-119954895D01*
X130287123Y-119993600D01*
X130325828Y-120032304D01*
X130364533Y-120109714D01*
X130364533Y-120225828D01*
X130325828Y-120303238D01*
X130287123Y-120341942D01*
X130209714Y-120380647D01*
X129900076Y-120380647D01*
X130828990Y-120303238D02*
X130751580Y-120264533D01*
X130712876Y-120225828D01*
X130674171Y-120148419D01*
X130674171Y-120109714D01*
X130712876Y-120032304D01*
X130751580Y-119993600D01*
X130828990Y-119954895D01*
X130983809Y-119954895D01*
X131061219Y-119993600D01*
X131099923Y-120032304D01*
X131138628Y-120109714D01*
X131138628Y-120148419D01*
X131099923Y-120225828D01*
X131061219Y-120264533D01*
X130983809Y-120303238D01*
X130828990Y-120303238D01*
X130751580Y-120341942D01*
X130712876Y-120380647D01*
X130674171Y-120458057D01*
X130674171Y-120612876D01*
X130712876Y-120690285D01*
X130751580Y-120728990D01*
X130828990Y-120767695D01*
X130983809Y-120767695D01*
X131061219Y-120728990D01*
X131099923Y-120690285D01*
X131138628Y-120612876D01*
X131138628Y-120458057D01*
X131099923Y-120380647D01*
X131061219Y-120341942D01*
X130983809Y-120303238D01*
%TO.C,R9*%
X128364533Y-92567695D02*
X128093600Y-92180647D01*
X127900076Y-92567695D02*
X127900076Y-91754895D01*
X128209714Y-91754895D01*
X128287123Y-91793600D01*
X128325828Y-91832304D01*
X128364533Y-91909714D01*
X128364533Y-92025828D01*
X128325828Y-92103238D01*
X128287123Y-92141942D01*
X128209714Y-92180647D01*
X127900076Y-92180647D01*
X128751580Y-92567695D02*
X128906400Y-92567695D01*
X128983809Y-92528990D01*
X129022514Y-92490285D01*
X129099923Y-92374171D01*
X129138628Y-92219352D01*
X129138628Y-91909714D01*
X129099923Y-91832304D01*
X129061219Y-91793600D01*
X128983809Y-91754895D01*
X128828990Y-91754895D01*
X128751580Y-91793600D01*
X128712876Y-91832304D01*
X128674171Y-91909714D01*
X128674171Y-92103238D01*
X128712876Y-92180647D01*
X128751580Y-92219352D01*
X128828990Y-92258057D01*
X128983809Y-92258057D01*
X129061219Y-92219352D01*
X129099923Y-92180647D01*
X129138628Y-92103238D01*
%TO.C,R10*%
X131777485Y-92567695D02*
X131506552Y-92180647D01*
X131313028Y-92567695D02*
X131313028Y-91754895D01*
X131622666Y-91754895D01*
X131700076Y-91793600D01*
X131738780Y-91832304D01*
X131777485Y-91909714D01*
X131777485Y-92025828D01*
X131738780Y-92103238D01*
X131700076Y-92141942D01*
X131622666Y-92180647D01*
X131313028Y-92180647D01*
X132551580Y-92567695D02*
X132087123Y-92567695D01*
X132319352Y-92567695D02*
X132319352Y-91754895D01*
X132241942Y-91871009D01*
X132164533Y-91948419D01*
X132087123Y-91987123D01*
X133054742Y-91754895D02*
X133132152Y-91754895D01*
X133209561Y-91793600D01*
X133248266Y-91832304D01*
X133286971Y-91909714D01*
X133325676Y-92064533D01*
X133325676Y-92258057D01*
X133286971Y-92412876D01*
X133248266Y-92490285D01*
X133209561Y-92528990D01*
X133132152Y-92567695D01*
X133054742Y-92567695D01*
X132977333Y-92528990D01*
X132938628Y-92490285D01*
X132899923Y-92412876D01*
X132861219Y-92258057D01*
X132861219Y-92064533D01*
X132899923Y-91909714D01*
X132938628Y-91832304D01*
X132977333Y-91793600D01*
X133054742Y-91754895D01*
%TO.C,R11*%
X142067695Y-89472514D02*
X141680647Y-89743447D01*
X142067695Y-89936971D02*
X141254895Y-89936971D01*
X141254895Y-89627333D01*
X141293600Y-89549923D01*
X141332304Y-89511219D01*
X141409714Y-89472514D01*
X141525828Y-89472514D01*
X141603238Y-89511219D01*
X141641942Y-89549923D01*
X141680647Y-89627333D01*
X141680647Y-89936971D01*
X142067695Y-88698419D02*
X142067695Y-89162876D01*
X142067695Y-88930647D02*
X141254895Y-88930647D01*
X141371009Y-89008057D01*
X141448419Y-89085466D01*
X141487123Y-89162876D01*
X142067695Y-87924323D02*
X142067695Y-88388780D01*
X142067695Y-88156552D02*
X141254895Y-88156552D01*
X141371009Y-88233961D01*
X141448419Y-88311371D01*
X141487123Y-88388780D01*
%TO.C,R12*%
X135567695Y-93122514D02*
X135180647Y-93393447D01*
X135567695Y-93586971D02*
X134754895Y-93586971D01*
X134754895Y-93277333D01*
X134793600Y-93199923D01*
X134832304Y-93161219D01*
X134909714Y-93122514D01*
X135025828Y-93122514D01*
X135103238Y-93161219D01*
X135141942Y-93199923D01*
X135180647Y-93277333D01*
X135180647Y-93586971D01*
X135567695Y-92348419D02*
X135567695Y-92812876D01*
X135567695Y-92580647D02*
X134754895Y-92580647D01*
X134871009Y-92658057D01*
X134948419Y-92735466D01*
X134987123Y-92812876D01*
X134832304Y-92038780D02*
X134793600Y-92000076D01*
X134754895Y-91922666D01*
X134754895Y-91729142D01*
X134793600Y-91651733D01*
X134832304Y-91613028D01*
X134909714Y-91574323D01*
X134987123Y-91574323D01*
X135103238Y-91613028D01*
X135567695Y-92077485D01*
X135567695Y-91574323D01*
%TO.C,R13*%
X146177485Y-97067695D02*
X145906552Y-96680647D01*
X145713028Y-97067695D02*
X145713028Y-96254895D01*
X146022666Y-96254895D01*
X146100076Y-96293600D01*
X146138780Y-96332304D01*
X146177485Y-96409714D01*
X146177485Y-96525828D01*
X146138780Y-96603238D01*
X146100076Y-96641942D01*
X146022666Y-96680647D01*
X145713028Y-96680647D01*
X146951580Y-97067695D02*
X146487123Y-97067695D01*
X146719352Y-97067695D02*
X146719352Y-96254895D01*
X146641942Y-96371009D01*
X146564533Y-96448419D01*
X146487123Y-96487123D01*
X147222514Y-96254895D02*
X147725676Y-96254895D01*
X147454742Y-96564533D01*
X147570857Y-96564533D01*
X147648266Y-96603238D01*
X147686971Y-96641942D01*
X147725676Y-96719352D01*
X147725676Y-96912876D01*
X147686971Y-96990285D01*
X147648266Y-97028990D01*
X147570857Y-97067695D01*
X147338628Y-97067695D01*
X147261219Y-97028990D01*
X147222514Y-96990285D01*
%TO.C,R14*%
X146177485Y-84467695D02*
X145906552Y-84080647D01*
X145713028Y-84467695D02*
X145713028Y-83654895D01*
X146022666Y-83654895D01*
X146100076Y-83693600D01*
X146138780Y-83732304D01*
X146177485Y-83809714D01*
X146177485Y-83925828D01*
X146138780Y-84003238D01*
X146100076Y-84041942D01*
X146022666Y-84080647D01*
X145713028Y-84080647D01*
X146951580Y-84467695D02*
X146487123Y-84467695D01*
X146719352Y-84467695D02*
X146719352Y-83654895D01*
X146641942Y-83771009D01*
X146564533Y-83848419D01*
X146487123Y-83887123D01*
X147648266Y-83925828D02*
X147648266Y-84467695D01*
X147454742Y-83616190D02*
X147261219Y-84196761D01*
X147764380Y-84196761D01*
%TO.C,R15*%
X150277485Y-98267695D02*
X150006552Y-97880647D01*
X149813028Y-98267695D02*
X149813028Y-97454895D01*
X150122666Y-97454895D01*
X150200076Y-97493600D01*
X150238780Y-97532304D01*
X150277485Y-97609714D01*
X150277485Y-97725828D01*
X150238780Y-97803238D01*
X150200076Y-97841942D01*
X150122666Y-97880647D01*
X149813028Y-97880647D01*
X151051580Y-98267695D02*
X150587123Y-98267695D01*
X150819352Y-98267695D02*
X150819352Y-97454895D01*
X150741942Y-97571009D01*
X150664533Y-97648419D01*
X150587123Y-97687123D01*
X151786971Y-97454895D02*
X151399923Y-97454895D01*
X151361219Y-97841942D01*
X151399923Y-97803238D01*
X151477333Y-97764533D01*
X151670857Y-97764533D01*
X151748266Y-97803238D01*
X151786971Y-97841942D01*
X151825676Y-97919352D01*
X151825676Y-98112876D01*
X151786971Y-98190285D01*
X151748266Y-98228990D01*
X151670857Y-98267695D01*
X151477333Y-98267695D01*
X151399923Y-98228990D01*
X151361219Y-98190285D01*
%TO.C,RESET*%
X114467695Y-116930495D02*
X114080647Y-117201428D01*
X114467695Y-117394952D02*
X113654895Y-117394952D01*
X113654895Y-117085314D01*
X113693600Y-117007904D01*
X113732304Y-116969200D01*
X113809714Y-116930495D01*
X113925828Y-116930495D01*
X114003238Y-116969200D01*
X114041942Y-117007904D01*
X114080647Y-117085314D01*
X114080647Y-117394952D01*
X114041942Y-116582152D02*
X114041942Y-116311219D01*
X114467695Y-116195104D02*
X114467695Y-116582152D01*
X113654895Y-116582152D01*
X113654895Y-116195104D01*
X114428990Y-115885466D02*
X114467695Y-115769352D01*
X114467695Y-115575828D01*
X114428990Y-115498419D01*
X114390285Y-115459714D01*
X114312876Y-115421009D01*
X114235466Y-115421009D01*
X114158057Y-115459714D01*
X114119352Y-115498419D01*
X114080647Y-115575828D01*
X114041942Y-115730647D01*
X114003238Y-115808057D01*
X113964533Y-115846761D01*
X113887123Y-115885466D01*
X113809714Y-115885466D01*
X113732304Y-115846761D01*
X113693600Y-115808057D01*
X113654895Y-115730647D01*
X113654895Y-115537123D01*
X113693600Y-115421009D01*
X114041942Y-115072666D02*
X114041942Y-114801733D01*
X114467695Y-114685619D02*
X114467695Y-115072666D01*
X113654895Y-115072666D01*
X113654895Y-114685619D01*
X113654895Y-114453390D02*
X113654895Y-113988933D01*
X114467695Y-114221161D02*
X113654895Y-114221161D01*
%TO.C,BOOT*%
X114191942Y-104803085D02*
X114230647Y-104686971D01*
X114269352Y-104648266D01*
X114346761Y-104609561D01*
X114462876Y-104609561D01*
X114540285Y-104648266D01*
X114578990Y-104686971D01*
X114617695Y-104764380D01*
X114617695Y-105074019D01*
X113804895Y-105074019D01*
X113804895Y-104803085D01*
X113843600Y-104725676D01*
X113882304Y-104686971D01*
X113959714Y-104648266D01*
X114037123Y-104648266D01*
X114114533Y-104686971D01*
X114153238Y-104725676D01*
X114191942Y-104803085D01*
X114191942Y-105074019D01*
X113804895Y-104106400D02*
X113804895Y-103951580D01*
X113843600Y-103874171D01*
X113921009Y-103796761D01*
X114075828Y-103758057D01*
X114346761Y-103758057D01*
X114501580Y-103796761D01*
X114578990Y-103874171D01*
X114617695Y-103951580D01*
X114617695Y-104106400D01*
X114578990Y-104183809D01*
X114501580Y-104261219D01*
X114346761Y-104299923D01*
X114075828Y-104299923D01*
X113921009Y-104261219D01*
X113843600Y-104183809D01*
X113804895Y-104106400D01*
X113804895Y-103254895D02*
X113804895Y-103100076D01*
X113843600Y-103022666D01*
X113921009Y-102945257D01*
X114075828Y-102906552D01*
X114346761Y-102906552D01*
X114501580Y-102945257D01*
X114578990Y-103022666D01*
X114617695Y-103100076D01*
X114617695Y-103254895D01*
X114578990Y-103332304D01*
X114501580Y-103409714D01*
X114346761Y-103448419D01*
X114075828Y-103448419D01*
X113921009Y-103409714D01*
X113843600Y-103332304D01*
X113804895Y-103254895D01*
X113804895Y-102674323D02*
X113804895Y-102209866D01*
X114617695Y-102442095D02*
X113804895Y-102442095D01*
%TO.C,U1*%
X143180723Y-110054895D02*
X143180723Y-110712876D01*
X143219428Y-110790285D01*
X143258133Y-110828990D01*
X143335542Y-110867695D01*
X143490361Y-110867695D01*
X143567771Y-110828990D01*
X143606476Y-110790285D01*
X143645180Y-110712876D01*
X143645180Y-110054895D01*
X144457980Y-110867695D02*
X143993523Y-110867695D01*
X144225752Y-110867695D02*
X144225752Y-110054895D01*
X144148342Y-110171009D01*
X144070933Y-110248419D01*
X143993523Y-110287123D01*
%TO.C,U2*%
X134054895Y-89419276D02*
X134712876Y-89419276D01*
X134790285Y-89380571D01*
X134828990Y-89341866D01*
X134867695Y-89264457D01*
X134867695Y-89109638D01*
X134828990Y-89032228D01*
X134790285Y-88993523D01*
X134712876Y-88954819D01*
X134054895Y-88954819D01*
X134132304Y-88606476D02*
X134093600Y-88567771D01*
X134054895Y-88490361D01*
X134054895Y-88296838D01*
X134093600Y-88219428D01*
X134132304Y-88180723D01*
X134209714Y-88142019D01*
X134287123Y-88142019D01*
X134403238Y-88180723D01*
X134867695Y-88645180D01*
X134867695Y-88142019D01*
%TO.C,U3*%
X140230723Y-99954895D02*
X140230723Y-100612876D01*
X140269428Y-100690285D01*
X140308133Y-100728990D01*
X140385542Y-100767695D01*
X140540361Y-100767695D01*
X140617771Y-100728990D01*
X140656476Y-100690285D01*
X140695180Y-100612876D01*
X140695180Y-99954895D01*
X141004819Y-99954895D02*
X141507980Y-99954895D01*
X141237047Y-100264533D01*
X141353161Y-100264533D01*
X141430571Y-100303238D01*
X141469276Y-100341942D01*
X141507980Y-100419352D01*
X141507980Y-100612876D01*
X141469276Y-100690285D01*
X141430571Y-100728990D01*
X141353161Y-100767695D01*
X141120933Y-100767695D01*
X141043523Y-100728990D01*
X141004819Y-100690285D01*
%TO.C,U4*%
X147330723Y-88654895D02*
X147330723Y-89312876D01*
X147369428Y-89390285D01*
X147408133Y-89428990D01*
X147485542Y-89467695D01*
X147640361Y-89467695D01*
X147717771Y-89428990D01*
X147756476Y-89390285D01*
X147795180Y-89312876D01*
X147795180Y-88654895D01*
X148530571Y-88925828D02*
X148530571Y-89467695D01*
X148337047Y-88616190D02*
X148143523Y-89196761D01*
X148646685Y-89196761D01*
%TO.C,C9*%
X120964533Y-84990285D02*
X120925828Y-85028990D01*
X120809714Y-85067695D01*
X120732304Y-85067695D01*
X120616190Y-85028990D01*
X120538780Y-84951580D01*
X120500076Y-84874171D01*
X120461371Y-84719352D01*
X120461371Y-84603238D01*
X120500076Y-84448419D01*
X120538780Y-84371009D01*
X120616190Y-84293600D01*
X120732304Y-84254895D01*
X120809714Y-84254895D01*
X120925828Y-84293600D01*
X120964533Y-84332304D01*
X121351580Y-85067695D02*
X121506400Y-85067695D01*
X121583809Y-85028990D01*
X121622514Y-84990285D01*
X121699923Y-84874171D01*
X121738628Y-84719352D01*
X121738628Y-84409714D01*
X121699923Y-84332304D01*
X121661219Y-84293600D01*
X121583809Y-84254895D01*
X121428990Y-84254895D01*
X121351580Y-84293600D01*
X121312876Y-84332304D01*
X121274171Y-84409714D01*
X121274171Y-84603238D01*
X121312876Y-84680647D01*
X121351580Y-84719352D01*
X121428990Y-84758057D01*
X121583809Y-84758057D01*
X121661219Y-84719352D01*
X121699923Y-84680647D01*
X121738628Y-84603238D01*
%TO.C,C4*%
X135277785Y-84835466D02*
X135316490Y-84874171D01*
X135355195Y-84990285D01*
X135355195Y-85067695D01*
X135316490Y-85183809D01*
X135239080Y-85261219D01*
X135161671Y-85299923D01*
X135006852Y-85338628D01*
X134890738Y-85338628D01*
X134735919Y-85299923D01*
X134658509Y-85261219D01*
X134581100Y-85183809D01*
X134542395Y-85067695D01*
X134542395Y-84990285D01*
X134581100Y-84874171D01*
X134619804Y-84835466D01*
X134813328Y-84138780D02*
X135355195Y-84138780D01*
X134503690Y-84332304D02*
X135084261Y-84525828D01*
X135084261Y-84022666D01*
%TO.C,C6*%
X126515285Y-84835466D02*
X126553990Y-84874171D01*
X126592695Y-84990285D01*
X126592695Y-85067695D01*
X126553990Y-85183809D01*
X126476580Y-85261219D01*
X126399171Y-85299923D01*
X126244352Y-85338628D01*
X126128238Y-85338628D01*
X125973419Y-85299923D01*
X125896009Y-85261219D01*
X125818600Y-85183809D01*
X125779895Y-85067695D01*
X125779895Y-84990285D01*
X125818600Y-84874171D01*
X125857304Y-84835466D01*
X125779895Y-84138780D02*
X125779895Y-84293600D01*
X125818600Y-84371009D01*
X125857304Y-84409714D01*
X125973419Y-84487123D01*
X126128238Y-84525828D01*
X126437876Y-84525828D01*
X126515285Y-84487123D01*
X126553990Y-84448419D01*
X126592695Y-84371009D01*
X126592695Y-84216190D01*
X126553990Y-84138780D01*
X126515285Y-84100076D01*
X126437876Y-84061371D01*
X126244352Y-84061371D01*
X126166942Y-84100076D01*
X126128238Y-84138780D01*
X126089533Y-84216190D01*
X126089533Y-84371009D01*
X126128238Y-84448419D01*
X126166942Y-84487123D01*
X126244352Y-84525828D01*
%TO.C,R4*%
X122967695Y-81560466D02*
X122580647Y-81831400D01*
X122967695Y-82024923D02*
X122154895Y-82024923D01*
X122154895Y-81715285D01*
X122193600Y-81637876D01*
X122232304Y-81599171D01*
X122309714Y-81560466D01*
X122425828Y-81560466D01*
X122503238Y-81599171D01*
X122541942Y-81637876D01*
X122580647Y-81715285D01*
X122580647Y-82024923D01*
X122425828Y-80863780D02*
X122967695Y-80863780D01*
X122116190Y-81057304D02*
X122696761Y-81250828D01*
X122696761Y-80747666D01*
%TO.C,R3*%
X138567695Y-81560466D02*
X138180647Y-81831400D01*
X138567695Y-82024923D02*
X137754895Y-82024923D01*
X137754895Y-81715285D01*
X137793600Y-81637876D01*
X137832304Y-81599171D01*
X137909714Y-81560466D01*
X138025828Y-81560466D01*
X138103238Y-81599171D01*
X138141942Y-81637876D01*
X138180647Y-81715285D01*
X138180647Y-82024923D01*
X137754895Y-81289533D02*
X137754895Y-80786371D01*
X138064533Y-81057304D01*
X138064533Y-80941190D01*
X138103238Y-80863780D01*
X138141942Y-80825076D01*
X138219352Y-80786371D01*
X138412876Y-80786371D01*
X138490285Y-80825076D01*
X138528990Y-80863780D01*
X138567695Y-80941190D01*
X138567695Y-81173419D01*
X138528990Y-81250828D01*
X138490285Y-81289533D01*
%TO.C,J3*%
X156129066Y-97804896D02*
X156129066Y-98385467D01*
X156090361Y-98501581D01*
X156012952Y-98578991D01*
X155896838Y-98617696D01*
X155819428Y-98617696D01*
X156438704Y-97804896D02*
X156941866Y-97804896D01*
X156670933Y-98114534D01*
X156787047Y-98114534D01*
X156864457Y-98153239D01*
X156903161Y-98191943D01*
X156941866Y-98269353D01*
X156941866Y-98462877D01*
X156903161Y-98540286D01*
X156864457Y-98578991D01*
X156787047Y-98617696D01*
X156554819Y-98617696D01*
X156477409Y-98578991D01*
X156438704Y-98540286D01*
%TO.C,J2*%
X156129066Y-87254896D02*
X156129066Y-87835467D01*
X156090361Y-87951581D01*
X156012952Y-88028991D01*
X155896838Y-88067696D01*
X155819428Y-88067696D01*
X156477409Y-87332305D02*
X156516114Y-87293601D01*
X156593523Y-87254896D01*
X156787047Y-87254896D01*
X156864457Y-87293601D01*
X156903161Y-87332305D01*
X156941866Y-87409715D01*
X156941866Y-87487124D01*
X156903161Y-87603239D01*
X156438704Y-88067696D01*
X156941866Y-88067696D01*
%TO.C,J1*%
X130254066Y-77729895D02*
X130254066Y-78310466D01*
X130215361Y-78426580D01*
X130137952Y-78503990D01*
X130021838Y-78542695D01*
X129944428Y-78542695D01*
X131066866Y-78542695D02*
X130602409Y-78542695D01*
X130834638Y-78542695D02*
X130834638Y-77729895D01*
X130757228Y-77846009D01*
X130679819Y-77923419D01*
X130602409Y-77962123D01*
D12*
%TO.C,R7*%
X120733333Y-89152380D02*
X120400000Y-88676190D01*
X120161904Y-89152380D02*
X120161904Y-88152380D01*
X120542857Y-88152380D01*
X120638095Y-88200000D01*
X120685714Y-88247619D01*
X120733333Y-88342857D01*
X120733333Y-88485714D01*
X120685714Y-88580952D01*
X120638095Y-88628571D01*
X120542857Y-88676190D01*
X120161904Y-88676190D01*
X121066666Y-88152380D02*
X121733333Y-88152380D01*
X121304761Y-89152380D01*
%TO.C,R16*%
X119757142Y-91152380D02*
X119423809Y-90676190D01*
X119185714Y-91152380D02*
X119185714Y-90152380D01*
X119566666Y-90152380D01*
X119661904Y-90200000D01*
X119709523Y-90247619D01*
X119757142Y-90342857D01*
X119757142Y-90485714D01*
X119709523Y-90580952D01*
X119661904Y-90628571D01*
X119566666Y-90676190D01*
X119185714Y-90676190D01*
X120709523Y-91152380D02*
X120138095Y-91152380D01*
X120423809Y-91152380D02*
X120423809Y-90152380D01*
X120328571Y-90295238D01*
X120233333Y-90390476D01*
X120138095Y-90438095D01*
X121566666Y-90152380D02*
X121376190Y-90152380D01*
X121280952Y-90200000D01*
X121233333Y-90247619D01*
X121138095Y-90390476D01*
X121090476Y-90580952D01*
X121090476Y-90961904D01*
X121138095Y-91057142D01*
X121185714Y-91104761D01*
X121280952Y-91152380D01*
X121471428Y-91152380D01*
X121566666Y-91104761D01*
X121614285Y-91057142D01*
X121661904Y-90961904D01*
X121661904Y-90723809D01*
X121614285Y-90628571D01*
X121566666Y-90580952D01*
X121471428Y-90533333D01*
X121280952Y-90533333D01*
X121185714Y-90580952D01*
X121138095Y-90628571D01*
X121090476Y-90723809D01*
%TO.C,R17*%
X119757142Y-93252380D02*
X119423809Y-92776190D01*
X119185714Y-93252380D02*
X119185714Y-92252380D01*
X119566666Y-92252380D01*
X119661904Y-92300000D01*
X119709523Y-92347619D01*
X119757142Y-92442857D01*
X119757142Y-92585714D01*
X119709523Y-92680952D01*
X119661904Y-92728571D01*
X119566666Y-92776190D01*
X119185714Y-92776190D01*
X120709523Y-93252380D02*
X120138095Y-93252380D01*
X120423809Y-93252380D02*
X120423809Y-92252380D01*
X120328571Y-92395238D01*
X120233333Y-92490476D01*
X120138095Y-92538095D01*
X121042857Y-92252380D02*
X121709523Y-92252380D01*
X121280952Y-93252380D01*
D13*
%TO.C,C1*%
X120638748Y-118435000D02*
X121161252Y-118435000D01*
X120638748Y-116965000D02*
X121161252Y-116965000D01*
%TO.C,C2*%
X156348752Y-116165000D02*
X155826248Y-116165000D01*
X156348752Y-117635000D02*
X155826248Y-117635000D01*
%TO.C,C3*%
X155788748Y-118165000D02*
X156311252Y-118165000D01*
X155788748Y-119635000D02*
X156311252Y-119635000D01*
%TO.C,C5*%
X155788748Y-120165000D02*
X156311252Y-120165000D01*
X155788748Y-121635000D02*
X156311252Y-121635000D01*
%TO.C,C7*%
X123961252Y-98115000D02*
X123438748Y-98115000D01*
X123961252Y-99585000D02*
X123438748Y-99585000D01*
%TO.C,C8*%
X123961252Y-96065000D02*
X123438748Y-96065000D01*
X123961252Y-97535000D02*
X123438748Y-97535000D01*
%TO.C,C10*%
X123961252Y-95435000D02*
X123438748Y-95435000D01*
X123961252Y-93965000D02*
X123438748Y-93965000D01*
%TO.C,C11*%
X123961252Y-85965000D02*
X123438748Y-85965000D01*
X123961252Y-87435000D02*
X123438748Y-87435000D01*
%TO.C,C12*%
X120638748Y-102735000D02*
X121161252Y-102735000D01*
X120638748Y-101265000D02*
X121161252Y-101265000D01*
%TO.C,C13*%
X152965000Y-88461252D02*
X152965000Y-87938748D01*
X154435000Y-88461252D02*
X154435000Y-87938748D01*
%TO.C,C14*%
X152965000Y-91851248D02*
X152965000Y-92373752D01*
X154435000Y-91851248D02*
X154435000Y-92373752D01*
%TO.C,C15*%
X136885000Y-100561252D02*
X136885000Y-100038748D01*
X135415000Y-100561252D02*
X135415000Y-100038748D01*
%TO.C,TX*%
X127500000Y-96460000D02*
X130360000Y-96460000D01*
X130360000Y-96460000D02*
X130360000Y-94540000D01*
X130360000Y-94540000D02*
X127500000Y-94540000D01*
%TO.C,RX*%
X130390000Y-94540000D02*
X130390000Y-96460000D01*
X133250000Y-94540000D02*
X130390000Y-94540000D01*
X130390000Y-96460000D02*
X133250000Y-96460000D01*
%TO.C,3V3*%
X148565000Y-94240000D02*
X148565000Y-96160000D01*
X148565000Y-96160000D02*
X151425000Y-96160000D01*
X151425000Y-94240000D02*
X148565000Y-94240000D01*
%TO.C,5V*%
X148590000Y-84490000D02*
X148590000Y-86410000D01*
X148590000Y-86410000D02*
X151450000Y-86410000D01*
X151450000Y-84490000D02*
X148590000Y-84490000D01*
%TO.C,D5*%
X145725000Y-98820000D02*
X147185000Y-98820000D01*
X145725000Y-101980000D02*
X145725000Y-101050000D01*
X145725000Y-101980000D02*
X147885000Y-101980000D01*
X145725000Y-98820000D02*
X145725000Y-99750000D01*
%TO.C,120*%
X151270000Y-100370000D02*
X151270000Y-103030000D01*
X151270000Y-103030000D02*
X148670000Y-103030000D01*
X153870000Y-100370000D02*
X153870000Y-101700000D01*
X148670000Y-100370000D02*
X148670000Y-103030000D01*
X151270000Y-100370000D02*
X148670000Y-100370000D01*
X152540000Y-100370000D02*
X153870000Y-100370000D01*
%TO.C,Q1*%
X136690000Y-90544999D02*
X136690000Y-89614999D01*
X136690000Y-90544999D02*
X138850000Y-90544999D01*
X136690000Y-87384999D02*
X138150000Y-87384999D01*
X136690000Y-87384999D02*
X136690000Y-88314999D01*
%TO.C,Q2*%
X140210000Y-91020000D02*
X138050000Y-91020000D01*
X140210000Y-94180000D02*
X140210000Y-93250000D01*
X140210000Y-91020000D02*
X140210000Y-91950000D01*
X140210000Y-94180000D02*
X138750000Y-94180000D01*
%TO.C,R1*%
X121127064Y-116435000D02*
X120672936Y-116435000D01*
X121127064Y-114965000D02*
X120672936Y-114965000D01*
%TO.C,R2*%
X120672936Y-112965000D02*
X121127064Y-112965000D01*
X120672936Y-114435000D02*
X121127064Y-114435000D01*
%TO.C,R5*%
X120672936Y-106735000D02*
X121127064Y-106735000D01*
X120672936Y-105265000D02*
X121127064Y-105265000D01*
%TO.C,R6*%
X121127064Y-104735000D02*
X120672936Y-104735000D01*
X121127064Y-103265000D02*
X120672936Y-103265000D01*
%TO.C,R8*%
X130727064Y-118265000D02*
X130272936Y-118265000D01*
X130727064Y-119735000D02*
X130272936Y-119735000D01*
%TO.C,R9*%
X128272936Y-92765000D02*
X128727064Y-92765000D01*
X128272936Y-94235000D02*
X128727064Y-94235000D01*
%TO.C,R10*%
X132477064Y-94235000D02*
X132022936Y-94235000D01*
X132477064Y-92765000D02*
X132022936Y-92765000D01*
%TO.C,R11*%
X139465000Y-89177064D02*
X139465000Y-88722936D01*
X140935000Y-89177064D02*
X140935000Y-88722936D01*
%TO.C,R12*%
X135965000Y-92372936D02*
X135965000Y-92827064D01*
X137435000Y-92372936D02*
X137435000Y-92827064D01*
%TO.C,R13*%
X146927064Y-95935000D02*
X146472936Y-95935000D01*
X146927064Y-94465000D02*
X146472936Y-94465000D01*
%TO.C,R14*%
X146927064Y-86185000D02*
X146472936Y-86185000D01*
X146927064Y-84715000D02*
X146472936Y-84715000D01*
%TO.C,R15*%
X150522936Y-98465000D02*
X150977064Y-98465000D01*
X150522936Y-99935000D02*
X150977064Y-99935000D01*
%TO.C,RESET*%
X118710000Y-112740000D02*
X118710000Y-118860000D01*
X118710000Y-118860000D02*
X115090000Y-118860000D01*
X115090000Y-118860000D02*
X115090000Y-112740000D01*
X115090000Y-112740000D02*
X118710000Y-112740000D01*
%TO.C,BOOT*%
X115090000Y-106760000D02*
X115090000Y-100640000D01*
X118710000Y-100640000D02*
X118710000Y-106760000D01*
X118710000Y-106760000D02*
X115090000Y-106760000D01*
X115090000Y-100640000D02*
X118710000Y-100640000D01*
%TO.C,U1*%
X134680000Y-130415000D02*
X134680000Y-123995000D01*
X152920000Y-105450000D02*
X152920000Y-104670000D01*
X134680000Y-105450000D02*
X134680000Y-104670000D01*
X152920000Y-123995000D02*
X153300000Y-123995000D01*
X152920000Y-130415000D02*
X152920000Y-123995000D01*
X134680000Y-104670000D02*
X135680000Y-104670000D01*
X152920000Y-130415000D02*
X134680000Y-130415000D01*
X152920000Y-104670000D02*
X151920000Y-104670000D01*
%TO.C,U2*%
X132660000Y-87165000D02*
X132660000Y-86690000D01*
X128440000Y-87165000D02*
X128440000Y-86690000D01*
X128440000Y-86690000D02*
X128915000Y-86690000D01*
X128440000Y-90435000D02*
X128440000Y-90910000D01*
X132660000Y-90435000D02*
X132660000Y-90910000D01*
X132660000Y-90910000D02*
X132185000Y-90910000D01*
X128440000Y-90910000D02*
X128915000Y-90910000D01*
%TO.C,U3*%
X140850000Y-102960000D02*
X142800000Y-102960000D01*
X140850000Y-97840000D02*
X137400000Y-97840000D01*
X140850000Y-102960000D02*
X138900000Y-102960000D01*
X140850000Y-97840000D02*
X142800000Y-97840000D01*
%TO.C,U4*%
X146040000Y-93760000D02*
X146040000Y-92500000D01*
X152050000Y-93760000D02*
X146040000Y-93760000D01*
X146040000Y-86940000D02*
X146040000Y-88200000D01*
X149800000Y-86940000D02*
X146040000Y-86940000D01*
%TO.C,C9*%
X123961252Y-85385000D02*
X123438748Y-85385000D01*
X123961252Y-83915000D02*
X123438748Y-83915000D01*
%TO.C,C4*%
X132263748Y-83965000D02*
X132786252Y-83965000D01*
X132263748Y-85435000D02*
X132786252Y-85435000D01*
%TO.C,C6*%
X128786252Y-85435000D02*
X128263748Y-85435000D01*
X128786252Y-83965000D02*
X128263748Y-83965000D01*
%TO.C,R4*%
X123265000Y-81652064D02*
X123265000Y-81197936D01*
X124735000Y-81652064D02*
X124735000Y-81197936D01*
%TO.C,R3*%
X136015000Y-81197936D02*
X136015000Y-81652064D01*
X137485000Y-81197936D02*
X137485000Y-81652064D01*
D14*
%TO.C,J3*%
X155460000Y-93800000D02*
X157370000Y-93800000D01*
X165340000Y-99000000D02*
X165340000Y-93800000D01*
X155460000Y-99000000D02*
X155460000Y-93800000D01*
X165340000Y-93800000D02*
X162130000Y-93800000D01*
X163430000Y-99000000D02*
X165340000Y-99000000D01*
X158570000Y-99000000D02*
X155460000Y-99000000D01*
X157270000Y-93200000D02*
G75*
G03*
X157270000Y-93200000I-100000J0D01*
G01*
%TO.C,J2*%
X163430000Y-88550001D02*
X165340000Y-88550001D01*
X165340000Y-83350001D02*
X162130000Y-83350001D01*
X155460000Y-83350001D02*
X157370000Y-83350001D01*
X158570000Y-88550001D02*
X155460000Y-88550001D01*
X165340000Y-88550001D02*
X165340000Y-83350001D01*
X155460000Y-88550001D02*
X155460000Y-83350001D01*
X157270000Y-82750001D02*
G75*
G03*
X157270000Y-82750001I-100000J0D01*
G01*
D13*
%TO.C,J1*%
X135000000Y-82855000D02*
X126050000Y-82855000D01*
X135120000Y-79775000D02*
X135120000Y-78875000D01*
X125930000Y-76175000D02*
X125930000Y-73445000D01*
X125930000Y-79775000D02*
X125930000Y-78875000D01*
X135120000Y-76175000D02*
X135120000Y-73445000D01*
X135120000Y-73445000D02*
X125930000Y-73445000D01*
%TO.C,R7*%
X123472936Y-87965000D02*
X123927064Y-87965000D01*
X123472936Y-89435000D02*
X123927064Y-89435000D01*
%TO.C,R16*%
X123927064Y-89965000D02*
X123472936Y-89965000D01*
X123927064Y-91435000D02*
X123472936Y-91435000D01*
%TO.C,R17*%
X123927064Y-93435000D02*
X123472936Y-93435000D01*
X123927064Y-91965000D02*
X123472936Y-91965000D01*
%TD*%
%LPC*%
D15*
%TO.C,C1*%
X119862500Y-117700000D03*
X121937500Y-117700000D03*
%TD*%
D16*
%TO.C,C2*%
X157125000Y-116900000D03*
X155050000Y-116900000D03*
%TD*%
D15*
%TO.C,C3*%
X155012500Y-118900000D03*
X157087500Y-118900000D03*
%TD*%
%TO.C,C5*%
X155012500Y-120900000D03*
X157087500Y-120900000D03*
%TD*%
D16*
%TO.C,C7*%
X124737500Y-98850000D03*
X122662500Y-98850000D03*
%TD*%
%TO.C,C8*%
X124737500Y-96800000D03*
X122662500Y-96800000D03*
%TD*%
%TO.C,C10*%
X124737500Y-94700000D03*
X122662500Y-94700000D03*
%TD*%
%TO.C,C11*%
X124737500Y-86700000D03*
X122662500Y-86700000D03*
%TD*%
D15*
%TO.C,C12*%
X119862500Y-102000000D03*
X121937500Y-102000000D03*
%TD*%
D17*
%TO.C,C13*%
X153700000Y-89237500D03*
X153700000Y-87162500D03*
%TD*%
D18*
%TO.C,C14*%
X153700000Y-91075000D03*
X153700000Y-93150000D03*
%TD*%
D17*
%TO.C,C15*%
X136150000Y-101337500D03*
X136150000Y-99262500D03*
%TD*%
D19*
%TO.C,TX*%
X129525000Y-95500000D03*
X127475000Y-95500000D03*
%TD*%
D20*
%TO.C,RX*%
X131225000Y-95500000D03*
X133275000Y-95500000D03*
%TD*%
%TO.C,3V3*%
X149400000Y-95200000D03*
X151450000Y-95200000D03*
%TD*%
%TO.C,5V*%
X149425000Y-85450000D03*
X151475000Y-85450000D03*
%TD*%
D21*
%TO.C,D5*%
X147485000Y-101350000D03*
X147485000Y-99450000D03*
X145485000Y-100400000D03*
%TD*%
D22*
%TO.C,120*%
X152540000Y-101700000D03*
D23*
X150000000Y-101700000D03*
%TD*%
D21*
%TO.C,Q1*%
X138450000Y-89914999D03*
X138450000Y-88014999D03*
X136450000Y-88964999D03*
%TD*%
%TO.C,Q2*%
X138450000Y-91650000D03*
X138450000Y-93550000D03*
X140450000Y-92600000D03*
%TD*%
D24*
%TO.C,R1*%
X121900000Y-115700000D03*
X119900000Y-115700000D03*
%TD*%
D25*
%TO.C,R2*%
X119900000Y-113700000D03*
X121900000Y-113700000D03*
%TD*%
%TO.C,R5*%
X119900000Y-106000000D03*
X121900000Y-106000000D03*
%TD*%
D24*
%TO.C,R6*%
X121900000Y-104000000D03*
X119900000Y-104000000D03*
%TD*%
%TO.C,R8*%
X131500000Y-119000000D03*
X129500000Y-119000000D03*
%TD*%
D25*
%TO.C,R9*%
X127500000Y-93500000D03*
X129500000Y-93500000D03*
%TD*%
D24*
%TO.C,R10*%
X133250000Y-93500000D03*
X131250000Y-93500000D03*
%TD*%
D26*
%TO.C,R11*%
X140200000Y-89950000D03*
X140200000Y-87950000D03*
%TD*%
D27*
%TO.C,R12*%
X136700000Y-91600000D03*
X136700000Y-93600000D03*
%TD*%
D24*
%TO.C,R13*%
X147700000Y-95200000D03*
X145700000Y-95200000D03*
%TD*%
%TO.C,R14*%
X147700000Y-85450000D03*
X145700000Y-85450000D03*
%TD*%
D25*
%TO.C,R15*%
X149750000Y-99200000D03*
X151750000Y-99200000D03*
%TD*%
D28*
%TO.C,RESET*%
X116900000Y-111210000D03*
X116900000Y-120390000D03*
%TD*%
%TO.C,BOOT*%
X116900000Y-99110000D03*
X116900000Y-108290000D03*
%TD*%
D29*
%TO.C,U1*%
X152300000Y-122805000D03*
X152300000Y-121535000D03*
X152300000Y-120265000D03*
X152300000Y-118995000D03*
X152300000Y-117725000D03*
X152300000Y-116455000D03*
X152300000Y-115185000D03*
X152300000Y-113915000D03*
X152300000Y-112645000D03*
X152300000Y-111375000D03*
X152300000Y-110105000D03*
X152300000Y-108835000D03*
X152300000Y-107565000D03*
X152300000Y-106295000D03*
D30*
X149515000Y-105295000D03*
X148245000Y-105295000D03*
X146975000Y-105295000D03*
X145705000Y-105295000D03*
X144435000Y-105295000D03*
X143165000Y-105295000D03*
X141895000Y-105295000D03*
X140625000Y-105295000D03*
X139355000Y-105295000D03*
X138085000Y-105295000D03*
D29*
X135300000Y-106295000D03*
X135300000Y-107565000D03*
X135300000Y-108835000D03*
X135300000Y-110105000D03*
X135300000Y-111375000D03*
X135300000Y-112645000D03*
X135300000Y-113915000D03*
X135300000Y-115185000D03*
X135300000Y-116455000D03*
X135300000Y-117725000D03*
X135300000Y-118995000D03*
X135300000Y-120265000D03*
X135300000Y-121535000D03*
X135300000Y-122805000D03*
D31*
X144800000Y-115305000D03*
%TD*%
D32*
%TO.C,U2*%
X131800000Y-86862500D03*
X131300000Y-86862500D03*
X130800000Y-86862500D03*
X130300000Y-86862500D03*
X129800000Y-86862500D03*
X129300000Y-86862500D03*
D33*
X128612500Y-87550000D03*
X128612500Y-88050000D03*
X128612500Y-88550000D03*
X128612500Y-89050000D03*
X128612500Y-89550000D03*
X128612500Y-90050000D03*
D32*
X129300000Y-90737500D03*
X129800000Y-90737500D03*
X130300000Y-90737500D03*
X130800000Y-90737500D03*
X131300000Y-90737500D03*
X131800000Y-90737500D03*
D33*
X132487500Y-90050000D03*
X132487500Y-89550000D03*
X132487500Y-89050000D03*
X132487500Y-88550000D03*
X132487500Y-88050000D03*
X132487500Y-87550000D03*
D34*
X130550000Y-88800000D03*
%TD*%
D35*
%TO.C,U3*%
X138375000Y-98495000D03*
X138375000Y-99765000D03*
X138375000Y-101035000D03*
X138375000Y-102305000D03*
X143325000Y-102305000D03*
X143325000Y-101035000D03*
X143325000Y-99765000D03*
X143325000Y-98495000D03*
%TD*%
D36*
%TO.C,U4*%
X151100000Y-92650000D03*
X151100000Y-90350000D03*
D37*
X144800000Y-90350000D03*
D36*
X151100000Y-88050000D03*
%TD*%
D38*
%TO.C,H2*%
X116900000Y-129475000D03*
D39*
X116900000Y-127075000D03*
D38*
X118597056Y-128772056D03*
X116900000Y-124675000D03*
X118597056Y-125377944D03*
X115202944Y-128772056D03*
X115202944Y-125377944D03*
X114500000Y-127075000D03*
X119300000Y-127075000D03*
%TD*%
%TO.C,H4*%
X163497056Y-125377944D03*
X160102944Y-125377944D03*
X164200000Y-127075000D03*
D39*
X161800000Y-127075000D03*
D38*
X159400000Y-127075000D03*
X160102944Y-128772056D03*
X161800000Y-124675000D03*
X161800000Y-129475000D03*
X163497056Y-128772056D03*
%TD*%
D16*
%TO.C,C9*%
X124737500Y-84650000D03*
X122662500Y-84650000D03*
%TD*%
D15*
%TO.C,C4*%
X131487500Y-84700000D03*
X133562500Y-84700000D03*
%TD*%
D16*
%TO.C,C6*%
X129562500Y-84700000D03*
X127487500Y-84700000D03*
%TD*%
D26*
%TO.C,R4*%
X124000000Y-82425000D03*
X124000000Y-80425000D03*
%TD*%
D27*
%TO.C,R3*%
X136750000Y-80425000D03*
X136750000Y-82425000D03*
%TD*%
D40*
%TO.C,J3*%
X158495000Y-94150000D03*
X159765000Y-98650000D03*
X161035000Y-94150000D03*
X162305000Y-98650000D03*
%TD*%
%TO.C,J2*%
X158495000Y-83700001D03*
X159765000Y-88200001D03*
X161035000Y-83700001D03*
X162305000Y-88200001D03*
%TD*%
D38*
%TO.C,H1*%
X119300000Y-77075000D03*
X114500000Y-77075000D03*
D39*
X116900000Y-77075000D03*
D38*
X116900000Y-79475000D03*
X115202944Y-75377944D03*
X115202944Y-78772056D03*
X118597056Y-78772056D03*
X116900000Y-74675000D03*
X118597056Y-75377944D03*
%TD*%
%TO.C,H3*%
X164200000Y-77075000D03*
X161800000Y-79475000D03*
X163497056Y-75377944D03*
X160102944Y-78772056D03*
D39*
X161800000Y-77075000D03*
D38*
X159400000Y-77075000D03*
X160102944Y-75377944D03*
X161800000Y-74675000D03*
X163497056Y-78772056D03*
%TD*%
D41*
%TO.C,J1*%
X133500000Y-82175000D03*
X132650000Y-82175000D03*
X131800000Y-82175000D03*
X130950000Y-82175000D03*
X130100000Y-82175000D03*
X129250000Y-82175000D03*
X128400000Y-82175000D03*
X127550000Y-82175000D03*
X127550000Y-80825000D03*
X128400000Y-80825000D03*
X129250000Y-80825000D03*
X130100000Y-80825000D03*
X130950000Y-80825000D03*
X131800000Y-80825000D03*
X132650000Y-80825000D03*
X133500000Y-80825000D03*
D42*
X126200000Y-81195000D03*
D43*
X134850000Y-77815000D03*
X126200000Y-77815000D03*
D42*
X134850000Y-81195000D03*
%TD*%
D25*
%TO.C,R7*%
X122700000Y-88700000D03*
X124700000Y-88700000D03*
%TD*%
D24*
%TO.C,R16*%
X124700000Y-90700000D03*
X122700000Y-90700000D03*
%TD*%
%TO.C,R17*%
X124700000Y-92700000D03*
X122700000Y-92700000D03*
%TD*%
M02*
