%TF.GenerationSoftware,KiCad,Pcbnew,(6.0.2)*%
%TF.CreationDate,2022-05-29T19:06:36+02:00*%
%TF.ProjectId,PCB_ESP32_CAN,5043425f-4553-4503-9332-5f43414e2e6b,rev?*%
%TF.SameCoordinates,Original*%
%TF.FileFunction,Paste,Top*%
%TF.FilePolarity,Positive*%
%FSLAX46Y46*%
G04 Gerber Fmt 4.6, Leading zero omitted, Abs format (unit mm)*
G04 Created by KiCad (PCBNEW (6.0.2)) date 2022-05-29 19:06:36*
%MOMM*%
%LPD*%
G01*
G04 APERTURE LIST*
G04 Aperture macros list*
%AMRoundRect*
0 Rectangle with rounded corners*
0 $1 Rounding radius*
0 $2 $3 $4 $5 $6 $7 $8 $9 X,Y pos of 4 corners*
0 Add a 4 corners polygon primitive as box body*
4,1,4,$2,$3,$4,$5,$6,$7,$8,$9,$2,$3,0*
0 Add four circle primitives for the rounded corners*
1,1,$1+$1,$2,$3*
1,1,$1+$1,$4,$5*
1,1,$1+$1,$6,$7*
1,1,$1+$1,$8,$9*
0 Add four rect primitives between the rounded corners*
20,1,$1+$1,$2,$3,$4,$5,0*
20,1,$1+$1,$4,$5,$6,$7,0*
20,1,$1+$1,$6,$7,$8,$9,0*
20,1,$1+$1,$8,$9,$2,$3,0*%
G04 Aperture macros list end*
%ADD10RoundRect,0.250000X-0.337500X-0.475000X0.337500X-0.475000X0.337500X0.475000X-0.337500X0.475000X0*%
%ADD11RoundRect,0.250000X0.337500X0.475000X-0.337500X0.475000X-0.337500X-0.475000X0.337500X-0.475000X0*%
%ADD12RoundRect,0.250000X0.475000X-0.337500X0.475000X0.337500X-0.475000X0.337500X-0.475000X-0.337500X0*%
%ADD13RoundRect,0.250000X-0.475000X0.337500X-0.475000X-0.337500X0.475000X-0.337500X0.475000X0.337500X0*%
%ADD14RoundRect,0.250000X0.325000X0.450000X-0.325000X0.450000X-0.325000X-0.450000X0.325000X-0.450000X0*%
%ADD15RoundRect,0.250000X-0.325000X-0.450000X0.325000X-0.450000X0.325000X0.450000X-0.325000X0.450000X0*%
%ADD16R,0.900000X0.800000*%
%ADD17RoundRect,0.250000X0.350000X0.450000X-0.350000X0.450000X-0.350000X-0.450000X0.350000X-0.450000X0*%
%ADD18RoundRect,0.250000X-0.350000X-0.450000X0.350000X-0.450000X0.350000X0.450000X-0.350000X0.450000X0*%
%ADD19RoundRect,0.250000X0.450000X-0.350000X0.450000X0.350000X-0.450000X0.350000X-0.450000X-0.350000X0*%
%ADD20RoundRect,0.250000X-0.450000X0.350000X-0.450000X-0.350000X0.450000X-0.350000X0.450000X0.350000X0*%
%ADD21R,1.600000X2.180000*%
%ADD22R,2.000000X0.900000*%
%ADD23R,0.900000X2.000000*%
%ADD24R,5.000000X5.000000*%
%ADD25RoundRect,0.250000X-0.275000X0.275000X-0.275000X-0.275000X0.275000X-0.275000X0.275000X0.275000X0*%
%ADD26RoundRect,0.062500X-0.062500X0.350000X-0.062500X-0.350000X0.062500X-0.350000X0.062500X0.350000X0*%
%ADD27RoundRect,0.062500X-0.350000X0.062500X-0.350000X-0.062500X0.350000X-0.062500X0.350000X0.062500X0*%
%ADD28RoundRect,0.150000X-0.825000X-0.150000X0.825000X-0.150000X0.825000X0.150000X-0.825000X0.150000X0*%
%ADD29R,2.000000X1.500000*%
%ADD30R,2.000000X3.800000*%
%ADD31R,1.500000X3.000000*%
G04 APERTURE END LIST*
D10*
%TO.C,C1*%
X119862500Y-117700000D03*
X121937500Y-117700000D03*
%TD*%
D11*
%TO.C,C2*%
X157125000Y-116900000D03*
X155050000Y-116900000D03*
%TD*%
D10*
%TO.C,C3*%
X155012500Y-118900000D03*
X157087500Y-118900000D03*
%TD*%
%TO.C,C5*%
X155012500Y-120900000D03*
X157087500Y-120900000D03*
%TD*%
D11*
%TO.C,C7*%
X124737500Y-98850000D03*
X122662500Y-98850000D03*
%TD*%
%TO.C,C8*%
X124737500Y-96800000D03*
X122662500Y-96800000D03*
%TD*%
%TO.C,C10*%
X124737500Y-94700000D03*
X122662500Y-94700000D03*
%TD*%
%TO.C,C11*%
X124737500Y-86700000D03*
X122662500Y-86700000D03*
%TD*%
D10*
%TO.C,C12*%
X119862500Y-102000000D03*
X121937500Y-102000000D03*
%TD*%
D12*
%TO.C,C13*%
X153700000Y-89237500D03*
X153700000Y-87162500D03*
%TD*%
D13*
%TO.C,C14*%
X153700000Y-91075000D03*
X153700000Y-93150000D03*
%TD*%
D12*
%TO.C,C15*%
X136150000Y-101337500D03*
X136150000Y-99262500D03*
%TD*%
D14*
%TO.C,TX*%
X129525000Y-95500000D03*
X127475000Y-95500000D03*
%TD*%
D15*
%TO.C,RX*%
X131225000Y-95500000D03*
X133275000Y-95500000D03*
%TD*%
%TO.C,3V3*%
X149400000Y-95200000D03*
X151450000Y-95200000D03*
%TD*%
%TO.C,5V*%
X149425000Y-85450000D03*
X151475000Y-85450000D03*
%TD*%
D16*
%TO.C,D5*%
X147485000Y-101350000D03*
X147485000Y-99450000D03*
X145485000Y-100400000D03*
%TD*%
%TO.C,Q1*%
X138450000Y-89914999D03*
X138450000Y-88014999D03*
X136450000Y-88964999D03*
%TD*%
%TO.C,Q2*%
X138450000Y-91650000D03*
X138450000Y-93550000D03*
X140450000Y-92600000D03*
%TD*%
D17*
%TO.C,R1*%
X121900000Y-115700000D03*
X119900000Y-115700000D03*
%TD*%
D18*
%TO.C,R2*%
X119900000Y-113700000D03*
X121900000Y-113700000D03*
%TD*%
%TO.C,R5*%
X119900000Y-106000000D03*
X121900000Y-106000000D03*
%TD*%
D17*
%TO.C,R6*%
X121900000Y-104000000D03*
X119900000Y-104000000D03*
%TD*%
%TO.C,R8*%
X131500000Y-119000000D03*
X129500000Y-119000000D03*
%TD*%
D18*
%TO.C,R9*%
X127500000Y-93500000D03*
X129500000Y-93500000D03*
%TD*%
D17*
%TO.C,R10*%
X133250000Y-93500000D03*
X131250000Y-93500000D03*
%TD*%
D19*
%TO.C,R11*%
X140200000Y-89950000D03*
X140200000Y-87950000D03*
%TD*%
D20*
%TO.C,R12*%
X136700000Y-91600000D03*
X136700000Y-93600000D03*
%TD*%
D17*
%TO.C,R13*%
X147700000Y-95200000D03*
X145700000Y-95200000D03*
%TD*%
%TO.C,R14*%
X147700000Y-85450000D03*
X145700000Y-85450000D03*
%TD*%
D18*
%TO.C,R15*%
X149750000Y-99200000D03*
X151750000Y-99200000D03*
%TD*%
D21*
%TO.C,RESET*%
X116900000Y-111210000D03*
X116900000Y-120390000D03*
%TD*%
%TO.C,BOOT*%
X116900000Y-99110000D03*
X116900000Y-108290000D03*
%TD*%
D22*
%TO.C,U1*%
X152300000Y-122805000D03*
X152300000Y-121535000D03*
X152300000Y-120265000D03*
X152300000Y-118995000D03*
X152300000Y-117725000D03*
X152300000Y-116455000D03*
X152300000Y-115185000D03*
X152300000Y-113915000D03*
X152300000Y-112645000D03*
X152300000Y-111375000D03*
X152300000Y-110105000D03*
X152300000Y-108835000D03*
X152300000Y-107565000D03*
X152300000Y-106295000D03*
D23*
X149515000Y-105295000D03*
X148245000Y-105295000D03*
X146975000Y-105295000D03*
X145705000Y-105295000D03*
X144435000Y-105295000D03*
X143165000Y-105295000D03*
X141895000Y-105295000D03*
X140625000Y-105295000D03*
X139355000Y-105295000D03*
X138085000Y-105295000D03*
D22*
X135300000Y-106295000D03*
X135300000Y-107565000D03*
X135300000Y-108835000D03*
X135300000Y-110105000D03*
X135300000Y-111375000D03*
X135300000Y-112645000D03*
X135300000Y-113915000D03*
X135300000Y-115185000D03*
X135300000Y-116455000D03*
X135300000Y-117725000D03*
X135300000Y-118995000D03*
X135300000Y-120265000D03*
X135300000Y-121535000D03*
X135300000Y-122805000D03*
D24*
X144800000Y-115305000D03*
%TD*%
D25*
%TO.C,U2*%
X131200000Y-89450000D03*
X129900000Y-88150000D03*
X129900000Y-89450000D03*
X131200000Y-88150000D03*
D26*
X131800000Y-86862500D03*
X131300000Y-86862500D03*
X130800000Y-86862500D03*
X130300000Y-86862500D03*
X129800000Y-86862500D03*
X129300000Y-86862500D03*
D27*
X128612500Y-87550000D03*
X128612500Y-88050000D03*
X128612500Y-88550000D03*
X128612500Y-89050000D03*
X128612500Y-89550000D03*
X128612500Y-90050000D03*
D26*
X129300000Y-90737500D03*
X129800000Y-90737500D03*
X130300000Y-90737500D03*
X130800000Y-90737500D03*
X131300000Y-90737500D03*
X131800000Y-90737500D03*
D27*
X132487500Y-90050000D03*
X132487500Y-89550000D03*
X132487500Y-89050000D03*
X132487500Y-88550000D03*
X132487500Y-88050000D03*
X132487500Y-87550000D03*
%TD*%
D28*
%TO.C,U3*%
X138375000Y-98495000D03*
X138375000Y-99765000D03*
X138375000Y-101035000D03*
X138375000Y-102305000D03*
X143325000Y-102305000D03*
X143325000Y-101035000D03*
X143325000Y-99765000D03*
X143325000Y-98495000D03*
%TD*%
D29*
%TO.C,U4*%
X151100000Y-92650000D03*
X151100000Y-90350000D03*
D30*
X144800000Y-90350000D03*
D29*
X151100000Y-88050000D03*
%TD*%
D11*
%TO.C,C9*%
X124737500Y-84650000D03*
X122662500Y-84650000D03*
%TD*%
D10*
%TO.C,C4*%
X131487500Y-84700000D03*
X133562500Y-84700000D03*
%TD*%
D11*
%TO.C,C6*%
X129562500Y-84700000D03*
X127487500Y-84700000D03*
%TD*%
D19*
%TO.C,R4*%
X124000000Y-82425000D03*
X124000000Y-80425000D03*
%TD*%
D20*
%TO.C,R3*%
X136750000Y-80425000D03*
X136750000Y-82425000D03*
%TD*%
D31*
%TO.C,J3*%
X158495000Y-94150000D03*
X159765000Y-98650000D03*
X161035000Y-94150000D03*
X162305000Y-98650000D03*
%TD*%
%TO.C,J2*%
X158495000Y-83700001D03*
X159765000Y-88200001D03*
X161035000Y-83700001D03*
X162305000Y-88200001D03*
%TD*%
D18*
%TO.C,R7*%
X122700000Y-88700000D03*
X124700000Y-88700000D03*
%TD*%
D17*
%TO.C,R16*%
X124700000Y-90700000D03*
X122700000Y-90700000D03*
%TD*%
%TO.C,R17*%
X124700000Y-92700000D03*
X122700000Y-92700000D03*
%TD*%
M02*
