%TF.GenerationSoftware,KiCad,Pcbnew,(6.0.2)*%
%TF.CreationDate,2022-05-29T19:06:36+02:00*%
%TF.ProjectId,PCB_ESP32_CAN,5043425f-4553-4503-9332-5f43414e2e6b,rev?*%
%TF.SameCoordinates,Original*%
%TF.FileFunction,Legend,Bot*%
%TF.FilePolarity,Positive*%
%FSLAX46Y46*%
G04 Gerber Fmt 4.6, Leading zero omitted, Abs format (unit mm)*
G04 Created by KiCad (PCBNEW (6.0.2)) date 2022-05-29 19:06:36*
%MOMM*%
%LPD*%
G01*
G04 APERTURE LIST*
%ADD10R,1.700000X1.700000*%
%ADD11O,1.700000X1.700000*%
%ADD12C,0.800000*%
%ADD13C,6.400000*%
%ADD14C,0.700000*%
%ADD15O,0.900000X2.400000*%
%ADD16O,0.900000X1.700000*%
G04 APERTURE END LIST*
%LPC*%
D10*
%TO.C,120*%
X152540000Y-101700000D03*
D11*
X150000000Y-101700000D03*
%TD*%
D12*
%TO.C,H2*%
X116900000Y-129475000D03*
D13*
X116900000Y-127075000D03*
D12*
X118597056Y-128772056D03*
X116900000Y-124675000D03*
X118597056Y-125377944D03*
X115202944Y-128772056D03*
X115202944Y-125377944D03*
X114500000Y-127075000D03*
X119300000Y-127075000D03*
%TD*%
%TO.C,H4*%
X163497056Y-125377944D03*
X160102944Y-125377944D03*
X164200000Y-127075000D03*
D13*
X161800000Y-127075000D03*
D12*
X159400000Y-127075000D03*
X160102944Y-128772056D03*
X161800000Y-124675000D03*
X161800000Y-129475000D03*
X163497056Y-128772056D03*
%TD*%
%TO.C,H1*%
X119300000Y-77075000D03*
X114500000Y-77075000D03*
D13*
X116900000Y-77075000D03*
D12*
X116900000Y-79475000D03*
X115202944Y-75377944D03*
X115202944Y-78772056D03*
X118597056Y-78772056D03*
X116900000Y-74675000D03*
X118597056Y-75377944D03*
%TD*%
%TO.C,H3*%
X164200000Y-77075000D03*
X161800000Y-79475000D03*
X163497056Y-75377944D03*
X160102944Y-78772056D03*
D13*
X161800000Y-77075000D03*
D12*
X159400000Y-77075000D03*
X160102944Y-75377944D03*
X161800000Y-74675000D03*
X163497056Y-78772056D03*
%TD*%
D14*
%TO.C,J1*%
X133500000Y-82175000D03*
X132650000Y-82175000D03*
X131800000Y-82175000D03*
X130950000Y-82175000D03*
X130100000Y-82175000D03*
X129250000Y-82175000D03*
X128400000Y-82175000D03*
X127550000Y-82175000D03*
X127550000Y-80825000D03*
X128400000Y-80825000D03*
X129250000Y-80825000D03*
X130100000Y-80825000D03*
X130950000Y-80825000D03*
X131800000Y-80825000D03*
X132650000Y-80825000D03*
X133500000Y-80825000D03*
D15*
X126200000Y-81195000D03*
D16*
X134850000Y-77815000D03*
X126200000Y-77815000D03*
D15*
X134850000Y-81195000D03*
%TD*%
M02*
